<svg viewBox="0 0 330 200" xmlns="http://www.w3.org/2000/svg"><g><g><g><g><g><line x1="41.171875" y1="177" x2="36.171875" y2="177" style="visibility: inherit;" fill="rgb(0, 0, 0)" stroke="rgb(204, 204, 204)" stroke-width="1px"></line><line x1="41.171875" y1="154.875" x2="36.171875" y2="154.875" style="visibility: inherit;" fill="rgb(0, 0, 0)" stroke="rgb(204, 204, 204)" stroke-width="1px"></line><line x1="41.171875" y1="132.75" x2="36.171875" y2="132.75" style="visibility: inherit;" fill="rgb(0, 0, 0)" stroke="rgb(204, 204, 204)" stroke-width="1px"></line><line x1="41.171875" y1="110.625" x2="36.171875" y2="110.625" style="visibility: inherit;" fill="rgb(0, 0, 0)" stroke="rgb(204, 204, 204)" stroke-width="1px"></line><line x1="41.171875" y1="88.5" x2="36.171875" y2="88.5" style="visibility: inherit;" fill="rgb(0, 0, 0)" stroke="rgb(204, 204, 204)" stroke-width="1px"></line><line x1="41.171875" y1="66.375" x2="36.171875" y2="66.375" style="visibility: inherit;" fill="rgb(0, 0, 0)" stroke="rgb(204, 204, 204)" stroke-width="1px"></line><line x1="41.171875" y1="44.25000000000002" x2="36.171875" y2="44.25000000000002" style="visibility: inherit;" fill="rgb(0, 0, 0)" stroke="rgb(204, 204, 204)" stroke-width="1px"></line><line x1="41.171875" y1="22.12500000000002" x2="36.171875" y2="22.12500000000002" style="visibility: inherit;" fill="rgb(0, 0, 0)" stroke="rgb(204, 204, 204)" stroke-width="1px"></line><line x1="41.171875" y1="0" x2="36.171875" y2="0" style="visibility: inherit;" fill="rgb(0, 0, 0)" stroke="rgb(204, 204, 204)" stroke-width="1px"></line></g><g transform="translate(31.171875, 0)"><text x="0" y="177" dx="0em" dy="0.3em" style="text-anchor: end; visibility: hidden; font-family: Roboto, sans-serif; font-size: 12px; font-weight: 200;" fill="rgb(33, 33, 33)" stroke="none" stroke-width="1px">0</text><text x="0" y="154.875" dx="0em" dy="0.3em" style="text-anchor: end; visibility: inherit; font-family: Roboto, sans-serif; font-size: 12px; font-weight: 200;" fill="rgb(33, 33, 33)" stroke="none" stroke-width="1px">0.1</text><text x="0" y="132.75" dx="0em" dy="0.3em" style="text-anchor: end; visibility: hidden; font-family: Roboto, sans-serif; font-size: 12px; font-weight: 200;" fill="rgb(33, 33, 33)" stroke="none" stroke-width="1px">0.2</text><text x="0" y="110.625" dx="0em" dy="0.3em" style="text-anchor: end; visibility: inherit; font-family: Roboto, sans-serif; font-size: 12px; font-weight: 200;" fill="rgb(33, 33, 33)" stroke="none" stroke-width="1px">0.3</text><text x="0" y="88.5" dx="0em" dy="0.3em" style="text-anchor: end; visibility: hidden; font-family: Roboto, sans-serif; font-size: 12px; font-weight: 200;" fill="rgb(33, 33, 33)" stroke="none" stroke-width="1px">0.4</text><text x="0" y="66.375" dx="0em" dy="0.3em" style="text-anchor: end; visibility: inherit; font-family: Roboto, sans-serif; font-size: 12px; font-weight: 200;" fill="rgb(33, 33, 33)" stroke="none" stroke-width="1px">0.5</text><text x="0" y="44.25000000000002" dx="0em" dy="0.3em" style="text-anchor: end; visibility: hidden; font-family: Roboto, sans-serif; font-size: 12px; font-weight: 200;" fill="rgb(33, 33, 33)" stroke="none" stroke-width="1px">0.6</text><text x="0" y="22.12500000000002" dx="0em" dy="0.3em" style="text-anchor: end; visibility: inherit; font-family: Roboto, sans-serif; font-size: 12px; font-weight: 200;" fill="rgb(33, 33, 33)" stroke="none" stroke-width="1px">0.7</text><text x="0" y="0" dx="0em" dy="0.3em" style="text-anchor: end; visibility: hidden; font-family: Roboto, sans-serif; font-size: 12px; font-weight: 200;" fill="rgb(33, 33, 33)" stroke="none" stroke-width="1px">0.8</text></g><line x1="41.171875" y1="0" x2="41.171875" y2="177" fill="rgb(0, 0, 0)" stroke="rgb(204, 204, 204)" stroke-width="1px"></line></g></g><g transform="translate(41, 0)" clip-path="url(#clip_0)"><clipPath id="clip_0"><rect width="288" height="176"></rect></clipPath><g><g><g><line x1="0" y1="0" x2="0" y2="177" fill="rgb(0, 0, 0)" stroke="rgb(66, 66, 66)" stroke-width="1px" opacity="0.25"></line><line x1="20.630580357142858" y1="0" x2="20.630580357142858" y2="177" fill="rgb(0, 0, 0)" stroke="rgb(66, 66, 66)" stroke-width="1px" opacity="0.25"></line><line x1="41.261160714285715" y1="0" x2="41.261160714285715" y2="177" fill="rgb(0, 0, 0)" stroke="rgb(66, 66, 66)" stroke-width="1px" opacity="0.25"></line><line x1="61.89174107142857" y1="0" x2="61.89174107142857" y2="177" fill="rgb(0, 0, 0)" stroke="rgb(66, 66, 66)" stroke-width="1px" opacity="0.25"></line><line x1="82.52232142857143" y1="0" x2="82.52232142857143" y2="177" fill="rgb(0, 0, 0)" stroke="rgb(66, 66, 66)" stroke-width="1px" opacity="0.25"></line><line x1="103.15290178571429" y1="0" x2="103.15290178571429" y2="177" fill="rgb(0, 0, 0)" stroke="rgb(66, 66, 66)" stroke-width="1px" opacity="0.25"></line><line x1="123.78348214285714" y1="0" x2="123.78348214285714" y2="177" fill="rgb(0, 0, 0)" stroke="rgb(66, 66, 66)" stroke-width="1px" opacity="0.25"></line><line x1="144.4140625" y1="0" x2="144.4140625" y2="177" fill="rgb(0, 0, 0)" stroke="rgb(66, 66, 66)" stroke-width="1px" opacity="0.25"></line><line x1="165.04464285714286" y1="0" x2="165.04464285714286" y2="177" fill="rgb(0, 0, 0)" stroke="rgb(66, 66, 66)" stroke-width="1px" opacity="0.25"></line><line x1="185.67522321428572" y1="0" x2="185.67522321428572" y2="177" fill="rgb(0, 0, 0)" stroke="rgb(66, 66, 66)" stroke-width="1px" opacity="0.25"></line><line x1="206.30580357142858" y1="0" x2="206.30580357142858" y2="177" fill="rgb(0, 0, 0)" stroke="rgb(66, 66, 66)" stroke-width="1px" opacity="0.25"></line><line x1="226.93638392857142" y1="0" x2="226.93638392857142" y2="177" fill="rgb(0, 0, 0)" stroke="rgb(66, 66, 66)" stroke-width="1px" opacity="0.25"></line><line x1="247.56696428571428" y1="0" x2="247.56696428571428" y2="177" fill="rgb(0, 0, 0)" stroke="rgb(66, 66, 66)" stroke-width="1px" opacity="0.25"></line><line x1="268.19754464285717" y1="0" x2="268.19754464285717" y2="177" fill="rgb(0, 0, 0)" stroke="rgb(66, 66, 66)" stroke-width="1px" opacity="0.25"></line><line x1="288.828125" y1="0" x2="288.828125" y2="177" fill="rgb(0, 0, 0)" stroke="rgb(66, 66, 66)" stroke-width="1px" opacity="0.25"></line></g><g><line x1="0" y1="177" x2="288.828125" y2="177" fill="rgb(0, 0, 0)" stroke="rgb(66, 66, 66)" stroke-width="1px" opacity="0.25"></line><line x1="0" y1="154.875" x2="288.828125" y2="154.875" fill="rgb(0, 0, 0)" stroke="rgb(66, 66, 66)" stroke-width="1px" opacity="0.25"></line><line x1="0" y1="132.75" x2="288.828125" y2="132.75" fill="rgb(0, 0, 0)" stroke="rgb(66, 66, 66)" stroke-width="1px" opacity="0.25"></line><line x1="0" y1="110.625" x2="288.828125" y2="110.625" fill="rgb(0, 0, 0)" stroke="rgb(66, 66, 66)" stroke-width="1px" opacity="0.25"></line><line x1="0" y1="88.5" x2="288.828125" y2="88.5" fill="rgb(0, 0, 0)" stroke="rgb(66, 66, 66)" stroke-width="1px" opacity="0.25"></line><line x1="0" y1="66.375" x2="288.828125" y2="66.375" fill="rgb(0, 0, 0)" stroke="rgb(66, 66, 66)" stroke-width="1px" opacity="0.25"></line><line x1="0" y1="44.25000000000002" x2="288.828125" y2="44.25000000000002" fill="rgb(0, 0, 0)" stroke="rgb(66, 66, 66)" stroke-width="1px" opacity="0.25"></line><line x1="0" y1="22.12500000000002" x2="288.828125" y2="22.12500000000002" fill="rgb(0, 0, 0)" stroke="rgb(66, 66, 66)" stroke-width="1px" opacity="0.25"></line><line x1="0" y1="0" x2="288.828125" y2="0" fill="rgb(0, 0, 0)" stroke="rgb(66, 66, 66)" stroke-width="1px" opacity="0.25"></line></g></g></g><g><g><line x1="0" y1="177" x2="288.828125" y2="177" fill="rgb(0, 0, 0)" stroke="rgb(153, 153, 153)" stroke-width="1.5px"></line></g></g><g><g><line x1="20.630580357142858" y1="0" x2="20.630580357142858" y2="177" fill="rgb(0, 0, 0)" stroke="rgb(153, 153, 153)" stroke-width="1.5px"></line></g></g><g><g><g><g><g><path stroke="rgb(255, 112, 67)" stroke-width="2px" d="M21.662109375,13.119068562984467L22.693638392857142,26.90420551970601L23.725167410714285,46.313082232767215L24.756696428571427,62.59077714665739L25.788225446428573,77.18930726285862L26.819754464285715,88.16964907281871L27.851283482142858,98.00792849028493L28.8828125,104.95454718523175L29.914341517857146,110.82063519174078L30.945870535714285,112.27641778185871L31.977399553571427,116.35802621471487L33.00892857142857,116.88936292433745L34.040457589285715,118.018112368794L35.071986607142854,121.96675048488623L36.103515625,122.6028923129958L37.13504464285714,123.32630838101853L38.166573660714285,122.68774292035062L39.19810267857142,125.63988805155242L40.22963169642857,126.6344503304868L41.261160714285715,129.29109758187417L42.29268973214286,129.6808085939004L43.32421875,129.5104227304654L44.355747767857146,130.88192237059428L45.387276785714285,132.8382556266392L46.41880580357143,133.32698596944317L47.45033482142857,133.12860592249507L48.48186383928571,133.58652248635164L49.513392857142854,134.30146679320035L50.544921875,136.40234319363503L51.576450892857146,135.33987315945268L52.607979910714285,136.689071494207L53.63950892857143,137.68536403083465L54.67103794642857,138.76765456631412L55.702566964285715,138.18231621099105L56.734095982142854,128.3110711171789L57.765625,130.26477691278734L58.797154017857146,132.04634328392535L59.82868303571429,135.97934904788457L60.86021205357143,138.19029695940574L61.89174107142857,139.6232692702051L62.923270089285715,140.68096975193433L63.954799107142854,142.05406653324886L64.986328125,142.52818081803971L66.01785714285714,143.46300550284997L67.04938616071429,144.1580636262604L68.08091517857143,144.60314705283486L69.11244419642857,144.97544808574546L70.14397321428571,145.57794506931484L71.17550223214286,145.57398258050782L72.20703125,145.9531954312385L73.23856026785714,146.38003152216052L74.27008928571428,145.96682790431007L75.30161830357143,145.68025572754468L76.33314732142857,145.7521353015753L77.36467633928571,145.84198118146975L78.39620535714285,146.2750604608461L79.427734375,146.49912367217573L80.45926339285714,146.9552634236386L81.49079241071429,147.65457868588996L82.52232142857143,148.36511239715242L83.55385044642858,148.7371052849759L84.58537946428572,149.33162882765947L85.61690848214286,150.01124418357503L86.6484375,150.43835356580908L87.67996651785714,150.83245127795752L88.71149553571429,151.12298404364952L89.74302455357143,151.4462739717315L90.77455357142857,151.6997434596032L91.80608258928571,151.8207474246508L92.83761160714286,152.10281323983585L93.869140625,152.22385033723305L94.90066964285714,152.3228760041689L95.93219866071428,152.48194889145466L96.96372767857142,152.7434407408081L97.99525669642857,152.95565225392832L99.02678571428571,153.1460425784305L100.05831473214286,153.31853663281294L101.08984375,153.48954859140926L102.12137276785715,153.66568018951068L103.15290178571429,153.77112441037923L104.18443080357143,153.96711417749424L105.21595982142857,154.14824488663612L106.24748883928572,154.22037407922113L107.27901785714286,154.37105213875986L108.310546875,154.58041508957993L109.34207589285714,154.77120496237427L110.37360491071428,154.8272706666836L111.40513392857143,154.92840121830994L112.43666294642857,155.05427868601976L113.46819196428571,155.23153309561192L114.49972098214285,155.3433691153668L115.53125,155.55196168957607L116.56277901785714,155.64677075483476L117.59430803571429,155.6951456230168L118.62583705357143,155.74626756526735L119.65736607142858,129.0583648283345L120.68889508928572,128.18369695836677L121.72042410714286,128.06156948086246L122.751953125,131.06083000675812L123.78348214285714,135.5233912570833L124.81501116071429,139.65448895565024L125.84654017857143,142.46020485443682L126.87806919642857,143.73030430813319L127.90959821428571,145.31577078842932L128.94112723214286,145.37797657456287L129.97265625,147.00803424898558L131.00418526785714,148.19388450821504L132.03571428571428,148.59558271402278L133.06724330357142,149.21620725860691L134.09877232142858,149.11457476628124L135.13030133928572,150.30062898613392L136.16183035714286,150.96846771682726L137.193359375,151.73890966815011L138.22488839285714,151.19757101546082L139.25641741071428,152.03299331954332L140.28794642857142,152.80696609268315L141.31947544642856,152.91627029940324L142.35100446428572,153.89323758476874L143.38253348214286,153.96926174547613L144.4140625,154.27288296736086L145.44559151785714,154.5497368740547L146.47712053571428,153.8313874538248L147.50864955357142,154.06836432132155L148.54017857142856,154.5515766101362L149.57170758928572,155.00172519131195L150.60323660714286,154.38273100670392L151.634765625,155.12955903480182L152.66629464285714,155.71098439377386L153.69782366071428,156.18704452280303L154.72935267857142,156.52591535248817L155.76088169642856,157.0109649817554L156.7924107142857,157.3796501752977L157.82393973214283,157.65935127346185L158.85546875,157.9201453210918L159.88699776785714,158.19436659035134L160.91852678571428,158.38160959328442L161.95005580357142,158.53053364050527L162.98158482142858,158.74383764128171L164.01311383928572,158.86950299313833L165.04464285714286,159.01251136166553L166.076171875,159.2179318742615L167.10770089285717,158.8916681797303L168.1392299107143,159.13589995449763L169.17075892857144,159.39110754413L170.20228794642858,159.54141128574366L171.23381696428572,159.7191811331484L172.26534598214286,159.84426535835107L173.296875,159.8510895597651L174.32840401785714,159.98855811969725L175.35993303571428,160.095194850065L176.39146205357144,160.16027870622142L177.42299107142858,160.33297670019783L178.45452008928572,160.4527943961806L179.48604910714286,160.51363188746495L180.517578125,160.66250068976237L181.54910714285714,160.7017364004776L182.58063616071428,160.8155490912214L183.61216517857142,160.92763907877892L184.64369419642856,160.91545799847418L185.67522321428572,161.06168250352724L186.70675223214286,161.13433529055467L187.73828125,161.2919773175797L188.76981026785714,161.3605870605696L189.80133928571428,161.48227529085807L190.83286830357142,161.5605691744812L191.86439732142856,161.60855369114446L192.8959263392857,161.73798304032425L193.92745535714283,144.4119898482033L194.958984375,143.30324476533346L195.99051339285714,145.3485001687599L197.02204241071428,146.73439168121772L198.05357142857142,149.4367791559479L199.08510044642858,149.94065373144636L200.11662946428572,152.24377171025927L201.14815848214286,154.037858896412L202.1796875,155.51393879306764L203.21121651785717,156.18983976305992L204.2427455357143,157.3473694377331L205.27427455357144,158.00797024015716L206.30580357142858,158.39479020472842L207.33733258928572,158.83542710832643L208.36886160714286,159.4344618866854L209.400390625,159.81918895989736L210.43191964285714,160.20806123837875L211.46344866071428,160.59676862821013L212.49497767857144,160.8849329617025L213.52650669642858,161.11011153706323L214.55803571428572,161.47180084808713L215.58956473214286,161.6545288409236L216.62109375,161.82672331156985L217.65262276785714,161.87395607633982L218.68415178571428,162.00081250118373L219.71568080357142,162.12579537732694L220.74720982142856,162.3044515985447L221.77873883928572,162.5114623874842L222.81026785714286,162.60729062008372L223.841796875,162.71752448274202L224.87332589285714,162.79572017874423L225.90485491071428,162.90347363955442L226.93638392857142,162.98523323629297L227.96791294642856,163.099355266729L228.9994419642857,163.14594015627443L230.03097098214283,163.19220526903473L231.0625,163.29435287238422L232.09402901785714,163.34615103011586L233.12555803571428,163.46664268101904L234.15708705357142,163.5193808977345L235.18861607142858,163.62687914622063L236.22014508928572,163.70828285732708L237.25167410714286,163.7121628678223L238.283203125,163.80706632920388L239.31473214285717,163.87458645165432L240.3462611607143,163.95600557653887L241.37779017857144,164.0490250487851L242.40931919642858,164.0274740792648L243.44084821428572,164.10310829578853L244.47237723214286,164.1297493489028L245.50390625,164.21826835007613L246.53543526785714,164.31400447767166L247.56696428571428,164.39755383241885L248.59849330357144,164.4288397869987L249.63002232142858,164.42978610830144L250.66155133928572,164.48012231170617L251.69308035714286,164.5706045523553L252.724609375,164.6300732982319L253.75613839285714,164.68584871133635L254.78766741071428,164.71270700784305L255.81919642857142,164.7923215798544L256.85072544642856,164.8530783893619L257.8822544642857,163.81519108292187L258.9137834821429,155.51506978885368L259.9453125,156.47499970713875L260.97684151785717,156.62138845097792L262.0083705357143,158.93188123671277L263.03989955357144,160.59090223323145L264.07142857142856,161.9230778014561L265.1029575892857,162.62068587442639L266.13448660714283,163.33687970020117L267.166015625,163.75576277138438L268.19754464285717,164.17152229174462L269.2290736607143,164.3509743212133L270.26060267857144,164.5982407941502L271.29213169642856,164.78463185923286L272.3236607142857,164.93345619460635L273.35518973214283,165.0089876325917L274.38671875,165.04543128927L275.41824776785717,165.12121600885362L276.4497767857143,165.23833896430833L277.48130580357144,165.2811483924836" style="fill: none;" fill="none"></path></g></g></g></g><g opacity="0.2"><g><g><g><path stroke="rgb(255, 112, 67)" stroke-width="2px" d="M21.662109375,13.119068562984467L22.693638392857142,35.17528769373894L23.725167410714285,64.94560387730598L24.756696428571427,81.73334636539221L25.788225446428573,96.24914818257093L26.819754464285715,103.35941471904516L27.851283482142858,112.07682546973228L28.8828125,115.08278393000364L29.914341517857146,119.47197557240725L30.945870535714285,114.43808526545763L31.977399553571427,122.44341897591949L33.00892857142857,117.6834764778614L34.040457589285715,119.70755097270012L35.071986607142854,127.88197186589241L36.103515625,123.55635729432106L37.13504464285714,124.41092227399349L38.166573660714285,121.73016494885087L39.19810267857142,130.0673561990261L40.22963169642857,128.12614223733544L41.261160714285715,133.27582563087344L42.29268973214286,130.26535373926163L43.32421875,129.25484954193234L44.355747767857146,132.93914475291967L45.387276785714285,135.7727323360741L46.41880580357143,134.06007800996304L47.45033482142857,132.83103669807315L48.48186383928571,134.27339616045356L49.513392857142854,135.37388215586543L50.544921875,139.55365585908294L51.576450892857146,133.74616869539022L52.607979910714285,138.7128685489297L53.63950892857143,139.17980263754725L54.67103794642857,140.3910902403295L55.702566964285715,137.30430871993303L56.734095982142854,113.50420390069485L57.765625,133.19533555582166L58.797154017857146,134.71869281306863L59.82868303571429,141.87885765731335L60.86021205357143,141.50671881437302L61.89174107142857,141.7727277316153L62.923270089285715,142.26752047240734L63.954799107142854,144.1137117035687L64.986328125,143.23935224488378L66.01785714285714,144.86524252966046L67.04938616071429,145.20065081119537L68.08091517857143,145.2707721926272L69.11244419642857,145.53389963507652L70.14397321428571,146.48169054463506L71.17550223214286,145.56803884729743L72.20703125,146.5220147073269L73.23856026785714,147.02028565853834L74.27008928571428,145.3470224775374L75.30161830357143,145.2503974623978L76.33314732142857,145.85995466262102L77.36467633928571,145.9767500013113L78.39620535714285,146.92467937991023L79.427734375,146.83521848917007L80.45926339285714,147.63947305083275L81.49079241071429,148.7035515792668L82.52232142857143,149.430912964046L83.55385044642858,149.29509461671114L84.58537946428572,150.22341414168477L85.61690848214286,151.03066721744835L86.6484375,151.07901763916016L87.67996651785714,151.4235978461802L88.71149553571429,151.55878319218755L89.74302455357143,151.9312088638544L90.77455357142857,152.07994769141078L91.80608258928571,152.00225337222219L92.83761160714286,152.52591196261346L93.869140625,152.40540598332882L94.90066964285714,152.47141450457275L95.93219866071428,152.72055822238326L96.96372767857142,153.13567851483822L97.99525669642857,153.27396952360868L99.02678571428571,153.43162806518376L100.05831473214286,153.57727771438658L101.08984375,153.7460665293038L102.12137276785715,153.92987758666277L103.15290178571429,153.92929074168205L104.18443080357143,154.26109882816672L105.21595982142857,154.41994095034897L106.24748883928572,154.32856786809862L107.27901785714286,154.597069228068L108.310546875,154.89445951581L109.34207589285714,155.0573897715658L110.37360491071428,154.91136922314763L111.40513392857143,155.08009704574943L112.43666294642857,155.24309488758445L113.46819196428571,155.49741471000016L114.49972098214285,155.51112314499915L115.53125,155.86485055088997L116.56277901785714,155.78898435272276L117.59430803571429,155.76770792528987L118.62583705357143,155.82295047864318L119.65736607142858,89.0265107229352L120.68889508928572,126.8716951534152L121.72042410714286,127.878378264606L122.751953125,135.5597207956016L123.78348214285714,142.21723313257098L124.81501116071429,145.8511355035007L125.84654017857143,146.6687787026167L126.87806919642857,145.63545348867774L127.90959821428571,147.69397050887346L128.94112723214286,145.4712852537632L129.97265625,149.45312076061964L131.00418526785714,149.9726598970592L132.03571428571428,149.1981300227344L133.06724330357142,150.14714407548308L134.09877232142858,148.9621260277927L135.13030133928572,152.07971031591296L136.16183035714286,151.97022581286728L137.193359375,152.89457259513438L138.22488839285714,150.3855630364269L139.25641741071428,153.28612677566707L140.28794642857142,153.9679252523929L141.31947544642856,153.08022660948336L142.35100446428572,155.35868851281703L143.38253348214286,154.08329798653722L144.4140625,154.72831480018795L145.44559151785714,154.96501773409545L146.47712053571428,152.7538633234799L147.50864955357142,154.4238296225667L148.54017857142856,155.2763950433582L149.57170758928572,155.67694806307554L150.60323660714286,153.45423972979188L151.634765625,156.24980107694864L152.66629464285714,156.5831224322319L153.69782366071428,156.90113471634686L154.72935267857142,157.03422159701586L155.76088169642856,157.7385394256562L156.7924107142857,157.93267796561122L157.82393973214283,158.07890292070806L158.85546875,158.31133639253676L159.88699776785714,158.60569849424064L160.91852678571428,158.66247409768403L161.95005580357142,158.7539197113365L162.98158482142858,159.0637936424464L164.01311383928572,159.05800102092326L165.04464285714286,159.22702391445637L166.076171875,159.52606264315546L167.10770089285717,158.4022726379335L168.1392299107143,159.50224761664867L169.17075892857144,159.7739189285785L170.20228794642858,159.76686689816415L171.23381696428572,159.9858359042555L172.26534598214286,160.03189169615507L173.296875,159.86132586188614L174.32840401785714,160.19476095959544L175.35993303571428,160.25514994561672L176.39146205357144,160.25790449045599L177.42299107142858,160.59202369116247L178.45452008928572,160.6325209401548L179.48604910714286,160.60488812439144L180.517578125,160.8858038932085L181.54910714285714,160.76058996655047L182.58063616071428,160.9862681273371L183.61216517857142,161.09577406011522L184.64369419642856,160.89718637801707L185.67522321428572,161.28101926110685L186.70675223214286,161.2433144710958L187.73828125,161.52844035811722L188.76981026785714,161.46350167505443L189.80133928571428,161.6648076362908L190.83286830357142,161.67800999991596L191.86439732142856,161.68053046613932L192.8959263392857,161.93212706409395L193.92745535714283,118.42300006002188L194.958984375,141.64012714102864L195.99051339285714,148.41638327389956L197.02204241071428,148.81322894990444L198.05357142857142,153.49036036804318L199.08510044642858,150.69646559469402L200.11662946428572,155.6984486784786L201.14815848214286,156.72898967564106L202.1796875,157.72805863805115L203.21121651785717,157.20369121804833L204.2427455357143,159.0836639497429L205.27427455357144,158.99887144379318L206.30580357142858,158.97502015158534L207.33733258928572,159.49638246372342L208.36886160714286,160.3330140542239L209.400390625,160.39627956971526L210.43191964285714,160.79136965610087L211.46344866071428,161.17982971295714L212.49497767857144,161.31717946194112L213.52650669642858,161.44787940010428L214.55803571428572,162.014334814623L215.58956473214286,161.92862083017826L216.62109375,162.08501501753926L217.65262276785714,161.94480522349477L218.68415178571428,162.19109713844955L219.71568080357142,162.3132696915418L220.74720982142856,162.57243593037128L221.77873883928572,162.8219785708934L222.81026785714286,162.75103296898305L223.841796875,162.88287527672946L224.87332589285714,162.91301372274756L225.90485491071428,163.06510383076966L226.93638392857142,163.10787263140082L227.96791294642856,163.270538312383L228.9994419642857,163.2158174905926L230.03097098214283,163.2616029381752L231.0625,163.44757427740842L232.09402901785714,163.42384826671332L233.12555803571428,163.64738015737385L234.15708705357142,163.59848822280765L235.18861607142858,163.78812651894987L236.22014508928572,163.83038842398673L237.25167410714286,163.71798288356513L238.283203125,163.94942152127624L239.31473214285717,163.97586663533002L240.3462611607143,164.07813426386565L241.37779017857144,164.18855425715446L242.40931919642858,163.99514762498438L243.44084821428572,164.21655962057412L244.47237723214286,164.1697109285742L245.50390625,164.35104685183614L246.53543526785714,164.45760866906494L247.56696428571428,164.52287786453962L248.59849330357144,164.4757687188685L249.63002232142858,164.43120559025556L250.66155133928572,164.55562661681324L251.69308035714286,164.706327913329L252.724609375,164.71927641704679L253.75613839285714,164.769511830993L254.78766741071428,164.75299445260316L255.81919642857142,164.91174343787134L256.85072544642856,164.9442136036232L257.8822544642857,162.2583601232618L258.9137834821429,143.06488784775138L259.9453125,157.91489458456635L260.97684151785717,156.8409715667367L262.0083705357143,162.39762041531503L263.03989955357144,163.07943372800946L264.07142857142856,163.92134115379304L265.1029575892857,163.66709798388183L266.13448660714283,164.41117043886334L267.166015625,164.38408737815917L268.19754464285717,164.795161572285L269.2290736607143,164.6201523654163L270.26060267857144,164.96914050355554L271.29213169642856,165.0642184568569L272.3236607142857,165.15669269766659L273.35518973214283,165.12228478956968L274.38671875,165.10009677428752L275.41824776785717,165.234893088229L276.4497767857143,165.41402339749038L277.48130580357144,165.34536253474653" style="fill: none;" fill="none"></path></g></g></g></g></g></g><g transform="translate(41, 177)" clip-path="url(#clip_1)"><clipPath id="clip_1"><rect width="288" height="22"></rect></clipPath><g><g><line x1="0" y1="0" x2="0" y2="5" style="visibility: inherit;" fill="rgb(0, 0, 0)" stroke="rgb(204, 204, 204)" stroke-width="1px"></line><line x1="20.630580357142858" y1="0" x2="20.630580357142858" y2="5" style="visibility: inherit;" fill="rgb(0, 0, 0)" stroke="rgb(204, 204, 204)" stroke-width="1px"></line><line x1="41.261160714285715" y1="0" x2="41.261160714285715" y2="5" style="visibility: inherit;" fill="rgb(0, 0, 0)" stroke="rgb(204, 204, 204)" stroke-width="1px"></line><line x1="61.89174107142857" y1="0" x2="61.89174107142857" y2="5" style="visibility: inherit;" fill="rgb(0, 0, 0)" stroke="rgb(204, 204, 204)" stroke-width="1px"></line><line x1="82.52232142857143" y1="0" x2="82.52232142857143" y2="5" style="visibility: inherit;" fill="rgb(0, 0, 0)" stroke="rgb(204, 204, 204)" stroke-width="1px"></line><line x1="103.15290178571429" y1="0" x2="103.15290178571429" y2="5" style="visibility: inherit;" fill="rgb(0, 0, 0)" stroke="rgb(204, 204, 204)" stroke-width="1px"></line><line x1="123.78348214285714" y1="0" x2="123.78348214285714" y2="5" style="visibility: inherit;" fill="rgb(0, 0, 0)" stroke="rgb(204, 204, 204)" stroke-width="1px"></line><line x1="144.4140625" y1="0" x2="144.4140625" y2="5" style="visibility: inherit;" fill="rgb(0, 0, 0)" stroke="rgb(204, 204, 204)" stroke-width="1px"></line><line x1="165.04464285714286" y1="0" x2="165.04464285714286" y2="5" style="visibility: inherit;" fill="rgb(0, 0, 0)" stroke="rgb(204, 204, 204)" stroke-width="1px"></line><line x1="185.67522321428572" y1="0" x2="185.67522321428572" y2="5" style="visibility: inherit;" fill="rgb(0, 0, 0)" stroke="rgb(204, 204, 204)" stroke-width="1px"></line><line x1="206.30580357142858" y1="0" x2="206.30580357142858" y2="5" style="visibility: inherit;" fill="rgb(0, 0, 0)" stroke="rgb(204, 204, 204)" stroke-width="1px"></line><line x1="226.93638392857142" y1="0" x2="226.93638392857142" y2="5" style="visibility: inherit;" fill="rgb(0, 0, 0)" stroke="rgb(204, 204, 204)" stroke-width="1px"></line><line x1="247.56696428571428" y1="0" x2="247.56696428571428" y2="5" style="visibility: inherit;" fill="rgb(0, 0, 0)" stroke="rgb(204, 204, 204)" stroke-width="1px"></line><line x1="268.19754464285717" y1="0" x2="268.19754464285717" y2="5" style="visibility: inherit;" fill="rgb(0, 0, 0)" stroke="rgb(204, 204, 204)" stroke-width="1px"></line><line x1="288.828125" y1="0" x2="288.828125" y2="5" style="visibility: inherit;" fill="rgb(0, 0, 0)" stroke="rgb(204, 204, 204)" stroke-width="1px"></line></g><g transform="translate(0, 8)"><text x="0" y="0" dx="0em" dy="0.95em" style="text-anchor: middle; visibility: hidden; font-family: Roboto, sans-serif; font-size: 12px; font-weight: 200;" fill="rgb(33, 33, 33)" stroke="none" stroke-width="1px">-2k</text><text x="20.630580357142858" y="0" dx="0em" dy="0.95em" style="text-anchor: middle; visibility: inherit; font-family: Roboto, sans-serif; font-size: 12px; font-weight: 200;" fill="rgb(33, 33, 33)" stroke="none" stroke-width="1px">0</text><text x="41.261160714285715" y="0" dx="0em" dy="0.95em" style="text-anchor: middle; visibility: hidden; font-family: Roboto, sans-serif; font-size: 12px; font-weight: 200;" fill="rgb(33, 33, 33)" stroke="none" stroke-width="1px">2k</text><text x="61.89174107142857" y="0" dx="0em" dy="0.95em" style="text-anchor: middle; visibility: inherit; font-family: Roboto, sans-serif; font-size: 12px; font-weight: 200;" fill="rgb(33, 33, 33)" stroke="none" stroke-width="1px">4k</text><text x="82.52232142857143" y="0" dx="0em" dy="0.95em" style="text-anchor: middle; visibility: hidden; font-family: Roboto, sans-serif; font-size: 12px; font-weight: 200;" fill="rgb(33, 33, 33)" stroke="none" stroke-width="1px">6k</text><text x="103.15290178571429" y="0" dx="0em" dy="0.95em" style="text-anchor: middle; visibility: inherit; font-family: Roboto, sans-serif; font-size: 12px; font-weight: 200;" fill="rgb(33, 33, 33)" stroke="none" stroke-width="1px">8k</text><text x="123.78348214285714" y="0" dx="0em" dy="0.95em" style="text-anchor: middle; visibility: hidden; font-family: Roboto, sans-serif; font-size: 12px; font-weight: 200;" fill="rgb(33, 33, 33)" stroke="none" stroke-width="1px">10k</text><text x="144.4140625" y="0" dx="0em" dy="0.95em" style="text-anchor: middle; visibility: inherit; font-family: Roboto, sans-serif; font-size: 12px; font-weight: 200;" fill="rgb(33, 33, 33)" stroke="none" stroke-width="1px">12k</text><text x="165.04464285714286" y="0" dx="0em" dy="0.95em" style="text-anchor: middle; visibility: hidden; font-family: Roboto, sans-serif; font-size: 12px; font-weight: 200;" fill="rgb(33, 33, 33)" stroke="none" stroke-width="1px">14k</text><text x="185.67522321428572" y="0" dx="0em" dy="0.95em" style="text-anchor: middle; visibility: inherit; font-family: Roboto, sans-serif; font-size: 12px; font-weight: 200;" fill="rgb(33, 33, 33)" stroke="none" stroke-width="1px">16k</text><text x="206.30580357142858" y="0" dx="0em" dy="0.95em" style="text-anchor: middle; visibility: hidden; font-family: Roboto, sans-serif; font-size: 12px; font-weight: 200;" fill="rgb(33, 33, 33)" stroke="none" stroke-width="1px">18k</text><text x="226.93638392857142" y="0" dx="0em" dy="0.95em" style="text-anchor: middle; visibility: inherit; font-family: Roboto, sans-serif; font-size: 12px; font-weight: 200;" fill="rgb(33, 33, 33)" stroke="none" stroke-width="1px">20k</text><text x="247.56696428571428" y="0" dx="0em" dy="0.95em" style="text-anchor: middle; visibility: hidden; font-family: Roboto, sans-serif; font-size: 12px; font-weight: 200;" fill="rgb(33, 33, 33)" stroke="none" stroke-width="1px">22k</text><text x="268.19754464285717" y="0" dx="0em" dy="0.95em" style="text-anchor: middle; visibility: inherit; font-family: Roboto, sans-serif; font-size: 12px; font-weight: 200;" fill="rgb(33, 33, 33)" stroke="none" stroke-width="1px">24k</text><text x="288.828125" y="0" dx="0em" dy="0.95em" style="text-anchor: middle; visibility: hidden; font-family: Roboto, sans-serif; font-size: 12px; font-weight: 200;" fill="rgb(33, 33, 33)" stroke="none" stroke-width="1px">26k</text></g><line x1="0" y1="0" x2="288.828125" y2="0" fill="rgb(0, 0, 0)" stroke="rgb(204, 204, 204)" stroke-width="1px"></line></g></g></g></g></svg>