<svg viewBox="0 0 330 200" xmlns="http://www.w3.org/2000/svg"><g><g><g><g><g><line x1="60" y1="177" x2="55" y2="177" style="visibility: inherit;" fill="rgb(0, 0, 0)" stroke="rgb(204, 204, 204)" stroke-width="1px"></line><line x1="60" y1="162.25" x2="55" y2="162.25" style="visibility: inherit;" fill="rgb(0, 0, 0)" stroke="rgb(204, 204, 204)" stroke-width="1px"></line><line x1="60" y1="147.5" x2="55" y2="147.5" style="visibility: inherit;" fill="rgb(0, 0, 0)" stroke="rgb(204, 204, 204)" stroke-width="1px"></line><line x1="60" y1="132.75" x2="55" y2="132.75" style="visibility: inherit;" fill="rgb(0, 0, 0)" stroke="rgb(204, 204, 204)" stroke-width="1px"></line><line x1="60" y1="118.00000000000001" x2="55" y2="118.00000000000001" style="visibility: inherit;" fill="rgb(0, 0, 0)" stroke="rgb(204, 204, 204)" stroke-width="1px"></line><line x1="60" y1="103.25" x2="55" y2="103.25" style="visibility: inherit;" fill="rgb(0, 0, 0)" stroke="rgb(204, 204, 204)" stroke-width="1px"></line><line x1="60" y1="88.5" x2="55" y2="88.5" style="visibility: inherit;" fill="rgb(0, 0, 0)" stroke="rgb(204, 204, 204)" stroke-width="1px"></line><line x1="60" y1="73.75000000000001" x2="55" y2="73.75000000000001" style="visibility: inherit;" fill="rgb(0, 0, 0)" stroke="rgb(204, 204, 204)" stroke-width="1px"></line><line x1="60" y1="59.00000000000001" x2="55" y2="59.00000000000001" style="visibility: inherit;" fill="rgb(0, 0, 0)" stroke="rgb(204, 204, 204)" stroke-width="1px"></line><line x1="60" y1="44.25" x2="55" y2="44.25" style="visibility: inherit;" fill="rgb(0, 0, 0)" stroke="rgb(204, 204, 204)" stroke-width="1px"></line><line x1="60" y1="29.500000000000032" x2="55" y2="29.500000000000032" style="visibility: inherit;" fill="rgb(0, 0, 0)" stroke="rgb(204, 204, 204)" stroke-width="1px"></line><line x1="60" y1="14.750000000000007" x2="55" y2="14.750000000000007" style="visibility: inherit;" fill="rgb(0, 0, 0)" stroke="rgb(204, 204, 204)" stroke-width="1px"></line><line x1="60" y1="0" x2="55" y2="0" style="visibility: inherit;" fill="rgb(0, 0, 0)" stroke="rgb(204, 204, 204)" stroke-width="1px"></line></g><g transform="translate(50, 0)"><text x="0" y="177" dx="0em" dy="0.3em" style="text-anchor: end; visibility: hidden; font-family: Roboto, sans-serif; font-size: 12px; font-weight: 200;" fill="rgb(33, 33, 33)" stroke="none" stroke-width="1px">0.025</text><text x="0" y="162.25" dx="0em" dy="0.3em" style="text-anchor: end; visibility: inherit; font-family: Roboto, sans-serif; font-size: 12px; font-weight: 200;" fill="rgb(33, 33, 33)" stroke="none" stroke-width="1px">0.03</text><text x="0" y="147.5" dx="0em" dy="0.3em" style="text-anchor: end; visibility: hidden; font-family: Roboto, sans-serif; font-size: 12px; font-weight: 200;" fill="rgb(33, 33, 33)" stroke="none" stroke-width="1px">0.035</text><text x="0" y="132.75" dx="0em" dy="0.3em" style="text-anchor: end; visibility: inherit; font-family: Roboto, sans-serif; font-size: 12px; font-weight: 200;" fill="rgb(33, 33, 33)" stroke="none" stroke-width="1px">0.04</text><text x="0" y="118.00000000000001" dx="0em" dy="0.3em" style="text-anchor: end; visibility: hidden; font-family: Roboto, sans-serif; font-size: 12px; font-weight: 200;" fill="rgb(33, 33, 33)" stroke="none" stroke-width="1px">0.045</text><text x="0" y="103.25" dx="0em" dy="0.3em" style="text-anchor: end; visibility: inherit; font-family: Roboto, sans-serif; font-size: 12px; font-weight: 200;" fill="rgb(33, 33, 33)" stroke="none" stroke-width="1px">0.05</text><text x="0" y="88.5" dx="0em" dy="0.3em" style="text-anchor: end; visibility: hidden; font-family: Roboto, sans-serif; font-size: 12px; font-weight: 200;" fill="rgb(33, 33, 33)" stroke="none" stroke-width="1px">0.055</text><text x="0" y="73.75000000000001" dx="0em" dy="0.3em" style="text-anchor: end; visibility: inherit; font-family: Roboto, sans-serif; font-size: 12px; font-weight: 200;" fill="rgb(33, 33, 33)" stroke="none" stroke-width="1px">0.06</text><text x="0" y="59.00000000000001" dx="0em" dy="0.3em" style="text-anchor: end; visibility: hidden; font-family: Roboto, sans-serif; font-size: 12px; font-weight: 200;" fill="rgb(33, 33, 33)" stroke="none" stroke-width="1px">0.065</text><text x="0" y="44.25" dx="0em" dy="0.3em" style="text-anchor: end; visibility: inherit; font-family: Roboto, sans-serif; font-size: 12px; font-weight: 200;" fill="rgb(33, 33, 33)" stroke="none" stroke-width="1px">0.07</text><text x="0" y="29.500000000000032" dx="0em" dy="0.3em" style="text-anchor: end; visibility: hidden; font-family: Roboto, sans-serif; font-size: 12px; font-weight: 200;" fill="rgb(33, 33, 33)" stroke="none" stroke-width="1px">0.075</text><text x="0" y="14.750000000000007" dx="0em" dy="0.3em" style="text-anchor: end; visibility: inherit; font-family: Roboto, sans-serif; font-size: 12px; font-weight: 200;" fill="rgb(33, 33, 33)" stroke="none" stroke-width="1px">0.08</text><text x="0" y="0" dx="0em" dy="0.3em" style="text-anchor: end; visibility: hidden; font-family: Roboto, sans-serif; font-size: 12px; font-weight: 200;" fill="rgb(33, 33, 33)" stroke="none" stroke-width="1px">0.085</text></g><line x1="60" y1="0" x2="60" y2="177" fill="rgb(0, 0, 0)" stroke="rgb(204, 204, 204)" stroke-width="1px"></line></g></g><g transform="translate(60, 0)" clip-path="url(#clip_0)"><clipPath id="clip_0"><rect width="270" height="176"></rect></clipPath><g><g><g><line x1="0" y1="0" x2="0" y2="177" fill="rgb(0, 0, 0)" stroke="rgb(66, 66, 66)" stroke-width="1px" opacity="0.25"></line><line x1="19.285714285714285" y1="0" x2="19.285714285714285" y2="177" fill="rgb(0, 0, 0)" stroke="rgb(66, 66, 66)" stroke-width="1px" opacity="0.25"></line><line x1="38.57142857142857" y1="0" x2="38.57142857142857" y2="177" fill="rgb(0, 0, 0)" stroke="rgb(66, 66, 66)" stroke-width="1px" opacity="0.25"></line><line x1="57.857142857142854" y1="0" x2="57.857142857142854" y2="177" fill="rgb(0, 0, 0)" stroke="rgb(66, 66, 66)" stroke-width="1px" opacity="0.25"></line><line x1="77.14285714285714" y1="0" x2="77.14285714285714" y2="177" fill="rgb(0, 0, 0)" stroke="rgb(66, 66, 66)" stroke-width="1px" opacity="0.25"></line><line x1="96.42857142857143" y1="0" x2="96.42857142857143" y2="177" fill="rgb(0, 0, 0)" stroke="rgb(66, 66, 66)" stroke-width="1px" opacity="0.25"></line><line x1="115.71428571428571" y1="0" x2="115.71428571428571" y2="177" fill="rgb(0, 0, 0)" stroke="rgb(66, 66, 66)" stroke-width="1px" opacity="0.25"></line><line x1="135" y1="0" x2="135" y2="177" fill="rgb(0, 0, 0)" stroke="rgb(66, 66, 66)" stroke-width="1px" opacity="0.25"></line><line x1="154.28571428571428" y1="0" x2="154.28571428571428" y2="177" fill="rgb(0, 0, 0)" stroke="rgb(66, 66, 66)" stroke-width="1px" opacity="0.25"></line><line x1="173.57142857142858" y1="0" x2="173.57142857142858" y2="177" fill="rgb(0, 0, 0)" stroke="rgb(66, 66, 66)" stroke-width="1px" opacity="0.25"></line><line x1="192.85714285714286" y1="0" x2="192.85714285714286" y2="177" fill="rgb(0, 0, 0)" stroke="rgb(66, 66, 66)" stroke-width="1px" opacity="0.25"></line><line x1="212.14285714285714" y1="0" x2="212.14285714285714" y2="177" fill="rgb(0, 0, 0)" stroke="rgb(66, 66, 66)" stroke-width="1px" opacity="0.25"></line><line x1="231.42857142857142" y1="0" x2="231.42857142857142" y2="177" fill="rgb(0, 0, 0)" stroke="rgb(66, 66, 66)" stroke-width="1px" opacity="0.25"></line><line x1="250.71428571428572" y1="0" x2="250.71428571428572" y2="177" fill="rgb(0, 0, 0)" stroke="rgb(66, 66, 66)" stroke-width="1px" opacity="0.25"></line><line x1="270" y1="0" x2="270" y2="177" fill="rgb(0, 0, 0)" stroke="rgb(66, 66, 66)" stroke-width="1px" opacity="0.25"></line></g><g><line x1="0" y1="177" x2="270" y2="177" fill="rgb(0, 0, 0)" stroke="rgb(66, 66, 66)" stroke-width="1px" opacity="0.25"></line><line x1="0" y1="162.25" x2="270" y2="162.25" fill="rgb(0, 0, 0)" stroke="rgb(66, 66, 66)" stroke-width="1px" opacity="0.25"></line><line x1="0" y1="147.5" x2="270" y2="147.5" fill="rgb(0, 0, 0)" stroke="rgb(66, 66, 66)" stroke-width="1px" opacity="0.25"></line><line x1="0" y1="132.75" x2="270" y2="132.75" fill="rgb(0, 0, 0)" stroke="rgb(66, 66, 66)" stroke-width="1px" opacity="0.25"></line><line x1="0" y1="118.00000000000001" x2="270" y2="118.00000000000001" fill="rgb(0, 0, 0)" stroke="rgb(66, 66, 66)" stroke-width="1px" opacity="0.25"></line><line x1="0" y1="103.25" x2="270" y2="103.25" fill="rgb(0, 0, 0)" stroke="rgb(66, 66, 66)" stroke-width="1px" opacity="0.25"></line><line x1="0" y1="88.5" x2="270" y2="88.5" fill="rgb(0, 0, 0)" stroke="rgb(66, 66, 66)" stroke-width="1px" opacity="0.25"></line><line x1="0" y1="73.75000000000001" x2="270" y2="73.75000000000001" fill="rgb(0, 0, 0)" stroke="rgb(66, 66, 66)" stroke-width="1px" opacity="0.25"></line><line x1="0" y1="59.00000000000001" x2="270" y2="59.00000000000001" fill="rgb(0, 0, 0)" stroke="rgb(66, 66, 66)" stroke-width="1px" opacity="0.25"></line><line x1="0" y1="44.25" x2="270" y2="44.25" fill="rgb(0, 0, 0)" stroke="rgb(66, 66, 66)" stroke-width="1px" opacity="0.25"></line><line x1="0" y1="29.500000000000032" x2="270" y2="29.500000000000032" fill="rgb(0, 0, 0)" stroke="rgb(66, 66, 66)" stroke-width="1px" opacity="0.25"></line><line x1="0" y1="14.750000000000007" x2="270" y2="14.750000000000007" fill="rgb(0, 0, 0)" stroke="rgb(66, 66, 66)" stroke-width="1px" opacity="0.25"></line><line x1="0" y1="0" x2="270" y2="0" fill="rgb(0, 0, 0)" stroke="rgb(66, 66, 66)" stroke-width="1px" opacity="0.25"></line></g></g></g><g><g><line x1="0" y1="250.74999999999997" x2="270" y2="250.74999999999997" fill="rgb(0, 0, 0)" stroke="rgb(153, 153, 153)" stroke-width="1.5px"></line></g></g><g><g><line x1="19.285714285714285" y1="0" x2="19.285714285714285" y2="177" fill="rgb(0, 0, 0)" stroke="rgb(153, 153, 153)" stroke-width="1.5px"></line></g></g><g><g><g><g><g><path stroke="rgb(255, 112, 67)" stroke-width="2px" d="M20.25,164.2185317054391L21.214285714285715,159.30180241633207L22.178571428571427,153.78303024978663L23.142857142857142,147.73303569902615L24.107142857142858,141.23513473864028L25.071428571428573,134.37489274563416L26.03571428571429,127.23216149365224L27,119.87621957747785L27.964285714285715,112.36378685103945L28.928571428571427,104.739230100186L29.892857142857142,97.03594479137175L30.857142857142858,89.27832750910085L31.82142857142857,81.48375678866272L32.785714285714285,73.66436025695853L33.75,65.82846327237662L34.71428571428571,57.98169339351972L35.67857142857143,50.12780458434733L36.64285714285714,42.269291448731174L37.60714285714286,34.40780028080768L38.57142857142857,26.544394779925135L39.535714285714285,21.827546548479717L40.5,19.000537004658977L41.464285714285715,17.309410351544553L42.42857142857143,16.30181145545027L43.392857142857146,15.706363385073612L44.357142857142854,15.360217126918467L45.32142857142857,15.16565574921674L46.285714285714285,15.064075924467712L47.25,15.020307028564895L48.214285714285715,15.013237954170169L49.17857142857142,15.030219641190643L50.142857142857146,15.06363628585568L51.107142857142854,15.108927200092545L52.07142857142858,15.163364763540311L53.035714285714285,15.225303612511576L54,15.293756528822097L54.964285714285715,15.368122389852775L55.92857142857143,15.4480405220018L56.892857142857146,15.533312104452472L57.857142857142854,15.623791469640574L58.82142857142857,15.719400008699731L59.785714285714285,15.82009055630133L60.75,15.9258348132425L61.714285714285715,16.036615799997783L62.67857142857143,16.152405745479317L63.64285714285714,16.273196778717917L64.60714285714286,16.398992968816284L65.57142857142857,16.529770382180025L66.53571428571429,16.66552345033721L67.5,16.80624883220445L68.46428571428571,16.951944523131726L69.42857142857142,17.102600528643467L70.39285714285715,17.25821085205458L71.35714285714286,17.418771895353903L72.32142857142857,17.58427270804942L73.28571428571428,17.754706719846236L74.25,17.93006998856708L75.21428571428572,18.110342565535596L76.17857142857143,18.2955300649161L77.14285714285714,18.485618271836962L78.10714285714286,18.680607449060318L79.07142857142857,18.88048017087319L80.03571428571429,19.085225981847863L81,19.294847400412817L81.96428571428571,19.50931956256978L82.92857142857143,19.72865392497511L83.89285714285714,19.95282219488221L84.85714285714286,20.181833771698507L85.82142857142857,20.415659128327892L86.78571428571429,20.654289340197867L87.75,20.897727844250117L88.71428571428571,21.145959119279308L89.67857142857143,21.398973852562357L90.64285714285714,21.6567488730952L91.60714285714286,21.91928786164555L92.57142857142857,22.186584234988914L93.53571428571428,22.458607668135297L94.5,22.735357549460964L95.46428571428572,23.01681592862144L96.42857142857143,23.302972035409997L97.39285714285714,23.593819407702675L98.35714285714285,23.889354168225058L99.32142857142858,24.189538823872052L100.28571428571429,24.494377253835946L101.25,24.803854202261913L102.21428571428571,25.11796051563705L103.17857142857142,25.436673118483363L104.14285714285715,25.759978165514084L105.10714285714286,26.08786734955718L106.07142857142857,26.420326894624296L107.03571428571428,26.757339743437356L108,27.098904453314525L108.96428571428572,27.4449849919064L109.92857142857143,27.795577323173493L110.89285714285714,28.150661442121898L111.85714285714286,28.510234137440367L112.82142857142857,28.874267107286816L113.78571428571429,29.242752162241228L114.75,29.615666805281215L115.71428571428571,29.992997538193453L116.67857142857143,30.37473626204992L117.64285714285714,30.760860534123573L118.60714285714286,31.15134809709309L119.57142857142857,31.546194388250814L120.53571428571429,31.945379086601932L121.5,32.34888120786442L122.46428571428571,32.756679369783996L123.42857142857143,33.16876074300803L124.39285714285714,33.585100046554814L125.35714285714286,34.00569090352033L126.32142857142857,34.43052069607721L127.28571428571428,34.85955547847362L128.25,35.29278367494352L129.21428571428572,35.73018954834225L130.17857142857144,36.17175486469793L131.14285714285714,36.617451100257206L132.10714285714286,37.06726993245316L133.07142857142858,37.52118878437537L134.03571428571428,37.97918531819261L135,38.441237339520896L135.96428571428572,38.90732274004486L136.92857142857142,39.3774370464603L137.89285714285714,39.85155119972943L138.85714285714283,40.32963897274446L139.82142857142858,40.81169342092579L140.7857142857143,41.29768400247042L141.75,41.78759239229645L142.71428571428572,42.28139001198461L143.67857142857142,42.779077297853554L144.64285714285714,43.28060176158377L145.60714285714286,43.78597586860911L146.57142857142856,44.29515434807929L147.53571428571428,44.808118829169246L148.5,45.32484949769877L149.46428571428572,45.84532567347468L150.42857142857144,46.369526156695954L151.39285714285714,46.897429435796894L152.35714285714286,47.42900502046786L153.32142857142856,47.96423461652304L154.28571428571428,48.5030984557659L155.25,49.04557588559331L156.21428571428572,49.591636931073324L157.17857142857144,50.14126360724668L158.14285714285714,50.69442753976763L159.10714285714286,51.25110291234362L160.07142857142858,51.81127423519915L161.03571428571428,52.37490583941355L162,52.94198511531959L162.9642857142857,53.512478122061545L163.92857142857142,54.086373286811146L164.89285714285717,54.66362849913096L165.85714285714286,55.24422728444372L166.82142857142858,55.82815096631787L167.78571428571428,56.41537075552425L168.75,57.005860586840406L169.71428571428572,57.5995960294476L170.67857142857142,58.19655363316959L171.64285714285714,58.79670174453035L172.60714285714283,59.40001257975923L173.57142857142858,60.006469468593785L174.5357142857143,60.6160448255063L175.5,61.22871330749518L176.46428571428572,61.84443333370406L177.42857142857142,62.46319753898932L178.39285714285714,63.084975129209504L179.35714285714286,63.70973883619461L180.32142857142856,64.33745471567248L181.28571428571428,64.96810240107976L182.25,65.60165208910824L183.21428571428572,66.23808150193047L184.17857142857144,66.87735968947977L185.14285714285714,67.51945489418847L186.10714285714286,68.16434806151594L187.07142857142856,68.81200577952508L188.03571428571428,69.46240360521104L189,70.11551368524329L189.96428571428572,70.77130612009584L190.92857142857144,71.42974538668287L191.89285714285714,72.09082335868054L192.85714285714286,72.75449559771165L193.82142857142858,73.4207442324349L194.78571428571428,74.08952776914767L195.75,74.76082570747099L196.7142857142857,75.4346037679646L197.67857142857142,76.11084138296448L198.64285714285717,76.78949983681682L199.60714285714286,77.47055590012933L200.57142857142858,78.15397805189649L201.53571428571428,78.83974737951495L202.5,79.52782616036735L203.46428571428572,80.21818296919824L204.42857142857142,80.9107901591692L205.39285714285714,81.605613558807L206.35714285714283,82.30263266522765L207.32142857142858,83.00180440580297L208.2857142857143,83.70311612448364L209.25,84.4065250608997L210.21428571428572,85.11200995467163L211.17857142857142,85.81953167451654L212.14285714285714,86.52905794997952L213.10714285714286,87.24056941878762L214.07142857142856,87.9540324843643L215.03571428571428,88.66941380123606L216,89.38668457043357L216.96428571428572,90.10581432504763L217.92857142857144,90.82676720156259L218.89285714285714,91.54951728602637L219.85714285714286,92.27403144669766L220.82142857142856,93.00027661700389L221.78571428571428,93.72822416531645L222.75,94.45784812097311L223.71428571428572,95.18911092236377L224.67857142857144,95.9219812408372L225.64285714285714,96.65642269583252L226.60714285714286,97.39242225069826L227.57142857142858,98.12992812501801L228.53571428571428,98.86892243806966L229.5,99.60936808636455L230.4642857142857,100.35122962028186L231.42857142857142,101.09448137420657L232.39285714285717,101.83909476124194L233.35714285714286,102.58502625419466L234.32142857142858,103.33224534090618L235.28571428571428,104.08072931823888L236.25,104.83043818925474L237.21428571428572,105.5813479557911L238.17857142857142,106.33342223973749L239.14285714285714,107.08662602669999L240.10714285714283,107.84092512051468L241.07142857142858,108.59629460764053L242.0357142857143,109.35269756074025L243,110.11010303172633L243.96428571428572,110.8684792642186L244.92857142857142,111.62779401686133L245.89285714285714,112.38801475731336L246.85714285714286,113.14910438279989L247.82142857142856,113.91103623581338L248.78571428571428,114.67377234263664L249.75,115.43728552319672L250.71428571428572,116.20154188607972L251.67857142857144,116.96650790890956L252.64285714285714,117.7321414990479L253.60714285714286,118.4984174009117L254.57142857142856,119.26531166946606L255.53571428571428,120.03277916679214L256.5,120.8007884142961L257.4642857142857,121.5693161289791L258.42857142857144,122.33832636182903L259.39285714285717,123.10777996006847" style="fill: none;" fill="none"></path></g></g></g></g><g opacity="0.2"><g><g><g><path stroke="rgb(255, 112, 67)" stroke-width="2px" d="M20.25,164.2185317054391L21.214285714285715,156.35176484286785L22.178571428571427,148.485008969903L23.142857142857142,140.61824210733175L24.107142857142858,132.7514752447605L25.071428571428573,124.88470838218929L26.03571428571429,117.01794151961803L27,109.15118564665318L27.964285714285715,101.28440779447557L28.928571428571427,93.41765192151071L29.892857142857142,85.55088505893947L30.857142857142858,77.68411819636822L31.82142857142857,69.81735133379699L32.785714285714285,61.95058447122576L33.75,54.0838285982609L34.71428571428571,46.21707272529604L35.67857142857143,38.350294873118415L36.64285714285714,30.483517020940788L37.60714285714286,22.61676114797593L38.57142857142857,14.75000527501109L39.535714285714285,14.752532884478581L40.5,14.7601157128811L41.464285714285715,14.772753760218647L42.42857142857143,14.79042504727843L43.392857142857146,14.813195511698735L44.357142857142854,14.84099921584132L45.32142857142857,14.873814180493374L46.285714285714285,14.911706343293202L47.25,14.954653725028058L48.214285714285715,15.00263434648515L49.17857142857142,15.055692166090038L50.142857142857146,15.113761246204396L51.107142857142854,15.176863566041012L52.07142857142858,15.245021104812635L53.035714285714285,15.318211883306516L54,15.396435901522656L54.964285714285715,15.479671180248287L55.92857142857143,15.567917719483388L56.892857142857146,15.661219477653516L57.857142857142854,15.759510517120388L58.82142857142857,15.86281281709673L59.785714285714285,15.971126377582562L60.75,16.084451198577906L61.714285714285715,16.202787280082724L62.67857142857143,16.326090663671515L63.64285714285714,16.45438332855703L64.60714285714286,16.58768725395205L65.57142857142857,16.725936502218268L66.53571428571429,16.869153052568457L67.5,17.01733690500262L68.46428571428571,17.170488059520743L69.42857142857142,17.32858453691007L70.39285714285715,17.491626337170626L71.35714285714286,17.659613460302374L72.32142857142857,17.832523927092577L73.28571428571428,18.010357737541224L74.25,18.193114891648314L75.21428571428572,18.380751430988326L76.17857142857143,18.5733113139868L77.14285714285714,18.770750582218195L78.10714285714286,18.97309121489527L79.07142857142857,19.180289253592516L80.03571428571429,19.392344698309923L81,19.609279528260256L81.96428571428571,19.83102780580523L82.92857142857143,20.057655468583132L83.89285714285714,20.28907459974291L84.85714285714286,20.52535113692286L85.82142857142857,20.766397163271925L86.78571428571429,21.01223465800286L87.75,21.26288560032846L88.71428571428571,21.518306031823165L89.67857142857143,21.778495952487L90.64285714285714,22.043411403894446L91.60714285714286,22.313096344471L92.57142857142857,22.587528795003912L93.53571428571428,22.866642817854903L94.5,23.150482371449485L95.46428571428572,23.439003497362144L96.42857142857143,23.7322061955929L97.39285714285714,24.030090466141715L98.35714285714285,24.332656309008605L99.32142857142858,24.639815807342544L100.28571428571429,24.95163489878179L101.25,25.268069624900832L102.21428571428571,25.589119985699668L103.17857142857142,25.914742022752783L104.14285714285715,26.244935736060157L105.10714285714286,26.57970112562181L106.07142857142857,26.919016212224975L107.03571428571428,27.262859016656883L108,27.611251518130324L108.96428571428572,27.964105799794204L109.92857142857143,28.321465820074103L110.89285714285714,28.68328762054444L111.85714285714286,29.04959318041803L112.82142857142857,29.420316562056563L113.78571428571429,29.79547974467279L114.75,30.175038769841215L115.71428571428571,30.55899363756182L116.67857142857143,30.9473443478346L117.64285714285714,31.340046942234046L118.60714285714286,31.737079441547408L119.57142857142857,32.13846382498743L120.53571428571429,32.544156134128585L121.5,32.95413438975812L122.46428571428571,33.36837661266328L123.42857142857143,33.78688280284406L124.39285714285714,34.20960900187494L125.35714285714286,34.63657718896868L126.32142857142857,35.0677653849125L127.28571428571428,35.50310765206815L128.25,35.94262596964837L129.21428571428572,36.38629835844042L130.17857142857144,36.8341028392315L131.14285714285714,37.28599545359613L132.10714285714286,37.74199818074704L133.07142857142858,38.202067062258735L134.03571428571428,38.666180118918426L135,39.13431537151339L135.96428571428572,39.60645084083081L136.92857142857142,40.0826085060835L137.89285714285714,40.56272242963316L138.85714285714283,41.04677063226702L139.82142857142858,41.534775093197844L140.7857142857143,42.02666987478735L141.75,42.522454977035544L142.71428571428572,43.02208644151688L143.67857142857142,43.52560822665693L144.64285714285714,44.03288845717909L145.60714285714286,44.54403702914717L146.57142857142856,45.0589220672846L147.53571428571428,45.577565550804145L148.5,46.099945500493064L149.46428571428572,46.626039937138565L150.42857142857144,47.15582688152792L151.39285714285714,47.689284354448326L152.35714285714286,48.2263683974743L153.32142857142856,48.76707901060583L154.28571428571428,49.31139421463015L155.25,49.85929203033448L156.21428571428572,50.410728499293334L157.17857142857144,50.96570362150671L158.14285714285714,51.524173438549056L159.10714285714286,52.08611597120764L160.07142857142858,52.65153121948244L161.03571428571428,53.22035324573518L162,53.79260402917863L162.9642857142857,54.36821763217451L163.92857142857142,54.94721603393557L164.89285714285717,55.52951131761076L165.85714285714286,56.11512546241284L166.82142857142858,56.70403648912908L167.78571428571428,57.29620043933392L168.75,57.89159533381464L169.71428571428572,58.49019919335843L170.67857142857142,59.09199003875258L171.64285714285714,59.69692391157151L172.60714285714283,60.30497883260252L173.57142857142858,60.91615480184557L174.5357142857143,61.530407860875144L175.5,62.14771603047849L176.46428571428572,62.76801337301733L177.42857142857142,63.39134384691716L178.39285714285714,64.01764151453973L179.35714285714286,64.64688439667226L180.32142857142856,65.27902853488924L181.28571428571428,65.91407392919065L182.25,66.55197662115098L183.21428571428572,67.19272562116386L184.17857142857144,67.83627697080375L185.14285714285714,68.48259770125152L186.10714285714286,69.13168781250717L187.07142857142856,69.78349235653879L188.03571428571428,70.43800034373999L189,71.09517880529167L189.96428571428572,71.75499477237464L190.92857142857144,72.41740428656341L191.89285714285714,73.08244031667711L192.85714285714286,73.75000395625831L193.82142857142858,74.42011718451978L194.78571428571428,75.09270307421684L195.75,75.7677726149559L196.7142857142857,76.44527085870506L197.67857142857142,77.12519780546427L198.64285714285717,77.80748751759529L199.60714285714286,78.49213999509813L200.57142857142858,79.17911127954723L201.53571428571428,79.86840137094259L202.5,80.55994433164598L203.46428571428572,81.25371818244457L204.42857142857142,81.94970094412567L205.39285714285714,82.6478486582637L206.35714285714283,83.34816132485867L207.32142857142858,84.05056201666594L208.2857142857143,84.75508370250465L209.25,85.46163846552373L210.21428571428572,86.17023729532958L211.17857142857142,86.88081425428392L212.14285714285714,87.59334736317398L213.10714285714286,88.30783662199975L214.07142857142856,89.02422708272935L215.03571428571428,89.74248577654363L216,90.46259072422983L216.96428571428572,91.1845089569688L217.92857142857144,91.90819651633501L218.89285714285714,92.63364241272211L219.85714285714286,93.36080268770456L220.82142857142856,94.08964437246323L221.78571428571428,94.82014548778535L222.75,95.55228405445816L223.71428571428572,96.28600512444974L224.67857142857144,97.02128671854734L225.64285714285714,97.75808487832546L226.60714285714286,98.49642158299685L227.57142857142858,99.2361869364977L228.53571428571428,99.97741390764713L229.5,100.7200365588069L230.4642857142857,101.46402192115785L231.42857142857142,102.20935900509357L232.39285714285717,102.95601484179497L233.35714285714286,103.70392349362375L234.32142857142858,104.4530739709735L235.28571428571428,105.20345528423786L236.25,105.95500149577857L237.21428571428572,106.7077126055956L238.17857142857142,107.46153366565704L239.14285714285714,108.2164317071438L240.10714285714283,108.97237376123668L241.07142857142858,109.72934883832932L242.0357142857143,110.48730199038982L243,111.24621123820543L243.96428571428572,112.006043612957L244.92857142857142,112.76676614582539L245.89285714285714,113.52834586799145L246.85714285714286,114.29073882102968L247.82142857142856,115.05393401533367L248.78571428571428,115.81787650287151L249.75,116.58255529403687L250.71428571428572,117.34792643040419L251.67857142857144,118.11395694315434L252.64285714285714,118.88059188425542L253.60714285714286,119.64783125370741L254.57142857142856,120.41565307229759L255.53571428571428,121.18398041278124L256.5,121.95280228555202L257.4642857142857,122.72210770100355L258.42857142857144,123.49184171110393L259.39285714285717,124.26196035742761" style="fill: none;" fill="none"></path></g></g></g></g></g><g><g><span fill="rgb(0, 0, 0)" stroke="none" stroke-width="1px">Alt + Scroll to Zoom</span></g></g></g><g transform="translate(60, 177)" clip-path="url(#clip_1)"><clipPath id="clip_1"><rect width="270" height="22"></rect></clipPath><g><g><line x1="0" y1="0" x2="0" y2="5" style="visibility: inherit;" fill="rgb(0, 0, 0)" stroke="rgb(204, 204, 204)" stroke-width="1px"></line><line x1="19.285714285714285" y1="0" x2="19.285714285714285" y2="5" style="visibility: inherit;" fill="rgb(0, 0, 0)" stroke="rgb(204, 204, 204)" stroke-width="1px"></line><line x1="38.57142857142857" y1="0" x2="38.57142857142857" y2="5" style="visibility: inherit;" fill="rgb(0, 0, 0)" stroke="rgb(204, 204, 204)" stroke-width="1px"></line><line x1="57.857142857142854" y1="0" x2="57.857142857142854" y2="5" style="visibility: inherit;" fill="rgb(0, 0, 0)" stroke="rgb(204, 204, 204)" stroke-width="1px"></line><line x1="77.14285714285714" y1="0" x2="77.14285714285714" y2="5" style="visibility: inherit;" fill="rgb(0, 0, 0)" stroke="rgb(204, 204, 204)" stroke-width="1px"></line><line x1="96.42857142857143" y1="0" x2="96.42857142857143" y2="5" style="visibility: inherit;" fill="rgb(0, 0, 0)" stroke="rgb(204, 204, 204)" stroke-width="1px"></line><line x1="115.71428571428571" y1="0" x2="115.71428571428571" y2="5" style="visibility: inherit;" fill="rgb(0, 0, 0)" stroke="rgb(204, 204, 204)" stroke-width="1px"></line><line x1="135" y1="0" x2="135" y2="5" style="visibility: inherit;" fill="rgb(0, 0, 0)" stroke="rgb(204, 204, 204)" stroke-width="1px"></line><line x1="154.28571428571428" y1="0" x2="154.28571428571428" y2="5" style="visibility: inherit;" fill="rgb(0, 0, 0)" stroke="rgb(204, 204, 204)" stroke-width="1px"></line><line x1="173.57142857142858" y1="0" x2="173.57142857142858" y2="5" style="visibility: inherit;" fill="rgb(0, 0, 0)" stroke="rgb(204, 204, 204)" stroke-width="1px"></line><line x1="192.85714285714286" y1="0" x2="192.85714285714286" y2="5" style="visibility: inherit;" fill="rgb(0, 0, 0)" stroke="rgb(204, 204, 204)" stroke-width="1px"></line><line x1="212.14285714285714" y1="0" x2="212.14285714285714" y2="5" style="visibility: inherit;" fill="rgb(0, 0, 0)" stroke="rgb(204, 204, 204)" stroke-width="1px"></line><line x1="231.42857142857142" y1="0" x2="231.42857142857142" y2="5" style="visibility: inherit;" fill="rgb(0, 0, 0)" stroke="rgb(204, 204, 204)" stroke-width="1px"></line><line x1="250.71428571428572" y1="0" x2="250.71428571428572" y2="5" style="visibility: inherit;" fill="rgb(0, 0, 0)" stroke="rgb(204, 204, 204)" stroke-width="1px"></line><line x1="270" y1="0" x2="270" y2="5" style="visibility: inherit;" fill="rgb(0, 0, 0)" stroke="rgb(204, 204, 204)" stroke-width="1px"></line></g><g transform="translate(0, 8)"><text x="0" y="0" dx="0em" dy="0.95em" style="text-anchor: middle; visibility: hidden; font-family: Roboto, sans-serif; font-size: 12px; font-weight: 200;" fill="rgb(33, 33, 33)" stroke="none" stroke-width="1px">-2k</text><text x="19.285714285714285" y="0" dx="0em" dy="0.95em" style="text-anchor: middle; visibility: inherit; font-family: Roboto, sans-serif; font-size: 12px; font-weight: 200;" fill="rgb(33, 33, 33)" stroke="none" stroke-width="1px">0</text><text x="38.57142857142857" y="0" dx="0em" dy="0.95em" style="text-anchor: middle; visibility: hidden; font-family: Roboto, sans-serif; font-size: 12px; font-weight: 200;" fill="rgb(33, 33, 33)" stroke="none" stroke-width="1px">2k</text><text x="57.857142857142854" y="0" dx="0em" dy="0.95em" style="text-anchor: middle; visibility: inherit; font-family: Roboto, sans-serif; font-size: 12px; font-weight: 200;" fill="rgb(33, 33, 33)" stroke="none" stroke-width="1px">4k</text><text x="77.14285714285714" y="0" dx="0em" dy="0.95em" style="text-anchor: middle; visibility: hidden; font-family: Roboto, sans-serif; font-size: 12px; font-weight: 200;" fill="rgb(33, 33, 33)" stroke="none" stroke-width="1px">6k</text><text x="96.42857142857143" y="0" dx="0em" dy="0.95em" style="text-anchor: middle; visibility: inherit; font-family: Roboto, sans-serif; font-size: 12px; font-weight: 200;" fill="rgb(33, 33, 33)" stroke="none" stroke-width="1px">8k</text><text x="115.71428571428571" y="0" dx="0em" dy="0.95em" style="text-anchor: middle; visibility: hidden; font-family: Roboto, sans-serif; font-size: 12px; font-weight: 200;" fill="rgb(33, 33, 33)" stroke="none" stroke-width="1px">10k</text><text x="135" y="0" dx="0em" dy="0.95em" style="text-anchor: middle; visibility: inherit; font-family: Roboto, sans-serif; font-size: 12px; font-weight: 200;" fill="rgb(33, 33, 33)" stroke="none" stroke-width="1px">12k</text><text x="154.28571428571428" y="0" dx="0em" dy="0.95em" style="text-anchor: middle; visibility: hidden; font-family: Roboto, sans-serif; font-size: 12px; font-weight: 200;" fill="rgb(33, 33, 33)" stroke="none" stroke-width="1px">14k</text><text x="173.57142857142858" y="0" dx="0em" dy="0.95em" style="text-anchor: middle; visibility: inherit; font-family: Roboto, sans-serif; font-size: 12px; font-weight: 200;" fill="rgb(33, 33, 33)" stroke="none" stroke-width="1px">16k</text><text x="192.85714285714286" y="0" dx="0em" dy="0.95em" style="text-anchor: middle; visibility: hidden; font-family: Roboto, sans-serif; font-size: 12px; font-weight: 200;" fill="rgb(33, 33, 33)" stroke="none" stroke-width="1px">18k</text><text x="212.14285714285714" y="0" dx="0em" dy="0.95em" style="text-anchor: middle; visibility: inherit; font-family: Roboto, sans-serif; font-size: 12px; font-weight: 200;" fill="rgb(33, 33, 33)" stroke="none" stroke-width="1px">20k</text><text x="231.42857142857142" y="0" dx="0em" dy="0.95em" style="text-anchor: middle; visibility: hidden; font-family: Roboto, sans-serif; font-size: 12px; font-weight: 200;" fill="rgb(33, 33, 33)" stroke="none" stroke-width="1px">22k</text><text x="250.71428571428572" y="0" dx="0em" dy="0.95em" style="text-anchor: middle; visibility: inherit; font-family: Roboto, sans-serif; font-size: 12px; font-weight: 200;" fill="rgb(33, 33, 33)" stroke="none" stroke-width="1px">24k</text><text x="270" y="0" dx="0em" dy="0.95em" style="text-anchor: middle; visibility: hidden; font-family: Roboto, sans-serif; font-size: 12px; font-weight: 200;" fill="rgb(33, 33, 33)" stroke="none" stroke-width="1px">26k</text></g><line x1="0" y1="0" x2="270" y2="0" fill="rgb(0, 0, 0)" stroke="rgb(204, 204, 204)" stroke-width="1px"></line></g></g></g></g></svg>