<svg viewBox="0 0 330 200" xmlns="http://www.w3.org/2000/svg"><g><g><g><g><g><line x1="50" y1="177" x2="45" y2="177" style="visibility: inherit;" fill="rgb(0, 0, 0)" stroke="rgb(204, 204, 204)" stroke-width="1px"></line><line x1="50" y1="164.35714285714286" x2="45" y2="164.35714285714286" style="visibility: inherit;" fill="rgb(0, 0, 0)" stroke="rgb(204, 204, 204)" stroke-width="1px"></line><line x1="50" y1="151.7142857142857" x2="45" y2="151.7142857142857" style="visibility: inherit;" fill="rgb(0, 0, 0)" stroke="rgb(204, 204, 204)" stroke-width="1px"></line><line x1="50" y1="139.07142857142856" x2="45" y2="139.07142857142856" style="visibility: inherit;" fill="rgb(0, 0, 0)" stroke="rgb(204, 204, 204)" stroke-width="1px"></line><line x1="50" y1="126.42857142857142" x2="45" y2="126.42857142857142" style="visibility: inherit;" fill="rgb(0, 0, 0)" stroke="rgb(204, 204, 204)" stroke-width="1px"></line><line x1="50" y1="113.78571428571428" x2="45" y2="113.78571428571428" style="visibility: inherit;" fill="rgb(0, 0, 0)" stroke="rgb(204, 204, 204)" stroke-width="1px"></line><line x1="50" y1="101.14285714285714" x2="45" y2="101.14285714285714" style="visibility: inherit;" fill="rgb(0, 0, 0)" stroke="rgb(204, 204, 204)" stroke-width="1px"></line><line x1="50" y1="88.5" x2="45" y2="88.5" style="visibility: inherit;" fill="rgb(0, 0, 0)" stroke="rgb(204, 204, 204)" stroke-width="1px"></line><line x1="50" y1="75.85714285714285" x2="45" y2="75.85714285714285" style="visibility: inherit;" fill="rgb(0, 0, 0)" stroke="rgb(204, 204, 204)" stroke-width="1px"></line><line x1="50" y1="63.21428571428571" x2="45" y2="63.21428571428571" style="visibility: inherit;" fill="rgb(0, 0, 0)" stroke="rgb(204, 204, 204)" stroke-width="1px"></line><line x1="50" y1="50.57142857142857" x2="45" y2="50.57142857142857" style="visibility: inherit;" fill="rgb(0, 0, 0)" stroke="rgb(204, 204, 204)" stroke-width="1px"></line><line x1="50" y1="37.92857142857141" x2="45" y2="37.92857142857141" style="visibility: inherit;" fill="rgb(0, 0, 0)" stroke="rgb(204, 204, 204)" stroke-width="1px"></line><line x1="50" y1="25.285714285714274" x2="45" y2="25.285714285714274" style="visibility: inherit;" fill="rgb(0, 0, 0)" stroke="rgb(204, 204, 204)" stroke-width="1px"></line><line x1="50" y1="12.642857142857117" x2="45" y2="12.642857142857117" style="visibility: inherit;" fill="rgb(0, 0, 0)" stroke="rgb(204, 204, 204)" stroke-width="1px"></line><line x1="50" y1="0" x2="45" y2="0" style="visibility: inherit;" fill="rgb(0, 0, 0)" stroke="rgb(204, 204, 204)" stroke-width="1px"></line></g><g transform="translate(40, 0)"><text x="0" y="177" dx="0em" dy="0.3em" style="text-anchor: end; visibility: hidden; font-family: Roboto, sans-serif; font-size: 12px; font-weight: 200;" fill="rgb(33, 33, 33)" stroke="none" stroke-width="1px">0</text><text x="0" y="164.35714285714286" dx="0em" dy="0.3em" style="text-anchor: end; visibility: inherit; font-family: Roboto, sans-serif; font-size: 12px; font-weight: 200;" fill="rgb(33, 33, 33)" stroke="none" stroke-width="1px">0.05</text><text x="0" y="151.7142857142857" dx="0em" dy="0.3em" style="text-anchor: end; visibility: hidden; font-family: Roboto, sans-serif; font-size: 12px; font-weight: 200;" fill="rgb(33, 33, 33)" stroke="none" stroke-width="1px">0.1</text><text x="0" y="139.07142857142856" dx="0em" dy="0.3em" style="text-anchor: end; visibility: inherit; font-family: Roboto, sans-serif; font-size: 12px; font-weight: 200;" fill="rgb(33, 33, 33)" stroke="none" stroke-width="1px">0.15</text><text x="0" y="126.42857142857142" dx="0em" dy="0.3em" style="text-anchor: end; visibility: hidden; font-family: Roboto, sans-serif; font-size: 12px; font-weight: 200;" fill="rgb(33, 33, 33)" stroke="none" stroke-width="1px">0.2</text><text x="0" y="113.78571428571428" dx="0em" dy="0.3em" style="text-anchor: end; visibility: inherit; font-family: Roboto, sans-serif; font-size: 12px; font-weight: 200;" fill="rgb(33, 33, 33)" stroke="none" stroke-width="1px">0.25</text><text x="0" y="101.14285714285714" dx="0em" dy="0.3em" style="text-anchor: end; visibility: hidden; font-family: Roboto, sans-serif; font-size: 12px; font-weight: 200;" fill="rgb(33, 33, 33)" stroke="none" stroke-width="1px">0.3</text><text x="0" y="88.5" dx="0em" dy="0.3em" style="text-anchor: end; visibility: inherit; font-family: Roboto, sans-serif; font-size: 12px; font-weight: 200;" fill="rgb(33, 33, 33)" stroke="none" stroke-width="1px">0.35</text><text x="0" y="75.85714285714285" dx="0em" dy="0.3em" style="text-anchor: end; visibility: hidden; font-family: Roboto, sans-serif; font-size: 12px; font-weight: 200;" fill="rgb(33, 33, 33)" stroke="none" stroke-width="1px">0.4</text><text x="0" y="63.21428571428571" dx="0em" dy="0.3em" style="text-anchor: end; visibility: inherit; font-family: Roboto, sans-serif; font-size: 12px; font-weight: 200;" fill="rgb(33, 33, 33)" stroke="none" stroke-width="1px">0.45</text><text x="0" y="50.57142857142857" dx="0em" dy="0.3em" style="text-anchor: end; visibility: hidden; font-family: Roboto, sans-serif; font-size: 12px; font-weight: 200;" fill="rgb(33, 33, 33)" stroke="none" stroke-width="1px">0.5</text><text x="0" y="37.92857142857141" dx="0em" dy="0.3em" style="text-anchor: end; visibility: inherit; font-family: Roboto, sans-serif; font-size: 12px; font-weight: 200;" fill="rgb(33, 33, 33)" stroke="none" stroke-width="1px">0.55</text><text x="0" y="25.285714285714274" dx="0em" dy="0.3em" style="text-anchor: end; visibility: hidden; font-family: Roboto, sans-serif; font-size: 12px; font-weight: 200;" fill="rgb(33, 33, 33)" stroke="none" stroke-width="1px">0.6</text><text x="0" y="12.642857142857117" dx="0em" dy="0.3em" style="text-anchor: end; visibility: inherit; font-family: Roboto, sans-serif; font-size: 12px; font-weight: 200;" fill="rgb(33, 33, 33)" stroke="none" stroke-width="1px">0.65</text><text x="0" y="0" dx="0em" dy="0.3em" style="text-anchor: end; visibility: hidden; font-family: Roboto, sans-serif; font-size: 12px; font-weight: 200;" fill="rgb(33, 33, 33)" stroke="none" stroke-width="1px">0.7</text></g><line x1="50" y1="0" x2="50" y2="177" fill="rgb(0, 0, 0)" stroke="rgb(204, 204, 204)" stroke-width="1px"></line></g></g><g transform="translate(50, 0)" clip-path="url(#clip_0)"><clipPath id="clip_0"><rect width="280" height="176"></rect></clipPath><g><g><g><line x1="0" y1="0" x2="0" y2="177" fill="rgb(0, 0, 0)" stroke="rgb(66, 66, 66)" stroke-width="1px" opacity="0.25"></line><line x1="20" y1="0" x2="20" y2="177" fill="rgb(0, 0, 0)" stroke="rgb(66, 66, 66)" stroke-width="1px" opacity="0.25"></line><line x1="40" y1="0" x2="40" y2="177" fill="rgb(0, 0, 0)" stroke="rgb(66, 66, 66)" stroke-width="1px" opacity="0.25"></line><line x1="60" y1="0" x2="60" y2="177" fill="rgb(0, 0, 0)" stroke="rgb(66, 66, 66)" stroke-width="1px" opacity="0.25"></line><line x1="80" y1="0" x2="80" y2="177" fill="rgb(0, 0, 0)" stroke="rgb(66, 66, 66)" stroke-width="1px" opacity="0.25"></line><line x1="100" y1="0" x2="100" y2="177" fill="rgb(0, 0, 0)" stroke="rgb(66, 66, 66)" stroke-width="1px" opacity="0.25"></line><line x1="120" y1="0" x2="120" y2="177" fill="rgb(0, 0, 0)" stroke="rgb(66, 66, 66)" stroke-width="1px" opacity="0.25"></line><line x1="140" y1="0" x2="140" y2="177" fill="rgb(0, 0, 0)" stroke="rgb(66, 66, 66)" stroke-width="1px" opacity="0.25"></line><line x1="160" y1="0" x2="160" y2="177" fill="rgb(0, 0, 0)" stroke="rgb(66, 66, 66)" stroke-width="1px" opacity="0.25"></line><line x1="180" y1="0" x2="180" y2="177" fill="rgb(0, 0, 0)" stroke="rgb(66, 66, 66)" stroke-width="1px" opacity="0.25"></line><line x1="200" y1="0" x2="200" y2="177" fill="rgb(0, 0, 0)" stroke="rgb(66, 66, 66)" stroke-width="1px" opacity="0.25"></line><line x1="220" y1="0" x2="220" y2="177" fill="rgb(0, 0, 0)" stroke="rgb(66, 66, 66)" stroke-width="1px" opacity="0.25"></line><line x1="240" y1="0" x2="240" y2="177" fill="rgb(0, 0, 0)" stroke="rgb(66, 66, 66)" stroke-width="1px" opacity="0.25"></line><line x1="260" y1="0" x2="260" y2="177" fill="rgb(0, 0, 0)" stroke="rgb(66, 66, 66)" stroke-width="1px" opacity="0.25"></line><line x1="280" y1="0" x2="280" y2="177" fill="rgb(0, 0, 0)" stroke="rgb(66, 66, 66)" stroke-width="1px" opacity="0.25"></line></g><g><line x1="0" y1="177" x2="280" y2="177" fill="rgb(0, 0, 0)" stroke="rgb(66, 66, 66)" stroke-width="1px" opacity="0.25"></line><line x1="0" y1="164.35714285714286" x2="280" y2="164.35714285714286" fill="rgb(0, 0, 0)" stroke="rgb(66, 66, 66)" stroke-width="1px" opacity="0.25"></line><line x1="0" y1="151.7142857142857" x2="280" y2="151.7142857142857" fill="rgb(0, 0, 0)" stroke="rgb(66, 66, 66)" stroke-width="1px" opacity="0.25"></line><line x1="0" y1="139.07142857142856" x2="280" y2="139.07142857142856" fill="rgb(0, 0, 0)" stroke="rgb(66, 66, 66)" stroke-width="1px" opacity="0.25"></line><line x1="0" y1="126.42857142857142" x2="280" y2="126.42857142857142" fill="rgb(0, 0, 0)" stroke="rgb(66, 66, 66)" stroke-width="1px" opacity="0.25"></line><line x1="0" y1="113.78571428571428" x2="280" y2="113.78571428571428" fill="rgb(0, 0, 0)" stroke="rgb(66, 66, 66)" stroke-width="1px" opacity="0.25"></line><line x1="0" y1="101.14285714285714" x2="280" y2="101.14285714285714" fill="rgb(0, 0, 0)" stroke="rgb(66, 66, 66)" stroke-width="1px" opacity="0.25"></line><line x1="0" y1="88.5" x2="280" y2="88.5" fill="rgb(0, 0, 0)" stroke="rgb(66, 66, 66)" stroke-width="1px" opacity="0.25"></line><line x1="0" y1="75.85714285714285" x2="280" y2="75.85714285714285" fill="rgb(0, 0, 0)" stroke="rgb(66, 66, 66)" stroke-width="1px" opacity="0.25"></line><line x1="0" y1="63.21428571428571" x2="280" y2="63.21428571428571" fill="rgb(0, 0, 0)" stroke="rgb(66, 66, 66)" stroke-width="1px" opacity="0.25"></line><line x1="0" y1="50.57142857142857" x2="280" y2="50.57142857142857" fill="rgb(0, 0, 0)" stroke="rgb(66, 66, 66)" stroke-width="1px" opacity="0.25"></line><line x1="0" y1="37.92857142857141" x2="280" y2="37.92857142857141" fill="rgb(0, 0, 0)" stroke="rgb(66, 66, 66)" stroke-width="1px" opacity="0.25"></line><line x1="0" y1="25.285714285714274" x2="280" y2="25.285714285714274" fill="rgb(0, 0, 0)" stroke="rgb(66, 66, 66)" stroke-width="1px" opacity="0.25"></line><line x1="0" y1="12.642857142857117" x2="280" y2="12.642857142857117" fill="rgb(0, 0, 0)" stroke="rgb(66, 66, 66)" stroke-width="1px" opacity="0.25"></line><line x1="0" y1="0" x2="280" y2="0" fill="rgb(0, 0, 0)" stroke="rgb(66, 66, 66)" stroke-width="1px" opacity="0.25"></line></g></g></g><g><g><line x1="0" y1="177" x2="280" y2="177" fill="rgb(0, 0, 0)" stroke="rgb(153, 153, 153)" stroke-width="1.5px"></line></g></g><g><g><line x1="20" y1="0" x2="20" y2="177" fill="rgb(0, 0, 0)" stroke="rgb(153, 153, 153)" stroke-width="1.5px"></line></g></g><g><g><g><g><g><path stroke="rgb(255, 112, 67)" stroke-width="2px" d="M21,18.167201399803183L22,23.68491006961889L23,38.287346984485154L24,54.4500012208371L25,82.02233413546386L26,95.01155584817587L27,97.43746596233726L28,100.80197924711716L29.000000000000004,97.63531280935439L30,103.64234695468282L31,101.49662580992921L32,104.80403831525327L33,111.52541217005219L34,109.15773743588011L35,116.66592137460808L36,120.37176754186264L37,115.56417440438437L38,121.93354652830246L39,120.61115735491182L40,124.32797531160784L41,101.436661830326L42,110.42471287618795L43,115.6587037743291L44,121.0950629534213L45,120.64587209884048L46,118.18261018918483L46.99999999999999,125.98004272081154L48,132.74747664598573L49,134.869614233597L50,137.97183496138652L51,139.435464229473L52,142.03453277632926L53,143.62389062194208L54,145.27583990098938L55,146.54126329657075L56,147.8290915196762L57,148.06474333329416L58.00000000000001,148.52742931696483L59,149.33209815900184L60,149.84494818684863L61,150.1013361133025L62,150.61340165263533L63,150.98565096600487L64,150.95191158618124L65,151.0909039636817L66,151.11775127157793L67,151.5015769096387L68,151.8788860972115L69,151.74621064958836L70,152.1065269857547L71,152.02925511129638L72,152.35870035333014L73,152.4571302225745L74,152.3659158896879L75,152.81740071228882L76,152.9874168157256L77,153.39227918078L78,153.74615645751487L79,153.94171130266864L80,153.85426601959088L81.00000000000001,153.9164587509204L82,154.21727551018327L83,154.51834101503738L84,154.5972524831802L85,154.06903235700108L86,154.258728922354L87,154.7222770807256L88,154.9945250919867L89,155.32869458198428L90,155.51557619741914L91,155.68824420792674L92,155.83950926062013L93,155.81026028341552L93.99999999999999,155.86825433052053L95,156.08966331799994L96,156.21827890518833L97,156.44206869713298L98,156.57543225610496L99,156.7307195243407L100,156.31364534020577L101,156.73292633383707L102,156.851669397886L103,157.1401025132237L104,157.1656308730269L105,157.26977681448437L106,157.3415710060193L107,157.47997149227993L108,157.4719108358388L109,157.57584441651235L110,157.85995472639402L111,158.0242303100545L112,157.85817246957532L113,157.89421481768352L114,158.20117084993672L115,158.39917253400282L116.00000000000001,158.41147559252616L117,158.56709126708392L118,158.56235601607594L119,158.79793556905256L120,158.99128963490492L121,158.99181776436836L122,159.1188389006246L123,159.35729961906947L124,159.32840842877587L125,159.49012040080623L126,159.64996467647723L127,159.61999440646545L128,159.7296290799504L129,159.81411884113447L130,159.84314596669168L131,159.77014026310957L132,159.9852652804072L133,160.11101628024326L134,160.25703221027564L135,160.42132460411239L136,160.59530556998163L137,160.70137687803214L138,160.8006297554002L139,160.8715182341676L140,160.8508521674598L141,161.0633688259097L142,161.13209409769777L143,161.29409046581372L144,161.28108803057407L145,161.40693952472392L146,161.4896813310212L147,161.61786228664585L148,161.66566598648265L149,161.7725506221746L150,161.81656288818346L151,161.72478701600926L152,161.91940924312937L152.99999999999997,161.9651907269477L154,162.01994348160056L155,161.95657064330697L156,162.00487211958412L157,162.25752816907925L158,162.32286406430734L159,162.48974912814748L160,162.1635771331337L161,162.46606293627218L162.00000000000003,162.59573911484665L163,162.46274520669334L164,162.72866856540753L165,162.85063850360137L166,162.84335318704942L167,162.96335696152576L168,163.12043535820254L169,163.23832763329682L170,163.33488945251597L171,163.36626610977416L172,163.25085098510195L173,163.27857394580877L174,163.46244629617578L175,163.5115735494855L176,163.65037525931717L177,163.50588582897018L178,163.70471646241361L179,163.83500269052308L180,163.97688638778965L181,164.0524085502855L182,164.10578658612476L183,164.18597275148403L184,164.30985659353564L185,164.25753727423157L186,164.36691048321472L187,164.3997765899057L187.99999999999997,164.46378034857756L189,164.3528617352715L190,164.4115502567231L191,164.45725348266515L192,164.6597974962063L193,164.6434061025932L194,164.72784098912547L195,164.79434617034443L196,164.9305721114388L197.00000000000003,165.035858339771L198,164.99271788060074L199,165.09557703223896L200,165.25098953043522L201,165.2625067615217L202,165.3266132915526L203,165.38315542605574L204,165.50268999165243L205,165.56041989452638L206,165.63864110800964L207,165.63777583050165L208,165.6323403536865L209,165.7340789163719L210,165.71648633371314L211,165.7477386378677L212,165.79834430502157L213,165.83957686560845L214,165.97496051257207L215,166.05269751306727L216,165.92922060659484L217,165.9406284509358L218,166.02581347719092L219,166.14787640602827L220,166.22510960742414L221,166.23893586721763L222,166.23778633899965L222.99999999999997,166.36297873249424L224,166.42816207633308L225,166.52389028351752L226,166.58559959000243L227,166.56237399753607L228,166.6506020420251L229,166.6886855679257L230,166.64992506140064L231,166.65980901448654L232.00000000000003,166.66044968060177L233,166.74461557383253L234,166.83682123116458L235,166.91339802192164L236,166.93663479696477L237,166.97798845697756L238,167.03316625416724L239,167.1080777719388L240,167.14728057234106L241,167.14179986497362L242,167.2157865847555L243,167.25417113259735L244,167.31083194075916L245,167.3595645458462L246,167.42222394148567L247,167.42132669278587L248,167.39660128748437L249,167.35019661023972L250,167.4344534407712L251,167.49084358525786L252,167.53621562828982L253,167.569504363258L254,167.58300855674364L255,167.68659367129302L256,167.73395473936256L257,167.77469795069814L258,167.78367227005282L259,167.84738341255803L260,167.89154222478757L261,167.9328610467843L262,167.9445348946156L263,167.96004327472033L264,168.00799265704146L265,168.04953158107068L266,168.11624734099138L267,168.0907747238602L268,168.13149896032536L269,168.1748802115819L270,168.22839591462366" style="fill: none;" fill="none"></path></g></g></g></g><g opacity="0.2"><g><g><g><path stroke="rgb(255, 112, 67)" stroke-width="2px" d="M21,18.16720139980314L22,26.99553527150834L23,52.305686422756736L24,73.45728260278702L25,118.02077198880059L26,112.98032559667314L27,100.90655624014991L28,105.70747191565377L29.000000000000004,92.96509490694318L30,112.56209257670811L31,98.29750562565667L32,109.74715828044074L33,121.58552650042942L34,105.6108638559069L35,127.9193716943264L36,125.92792314291L37,108.35481911046165L38,131.48598753128732L39,118.6277750475066L40,129.90286251476832L41,67.10094702243805L42,123.90649368933268L43,123.50958678552082L44,129.2495373232024L45,119.97208900962556L46,114.4877278293882L46.99999999999999,137.67617156675885L48,142.8986171441419L49,138.05281866022517L50,142.6251643385206L51,141.63090764624732L52,145.93313507948602L53,146.00792720062393L54,147.75376370123456L55,148.43939833555902L56,149.7608338211264L57,148.41822105007512L58.00000000000001,149.2214582881757L59,150.53910141757558L60,150.61422322690487L61,150.4859180024692L62,151.38149996101856L63,151.54402493579047L64,150.90130251646042L65,151.29939252989632L66,151.15802223341805L67,152.0773153666939L68,152.44484987854958L69,151.54719747815813L70,152.6470014899969L71,151.91334729960988L72,152.85286821637834L73,152.60477502644062L74,152.22909439035823L75,153.49462794618947L76,153.24244097088064L77,153.9995727283614L78,154.27697237261702L79,154.23504357039928L80,153.72309809497426L81.00000000000001,154.0097478479147L82,154.66850064907754L83,154.96993927231858L84,154.71561968539442L85,153.27670216773237L86,154.54327377038342L87,155.41759931828292L88,155.4028971088784L89,155.82994881698062L90,155.7958986205714L91,155.94724622368813L92,156.06640683966023L93,155.76638681760858L93.99999999999999,155.9552454011781L95,156.42177679921897L96,156.41120228597094L97,156.77775338504995L98,156.77547759456294L99,156.96365042669433L100,155.6880340640034L101,157.361847824284L102,157.02978399395943L103,157.57275218623025L104,157.2039234127317L105,157.42599572667052L106,157.44926229332174L107,157.68757222167085L108,157.45981985117706L109,157.73174478752273L110,158.28612019121647L111,158.27064368554522L112,157.60908570885658L113,157.94827833984579L114,158.6616048983165L115,158.69617506010192L116.00000000000001,158.4299301803112L117,158.8005147789206L118,158.55525313956397L119,159.15130489851745L120,159.28132073368343L121,158.99260995856355L122,159.30937060500892L123,159.71499069673675L124,159.28507164333547L125,159.73268835885185L126,159.88973108998368L127,159.5750390014478L128,159.8940810901778L129,159.94085348291057L130,159.88668665502752L131,159.66063170773643L132,160.30795280635357L133,160.2996427799974L134,160.4760561053242L135,160.66776319486755L136,160.85627701878548L137,160.86048384010792L138,160.94950907145227L139,160.97785095231873L140,160.81985306739807L141,161.38214381358455L142,161.2351820053799L143,161.53708501798766L144,161.26158437771457L145,161.5957167659487L146,161.61379404046704L147,161.8101337200829L148,161.73737153623784L149,161.93287757571252L150,161.8825812871967L151,161.58712320774794L152,162.2113425838096L152.99999999999997,162.03386295267512L154,162.10207261357988L155,161.86151138586658L156,162.07732433399985L157,162.63651224332196L158,162.42086790714944L159,162.7400767239077L160,161.67431914061308L161,162.9197916409799L162.00000000000003,162.79025338270833L163,162.26325434446335L164,163.12755360347884L165,163.03359341089214L166,162.83242521222147L167,163.14336262324025L168,163.35605295321773L169,163.41516604593824L170,163.47973218134473L171,163.41333109566142L172,163.07772829809358L173,163.32015838686908L174,163.73825482172626L175,163.58526442945004L176,163.85857782406467L177,163.28915168344975L178,164.0029624125787L179,164.03043203268732L180,164.18971193368944L181,164.1656917940293L182,164.18585363988365L183,164.30625199952294L184,164.495682356613L185,164.17905829527547L186,164.53097029668945L187,164.44907574994224L187.99999999999997,164.55978598658527L189,164.18648381531239L190,164.4995830389006L191,164.52580832157815L192,164.96361351651805L193,164.6188190121736L194,164.8544933189239L195,164.89410394217285L196,165.13491102308035L197.00000000000003,165.19378768226932L198,164.92800719184535L199,165.24986575969626L200,165.48410827772958L201,165.27978260815144L202,165.42277308659894L203,165.46796862781048L204,165.6819918400475L205,165.64701474883725L206,165.7559729282345L207,165.63647791423966L208,165.62418713846375L209,165.88668676040004L210,165.69009745972497L211,165.79461709409952L212,165.8742528057524L213,165.90142570648874L214,166.1780359830175L215,166.1693030138101L216,165.7440052468862L217,165.95774021744728L218,166.15359101657359L219,166.3309707992843L220,166.34095940951792L221,166.25967525690794L222,166.2360620466726L222.99999999999997,166.5507673227361L224,166.52593709209134L225,166.66748259429423L226,166.67816354972976L227,166.5275356088366L228,166.78294410875867L229,166.74581085677656L230,166.59178430161307L231,166.67463494411538L232.00000000000003,166.6614106797746L233,166.87086441367865L234,166.97512971716267L235,167.02826320805718L236,166.97148995952946L237,167.04001894699675L238,167.1159329499517L239,167.22044504859616L240,167.20608477294445L241,167.13357880392243L242,167.3267666644284L243,167.31174795436007L244,167.39582315300194L245,167.43266345347675L246,167.51621303494485L247,167.41998081973622L248,167.35951317953212L249,167.28058959437269L250,167.56083868656842L251,167.57542880198787L252,167.60427369283778L253,167.61943746571032L254,167.60326484697205L255,167.84197134311708L256,167.8049963414669L257,167.83581276770147L258,167.7971337490848L259,167.94295012631585L260,167.95778044313192L261,167.99483927977937L262,167.96204566636254L263,167.98330584487746L264,168.0799167305231L265,168.1118399671146L266,168.2163209808724L267,168.0525657981634L268,168.19258531502317L269,168.2399520884667L270,168.30866946918624" style="fill: none;" fill="none"></path></g></g></g></g></g></g><g transform="translate(50, 177)" clip-path="url(#clip_1)"><clipPath id="clip_1"><rect width="280" height="22"></rect></clipPath><g><g><line x1="0" y1="0" x2="0" y2="5" style="visibility: inherit;" fill="rgb(0, 0, 0)" stroke="rgb(204, 204, 204)" stroke-width="1px"></line><line x1="20" y1="0" x2="20" y2="5" style="visibility: inherit;" fill="rgb(0, 0, 0)" stroke="rgb(204, 204, 204)" stroke-width="1px"></line><line x1="40" y1="0" x2="40" y2="5" style="visibility: inherit;" fill="rgb(0, 0, 0)" stroke="rgb(204, 204, 204)" stroke-width="1px"></line><line x1="60" y1="0" x2="60" y2="5" style="visibility: inherit;" fill="rgb(0, 0, 0)" stroke="rgb(204, 204, 204)" stroke-width="1px"></line><line x1="80" y1="0" x2="80" y2="5" style="visibility: inherit;" fill="rgb(0, 0, 0)" stroke="rgb(204, 204, 204)" stroke-width="1px"></line><line x1="100" y1="0" x2="100" y2="5" style="visibility: inherit;" fill="rgb(0, 0, 0)" stroke="rgb(204, 204, 204)" stroke-width="1px"></line><line x1="120" y1="0" x2="120" y2="5" style="visibility: inherit;" fill="rgb(0, 0, 0)" stroke="rgb(204, 204, 204)" stroke-width="1px"></line><line x1="140" y1="0" x2="140" y2="5" style="visibility: inherit;" fill="rgb(0, 0, 0)" stroke="rgb(204, 204, 204)" stroke-width="1px"></line><line x1="160" y1="0" x2="160" y2="5" style="visibility: inherit;" fill="rgb(0, 0, 0)" stroke="rgb(204, 204, 204)" stroke-width="1px"></line><line x1="180" y1="0" x2="180" y2="5" style="visibility: inherit;" fill="rgb(0, 0, 0)" stroke="rgb(204, 204, 204)" stroke-width="1px"></line><line x1="200" y1="0" x2="200" y2="5" style="visibility: inherit;" fill="rgb(0, 0, 0)" stroke="rgb(204, 204, 204)" stroke-width="1px"></line><line x1="220" y1="0" x2="220" y2="5" style="visibility: inherit;" fill="rgb(0, 0, 0)" stroke="rgb(204, 204, 204)" stroke-width="1px"></line><line x1="240" y1="0" x2="240" y2="5" style="visibility: inherit;" fill="rgb(0, 0, 0)" stroke="rgb(204, 204, 204)" stroke-width="1px"></line><line x1="260" y1="0" x2="260" y2="5" style="visibility: inherit;" fill="rgb(0, 0, 0)" stroke="rgb(204, 204, 204)" stroke-width="1px"></line><line x1="280" y1="0" x2="280" y2="5" style="visibility: inherit;" fill="rgb(0, 0, 0)" stroke="rgb(204, 204, 204)" stroke-width="1px"></line></g><g transform="translate(0, 8)"><text x="0" y="0" dx="0em" dy="0.95em" style="text-anchor: middle; visibility: hidden; font-family: Roboto, sans-serif; font-size: 12px; font-weight: 200;" fill="rgb(33, 33, 33)" stroke="none" stroke-width="1px">-2k</text><text x="20" y="0" dx="0em" dy="0.95em" style="text-anchor: middle; visibility: inherit; font-family: Roboto, sans-serif; font-size: 12px; font-weight: 200;" fill="rgb(33, 33, 33)" stroke="none" stroke-width="1px">0</text><text x="40" y="0" dx="0em" dy="0.95em" style="text-anchor: middle; visibility: hidden; font-family: Roboto, sans-serif; font-size: 12px; font-weight: 200;" fill="rgb(33, 33, 33)" stroke="none" stroke-width="1px">2k</text><text x="60" y="0" dx="0em" dy="0.95em" style="text-anchor: middle; visibility: inherit; font-family: Roboto, sans-serif; font-size: 12px; font-weight: 200;" fill="rgb(33, 33, 33)" stroke="none" stroke-width="1px">4k</text><text x="80" y="0" dx="0em" dy="0.95em" style="text-anchor: middle; visibility: hidden; font-family: Roboto, sans-serif; font-size: 12px; font-weight: 200;" fill="rgb(33, 33, 33)" stroke="none" stroke-width="1px">6k</text><text x="100" y="0" dx="0em" dy="0.95em" style="text-anchor: middle; visibility: inherit; font-family: Roboto, sans-serif; font-size: 12px; font-weight: 200;" fill="rgb(33, 33, 33)" stroke="none" stroke-width="1px">8k</text><text x="120" y="0" dx="0em" dy="0.95em" style="text-anchor: middle; visibility: hidden; font-family: Roboto, sans-serif; font-size: 12px; font-weight: 200;" fill="rgb(33, 33, 33)" stroke="none" stroke-width="1px">10k</text><text x="140" y="0" dx="0em" dy="0.95em" style="text-anchor: middle; visibility: inherit; font-family: Roboto, sans-serif; font-size: 12px; font-weight: 200;" fill="rgb(33, 33, 33)" stroke="none" stroke-width="1px">12k</text><text x="160" y="0" dx="0em" dy="0.95em" style="text-anchor: middle; visibility: hidden; font-family: Roboto, sans-serif; font-size: 12px; font-weight: 200;" fill="rgb(33, 33, 33)" stroke="none" stroke-width="1px">14k</text><text x="180" y="0" dx="0em" dy="0.95em" style="text-anchor: middle; visibility: inherit; font-family: Roboto, sans-serif; font-size: 12px; font-weight: 200;" fill="rgb(33, 33, 33)" stroke="none" stroke-width="1px">16k</text><text x="200" y="0" dx="0em" dy="0.95em" style="text-anchor: middle; visibility: hidden; font-family: Roboto, sans-serif; font-size: 12px; font-weight: 200;" fill="rgb(33, 33, 33)" stroke="none" stroke-width="1px">18k</text><text x="220" y="0" dx="0em" dy="0.95em" style="text-anchor: middle; visibility: inherit; font-family: Roboto, sans-serif; font-size: 12px; font-weight: 200;" fill="rgb(33, 33, 33)" stroke="none" stroke-width="1px">20k</text><text x="240" y="0" dx="0em" dy="0.95em" style="text-anchor: middle; visibility: hidden; font-family: Roboto, sans-serif; font-size: 12px; font-weight: 200;" fill="rgb(33, 33, 33)" stroke="none" stroke-width="1px">22k</text><text x="260" y="0" dx="0em" dy="0.95em" style="text-anchor: middle; visibility: inherit; font-family: Roboto, sans-serif; font-size: 12px; font-weight: 200;" fill="rgb(33, 33, 33)" stroke="none" stroke-width="1px">24k</text><text x="280" y="0" dx="0em" dy="0.95em" style="text-anchor: middle; visibility: hidden; font-family: Roboto, sans-serif; font-size: 12px; font-weight: 200;" fill="rgb(33, 33, 33)" stroke="none" stroke-width="1px">26k</text></g><line x1="0" y1="0" x2="280" y2="0" fill="rgb(0, 0, 0)" stroke="rgb(204, 204, 204)" stroke-width="1px"></line></g></g></g></g></svg>