<svg viewBox="0 0 330 200" xmlns="http://www.w3.org/2000/svg"><g><g><g><g><g><line x1="60" y1="177" x2="55" y2="177" style="visibility: inherit;" fill="rgb(0, 0, 0)" stroke="rgb(204, 204, 204)" stroke-width="1px"></line><line x1="60" y1="157.33333333333331" x2="55" y2="157.33333333333331" style="visibility: inherit;" fill="rgb(0, 0, 0)" stroke="rgb(204, 204, 204)" stroke-width="1px"></line><line x1="60" y1="137.66666666666666" x2="55" y2="137.66666666666666" style="visibility: inherit;" fill="rgb(0, 0, 0)" stroke="rgb(204, 204, 204)" stroke-width="1px"></line><line x1="60" y1="118.00000000000001" x2="55" y2="118.00000000000001" style="visibility: inherit;" fill="rgb(0, 0, 0)" stroke="rgb(204, 204, 204)" stroke-width="1px"></line><line x1="60" y1="98.33333333333334" x2="55" y2="98.33333333333334" style="visibility: inherit;" fill="rgb(0, 0, 0)" stroke="rgb(204, 204, 204)" stroke-width="1px"></line><line x1="60" y1="78.66666666666666" x2="55" y2="78.66666666666666" style="visibility: inherit;" fill="rgb(0, 0, 0)" stroke="rgb(204, 204, 204)" stroke-width="1px"></line><line x1="60" y1="58.999999999999986" x2="55" y2="58.999999999999986" style="visibility: inherit;" fill="rgb(0, 0, 0)" stroke="rgb(204, 204, 204)" stroke-width="1px"></line><line x1="60" y1="39.33333333333335" x2="55" y2="39.33333333333335" style="visibility: inherit;" fill="rgb(0, 0, 0)" stroke="rgb(204, 204, 204)" stroke-width="1px"></line><line x1="60" y1="19.666666666666657" x2="55" y2="19.666666666666657" style="visibility: inherit;" fill="rgb(0, 0, 0)" stroke="rgb(204, 204, 204)" stroke-width="1px"></line><line x1="60" y1="0" x2="55" y2="0" style="visibility: inherit;" fill="rgb(0, 0, 0)" stroke="rgb(204, 204, 204)" stroke-width="1px"></line></g><g transform="translate(50, 0)"><text x="0" y="177" dx="0em" dy="0.3em" style="text-anchor: end; visibility: hidden; font-family: Roboto, sans-serif; font-size: 12px; font-weight: 200;" fill="rgb(33, 33, 33)" stroke="none" stroke-width="1px">-0.02</text><text x="0" y="157.33333333333331" dx="0em" dy="0.3em" style="text-anchor: end; visibility: inherit; font-family: Roboto, sans-serif; font-size: 12px; font-weight: 200;" fill="rgb(33, 33, 33)" stroke="none" stroke-width="1px">0</text><text x="0" y="137.66666666666666" dx="0em" dy="0.3em" style="text-anchor: end; visibility: hidden; font-family: Roboto, sans-serif; font-size: 12px; font-weight: 200;" fill="rgb(33, 33, 33)" stroke="none" stroke-width="1px">0.02</text><text x="0" y="118.00000000000001" dx="0em" dy="0.3em" style="text-anchor: end; visibility: inherit; font-family: Roboto, sans-serif; font-size: 12px; font-weight: 200;" fill="rgb(33, 33, 33)" stroke="none" stroke-width="1px">0.04</text><text x="0" y="98.33333333333334" dx="0em" dy="0.3em" style="text-anchor: end; visibility: hidden; font-family: Roboto, sans-serif; font-size: 12px; font-weight: 200;" fill="rgb(33, 33, 33)" stroke="none" stroke-width="1px">0.06</text><text x="0" y="78.66666666666666" dx="0em" dy="0.3em" style="text-anchor: end; visibility: inherit; font-family: Roboto, sans-serif; font-size: 12px; font-weight: 200;" fill="rgb(33, 33, 33)" stroke="none" stroke-width="1px">0.08</text><text x="0" y="58.999999999999986" dx="0em" dy="0.3em" style="text-anchor: end; visibility: hidden; font-family: Roboto, sans-serif; font-size: 12px; font-weight: 200;" fill="rgb(33, 33, 33)" stroke="none" stroke-width="1px">0.1</text><text x="0" y="39.33333333333335" dx="0em" dy="0.3em" style="text-anchor: end; visibility: inherit; font-family: Roboto, sans-serif; font-size: 12px; font-weight: 200;" fill="rgb(33, 33, 33)" stroke="none" stroke-width="1px">0.12</text><text x="0" y="19.666666666666657" dx="0em" dy="0.3em" style="text-anchor: end; visibility: hidden; font-family: Roboto, sans-serif; font-size: 12px; font-weight: 200;" fill="rgb(33, 33, 33)" stroke="none" stroke-width="1px">0.14</text><text x="0" y="0" dx="0em" dy="0.3em" style="text-anchor: end; visibility: hidden; font-family: Roboto, sans-serif; font-size: 12px; font-weight: 200;" fill="rgb(33, 33, 33)" stroke="none" stroke-width="1px">0.16</text></g><line x1="60" y1="0" x2="60" y2="177" fill="rgb(0, 0, 0)" stroke="rgb(204, 204, 204)" stroke-width="1px"></line></g></g><g transform="translate(60, 0)" clip-path="url(#clip_0)"><clipPath id="clip_0"><rect width="270" height="176"></rect></clipPath><g><g><g><line x1="0" y1="0" x2="0" y2="177" fill="rgb(0, 0, 0)" stroke="rgb(66, 66, 66)" stroke-width="1px" opacity="0.25"></line><line x1="19.285714285714285" y1="0" x2="19.285714285714285" y2="177" fill="rgb(0, 0, 0)" stroke="rgb(66, 66, 66)" stroke-width="1px" opacity="0.25"></line><line x1="38.57142857142857" y1="0" x2="38.57142857142857" y2="177" fill="rgb(0, 0, 0)" stroke="rgb(66, 66, 66)" stroke-width="1px" opacity="0.25"></line><line x1="57.857142857142854" y1="0" x2="57.857142857142854" y2="177" fill="rgb(0, 0, 0)" stroke="rgb(66, 66, 66)" stroke-width="1px" opacity="0.25"></line><line x1="77.14285714285714" y1="0" x2="77.14285714285714" y2="177" fill="rgb(0, 0, 0)" stroke="rgb(66, 66, 66)" stroke-width="1px" opacity="0.25"></line><line x1="96.42857142857143" y1="0" x2="96.42857142857143" y2="177" fill="rgb(0, 0, 0)" stroke="rgb(66, 66, 66)" stroke-width="1px" opacity="0.25"></line><line x1="115.71428571428571" y1="0" x2="115.71428571428571" y2="177" fill="rgb(0, 0, 0)" stroke="rgb(66, 66, 66)" stroke-width="1px" opacity="0.25"></line><line x1="135" y1="0" x2="135" y2="177" fill="rgb(0, 0, 0)" stroke="rgb(66, 66, 66)" stroke-width="1px" opacity="0.25"></line><line x1="154.28571428571428" y1="0" x2="154.28571428571428" y2="177" fill="rgb(0, 0, 0)" stroke="rgb(66, 66, 66)" stroke-width="1px" opacity="0.25"></line><line x1="173.57142857142858" y1="0" x2="173.57142857142858" y2="177" fill="rgb(0, 0, 0)" stroke="rgb(66, 66, 66)" stroke-width="1px" opacity="0.25"></line><line x1="192.85714285714286" y1="0" x2="192.85714285714286" y2="177" fill="rgb(0, 0, 0)" stroke="rgb(66, 66, 66)" stroke-width="1px" opacity="0.25"></line><line x1="212.14285714285714" y1="0" x2="212.14285714285714" y2="177" fill="rgb(0, 0, 0)" stroke="rgb(66, 66, 66)" stroke-width="1px" opacity="0.25"></line><line x1="231.42857142857142" y1="0" x2="231.42857142857142" y2="177" fill="rgb(0, 0, 0)" stroke="rgb(66, 66, 66)" stroke-width="1px" opacity="0.25"></line><line x1="250.71428571428572" y1="0" x2="250.71428571428572" y2="177" fill="rgb(0, 0, 0)" stroke="rgb(66, 66, 66)" stroke-width="1px" opacity="0.25"></line><line x1="270" y1="0" x2="270" y2="177" fill="rgb(0, 0, 0)" stroke="rgb(66, 66, 66)" stroke-width="1px" opacity="0.25"></line></g><g><line x1="0" y1="177" x2="270" y2="177" fill="rgb(0, 0, 0)" stroke="rgb(66, 66, 66)" stroke-width="1px" opacity="0.25"></line><line x1="0" y1="157.33333333333331" x2="270" y2="157.33333333333331" fill="rgb(0, 0, 0)" stroke="rgb(66, 66, 66)" stroke-width="1px" opacity="0.25"></line><line x1="0" y1="137.66666666666666" x2="270" y2="137.66666666666666" fill="rgb(0, 0, 0)" stroke="rgb(66, 66, 66)" stroke-width="1px" opacity="0.25"></line><line x1="0" y1="118.00000000000001" x2="270" y2="118.00000000000001" fill="rgb(0, 0, 0)" stroke="rgb(66, 66, 66)" stroke-width="1px" opacity="0.25"></line><line x1="0" y1="98.33333333333334" x2="270" y2="98.33333333333334" fill="rgb(0, 0, 0)" stroke="rgb(66, 66, 66)" stroke-width="1px" opacity="0.25"></line><line x1="0" y1="78.66666666666666" x2="270" y2="78.66666666666666" fill="rgb(0, 0, 0)" stroke="rgb(66, 66, 66)" stroke-width="1px" opacity="0.25"></line><line x1="0" y1="58.999999999999986" x2="270" y2="58.999999999999986" fill="rgb(0, 0, 0)" stroke="rgb(66, 66, 66)" stroke-width="1px" opacity="0.25"></line><line x1="0" y1="39.33333333333335" x2="270" y2="39.33333333333335" fill="rgb(0, 0, 0)" stroke="rgb(66, 66, 66)" stroke-width="1px" opacity="0.25"></line><line x1="0" y1="19.666666666666657" x2="270" y2="19.666666666666657" fill="rgb(0, 0, 0)" stroke="rgb(66, 66, 66)" stroke-width="1px" opacity="0.25"></line><line x1="0" y1="0" x2="270" y2="0" fill="rgb(0, 0, 0)" stroke="rgb(66, 66, 66)" stroke-width="1px" opacity="0.25"></line></g></g></g><g><g><line x1="0" y1="157.33333333333331" x2="270" y2="157.33333333333331" fill="rgb(0, 0, 0)" stroke="rgb(153, 153, 153)" stroke-width="1.5px"></line></g></g><g><g><line x1="19.285714285714285" y1="0" x2="19.285714285714285" y2="177" fill="rgb(0, 0, 0)" stroke="rgb(153, 153, 153)" stroke-width="1.5px"></line></g></g><g><g><g><g><g><path stroke="rgb(255, 112, 67)" stroke-width="2px" d="M20.25,38.29236382246016L21.214285714285715,15.238101975371452L22.178571428571427,38.371471046184986L23.142857142857142,50.54085560637872L24.107142857142858,65.60765696238539L25.071428571428573,85.81676362640654L26.03571428571429,80.78475664278828L27,86.53422865047044L27.964285714285715,72.7846035035777L28.928571428571427,80.41291371939406L29.892857142857142,97.43405192579074L30.857142857142858,97.34648938382084L31.82142857142857,99.3004279086223L32.785714285714285,94.87742402231619L33.75,92.09027688443166L34.71428571428571,92.9963682932539L35.67857142857143,93.16905431988822L36.64285714285714,104.18129696991632L37.60714285714286,105.99893298483221L38.57142857142857,100.15067490594251L39.535714285714285,103.11409458669951L40.5,106.74706486549454L41.464285714285715,102.50979538476707L42.42857142857143,103.39720296667392L43.392857142857146,80.39100593498704L44.357142857142854,95.48770946369505L45.32142857142857,105.79790583353824L46.285714285714285,120.26323683520832L47.25,123.81962431453658L48.214285714285715,128.49680310960483L49.17857142857142,128.37813182076786L50.142857142857146,132.55551342027852L51.107142857142854,134.88467394670303L52.07142857142858,138.98981989354905L53.035714285714285,141.74836222635898L54,145.2907768604641L54.964285714285715,145.40240349719375L55.92857142857143,146.2683403500253L56.892857142857146,148.42411345376055L57.857142857142854,149.8371035689634L58.82142857142857,150.04982971337247L59.785714285714285,151.35191657530922L60.75,152.17085846296348L61.714285714285715,151.37904015585812L62.67857142857143,151.27437290342573L63.64285714285714,150.70885319122775L64.60714285714286,151.53618588875807L65.57142857142857,152.46916850098228L66.53571428571429,151.42931590886457L67.5,152.2079645901676L68.46428571428571,151.4042519773855L69.42857142857142,152.0431683008877L70.39285714285715,151.81695649892094L71.35714285714286,151.01707530353883L72.32142857142857,152.27058811921108L73.28571428571428,152.55465360135287L74.25,153.5108937968467L75.21428571428572,154.24077311311348L76.17857142857143,154.40726090531808L77.14285714285714,153.6864764259433L78.10714285714286,153.38730563419114L79.07142857142857,153.9583341142111L80.03571428571429,154.57183011774288L81,154.34642308346866L81.96428571428571,151.88333186641793L82.92857142857143,152.14124004027525L83.89285714285714,153.40332717226212L84.85714285714286,153.93448286140472L85.82142857142857,154.68212346114296L86.78571428571429,154.90542469075868L87.75,155.12287162635778L88.71428571428571,155.19846295930626L89.67857142857143,154.56252443792283L90.64285714285714,154.3360565409796L91.60714285714286,154.76229957239747L92.57142857142857,154.73431994639986L93.53571428571428,155.10894774492348L94.5,155.1891525346906L95.46428571428572,155.31848182277852L96.42857142857143,153.33691920872218L97.39285714285714,154.46940983663782L98.35714285714285,154.44228264271936L99.32142857142858,155.10301305997206L100.28571428571429,154.74626792217245L101.25,154.72047362101048L102.21428571428571,154.52355048834713L103.17857142857142,154.61675229028026L104.14285714285715,154.14725497874713L105.10714285714286,154.13224695624518L106.07142857142857,154.78277952330524L107.03571428571428,155.0357289837855L108,153.99189386665668L108.96428571428572,153.73006620570928L109.92857142857143,154.46794712625638L110.89285714285714,154.85534236939864L111.85714285714286,154.4882412644577L112.82142857142857,154.66309871137503L113.78571428571429,154.28229226722038L114.75,154.77614634485025L115.71428571428571,155.12180198670637L116.67857142857143,154.76100849902608L117.64285714285714,154.83633347193486L118.60714285714286,155.3753007199397L119.57142857142857,154.87820740492324L120.53571428571429,155.13660167466932L121.5,155.39132655864506L122.46428571428571,154.88089341184326L123.42857142857143,154.93550966860352L124.39285714285714,154.9119592468207L125.35714285714286,154.6620279402071L126.32142857142857,154.12169205412968L127.28571428571428,154.59414082601091L128.25,154.72499577689322L129.21428571428572,154.89383772548678L130.17857142857144,155.21199557728553L131.14285714285714,155.49371787402845L132.10714285714286,155.57313504156386L133.07142857142858,155.616036504218L134.03571428571428,155.52057493622144L135,155.096861659234L135.96428571428572,155.60443343628535L136.92857142857142,155.54854493304296L137.89285714285714,155.8365999499686L138.85714285714283,155.48460873881592L139.82142857142858,155.62358334978936L140.7857142857143,155.6311044366577L141.75,155.79072755274439L142.71428571428572,155.69292637450852L143.67857142857142,155.77415920013948L144.64285714285714,155.6275592831657L145.60714285714286,154.9269384847563L146.57142857142856,155.35931866192087L147.53571428571428,155.22554657360126L148.5,155.20046378268674L149.46428571428572,154.70347874891087L150.42857142857144,154.60600006797708L151.39285714285714,155.24725406647997L152.35714285714286,155.2221372817955L153.32142857142856,155.53263636055723L154.28571428571428,153.97908096958082L155.25,154.8517040747896L156.21428571428572,155.06376504438342L157.17857142857144,154.25780225803288L158.14285714285714,154.99823155942957L159.10714285714286,155.21059617391268L160.07142857142858,154.92194670501723L161.03571428571428,155.13591375900953L162,155.45091463321512L162.9642857142857,155.63200548012617L163.92857142857142,155.75640017254142L164.89285714285717,155.60983287912154L165.85714285714286,154.92763109490699L166.82142857142858,154.74783042629565L167.78571428571428,155.1933760249528L168.75,155.12205761036253L169.71428571428572,155.4175739928865L170.67857142857142,154.58802423644764L171.64285714285714,155.1318449505788L172.60714285714283,155.38870605332636L173.57142857142858,155.68411947267046L174.5357142857143,155.71766614912525L175.5,155.6832535169623L176.46428571428572,155.7567079223393L177.42857142857142,156.00817948510937L178.39285714285714,155.62429260768906L179.35714285714286,155.78600173028235L180.32142857142856,155.67379778219166L181.28571428571428,155.68880716325833L182.25,155.0607894516085L183.21428571428572,155.10674449465242L184.17857142857144,155.02854484856815L185.14285714285714,155.56486746550266L186.10714285714286,155.2972957718834L187.07142857142856,155.41810897879466L188.03571428571428,155.45890709082258L189,155.78541907973695L189.96428571428572,155.9722300843044L190.92857142857144,155.56950175343815L191.89285714285714,155.7466159217414L192.85714285714286,156.13690983803588L193.82142857142858,155.9622459517137L194.78571428571428,156.02040699813313L195.75,156.03776929689448L196.7142857142857,156.29762702175404L197.67857142857142,156.31037941329114L198.64285714285717,156.41348652344405L199.60714285714286,156.23547135569405L200.57142857142858,156.02215959852958L201.53571428571428,156.2054128268391L202.5,155.9309689152532L203.46428571428572,155.8818723827204L204.42857142857142,155.88583738203576L205.39285714285714,155.84531282094557L206.35714285714283,156.19046249204402L207.32142857142858,156.30121756543704L208.2857142857143,155.66818944397068L209.25,155.56127572631584L210.21428571428572,155.6814765858943L211.17857142857142,155.96492750707785L212.14285714285714,156.08546515642962L213.10714285714286,155.9646444065235L214.07142857142856,155.80589325397878L215.03571428571428,156.1181024810944L216,156.18622625251135L216.96428571428572,156.3725592888385L217.92857142857144,156.43735942602223L218.89285714285714,156.19297887804396L219.85714285714286,156.3746375658574L220.82142857142856,156.35191428703092L221.78571428571428,156.07241774741772L222.75,155.9783184997005L223.71428571428572,155.8491170522069L224.67857142857144,155.98162024547875L225.64285714285714,156.1656354473563L226.60714285714286,156.2902212522937L227.57142857142858,156.24991844785168L228.53571428571428,156.25026597873787L229.5,156.298035315763L230.4642857142857,156.43443789707644L231.42857142857142,156.44254252972357L232.39285714285717,156.2833716283904L233.35714285714286,156.41087356872484L234.32142857142858,156.43575760492706L235.28571428571428,156.50902055968075L236.25,156.55904665580616L237.21428571428572,156.65651077079633L238.17857142857142,156.5058492002757L239.14285714285714,156.2839518643454L240.10714285714283,155.9502628080394L241.07142857142858,156.14707447847985L242.0357142857143,156.23901555872408L243,156.2773688794051L243.96428571428572,156.2686710952433L244.92857142857142,156.20591249417907L245.89285714285714,156.46804651498533L246.85714285714286,156.51172418390743L247.82142857142856,156.54294415211137L248.78571428571428,156.4561454385186L249.75,156.56939210872963L250.71428571428572,156.63102646751557L251.67857142857144,156.6794570163049L252.64285714285714,156.60420188734005L253.60714285714286,156.5465826125934L254.57142857142856,156.60304880963105L255.53571428571428,156.64455781023818L256.5,156.7746555282686L257.4642857142857,156.5865223908209L258.42857142857144,156.61380154415232L259.39285714285717,156.67026488977044L260.3571428571429,156.75004928763164" style="fill: none;" fill="none"></path></g></g></g></g><g opacity="0.2"><g><g><g><path stroke="rgb(255, 112, 67)" stroke-width="2px" d="M20.25,38.29236382246018L21.214285714285715,1.4055448671181976L22.178571428571427,60.579505354166024L23.142857142857142,64.85205184916653L24.107142857142858,85.2788728127877L25.071428571428573,113.77323342114687L26.03571428571429,73.58890614410241L27,94.91701403260231L27.964285714285715,52.50657713909944L28.928571428571427,91.74006535609564L29.892857142857142,122.81137876460949L30.857142857142858,97.21562208235262L31.82142857142857,102.22495574752489L32.785714285714285,88.25158331791559L33.75,87.91283236443996L34.71428571428571,94.35486636062463L35.67857142857143,93.42801028490067L36.64285714285714,120.69686493774255L37.60714285714286,108.72511010865368L38.57142857142857,91.3788223415613L39.535714285714285,107.55906158685683L40.5,112.19640073925257L41.464285714285715,96.15397482117017L42.42857142857143,104.72830382734537L43.392857142857146,45.881873905658736L44.357142857142854,118.1327003762126L45.32142857142857,121.2631740073363L46.285714285714285,141.961211130023L47.25,129.15420225759348L48.214285714285715,135.51256871720156L49.17857142857142,128.2001249268651L50.142857142857146,138.82158498838544L51.107142857142854,138.37841445828477L52.07142857142858,145.14753851977486L53.035714285714285,145.88617560702065L54,150.60439872027686L54.964285714285715,145.56984345056117L55.92857142857143,147.56724562123418L56.892857142857146,151.65777309735617L57.857142857142854,151.9565887370457L58.82142857142857,150.3689189295595L59.785714285714285,153.3050468666479L60.75,153.3992712938537L61.714285714285715,150.19131269554296L62.67857142857143,151.11737202480435L63.64285714285714,149.86057362301895L64.60714285714286,152.7771849349762L65.57142857142857,153.8686424192662L66.53571428571429,149.86953702072302L67.5,153.37593761210638L68.46428571428571,150.19868305822212L69.42857142857142,153.00154278613627L70.39285714285715,151.47763879597187L71.35714285714286,149.8172535104677L72.32142857142857,154.15085734271753L73.28571428571428,152.98075182456523L74.25,154.94525409008688L75.21428571428572,155.33559208751345L76.17857142857143,154.65699259362492L77.14285714285714,152.60529970688123L78.10714285714286,152.93854944656292L79.07142857142857,154.81487683424106L80.03571428571429,155.49207412304045L81,154.00831253205735L81.96428571428571,148.1886950408419L82.92857142857143,152.52810230106115L83.89285714285714,155.29645787024248L84.85714285714286,154.7312163951186L85.82142857142857,155.8035843607504L86.78571428571429,155.2403765351822L87.75,155.44904202975644L88.71428571428571,155.311849958729L89.67857142857143,153.6086166558477L90.64285714285714,153.99635469556478L91.60714285714286,155.40166411952427L92.57142857142857,154.6923505074034L93.53571428571428,155.67088944270898L94.5,155.30945971934125L95.46428571428572,155.51247575491044L96.42857142857143,150.36457528763762L97.39285714285714,156.16814577851136L98.35714285714285,154.40159185184166L99.32142857142858,156.0941086858511L100.28571428571429,154.21115021547303L101.25,154.68178216926754L102.21428571428571,154.22816578935212L103.17857142857142,154.75655499317995L104.14285714285715,153.44300901144743L105.10714285714286,154.10973492249224L106.07142857142857,155.75857837389535L107.03571428571428,155.4151531745059L108,152.42614119096348L108.96428571428572,153.33732471428812L109.92857142857143,155.57476850707704L110.89285714285714,155.43643523411203L111.85714285714286,153.9375896070463L112.82142857142857,154.925384881751L113.78571428571429,153.71108260098845L114.75,155.51692746129507L115.71428571428571,155.64028544949056L116.67857142857143,154.21981826750562L117.64285714285714,154.94932093129802L118.60714285714286,156.18375159194693L119.57142857142857,154.13256743239862L120.53571428571429,155.5241930792884L121.5,155.7734138846087L122.46428571428571,154.1152436916406L123.42857142857143,155.0174340537439L124.39285714285714,154.87663361414647L125.35714285714286,154.28713098028675L126.32142857142857,153.31118822501352L127.28571428571428,155.3028139838328L128.25,154.9212782032167L129.21428571428572,155.1471006483771L130.17857142857144,155.6892323549837L131.14285714285714,155.9163013191428L132.10714285714286,155.69226079286696L133.07142857142858,155.68038869819915L134.03571428571428,155.37738258422664L135,154.46129174375284L135.96428571428572,156.36579110186236L136.92857142857142,155.46471217817935L137.89285714285714,156.268682475357L138.85714285714283,154.95662192208692L139.82142857142858,155.83204526624954L140.7857142857143,155.64238606696017L141.75,156.03016222687438L142.71428571428572,155.54622460715473L143.67857142857142,155.89600843858594L144.64285714285714,155.40765940770507L145.60714285714286,153.8760072871422L146.57142857142856,156.0078889276677L147.53571428571428,155.02488844112182L148.5,155.16283959631497L149.46428571428572,153.95800119824708L150.42857142857144,154.45978204657635L151.39285714285714,156.20913506423435L152.35714285714286,155.1844621047688L153.32142857142856,155.99838497869982L154.28571428571428,151.64874788311622L155.25,156.16063873260282L156.21428571428572,155.38185649877414L157.17857142857144,153.04885807850707L158.14285714285714,156.10887551152456L159.10714285714286,155.52914309563738L160.07142857142858,154.48897250167406L161.03571428571428,155.456864339998L162,155.9234159445235L162.9642857142857,155.90364175049277L163.92857142857142,155.9429922111643L164.89285714285717,155.3899819389917L165.85714285714286,153.90432841858518L166.82142857142858,154.47812942337865L167.78571428571428,155.86169442293857L168.75,155.01507998847714L169.71428571428572,155.86084856667247L170.67857142857142,153.34369960178933L171.64285714285714,155.9475760217756L172.60714285714283,155.77399770744765L173.57142857142858,156.1272396016866L174.5357142857143,155.7679861638074L175.5,155.63163456871794L176.46428571428572,155.86688953040476L177.42857142857142,156.38538682926446L178.39285714285714,155.04846229155856L179.35714285714286,156.02856541417228L180.32142857142856,155.50549186005568L181.28571428571428,155.71132123485827L182.25,154.11876288413382L183.21428571428572,155.1756770592183L184.17857142857144,154.91124537944174L185.14285714285714,156.36935139090446L186.10714285714286,154.89593823145452L187.07142857142856,155.59932878916152L188.03571428571428,155.5201042588645L189,156.27518706310852L189.96428571428572,156.2524465911556L190.92857142857144,154.9654092571388L191.89285714285714,156.01228717419627L192.85714285714286,156.72235071247755L193.82142857142858,155.7002501222305L194.78571428571428,156.10764856776223L195.75,156.06381274503656L196.7142857142857,156.68741360904338L197.67857142857142,156.32950800059672L198.64285714285717,156.56814718867344L199.60714285714286,155.96844860406904L200.57142857142858,155.7021919627829L201.53571428571428,156.4802926693034L202.5,155.51930304787433L203.46428571428572,155.8082275839212L204.42857142857142,155.8917848810088L205.39285714285714,155.78452597931027L206.35714285714283,156.70818699869173L207.32142857142858,156.46735017552663L208.2857142857143,154.71864726177105L209.25,155.4009051498336L210.21428571428572,155.86177787526202L211.17857142857142,156.39010388885313L212.14285714285714,156.26627163045728L213.10714285714286,155.78341328166425L214.07142857142856,155.56776652516174L215.03571428571428,156.5864163217678L216,156.28841190963675L216.96428571428572,156.65205884332923L217.92857142857144,156.53455963179778L218.89285714285714,155.82640805607662L219.85714285714286,156.64712559757754L220.82142857142856,156.31782936879125L221.78571428571428,155.65317293799794L222.75,155.83716962812468L223.71428571428572,155.65531488096653L224.67857142857144,156.18037503538653L225.64285714285714,156.44165825017262L226.60714285714286,156.47709995969976L227.57142857142858,156.18946424118866L228.53571428571428,156.25078727506724L229.5,156.36968932130065L230.4642857142857,156.63904176904666L231.42857142857142,156.45469947869424L232.39285714285717,156.0446152763907L233.35714285714286,156.60212647922648L234.32142857142858,156.47308365923044L235.28571428571428,156.6189149918112L236.25,156.63408579999424L237.21428571428572,156.80270694328163L238.17857142857142,156.27985684449473L239.14285714285714,155.95110586045L240.10714285714283,155.44972922358042L241.07142857142858,156.44229198414055L242.0357142857143,156.37692717909036L243,156.33489886042662L243.96428571428572,156.25562441900064L244.92857142857142,156.11177459258275L245.89285714285714,156.86124754619473L246.85714285714286,156.57724068729053L247.82142857142856,156.5897741044173L248.78571428571428,156.32594736812945L249.75,156.73926211404614L250.71428571428572,156.72347800569455L251.67857142857144,156.75210283948883L252.64285714285714,156.4913191938928L253.60714285714286,156.46015370047343L254.57142857142856,156.68774810518758L255.53571428571428,156.70682131114881L256.5,156.96980210531424L257.4642857142857,156.30432268464938L258.42857142857144,156.65472027414944L259.39285714285717,156.75495990819763L260.3571428571429,156.86972588442345" style="fill: none;" fill="none"></path></g></g></g></g></g></g><g transform="translate(60, 177)" clip-path="url(#clip_1)"><clipPath id="clip_1"><rect width="270" height="22"></rect></clipPath><g><g><line x1="0" y1="0" x2="0" y2="5" style="visibility: inherit;" fill="rgb(0, 0, 0)" stroke="rgb(204, 204, 204)" stroke-width="1px"></line><line x1="19.285714285714285" y1="0" x2="19.285714285714285" y2="5" style="visibility: inherit;" fill="rgb(0, 0, 0)" stroke="rgb(204, 204, 204)" stroke-width="1px"></line><line x1="38.57142857142857" y1="0" x2="38.57142857142857" y2="5" style="visibility: inherit;" fill="rgb(0, 0, 0)" stroke="rgb(204, 204, 204)" stroke-width="1px"></line><line x1="57.857142857142854" y1="0" x2="57.857142857142854" y2="5" style="visibility: inherit;" fill="rgb(0, 0, 0)" stroke="rgb(204, 204, 204)" stroke-width="1px"></line><line x1="77.14285714285714" y1="0" x2="77.14285714285714" y2="5" style="visibility: inherit;" fill="rgb(0, 0, 0)" stroke="rgb(204, 204, 204)" stroke-width="1px"></line><line x1="96.42857142857143" y1="0" x2="96.42857142857143" y2="5" style="visibility: inherit;" fill="rgb(0, 0, 0)" stroke="rgb(204, 204, 204)" stroke-width="1px"></line><line x1="115.71428571428571" y1="0" x2="115.71428571428571" y2="5" style="visibility: inherit;" fill="rgb(0, 0, 0)" stroke="rgb(204, 204, 204)" stroke-width="1px"></line><line x1="135" y1="0" x2="135" y2="5" style="visibility: inherit;" fill="rgb(0, 0, 0)" stroke="rgb(204, 204, 204)" stroke-width="1px"></line><line x1="154.28571428571428" y1="0" x2="154.28571428571428" y2="5" style="visibility: inherit;" fill="rgb(0, 0, 0)" stroke="rgb(204, 204, 204)" stroke-width="1px"></line><line x1="173.57142857142858" y1="0" x2="173.57142857142858" y2="5" style="visibility: inherit;" fill="rgb(0, 0, 0)" stroke="rgb(204, 204, 204)" stroke-width="1px"></line><line x1="192.85714285714286" y1="0" x2="192.85714285714286" y2="5" style="visibility: inherit;" fill="rgb(0, 0, 0)" stroke="rgb(204, 204, 204)" stroke-width="1px"></line><line x1="212.14285714285714" y1="0" x2="212.14285714285714" y2="5" style="visibility: inherit;" fill="rgb(0, 0, 0)" stroke="rgb(204, 204, 204)" stroke-width="1px"></line><line x1="231.42857142857142" y1="0" x2="231.42857142857142" y2="5" style="visibility: inherit;" fill="rgb(0, 0, 0)" stroke="rgb(204, 204, 204)" stroke-width="1px"></line><line x1="250.71428571428572" y1="0" x2="250.71428571428572" y2="5" style="visibility: inherit;" fill="rgb(0, 0, 0)" stroke="rgb(204, 204, 204)" stroke-width="1px"></line><line x1="270" y1="0" x2="270" y2="5" style="visibility: inherit;" fill="rgb(0, 0, 0)" stroke="rgb(204, 204, 204)" stroke-width="1px"></line></g><g transform="translate(0, 8)"><text x="0" y="0" dx="0em" dy="0.95em" style="text-anchor: middle; visibility: hidden; font-family: Roboto, sans-serif; font-size: 12px; font-weight: 200;" fill="rgb(33, 33, 33)" stroke="none" stroke-width="1px">-2k</text><text x="19.285714285714285" y="0" dx="0em" dy="0.95em" style="text-anchor: middle; visibility: inherit; font-family: Roboto, sans-serif; font-size: 12px; font-weight: 200;" fill="rgb(33, 33, 33)" stroke="none" stroke-width="1px">0</text><text x="38.57142857142857" y="0" dx="0em" dy="0.95em" style="text-anchor: middle; visibility: hidden; font-family: Roboto, sans-serif; font-size: 12px; font-weight: 200;" fill="rgb(33, 33, 33)" stroke="none" stroke-width="1px">2k</text><text x="57.857142857142854" y="0" dx="0em" dy="0.95em" style="text-anchor: middle; visibility: inherit; font-family: Roboto, sans-serif; font-size: 12px; font-weight: 200;" fill="rgb(33, 33, 33)" stroke="none" stroke-width="1px">4k</text><text x="77.14285714285714" y="0" dx="0em" dy="0.95em" style="text-anchor: middle; visibility: hidden; font-family: Roboto, sans-serif; font-size: 12px; font-weight: 200;" fill="rgb(33, 33, 33)" stroke="none" stroke-width="1px">6k</text><text x="96.42857142857143" y="0" dx="0em" dy="0.95em" style="text-anchor: middle; visibility: inherit; font-family: Roboto, sans-serif; font-size: 12px; font-weight: 200;" fill="rgb(33, 33, 33)" stroke="none" stroke-width="1px">8k</text><text x="115.71428571428571" y="0" dx="0em" dy="0.95em" style="text-anchor: middle; visibility: hidden; font-family: Roboto, sans-serif; font-size: 12px; font-weight: 200;" fill="rgb(33, 33, 33)" stroke="none" stroke-width="1px">10k</text><text x="135" y="0" dx="0em" dy="0.95em" style="text-anchor: middle; visibility: inherit; font-family: Roboto, sans-serif; font-size: 12px; font-weight: 200;" fill="rgb(33, 33, 33)" stroke="none" stroke-width="1px">12k</text><text x="154.28571428571428" y="0" dx="0em" dy="0.95em" style="text-anchor: middle; visibility: hidden; font-family: Roboto, sans-serif; font-size: 12px; font-weight: 200;" fill="rgb(33, 33, 33)" stroke="none" stroke-width="1px">14k</text><text x="173.57142857142858" y="0" dx="0em" dy="0.95em" style="text-anchor: middle; visibility: inherit; font-family: Roboto, sans-serif; font-size: 12px; font-weight: 200;" fill="rgb(33, 33, 33)" stroke="none" stroke-width="1px">16k</text><text x="192.85714285714286" y="0" dx="0em" dy="0.95em" style="text-anchor: middle; visibility: hidden; font-family: Roboto, sans-serif; font-size: 12px; font-weight: 200;" fill="rgb(33, 33, 33)" stroke="none" stroke-width="1px">18k</text><text x="212.14285714285714" y="0" dx="0em" dy="0.95em" style="text-anchor: middle; visibility: inherit; font-family: Roboto, sans-serif; font-size: 12px; font-weight: 200;" fill="rgb(33, 33, 33)" stroke="none" stroke-width="1px">20k</text><text x="231.42857142857142" y="0" dx="0em" dy="0.95em" style="text-anchor: middle; visibility: hidden; font-family: Roboto, sans-serif; font-size: 12px; font-weight: 200;" fill="rgb(33, 33, 33)" stroke="none" stroke-width="1px">22k</text><text x="250.71428571428572" y="0" dx="0em" dy="0.95em" style="text-anchor: middle; visibility: inherit; font-family: Roboto, sans-serif; font-size: 12px; font-weight: 200;" fill="rgb(33, 33, 33)" stroke="none" stroke-width="1px">24k</text><text x="270" y="0" dx="0em" dy="0.95em" style="text-anchor: middle; visibility: hidden; font-family: Roboto, sans-serif; font-size: 12px; font-weight: 200;" fill="rgb(33, 33, 33)" stroke="none" stroke-width="1px">26k</text></g><line x1="0" y1="0" x2="270" y2="0" fill="rgb(0, 0, 0)" stroke="rgb(204, 204, 204)" stroke-width="1px"></line></g></g></g></g></svg>