<svg viewBox="0 0 330 200" xmlns="http://www.w3.org/2000/svg"><g><g><g><g><g><line x1="41.171875" y1="177" x2="36.171875" y2="177" style="visibility: inherit;" fill="rgb(0, 0, 0)" stroke="rgb(204, 204, 204)" stroke-width="1px"></line><line x1="41.171875" y1="160.9090909090909" x2="36.171875" y2="160.9090909090909" style="visibility: inherit;" fill="rgb(0, 0, 0)" stroke="rgb(204, 204, 204)" stroke-width="1px"></line><line x1="41.171875" y1="144.8181818181818" x2="36.171875" y2="144.8181818181818" style="visibility: inherit;" fill="rgb(0, 0, 0)" stroke="rgb(204, 204, 204)" stroke-width="1px"></line><line x1="41.171875" y1="128.72727272727272" x2="36.171875" y2="128.72727272727272" style="visibility: inherit;" fill="rgb(0, 0, 0)" stroke="rgb(204, 204, 204)" stroke-width="1px"></line><line x1="41.171875" y1="112.63636363636364" x2="36.171875" y2="112.63636363636364" style="visibility: inherit;" fill="rgb(0, 0, 0)" stroke="rgb(204, 204, 204)" stroke-width="1px"></line><line x1="41.171875" y1="96.54545454545453" x2="36.171875" y2="96.54545454545453" style="visibility: inherit;" fill="rgb(0, 0, 0)" stroke="rgb(204, 204, 204)" stroke-width="1px"></line><line x1="41.171875" y1="80.45454545454547" x2="36.171875" y2="80.45454545454547" style="visibility: inherit;" fill="rgb(0, 0, 0)" stroke="rgb(204, 204, 204)" stroke-width="1px"></line><line x1="41.171875" y1="64.36363636363636" x2="36.171875" y2="64.36363636363636" style="visibility: inherit;" fill="rgb(0, 0, 0)" stroke="rgb(204, 204, 204)" stroke-width="1px"></line><line x1="41.171875" y1="48.272727272727266" x2="36.171875" y2="48.272727272727266" style="visibility: inherit;" fill="rgb(0, 0, 0)" stroke="rgb(204, 204, 204)" stroke-width="1px"></line><line x1="41.171875" y1="32.18181818181817" x2="36.171875" y2="32.18181818181817" style="visibility: inherit;" fill="rgb(0, 0, 0)" stroke="rgb(204, 204, 204)" stroke-width="1px"></line><line x1="41.171875" y1="16.090909090909097" x2="36.171875" y2="16.090909090909097" style="visibility: inherit;" fill="rgb(0, 0, 0)" stroke="rgb(204, 204, 204)" stroke-width="1px"></line><line x1="41.171875" y1="0" x2="36.171875" y2="0" style="visibility: inherit;" fill="rgb(0, 0, 0)" stroke="rgb(204, 204, 204)" stroke-width="1px"></line></g><g transform="translate(31.171875, 0)"><text x="0" y="177" dx="0em" dy="0.3em" style="text-anchor: end; visibility: hidden; font-family: Roboto, sans-serif; font-size: 12px; font-weight: 200;" fill="rgb(33, 33, 33)" stroke="none" stroke-width="1px">1</text><text x="0" y="160.9090909090909" dx="0em" dy="0.3em" style="text-anchor: end; visibility: inherit; font-family: Roboto, sans-serif; font-size: 12px; font-weight: 200;" fill="rgb(33, 33, 33)" stroke="none" stroke-width="1px">1.5</text><text x="0" y="144.8181818181818" dx="0em" dy="0.3em" style="text-anchor: end; visibility: hidden; font-family: Roboto, sans-serif; font-size: 12px; font-weight: 200;" fill="rgb(33, 33, 33)" stroke="none" stroke-width="1px">2</text><text x="0" y="128.72727272727272" dx="0em" dy="0.3em" style="text-anchor: end; visibility: inherit; font-family: Roboto, sans-serif; font-size: 12px; font-weight: 200;" fill="rgb(33, 33, 33)" stroke="none" stroke-width="1px">2.5</text><text x="0" y="112.63636363636364" dx="0em" dy="0.3em" style="text-anchor: end; visibility: hidden; font-family: Roboto, sans-serif; font-size: 12px; font-weight: 200;" fill="rgb(33, 33, 33)" stroke="none" stroke-width="1px">3</text><text x="0" y="96.54545454545453" dx="0em" dy="0.3em" style="text-anchor: end; visibility: inherit; font-family: Roboto, sans-serif; font-size: 12px; font-weight: 200;" fill="rgb(33, 33, 33)" stroke="none" stroke-width="1px">3.5</text><text x="0" y="80.45454545454547" dx="0em" dy="0.3em" style="text-anchor: end; visibility: hidden; font-family: Roboto, sans-serif; font-size: 12px; font-weight: 200;" fill="rgb(33, 33, 33)" stroke="none" stroke-width="1px">4</text><text x="0" y="64.36363636363636" dx="0em" dy="0.3em" style="text-anchor: end; visibility: inherit; font-family: Roboto, sans-serif; font-size: 12px; font-weight: 200;" fill="rgb(33, 33, 33)" stroke="none" stroke-width="1px">4.5</text><text x="0" y="48.272727272727266" dx="0em" dy="0.3em" style="text-anchor: end; visibility: hidden; font-family: Roboto, sans-serif; font-size: 12px; font-weight: 200;" fill="rgb(33, 33, 33)" stroke="none" stroke-width="1px">5</text><text x="0" y="32.18181818181817" dx="0em" dy="0.3em" style="text-anchor: end; visibility: inherit; font-family: Roboto, sans-serif; font-size: 12px; font-weight: 200;" fill="rgb(33, 33, 33)" stroke="none" stroke-width="1px">5.5</text><text x="0" y="16.090909090909097" dx="0em" dy="0.3em" style="text-anchor: end; visibility: hidden; font-family: Roboto, sans-serif; font-size: 12px; font-weight: 200;" fill="rgb(33, 33, 33)" stroke="none" stroke-width="1px">6</text><text x="0" y="0" dx="0em" dy="0.3em" style="text-anchor: end; visibility: hidden; font-family: Roboto, sans-serif; font-size: 12px; font-weight: 200;" fill="rgb(33, 33, 33)" stroke="none" stroke-width="1px">6.5</text></g><line x1="41.171875" y1="0" x2="41.171875" y2="177" fill="rgb(0, 0, 0)" stroke="rgb(204, 204, 204)" stroke-width="1px"></line></g></g><g transform="translate(41, 0)" clip-path="url(#clip_0)"><clipPath id="clip_0"><rect width="288" height="176"></rect></clipPath><g><g><g><line x1="0" y1="0" x2="0" y2="177" fill="rgb(0, 0, 0)" stroke="rgb(66, 66, 66)" stroke-width="1px" opacity="0.25"></line><line x1="20.630580357142858" y1="0" x2="20.630580357142858" y2="177" fill="rgb(0, 0, 0)" stroke="rgb(66, 66, 66)" stroke-width="1px" opacity="0.25"></line><line x1="41.261160714285715" y1="0" x2="41.261160714285715" y2="177" fill="rgb(0, 0, 0)" stroke="rgb(66, 66, 66)" stroke-width="1px" opacity="0.25"></line><line x1="61.89174107142857" y1="0" x2="61.89174107142857" y2="177" fill="rgb(0, 0, 0)" stroke="rgb(66, 66, 66)" stroke-width="1px" opacity="0.25"></line><line x1="82.52232142857143" y1="0" x2="82.52232142857143" y2="177" fill="rgb(0, 0, 0)" stroke="rgb(66, 66, 66)" stroke-width="1px" opacity="0.25"></line><line x1="103.15290178571429" y1="0" x2="103.15290178571429" y2="177" fill="rgb(0, 0, 0)" stroke="rgb(66, 66, 66)" stroke-width="1px" opacity="0.25"></line><line x1="123.78348214285714" y1="0" x2="123.78348214285714" y2="177" fill="rgb(0, 0, 0)" stroke="rgb(66, 66, 66)" stroke-width="1px" opacity="0.25"></line><line x1="144.4140625" y1="0" x2="144.4140625" y2="177" fill="rgb(0, 0, 0)" stroke="rgb(66, 66, 66)" stroke-width="1px" opacity="0.25"></line><line x1="165.04464285714286" y1="0" x2="165.04464285714286" y2="177" fill="rgb(0, 0, 0)" stroke="rgb(66, 66, 66)" stroke-width="1px" opacity="0.25"></line><line x1="185.67522321428572" y1="0" x2="185.67522321428572" y2="177" fill="rgb(0, 0, 0)" stroke="rgb(66, 66, 66)" stroke-width="1px" opacity="0.25"></line><line x1="206.30580357142858" y1="0" x2="206.30580357142858" y2="177" fill="rgb(0, 0, 0)" stroke="rgb(66, 66, 66)" stroke-width="1px" opacity="0.25"></line><line x1="226.93638392857142" y1="0" x2="226.93638392857142" y2="177" fill="rgb(0, 0, 0)" stroke="rgb(66, 66, 66)" stroke-width="1px" opacity="0.25"></line><line x1="247.56696428571428" y1="0" x2="247.56696428571428" y2="177" fill="rgb(0, 0, 0)" stroke="rgb(66, 66, 66)" stroke-width="1px" opacity="0.25"></line><line x1="268.19754464285717" y1="0" x2="268.19754464285717" y2="177" fill="rgb(0, 0, 0)" stroke="rgb(66, 66, 66)" stroke-width="1px" opacity="0.25"></line><line x1="288.828125" y1="0" x2="288.828125" y2="177" fill="rgb(0, 0, 0)" stroke="rgb(66, 66, 66)" stroke-width="1px" opacity="0.25"></line></g><g><line x1="0" y1="177" x2="288.828125" y2="177" fill="rgb(0, 0, 0)" stroke="rgb(66, 66, 66)" stroke-width="1px" opacity="0.25"></line><line x1="0" y1="160.9090909090909" x2="288.828125" y2="160.9090909090909" fill="rgb(0, 0, 0)" stroke="rgb(66, 66, 66)" stroke-width="1px" opacity="0.25"></line><line x1="0" y1="144.8181818181818" x2="288.828125" y2="144.8181818181818" fill="rgb(0, 0, 0)" stroke="rgb(66, 66, 66)" stroke-width="1px" opacity="0.25"></line><line x1="0" y1="128.72727272727272" x2="288.828125" y2="128.72727272727272" fill="rgb(0, 0, 0)" stroke="rgb(66, 66, 66)" stroke-width="1px" opacity="0.25"></line><line x1="0" y1="112.63636363636364" x2="288.828125" y2="112.63636363636364" fill="rgb(0, 0, 0)" stroke="rgb(66, 66, 66)" stroke-width="1px" opacity="0.25"></line><line x1="0" y1="96.54545454545453" x2="288.828125" y2="96.54545454545453" fill="rgb(0, 0, 0)" stroke="rgb(66, 66, 66)" stroke-width="1px" opacity="0.25"></line><line x1="0" y1="80.45454545454547" x2="288.828125" y2="80.45454545454547" fill="rgb(0, 0, 0)" stroke="rgb(66, 66, 66)" stroke-width="1px" opacity="0.25"></line><line x1="0" y1="64.36363636363636" x2="288.828125" y2="64.36363636363636" fill="rgb(0, 0, 0)" stroke="rgb(66, 66, 66)" stroke-width="1px" opacity="0.25"></line><line x1="0" y1="48.272727272727266" x2="288.828125" y2="48.272727272727266" fill="rgb(0, 0, 0)" stroke="rgb(66, 66, 66)" stroke-width="1px" opacity="0.25"></line><line x1="0" y1="32.18181818181817" x2="288.828125" y2="32.18181818181817" fill="rgb(0, 0, 0)" stroke="rgb(66, 66, 66)" stroke-width="1px" opacity="0.25"></line><line x1="0" y1="16.090909090909097" x2="288.828125" y2="16.090909090909097" fill="rgb(0, 0, 0)" stroke="rgb(66, 66, 66)" stroke-width="1px" opacity="0.25"></line><line x1="0" y1="0" x2="288.828125" y2="0" fill="rgb(0, 0, 0)" stroke="rgb(66, 66, 66)" stroke-width="1px" opacity="0.25"></line></g></g></g><g><g><line x1="0" y1="209.1818181818182" x2="288.828125" y2="209.1818181818182" fill="rgb(0, 0, 0)" stroke="rgb(153, 153, 153)" stroke-width="1.5px"></line></g></g><g><g><line x1="20.630580357142858" y1="0" x2="20.630580357142858" y2="177" fill="rgb(0, 0, 0)" stroke="rgb(153, 153, 153)" stroke-width="1.5px"></line></g></g><g><g><g><g><g><path stroke="rgb(255, 112, 67)" stroke-width="2px" d="M21.662109375,155.62681759487498L22.693638392857142,66.23359565572306L23.725167410714285,37.27940809350729L24.756696428571427,25.124617452688426L25.788225446428573,18.18827713860241L26.819754464285715,14.991872434017877L27.851283482142858,12.433515858146908L28.8828125,11.638448799345595L29.914341517857146,10.984809166071724L30.945870535714285,10.632227946619098L31.977399553571427,12.928934535494552L33.00892857142857,12.124820288059832L34.040457589285715,11.376702825592025L35.071986607142854,10.53478961460636L36.103515625,10.89272650384659L37.13504464285714,10.976459237367143L38.166573660714285,10.920253998721648L39.19810267857142,10.601787865052572L40.22963169642857,10.659408444553135L41.261160714285715,10.803168744356059L42.29268973214286,12.467420300550387L43.32421875,11.38671139890417L44.355747767857146,10.514789451469467L45.387276785714285,10.755039304571818L46.41880580357143,10.184344578205877L47.45033482142857,10.40127886435483L48.48186383928571,10.67041420745144L49.513392857142854,9.485874249411012L50.544921875,9.495554087293039L51.576450892857146,9.959627428294636L52.607979910714285,13.733994682512064L53.63950892857143,13.762537730857366L54.67103794642857,12.364920102071032L55.702566964285715,11.202971047338371L56.734095982142854,11.496819323906383L57.765625,11.861036842629572L58.797154017857146,11.903321366204292L59.82868303571429,12.471891621383211L60.86021205357143,12.568813420422487L61.89174107142857,12.371531665492956L62.923270089285715,15.35114630493042L63.954799107142854,13.307386438923876L64.986328125,12.397493074417486L66.01785714285714,12.26345447250149L67.04938616071429,11.90496495363852L68.08091517857143,12.400219961205476L69.11244419642857,13.242960262665704L70.14397321428571,13.591208855250155L71.17550223214286,12.658963268404309L72.20703125,12.42980782332325L73.23856026785714,14.4145278505754L74.27008928571428,13.170313480194723L75.30161830357143,12.777412392315354L76.33314732142857,11.864193053341477L77.36467633928571,13.79537393636513L78.39620535714285,14.049490576363269L79.427734375,13.41822972401384L80.45926339285714,13.73270864462233L81.49079241071429,13.566350539667525L82.52232142857143,13.582062638974978L83.55385044642858,14.647351458340644L84.58537946428572,12.466638108891066L85.61690848214286,11.994121728638081L86.6484375,12.159669947694185L87.67996651785714,10.140370290538144L88.71149553571429,10.172787723306353L89.74302455357143,10.52567719497459L90.77455357142857,10.093956204902035L91.80608258928571,11.078006246911377L92.83761160714286,11.35016473919128L93.869140625,14.063726273823699L94.90066964285714,12.724242483710064L95.93219866071428,11.821616787611491L96.96372767857142,11.751902810437556L97.99525669642857,11.79947722980836L99.02678571428571,11.701746940246519L100.05831473214286,12.00583924358239L101.08984375,11.44073617055017L102.12137276785715,12.096080281265209L103.15290178571429,12.253764217398619L104.18443080357143,15.548473275700628L105.21595982142857,14.61794279526544L106.24748883928572,14.004012463103406L107.27901785714286,13.337669464334441L108.310546875,13.171845508501239L109.34207589285714,12.318451924851715L110.37360491071428,12.728783876302199L111.40513392857143,13.163241478347015L112.43666294642857,12.739243389149976L113.46819196428571,12.766919134464342L114.49972098214285,15.027476691249895L115.53125,12.918217193727209L116.56277901785714,12.515967887536515L117.59430803571429,11.66675902176194L118.62583705357143,11.177931694795438L119.65736607142858,11.330268233185857L120.68889508928572,11.476950737607723L121.72042410714286,11.659617340591538L122.751953125,10.220385050572935L123.78348214285714,10.084289267592954L124.81501116071429,12.720145627816496L125.84654017857143,12.047652971449743L126.87806919642857,11.114474143154826L127.90959821428571,10.657400021837054L128.94112723214286,10.81870956793398L129.97265625,9.613166804381205L131.00418526785714,10.121156863079731L132.03571428571428,10.46820009235733L133.06724330357142,11.222878812294702L134.09877232142858,10.429423823354277L135.13030133928572,12.810846189930956L136.16183035714286,12.183975240481121L137.193359375,11.229573348967309L138.22488839285714,10.462161158317254L139.25641741071428,9.659718188520621L140.28794642857142,9.841404546479739L141.31947544642856,11.078413985045618L142.35100446428572,9.510399588703581L143.38253348214286,10.197102582257122L144.4140625,9.826774635846672L145.44559151785714,11.70557756143744L146.47712053571428,11.563075533832908L147.50864955357142,10.776193500897223L148.54017857142856,9.613762906180206L149.57170758928572,8.94344764627379L150.60323660714286,8.929057354521209L151.634765625,8.971327228042554L152.66629464285714,9.021972376087787L153.69782366071428,9.292602266927975L154.72935267857142,9.792691396944347L155.76088169642856,12.763135784322516L156.7924107142857,11.622074918746886L157.82393973214283,10.538154972943376L158.85546875,9.42291455414511L159.88699776785714,8.840951082063155L160.91852678571428,9.825651810736916L161.95005580357142,9.994815101834092L162.98158482142858,9.648556326558996L164.01311383928572,9.856154281553287L165.04464285714286,10.508278611856333L166.076171875,12.80607648107862L167.10770089285717,11.854229995092492L168.1392299107143,11.96082790295038L169.17075892857144,11.470145513576416L170.20228794642858,11.081140361568242L171.23381696428572,10.432371773814626L172.26534598214286,10.311220827072873L173.296875,9.845612140464251L174.32840401785714,9.932598940439783L175.35993303571428,9.742817247509162L176.39146205357144,12.074564589727519L177.42299107142858,11.04218200501284L178.45452008928572,10.53049618559601L179.48604910714286,10.641305468371112L180.517578125,9.952596668806748L181.54910714285714,9.045308098385428L182.58063616071428,9.438611715332312L183.61216517857142,9.836476494087524L184.64369419642856,9.523789055854156L185.67522321428572,9.275156799490386L186.70675223214286,12.743111227798831L187.73828125,11.575680156368133L188.76981026785714,11.581353292573542L189.80133928571428,10.682117230393647L190.83286830357142,10.751594993942433L191.86439732142856,10.744593491782286L192.8959263392857,10.186610803654236L193.92745535714283,10.493814973514446L194.958984375,9.913858578058411L195.99051339285714,9.565841773421944L197.02204241071428,12.20414122516378L198.05357142857142,11.266342344240211L199.08510044642858,10.313464117370652L200.11662946428572,9.62862866767692L201.14815848214286,9.691510093284165L202.1796875,10.248972169529184L203.21121651785717,10.186068829172239L204.2427455357143,10.591228262890848L205.27427455357144,10.290946376291439L206.30580357142858,10.16605168752469L207.33733258928572,12.448034318955688L208.36886160714286,11.638637423482328L209.400390625,10.423327530494301L210.43191964285714,10.163032148956209L211.46344866071428,10.115151088967544L212.49497767857144,10.399869364872869L213.52650669642858,10.388690581437027L214.55803571428572,10.254634186120283L215.58956473214286,10.472688480366672L216.62109375,10.275747598607047L217.65262276785714,12.429445550408484L218.68415178571428,12.247067396274042L219.71568080357142,11.401842829787688L220.74720982142856,10.743149924779116L221.77873883928572,10.517999003884267L222.81026785714286,10.787513692602664L223.841796875,10.29289603849306L224.87332589285714,10.205161666231039L225.90485491071428,10.113291840603333L226.93638392857142,9.755955929612806L227.96791294642856,11.913377364419404L228.9994419642857,10.926220291276813L230.03097098214283,10.658243702087663L231.0625,10.51981919183364L232.09402901785714,9.493759773489721L233.12555803571428,9.601688374469799L234.15708705357142,9.707252253363952L235.18861607142858,10.085283546121252L236.22014508928572,10.81820875044221L237.25167410714286,10.902120450405166L238.283203125,12.745520074364606L239.31473214285717,11.284677316447166L240.3462611607143,10.41671602870665L241.37779017857144,9.986164579826116L242.40931919642858,9.224728859035128L243.44084821428572,9.363339831734109L244.47237723214286,9.305254279123016L245.50390625,10.193894338825011L246.53543526785714,10.039054269920967L247.56696428571428,10.893457815248478L248.59849330357144,12.166069827144026L249.63002232142858,10.543241978683852L250.66155133928572,10.459614190783661L251.69308035714286,9.723181213389301L252.724609375,8.297393370755975L253.75613839285714,8.222668338904217L254.78766741071428,8.61307429075153L255.81919642857142,8.561640142743732L256.85072544642856,8.784943881511378L257.8822544642857,8.409597143892634L258.9137834821429,13.078353313912368L259.9453125,11.80689642382772L260.97684151785717,11.58014449048273L262.0083705357143,10.740361585536085L263.03989955357144,10.633847875893274L264.07142857142856,10.597193234535888L265.1029575892857,9.93866352206476L266.13448660714283,10.32500539889447L267.166015625,9.694731771607643L268.19754464285717,9.708810512383067L269.2290736607143,12.207032287432495L270.26060267857144,11.606045981290734L271.29213169642856,10.6272029519336L272.3236607142857,10.562202258775581L273.35518973214283,9.659588540823336L274.38671875,9.30947674066056L275.41824776785717,8.828923973307049L276.4497767857143,9.599093296393226L277.48130580357144,9.84169918628764L278.51283482142856,9.606706925768496" style="fill: none;" fill="none"></path></g></g></g></g><g opacity="0.2"><g><g><g><path stroke="rgb(255, 112, 67)" stroke-width="2px" d="M21.662109375,155.62681759487498L22.693638392857142,12.597662492231882L23.725167410714285,9.48338803378019L24.756696428571427,10.830583659085367L25.788225446428573,9.132191224531686L26.819754464285715,10.570094021883872L27.851283482142858,8.775025020946154L28.8828125,10.479233394969592L29.914341517857146,10.02081766995516L30.945870535714285,10.108685926957572L31.977399553571427,16.353163459084254L33.00892857142857,10.923024871132593L34.040457589285715,10.256969365206626L35.071986607142854,9.273569193753335L36.103515625,11.42921109633013L37.13504464285714,11.101999282836914L38.166573660714285,10.835969924926758L39.19810267857142,10.124169523065731L40.22963169642857,10.745830535888672L41.261160714285715,11.018796053799722L42.29268973214286,14.96370636333119L43.32421875,9.765683607621634L44.355747767857146,9.206923744895239L45.387276785714285,11.115411238236868L46.41880580357143,9.32830654491078L47.45033482142857,10.726679368452585L48.48186383928571,11.074116533452823L49.513392857142854,7.709066130898219L50.544921875,9.51007383519952L51.576450892857146,10.655737183310766L52.607979910714285,19.395544312217016L53.63950892857143,13.805352297696206L54.67103794642857,10.268493825739071L55.702566964285715,9.460047548467472L56.734095982142854,11.937591726129696L57.765625,12.407363111322567L58.797154017857146,11.966748150912192L59.82868303571429,13.324746998873618L60.86021205357143,12.714196118441489L61.89174107142857,12.075609033757999L62.923270089285715,19.820568258112118L63.954799107142854,10.241746642372828L64.986328125,11.032653028314755L66.01785714285714,12.062396569685495L67.04938616071429,11.36723067543723L68.08091517857143,13.143102472478702L69.11244419642857,14.507070714777157L70.14397321428571,14.11358174410734L71.17550223214286,11.26059488816694L72.20703125,12.086074655706241L73.23856026785714,17.39160789142955L74.27008928571428,11.303991924632678L75.30161830357143,12.188060760498047L76.33314732142857,10.494364044883032L77.36467633928571,16.692145260897544L78.39620535714285,14.4306655363603L79.427734375,12.471338445490048L80.45926339285714,14.204427025534887L81.49079241071429,13.316813382235434L82.52232142857143,13.605630787936118L83.55385044642858,16.245284687389024L84.58537946428572,9.195568084716797L85.61690848214286,11.285347158258602L86.6484375,12.407992276278403L87.67996651785714,7.111420804804013L88.71149553571429,10.221413872458715L89.74302455357143,11.055011402476916L90.77455357142857,9.446374719793155L91.80608258928571,12.554081309925428L92.83761160714286,11.758402477611194L93.869140625,18.13406857577238L94.90066964285714,10.715016798539603L95.93219866071428,10.46767824346368L96.96372767857142,11.647331844676623L97.99525669642857,11.870838858864527L99.02678571428571,11.555151505903757L100.05831473214286,12.461977698586207L101.08984375,10.59308156100187L102.12137276785715,13.079096447337756L103.15290178571429,12.490290121598685L104.18443080357143,20.490536863153622L105.21595982142857,13.22214707461271L106.24748883928572,13.083116964860404L107.27901785714286,12.338154966180966L108.310546875,12.923109574751413L109.34207589285714,11.038361549377441L110.37360491071428,13.344281803477893L111.40513392857143,13.814927881414249L112.43666294642857,12.10324625535444L113.46819196428571,12.808432752435849L114.49972098214285,18.418313026428223L115.53125,9.754327947443173L116.56277901785714,11.912593928250406L117.59430803571429,10.39294572310015L118.62583705357143,10.444690704345703L119.65736607142858,11.558773040771484L120.68889508928572,11.696974494240504L121.72042410714286,11.933617245067248L122.751953125,8.061536615545108L123.78348214285714,9.880145593122995L124.81501116071429,16.673930168151855L125.84654017857143,11.038913986899633L126.87806919642857,9.714705900712454L127.90959821428571,9.971788839860404L128.94112723214286,11.060673887079403L129.97265625,7.8048526590520595L131.00418526785714,10.883141951127493L132.03571428571428,10.98876493627374L133.06724330357142,12.354896892200818L134.09877232142858,9.239241339943629L135.13030133928572,16.382979739796035L136.16183035714286,11.243668816306371L137.193359375,9.797970511696558L138.22488839285714,9.311042872342203L139.25641741071428,8.456053733825684L140.28794642857142,10.113934083418405L141.31947544642856,12.933928142894397L142.35100446428572,7.158377994190564L143.38253348214286,11.227157072587454L144.4140625,9.271282716230905L145.44559151785714,14.523781949823544L146.47712053571428,11.349322492426083L147.50864955357142,9.595870451493704L148.54017857142856,7.870117014104679L149.57170758928572,7.937974756414249L150.60323660714286,8.907471916892309L151.634765625,9.03473203832452L152.66629464285714,9.097940098155627L153.69782366071428,9.698547103188258L154.72935267857142,10.542825091968885L155.76088169642856,17.21880236538973L156.7924107142857,9.91048362038352L157.82393973214283,8.912275054238062L158.85546875,7.750053925947702L159.88699776785714,7.9680058739402115L160.91852678571428,11.302702903747559L161.95005580357142,10.248560038479898L162.98158482142858,9.12916816364635L164.01311383928572,10.167551214044735L165.04464285714286,11.4864651073109L166.076171875,16.25277328491211L167.10770089285717,10.426460266113281L168.1392299107143,12.120724764737222L169.17075892857144,10.73412192951549L170.20228794642858,10.497632633556018L171.23381696428572,9.459218892184165L172.26534598214286,10.12949440696023L173.296875,9.147199110551322L174.32840401785714,10.063079140403051L175.35993303571428,9.45814470811323L176.39146205357144,15.572185603055093L177.42299107142858,9.493608127940783L178.45452008928572,9.762967456470838L179.48604910714286,10.807519392533743L180.517578125,8.91953346946023L181.54910714285714,7.68437524275347L182.58063616071428,10.028567140752628L183.61216517857142,10.43327366222035L184.64369419642856,9.054757898504093L185.67522321428572,8.902208414944742L186.70675223214286,17.94504287026145L187.73828125,9.824533549222085L188.76981026785714,11.58986299688165L189.80133928571428,9.333263137123804L190.83286830357142,10.855811639265573L191.86439732142856,10.734091238542044L192.8959263392857,9.349636771462183L193.92745535714283,10.95462122830477L194.958984375,9.043923984874377L195.99051339285714,9.043816566467285L197.02204241071428,16.161590402776554L198.05357142857142,9.859644022854898L199.08510044642858,8.884146777066324L200.11662946428572,8.601375493136313L201.14815848214286,9.78583223169501L202.1796875,11.085165283896703L203.21121651785717,10.091713818636801L204.2427455357143,11.198967413468802L205.27427455357144,9.840523546392276L206.30580357142858,9.978709654374564L207.33733258928572,15.871008266102185L208.36886160714286,10.424542080272326L209.400390625,8.60036269101229L210.43191964285714,9.77258907664906L211.46344866071428,10.043329498984594L212.49497767857144,10.826946778730905L213.52650669642858,10.371922406283286L214.55803571428572,10.053549593145206L215.58956473214286,10.799769921736276L216.62109375,9.98033627596769L217.65262276785714,15.65999247811057L218.68415178571428,11.973500165072348L219.71568080357142,10.134005980058157L220.74720982142856,9.7551105672663L221.77873883928572,10.18027262254194L222.81026785714286,11.191785725680258L223.841796875,9.550969557328665L224.87332589285714,10.073560107838025L225.90485491071428,9.975487102161756L226.93638392857142,9.219952063127005L227.96791294642856,15.149509516629312L228.9994419642857,9.445484681562936L230.03097098214283,10.256278818303898L231.0625,10.312182426452637L232.09402901785714,7.954670645973903L233.12555803571428,9.763581275939941L234.15708705357142,9.865598071705213L235.18861607142858,10.652330485257242L236.22014508928572,11.917596556923609L237.25167410714286,11.027988000349557L238.283203125,15.510619510303846L239.31473214285717,9.093413179570987L240.3462611607143,9.114774097095838L241.37779017857144,9.340337406505236L242.40931919642858,8.082575277848685L243.44084821428572,9.57125629078258L244.47237723214286,9.218125950206408L245.50390625,11.526854428378012L246.53543526785714,9.806794166564941L247.56696428571428,12.175063133239746L248.59849330357144,14.074987844987357L249.63002232142858,8.109000205993652L250.66155133928572,10.334172508933325L251.69308035714286,8.6185317472978L252.724609375,6.158711606805966L253.75613839285714,8.1105807911266L254.78766741071428,9.198683218522513L255.81919642857142,8.484488920731986L256.85072544642856,9.119899489662867L257.8822544642857,7.84657703746449L258.9137834821429,20.081487568941977L259.9453125,9.899711088700736L260.97684151785717,11.240016590465197L262.0083705357143,9.480687228116128L263.03989955357144,10.474077311429117L264.07142857142856,10.542211272499781L265.1029575892857,8.950868953358045L266.13448660714283,10.904518214139078L267.166015625,8.74932133067738L268.19754464285717,9.729928623546252L269.2290736607143,15.95436495000665L270.26060267857144,10.704566522078073L271.29213169642856,9.15893840789795L272.3236607142857,10.464701219038522L273.35518973214283,8.305667963894937L274.38671875,8.78430904041637L275.41824776785717,8.10809482227672L276.4497767857143,10.754347281022513L277.48130580357144,10.20560802112926L278.51283482142856,9.254218534989798" style="fill: none;" fill="none"></path></g></g></g></g></g></g><g transform="translate(41, 177)" clip-path="url(#clip_1)"><clipPath id="clip_1"><rect width="288" height="22"></rect></clipPath><g><g><line x1="0" y1="0" x2="0" y2="5" style="visibility: inherit;" fill="rgb(0, 0, 0)" stroke="rgb(204, 204, 204)" stroke-width="1px"></line><line x1="20.630580357142858" y1="0" x2="20.630580357142858" y2="5" style="visibility: inherit;" fill="rgb(0, 0, 0)" stroke="rgb(204, 204, 204)" stroke-width="1px"></line><line x1="41.261160714285715" y1="0" x2="41.261160714285715" y2="5" style="visibility: inherit;" fill="rgb(0, 0, 0)" stroke="rgb(204, 204, 204)" stroke-width="1px"></line><line x1="61.89174107142857" y1="0" x2="61.89174107142857" y2="5" style="visibility: inherit;" fill="rgb(0, 0, 0)" stroke="rgb(204, 204, 204)" stroke-width="1px"></line><line x1="82.52232142857143" y1="0" x2="82.52232142857143" y2="5" style="visibility: inherit;" fill="rgb(0, 0, 0)" stroke="rgb(204, 204, 204)" stroke-width="1px"></line><line x1="103.15290178571429" y1="0" x2="103.15290178571429" y2="5" style="visibility: inherit;" fill="rgb(0, 0, 0)" stroke="rgb(204, 204, 204)" stroke-width="1px"></line><line x1="123.78348214285714" y1="0" x2="123.78348214285714" y2="5" style="visibility: inherit;" fill="rgb(0, 0, 0)" stroke="rgb(204, 204, 204)" stroke-width="1px"></line><line x1="144.4140625" y1="0" x2="144.4140625" y2="5" style="visibility: inherit;" fill="rgb(0, 0, 0)" stroke="rgb(204, 204, 204)" stroke-width="1px"></line><line x1="165.04464285714286" y1="0" x2="165.04464285714286" y2="5" style="visibility: inherit;" fill="rgb(0, 0, 0)" stroke="rgb(204, 204, 204)" stroke-width="1px"></line><line x1="185.67522321428572" y1="0" x2="185.67522321428572" y2="5" style="visibility: inherit;" fill="rgb(0, 0, 0)" stroke="rgb(204, 204, 204)" stroke-width="1px"></line><line x1="206.30580357142858" y1="0" x2="206.30580357142858" y2="5" style="visibility: inherit;" fill="rgb(0, 0, 0)" stroke="rgb(204, 204, 204)" stroke-width="1px"></line><line x1="226.93638392857142" y1="0" x2="226.93638392857142" y2="5" style="visibility: inherit;" fill="rgb(0, 0, 0)" stroke="rgb(204, 204, 204)" stroke-width="1px"></line><line x1="247.56696428571428" y1="0" x2="247.56696428571428" y2="5" style="visibility: inherit;" fill="rgb(0, 0, 0)" stroke="rgb(204, 204, 204)" stroke-width="1px"></line><line x1="268.19754464285717" y1="0" x2="268.19754464285717" y2="5" style="visibility: inherit;" fill="rgb(0, 0, 0)" stroke="rgb(204, 204, 204)" stroke-width="1px"></line><line x1="288.828125" y1="0" x2="288.828125" y2="5" style="visibility: inherit;" fill="rgb(0, 0, 0)" stroke="rgb(204, 204, 204)" stroke-width="1px"></line></g><g transform="translate(0, 8)"><text x="0" y="0" dx="0em" dy="0.95em" style="text-anchor: middle; visibility: hidden; font-family: Roboto, sans-serif; font-size: 12px; font-weight: 200;" fill="rgb(33, 33, 33)" stroke="none" stroke-width="1px">-2k</text><text x="20.630580357142858" y="0" dx="0em" dy="0.95em" style="text-anchor: middle; visibility: inherit; font-family: Roboto, sans-serif; font-size: 12px; font-weight: 200;" fill="rgb(33, 33, 33)" stroke="none" stroke-width="1px">0</text><text x="41.261160714285715" y="0" dx="0em" dy="0.95em" style="text-anchor: middle; visibility: hidden; font-family: Roboto, sans-serif; font-size: 12px; font-weight: 200;" fill="rgb(33, 33, 33)" stroke="none" stroke-width="1px">2k</text><text x="61.89174107142857" y="0" dx="0em" dy="0.95em" style="text-anchor: middle; visibility: inherit; font-family: Roboto, sans-serif; font-size: 12px; font-weight: 200;" fill="rgb(33, 33, 33)" stroke="none" stroke-width="1px">4k</text><text x="82.52232142857143" y="0" dx="0em" dy="0.95em" style="text-anchor: middle; visibility: hidden; font-family: Roboto, sans-serif; font-size: 12px; font-weight: 200;" fill="rgb(33, 33, 33)" stroke="none" stroke-width="1px">6k</text><text x="103.15290178571429" y="0" dx="0em" dy="0.95em" style="text-anchor: middle; visibility: inherit; font-family: Roboto, sans-serif; font-size: 12px; font-weight: 200;" fill="rgb(33, 33, 33)" stroke="none" stroke-width="1px">8k</text><text x="123.78348214285714" y="0" dx="0em" dy="0.95em" style="text-anchor: middle; visibility: hidden; font-family: Roboto, sans-serif; font-size: 12px; font-weight: 200;" fill="rgb(33, 33, 33)" stroke="none" stroke-width="1px">10k</text><text x="144.4140625" y="0" dx="0em" dy="0.95em" style="text-anchor: middle; visibility: inherit; font-family: Roboto, sans-serif; font-size: 12px; font-weight: 200;" fill="rgb(33, 33, 33)" stroke="none" stroke-width="1px">12k</text><text x="165.04464285714286" y="0" dx="0em" dy="0.95em" style="text-anchor: middle; visibility: hidden; font-family: Roboto, sans-serif; font-size: 12px; font-weight: 200;" fill="rgb(33, 33, 33)" stroke="none" stroke-width="1px">14k</text><text x="185.67522321428572" y="0" dx="0em" dy="0.95em" style="text-anchor: middle; visibility: inherit; font-family: Roboto, sans-serif; font-size: 12px; font-weight: 200;" fill="rgb(33, 33, 33)" stroke="none" stroke-width="1px">16k</text><text x="206.30580357142858" y="0" dx="0em" dy="0.95em" style="text-anchor: middle; visibility: hidden; font-family: Roboto, sans-serif; font-size: 12px; font-weight: 200;" fill="rgb(33, 33, 33)" stroke="none" stroke-width="1px">18k</text><text x="226.93638392857142" y="0" dx="0em" dy="0.95em" style="text-anchor: middle; visibility: inherit; font-family: Roboto, sans-serif; font-size: 12px; font-weight: 200;" fill="rgb(33, 33, 33)" stroke="none" stroke-width="1px">20k</text><text x="247.56696428571428" y="0" dx="0em" dy="0.95em" style="text-anchor: middle; visibility: hidden; font-family: Roboto, sans-serif; font-size: 12px; font-weight: 200;" fill="rgb(33, 33, 33)" stroke="none" stroke-width="1px">22k</text><text x="268.19754464285717" y="0" dx="0em" dy="0.95em" style="text-anchor: middle; visibility: inherit; font-family: Roboto, sans-serif; font-size: 12px; font-weight: 200;" fill="rgb(33, 33, 33)" stroke="none" stroke-width="1px">24k</text><text x="288.828125" y="0" dx="0em" dy="0.95em" style="text-anchor: middle; visibility: hidden; font-family: Roboto, sans-serif; font-size: 12px; font-weight: 200;" fill="rgb(33, 33, 33)" stroke="none" stroke-width="1px">26k</text></g><line x1="0" y1="0" x2="288.828125" y2="0" fill="rgb(0, 0, 0)" stroke="rgb(204, 204, 204)" stroke-width="1px"></line></g></g></g></g></svg>