<svg viewBox="0 0 330 200" xmlns="http://www.w3.org/2000/svg"><g><g><g><g><g><line x1="51.5625" y1="177" x2="46.5625" y2="177" style="visibility: inherit;" fill="rgb(0, 0, 0)" stroke="rgb(204, 204, 204)" stroke-width="1px"></line><line x1="51.5625" y1="164.35714285714286" x2="46.5625" y2="164.35714285714286" style="visibility: inherit;" fill="rgb(0, 0, 0)" stroke="rgb(204, 204, 204)" stroke-width="1px"></line><line x1="51.5625" y1="151.71428571428572" x2="46.5625" y2="151.71428571428572" style="visibility: inherit;" fill="rgb(0, 0, 0)" stroke="rgb(204, 204, 204)" stroke-width="1px"></line><line x1="51.5625" y1="139.07142857142856" x2="46.5625" y2="139.07142857142856" style="visibility: inherit;" fill="rgb(0, 0, 0)" stroke="rgb(204, 204, 204)" stroke-width="1px"></line><line x1="51.5625" y1="126.42857142857143" x2="46.5625" y2="126.42857142857143" style="visibility: inherit;" fill="rgb(0, 0, 0)" stroke="rgb(204, 204, 204)" stroke-width="1px"></line><line x1="51.5625" y1="113.78571428571429" x2="46.5625" y2="113.78571428571429" style="visibility: inherit;" fill="rgb(0, 0, 0)" stroke="rgb(204, 204, 204)" stroke-width="1px"></line><line x1="51.5625" y1="101.14285714285715" x2="46.5625" y2="101.14285714285715" style="visibility: inherit;" fill="rgb(0, 0, 0)" stroke="rgb(204, 204, 204)" stroke-width="1px"></line><line x1="51.5625" y1="88.5" x2="46.5625" y2="88.5" style="visibility: inherit;" fill="rgb(0, 0, 0)" stroke="rgb(204, 204, 204)" stroke-width="1px"></line><line x1="51.5625" y1="75.85714285714288" x2="46.5625" y2="75.85714285714288" style="visibility: inherit;" fill="rgb(0, 0, 0)" stroke="rgb(204, 204, 204)" stroke-width="1px"></line><line x1="51.5625" y1="63.21428571428572" x2="46.5625" y2="63.21428571428572" style="visibility: inherit;" fill="rgb(0, 0, 0)" stroke="rgb(204, 204, 204)" stroke-width="1px"></line><line x1="51.5625" y1="50.57142857142859" x2="46.5625" y2="50.57142857142859" style="visibility: inherit;" fill="rgb(0, 0, 0)" stroke="rgb(204, 204, 204)" stroke-width="1px"></line><line x1="51.5625" y1="37.92857142857143" x2="46.5625" y2="37.92857142857143" style="visibility: inherit;" fill="rgb(0, 0, 0)" stroke="rgb(204, 204, 204)" stroke-width="1px"></line><line x1="51.5625" y1="25.285714285714274" x2="46.5625" y2="25.285714285714274" style="visibility: inherit;" fill="rgb(0, 0, 0)" stroke="rgb(204, 204, 204)" stroke-width="1px"></line><line x1="51.5625" y1="12.642857142857157" x2="46.5625" y2="12.642857142857157" style="visibility: inherit;" fill="rgb(0, 0, 0)" stroke="rgb(204, 204, 204)" stroke-width="1px"></line><line x1="51.5625" y1="0" x2="46.5625" y2="0" style="visibility: inherit;" fill="rgb(0, 0, 0)" stroke="rgb(204, 204, 204)" stroke-width="1px"></line></g><g transform="translate(41.5625, 0)"><text x="0" y="177" dx="0em" dy="0.3em" style="text-anchor: end; visibility: hidden; font-family: Roboto, sans-serif; font-size: 12px; font-weight: 200;" fill="rgb(33, 33, 33)" stroke="none" stroke-width="1px">-0.1</text><text x="0" y="164.35714285714286" dx="0em" dy="0.3em" style="text-anchor: end; visibility: inherit; font-family: Roboto, sans-serif; font-size: 12px; font-weight: 200;" fill="rgb(33, 33, 33)" stroke="none" stroke-width="1px">0</text><text x="0" y="151.71428571428572" dx="0em" dy="0.3em" style="text-anchor: end; visibility: hidden; font-family: Roboto, sans-serif; font-size: 12px; font-weight: 200;" fill="rgb(33, 33, 33)" stroke="none" stroke-width="1px">0.1</text><text x="0" y="139.07142857142856" dx="0em" dy="0.3em" style="text-anchor: end; visibility: inherit; font-family: Roboto, sans-serif; font-size: 12px; font-weight: 200;" fill="rgb(33, 33, 33)" stroke="none" stroke-width="1px">0.2</text><text x="0" y="126.42857142857143" dx="0em" dy="0.3em" style="text-anchor: end; visibility: hidden; font-family: Roboto, sans-serif; font-size: 12px; font-weight: 200;" fill="rgb(33, 33, 33)" stroke="none" stroke-width="1px">0.3</text><text x="0" y="113.78571428571429" dx="0em" dy="0.3em" style="text-anchor: end; visibility: inherit; font-family: Roboto, sans-serif; font-size: 12px; font-weight: 200;" fill="rgb(33, 33, 33)" stroke="none" stroke-width="1px">0.4</text><text x="0" y="101.14285714285715" dx="0em" dy="0.3em" style="text-anchor: end; visibility: hidden; font-family: Roboto, sans-serif; font-size: 12px; font-weight: 200;" fill="rgb(33, 33, 33)" stroke="none" stroke-width="1px">0.5</text><text x="0" y="88.5" dx="0em" dy="0.3em" style="text-anchor: end; visibility: inherit; font-family: Roboto, sans-serif; font-size: 12px; font-weight: 200;" fill="rgb(33, 33, 33)" stroke="none" stroke-width="1px">0.6</text><text x="0" y="75.85714285714288" dx="0em" dy="0.3em" style="text-anchor: end; visibility: hidden; font-family: Roboto, sans-serif; font-size: 12px; font-weight: 200;" fill="rgb(33, 33, 33)" stroke="none" stroke-width="1px">0.7</text><text x="0" y="63.21428571428572" dx="0em" dy="0.3em" style="text-anchor: end; visibility: inherit; font-family: Roboto, sans-serif; font-size: 12px; font-weight: 200;" fill="rgb(33, 33, 33)" stroke="none" stroke-width="1px">0.8</text><text x="0" y="50.57142857142859" dx="0em" dy="0.3em" style="text-anchor: end; visibility: hidden; font-family: Roboto, sans-serif; font-size: 12px; font-weight: 200;" fill="rgb(33, 33, 33)" stroke="none" stroke-width="1px">0.9</text><text x="0" y="37.92857142857143" dx="0em" dy="0.3em" style="text-anchor: end; visibility: inherit; font-family: Roboto, sans-serif; font-size: 12px; font-weight: 200;" fill="rgb(33, 33, 33)" stroke="none" stroke-width="1px">1</text><text x="0" y="25.285714285714274" dx="0em" dy="0.3em" style="text-anchor: end; visibility: hidden; font-family: Roboto, sans-serif; font-size: 12px; font-weight: 200;" fill="rgb(33, 33, 33)" stroke="none" stroke-width="1px">1.1</text><text x="0" y="12.642857142857157" dx="0em" dy="0.3em" style="text-anchor: end; visibility: inherit; font-family: Roboto, sans-serif; font-size: 12px; font-weight: 200;" fill="rgb(33, 33, 33)" stroke="none" stroke-width="1px">1.2</text><text x="0" y="0" dx="0em" dy="0.3em" style="text-anchor: end; visibility: hidden; font-family: Roboto, sans-serif; font-size: 12px; font-weight: 200;" fill="rgb(33, 33, 33)" stroke="none" stroke-width="1px">1.3</text></g><line x1="51.5625" y1="0" x2="51.5625" y2="177" fill="rgb(0, 0, 0)" stroke="rgb(204, 204, 204)" stroke-width="1px"></line></g></g><g transform="translate(51, 0)" clip-path="url(#clip_0)"><clipPath id="clip_0"><rect width="278" height="176"></rect></clipPath><g><g><g><line x1="0" y1="0" x2="0" y2="177" fill="rgb(0, 0, 0)" stroke="rgb(66, 66, 66)" stroke-width="1px" opacity="0.25"></line><line x1="18.5625" y1="0" x2="18.5625" y2="177" fill="rgb(0, 0, 0)" stroke="rgb(66, 66, 66)" stroke-width="1px" opacity="0.25"></line><line x1="37.125" y1="0" x2="37.125" y2="177" fill="rgb(0, 0, 0)" stroke="rgb(66, 66, 66)" stroke-width="1px" opacity="0.25"></line><line x1="55.6875" y1="0" x2="55.6875" y2="177" fill="rgb(0, 0, 0)" stroke="rgb(66, 66, 66)" stroke-width="1px" opacity="0.25"></line><line x1="74.25" y1="0" x2="74.25" y2="177" fill="rgb(0, 0, 0)" stroke="rgb(66, 66, 66)" stroke-width="1px" opacity="0.25"></line><line x1="92.8125" y1="0" x2="92.8125" y2="177" fill="rgb(0, 0, 0)" stroke="rgb(66, 66, 66)" stroke-width="1px" opacity="0.25"></line><line x1="111.375" y1="0" x2="111.375" y2="177" fill="rgb(0, 0, 0)" stroke="rgb(66, 66, 66)" stroke-width="1px" opacity="0.25"></line><line x1="129.9375" y1="0" x2="129.9375" y2="177" fill="rgb(0, 0, 0)" stroke="rgb(66, 66, 66)" stroke-width="1px" opacity="0.25"></line><line x1="148.5" y1="0" x2="148.5" y2="177" fill="rgb(0, 0, 0)" stroke="rgb(66, 66, 66)" stroke-width="1px" opacity="0.25"></line><line x1="167.0625" y1="0" x2="167.0625" y2="177" fill="rgb(0, 0, 0)" stroke="rgb(66, 66, 66)" stroke-width="1px" opacity="0.25"></line><line x1="185.625" y1="0" x2="185.625" y2="177" fill="rgb(0, 0, 0)" stroke="rgb(66, 66, 66)" stroke-width="1px" opacity="0.25"></line><line x1="204.18749999999997" y1="0" x2="204.18749999999997" y2="177" fill="rgb(0, 0, 0)" stroke="rgb(66, 66, 66)" stroke-width="1px" opacity="0.25"></line><line x1="222.75" y1="0" x2="222.75" y2="177" fill="rgb(0, 0, 0)" stroke="rgb(66, 66, 66)" stroke-width="1px" opacity="0.25"></line><line x1="241.3125" y1="0" x2="241.3125" y2="177" fill="rgb(0, 0, 0)" stroke="rgb(66, 66, 66)" stroke-width="1px" opacity="0.25"></line><line x1="259.875" y1="0" x2="259.875" y2="177" fill="rgb(0, 0, 0)" stroke="rgb(66, 66, 66)" stroke-width="1px" opacity="0.25"></line><line x1="278.4375" y1="0" x2="278.4375" y2="177" fill="rgb(0, 0, 0)" stroke="rgb(66, 66, 66)" stroke-width="1px" opacity="0.25"></line></g><g><line x1="0" y1="177" x2="278.4375" y2="177" fill="rgb(0, 0, 0)" stroke="rgb(66, 66, 66)" stroke-width="1px" opacity="0.25"></line><line x1="0" y1="164.35714285714286" x2="278.4375" y2="164.35714285714286" fill="rgb(0, 0, 0)" stroke="rgb(66, 66, 66)" stroke-width="1px" opacity="0.25"></line><line x1="0" y1="151.71428571428572" x2="278.4375" y2="151.71428571428572" fill="rgb(0, 0, 0)" stroke="rgb(66, 66, 66)" stroke-width="1px" opacity="0.25"></line><line x1="0" y1="139.07142857142856" x2="278.4375" y2="139.07142857142856" fill="rgb(0, 0, 0)" stroke="rgb(66, 66, 66)" stroke-width="1px" opacity="0.25"></line><line x1="0" y1="126.42857142857143" x2="278.4375" y2="126.42857142857143" fill="rgb(0, 0, 0)" stroke="rgb(66, 66, 66)" stroke-width="1px" opacity="0.25"></line><line x1="0" y1="113.78571428571429" x2="278.4375" y2="113.78571428571429" fill="rgb(0, 0, 0)" stroke="rgb(66, 66, 66)" stroke-width="1px" opacity="0.25"></line><line x1="0" y1="101.14285714285715" x2="278.4375" y2="101.14285714285715" fill="rgb(0, 0, 0)" stroke="rgb(66, 66, 66)" stroke-width="1px" opacity="0.25"></line><line x1="0" y1="88.5" x2="278.4375" y2="88.5" fill="rgb(0, 0, 0)" stroke="rgb(66, 66, 66)" stroke-width="1px" opacity="0.25"></line><line x1="0" y1="75.85714285714288" x2="278.4375" y2="75.85714285714288" fill="rgb(0, 0, 0)" stroke="rgb(66, 66, 66)" stroke-width="1px" opacity="0.25"></line><line x1="0" y1="63.21428571428572" x2="278.4375" y2="63.21428571428572" fill="rgb(0, 0, 0)" stroke="rgb(66, 66, 66)" stroke-width="1px" opacity="0.25"></line><line x1="0" y1="50.57142857142859" x2="278.4375" y2="50.57142857142859" fill="rgb(0, 0, 0)" stroke="rgb(66, 66, 66)" stroke-width="1px" opacity="0.25"></line><line x1="0" y1="37.92857142857143" x2="278.4375" y2="37.92857142857143" fill="rgb(0, 0, 0)" stroke="rgb(66, 66, 66)" stroke-width="1px" opacity="0.25"></line><line x1="0" y1="25.285714285714274" x2="278.4375" y2="25.285714285714274" fill="rgb(0, 0, 0)" stroke="rgb(66, 66, 66)" stroke-width="1px" opacity="0.25"></line><line x1="0" y1="12.642857142857157" x2="278.4375" y2="12.642857142857157" fill="rgb(0, 0, 0)" stroke="rgb(66, 66, 66)" stroke-width="1px" opacity="0.25"></line><line x1="0" y1="0" x2="278.4375" y2="0" fill="rgb(0, 0, 0)" stroke="rgb(66, 66, 66)" stroke-width="1px" opacity="0.25"></line></g></g></g><g><g><line x1="0" y1="164.35714285714286" x2="278.4375" y2="164.35714285714286" fill="rgb(0, 0, 0)" stroke="rgb(153, 153, 153)" stroke-width="1.5px"></line></g></g><g><g><line x1="18.5625" y1="0" x2="18.5625" y2="177" fill="rgb(0, 0, 0)" stroke="rgb(153, 153, 153)" stroke-width="1.5px"></line></g></g><g><g><g><g><g><path stroke="rgb(255, 112, 67)" stroke-width="2px" d="M19.490625,19.37537787641799L20.41875,83.13887513535364L21.346874999999997,108.7097280986455L22.275000000000002,113.07487740686962L23.203125,121.70383196904363L24.13125,123.4969821645289L25.059375,132.3423525446982L25.9875,135.2769662116756L26.915625,138.55890640545599L27.84375,142.14704318612402L28.771875,140.85003116237067L29.700000000000003,141.26594525619305L30.628125,142.15589862335676L31.55625,138.51054927672183L32.484375,140.64485571711404L33.4125,144.27841270077326L34.340625,143.95370014220993L35.268750000000004,143.21618175369983L36.196875,140.2241726780342L37.125,136.3966784188834L38.053124999999994,133.4341464077125L38.98125,135.19639234070476L39.909375000000004,136.93229766786354L40.8375,137.7216798237462L41.765625,142.70512573372017L42.693749999999994,146.33808405019482L43.621875,147.68338363376338L44.550000000000004,148.9143853343756L45.478125,149.9379874128622L46.40625,150.52771873248514L47.334375,150.9280954457983L48.2625,151.16115748287172L49.190625,150.90796580184426L50.11875,151.56528370361698L51.04687499999999,151.99121103257343L51.975,151.99842618742372L52.903125,152.22096980212257L53.83125,152.3608086202738L54.759375,152.54098423825434L55.6875,152.6946547698743L56.615625,152.73540990198205L57.54375,152.3999531191103L58.471875,152.6202526575085L59.400000000000006,152.84833518965823L60.328125,153.04054740984986L61.25625,153.09505581886873L62.184374999999996,153.03986160046935L63.1125,153.24316585497456L64.040625,153.1376268512825L64.96875,153.2377554290191L65.896875,153.26337286751092L66.825,153.32144165265728L67.753125,153.58359197161536L68.68125,153.613855546907L69.609375,153.76579945629325L70.53750000000001,153.88806292994278L71.465625,153.95708080830616L72.39375,154.01689567109455L73.32187499999999,154.03355623095769L74.25,154.1601739241373L75.17812500000001,154.12579050781358L76.10624999999999,154.2841605874784L77.034375,154.05945836277385L77.9625,153.9626652361744L78.890625,154.16464518902947L79.81875000000001,154.37135580681462L80.74687499999999,154.53006435009615L81.675,154.64901370254262L82.603125,154.5754709681086L83.53125,154.56642072599195L84.45937500000001,154.72519958580352L85.38749999999999,154.79366832986028L86.315625,154.83983317556965L87.24375,154.82302285628015L88.171875,154.93538153918405L89.10000000000001,155.01603363508465L90.02812499999999,155.05639736168538L90.95625,154.9605723120561L91.884375,155.11593233853958L92.8125,155.24255220888105L93.740625,155.3679570309721L94.66875,155.36824946738295L95.596875,155.48463667713395L96.525,155.59863754413635L97.453125,155.66306867848888L98.38125,155.5644912883337L99.309375,155.69213823887472L100.2375,155.51994500265897L101.165625,155.69478198757815L102.09374999999999,155.82690478584408L103.021875,155.8753283377195L103.95,155.92810288561196L104.878125,155.78324304819083L105.80625,155.97716021261033L106.73437500000001,155.97231861704157L107.6625,156.10210278401414L108.590625,156.15811495155626L109.51875,156.1605353477411L110.446875,156.30069640196993L111.375,156.37513964582303L112.303125,156.40481705996376L113.23125,156.43819248559635L114.159375,156.5190483530738L115.0875,156.5645739727265L116.015625,156.35677876555013L116.94375,156.38459913016192L117.871875,156.55774870892068L118.80000000000001,156.4756187538717L119.72812499999999,156.46888656263476L120.65625,156.59533354394458L121.584375,156.6271003067988L122.5125,156.73692857386092L123.44062500000001,156.882947800241L124.36874999999999,156.92922794331218L125.296875,157.01426132098817L126.225,156.9020722969883L127.153125,157.02365805493645L128.08125,156.94221567691292L129.009375,157.090774365881L129.9375,157.19054473034203L130.865625,157.11599051767277L131.79375,156.7947440233939L132.721875,157.05841370066923L133.65,157.06334990599075L134.578125,157.18233523180317L135.50625,157.2733957745288L136.434375,157.36140731132159L137.3625,157.32048116276158L138.290625,157.41744666399094L139.21875,157.53937146259966L140.146875,157.46910760009243L141.07500000000002,157.60162211417278L142.003125,157.52826678377804L142.93125,157.573215440435L143.85937500000003,157.60698888955795L144.7875,157.73062865049923L145.715625,157.8009066815206L146.64374999999998,157.8622441336704L147.571875,157.89090812004997L148.5,157.9178148918434L149.428125,157.99468474332483L150.35625000000002,158.03454604147655L151.284375,158.0710324540674L152.21249999999998,158.08442900845745L153.140625,158.08126066004974L154.06875,158.0848231540054L154.996875,158.14954446713136L155.925,158.12111462455425L156.853125,158.16029929962897L157.78125,158.0333774984273L158.709375,158.17963808564028L159.63750000000002,158.2531383364958L160.565625,158.3255428268756L161.49374999999998,158.36414614406527L162.421875,157.5270076036532L163.35,157.9588424126524L164.278125,158.26130438034753L165.20625,158.35588881012947L166.134375,158.44222788146214L167.0625,158.47569186775638L167.99062500000002,158.501433061717L168.91875000000002,158.50155697125098L169.84687499999998,158.60013682235942L170.77499999999998,158.66877708983398L171.703125,158.6760670307235L172.63125,158.73525574823356L173.559375,158.77534102073096L174.4875,158.81922034871045L175.415625,158.85474457913583L176.34375,158.86394492750907L177.27187500000002,158.90745560852105L178.20000000000002,158.91835643630787L179.12812499999998,158.93458011833044L180.05624999999998,158.9563730773191L180.984375,158.9006723066563L181.9125,158.9110622191554L182.840625,158.9781189256756L183.76875,159.01968130917734L184.696875,159.0871675430733L185.625,159.12894610321226L186.55312500000002,158.5858768858299L187.48125,158.90606805603773L188.40937499999998,159.03591804646132L189.3375,159.16068686472076L190.265625,159.22055174959334L191.19375,159.23508045325212L192.121875,159.22292805453972L193.05,159.26743473693435L193.978125,159.3229088732479L194.90625,159.25233786804793L195.83437500000002,159.28617290772726L196.7625,159.33904787016348L197.69062499999998,159.3895193850441L198.61875,159.4230201899516L199.546875,159.46204950743171L200.475,159.44370348074446L201.40312500000002,159.39158410612947L202.33125,159.41119847889416L203.259375,159.45345522551645L204.18749999999997,159.5089724321077L205.115625,159.46429359442683L206.04375,159.52649282162872L206.97187499999998,159.5656733282928L207.9,159.62684738869945L208.828125,159.6372563241304L209.75625,159.61919869953442L210.68437500000002,159.61419985439332L211.6125,159.6720383161744L212.540625,159.6921934929709L213.46875000000003,159.60855509353567L214.396875,159.7265896877648L215.325,159.78330058048886L216.25312499999998,159.81647300681902L217.18125,159.81890947379173L218.109375,159.8390141308148L219.0375,159.8761150205162L219.96562500000002,159.85597655610448L220.89375,159.89016772810436L221.82187499999998,159.93660085330885L222.75,159.9481045364364L223.678125,159.95723356253808L224.60625,159.97740245318013L225.534375,160.01216194020438L226.4625,160.01628774743853L227.390625,160.0476490986603L228.31875,160.06308980836616L229.24687500000002,160.0890511043753L230.175,160.10443612126156L231.10312499999998,160.10429570925982L232.03125,160.12193493995233L232.959375,160.12729777461158L233.8875,160.13497396804112L234.815625,160.16476935803217L235.74375,160.14907293083078L236.671875,160.19260026358964L237.60000000000002,160.1739735941474L238.52812500000002,160.1998926234933L239.45624999999998,160.23171407058015L240.38437499999998,160.26649120087725L241.3125,160.29068829816163L242.240625,160.3021809270063L243.16875,160.2934687657942L244.096875,160.3064109536085L245.025,160.30932989274473L245.953125,160.3219702663415L246.88125000000002,160.34000898441212L247.80937500000002,160.3688889955898L248.73749999999998,160.40182497970008L249.66562499999998,160.39185174331226L250.59375,160.3844659370511L251.521875,160.38564441244026L252.45,160.4095076347703L253.378125,160.41119359665828L254.30625,160.45529496519765" style="fill: none;" fill="none"></path></g></g></g></g><g opacity="0.2"><g><g><g><path stroke="rgb(255, 112, 67)" stroke-width="2px" d="M19.490625,19.37537787641799L20.41875,115.02062376482147L21.346874999999997,127.88786782111441L22.275000000000002,116.89438305156571L23.203125,129.79347687108177L24.13125,125.23409641640527L25.059375,141.04951401267735L25.9875,138.18865320937974L26.915625,141.82802652035443L27.84375,145.72817188714234L28.771875,139.5542857519218L29.700000000000003,141.6816562669618L30.628125,143.0456347167492L31.55625,134.8656449190208L32.484375,142.77903188977925L33.4125,147.91185879707336L34.340625,143.62899253836702L35.268750000000004,142.4786689920085L36.196875,137.23217501597745L37.125,132.56919146009855L38.053124999999994,130.47161722183228L38.98125,136.95863743339268L39.909375000000004,138.6682025811502L40.8375,138.5110618855272L41.765625,147.68857134665762L42.693749999999994,149.97104225839888L43.621875,149.02868319728543L44.550000000000004,150.14538702581612L45.478125,150.96158948753563L46.40625,151.11745005100965L47.334375,151.32847215873855L48.2625,151.39421951983658L49.190625,150.65477412087577L50.11875,152.22260160531317L51.04687499999999,152.4171383615051L51.975,152.00564134227378L52.903125,152.4435134168182L53.83125,152.50064743842398L54.759375,152.7211598562343L55.6875,152.8483253014939L56.615625,152.7761650340898L57.54375,152.06449633623873L58.471875,152.84055219590664L59.400000000000006,153.07641772180796L60.328125,153.23275963004147L61.25625,153.14956422788757L62.184374999999996,152.98466738207L63.1125,153.44647010947978L64.040625,153.03208784759045L64.96875,153.3378840067557L65.896875,153.28899030600277L66.825,153.37951043780362L67.753125,153.84574229057347L68.68125,153.64411912219865L69.609375,153.91774336567948L70.53750000000001,154.01032640359233L71.465625,154.02609868666957L72.39375,154.07671053388287L73.32187499999999,154.05021679082085L74.25,154.28679161731688L75.17812500000001,154.09140709148986L76.10624999999999,154.44253066714322L77.034375,153.8347561380693L77.9625,153.86587210957495L78.890625,154.36662514188458L79.81875000000001,154.5780664245997L80.74687499999999,154.68877289337772L81.675,154.76796305498908L82.603125,154.5019282336746L83.53125,154.55737048387527L84.45937500000001,154.88397844561507L85.38749999999999,154.86213707391707L86.315625,154.88599802127908L87.24375,154.80621253699064L88.171875,155.04774022208792L89.10000000000001,155.09668573098523L90.02812499999999,155.09676108828614L90.95625,154.8647472624268L91.884375,155.27129236502307L92.8125,155.36917207922255L93.740625,155.4933618530631L94.66875,155.3685419037938L95.596875,155.60102388688495L96.525,155.71263841113876L97.453125,155.72749981284142L98.38125,155.4659138981785L99.309375,155.8197851894157L100.2375,155.34775176644325L101.165625,155.86961897249734L102.09374999999999,155.95902758411L103.021875,155.92375188959497L103.95,155.98087743350436L104.878125,155.63838321076972L105.80625,156.17107737702983L106.73437500000001,155.9674770214728L107.6625,156.23188695098673L108.590625,156.2141271190984L109.51875,156.16295574392592L110.446875,156.44085745619876L111.375,156.4495828896761L112.303125,156.43449447410447L113.23125,156.47156791122896L114.159375,156.59990422055125L115.0875,156.61009959237916L116.015625,156.1489835583738L116.94375,156.41241949477364L117.871875,156.73089828767945L118.80000000000001,156.39348879882266L119.72812499999999,156.46215437139784L120.65625,156.72178052525436L121.584375,156.6588670696531L122.5125,156.846756840923L123.44062500000001,157.0289670266211L124.36874999999999,156.97550808638334L125.296875,157.09929469866412L126.225,156.78988327298848L127.153125,157.1452438128846L128.08125,156.8607732988894L129.009375,157.23933305484908L129.9375,157.29031509480308L130.865625,157.04143630500351L131.79375,156.47349752911498L132.721875,157.32208337794458L133.65,157.06828611131226L134.578125,157.30132055761558L135.50625,157.36445631725448L136.434375,157.44941884811436L137.3625,157.27955501420158L138.290625,157.51441216522028L139.21875,157.6612962612084L140.146875,157.39884373758522L141.07500000000002,157.73413662825314L142.003125,157.45491145338332L142.93125,157.61816409709198L143.85937500000003,157.6407623386809L144.7875,157.85426841144053L145.715625,157.87118471254198L146.64374999999998,157.92358158582022L147.571875,157.9195721064295L148.5,157.94472166363684L149.428125,158.07155459480626L150.35625000000002,158.07440733962824L151.284375,158.1075188666582L152.21249999999998,158.09782556284753L153.140625,158.078092311642L154.06875,158.08838564796108L154.996875,158.21426578025734L155.925,158.0926847819771L156.853125,158.19948397470372L157.78125,157.90645569722568L158.709375,158.3258986728532L159.63750000000002,158.32663858735134L160.565625,158.39794731725542L161.49374999999998,158.4027494612549L162.421875,156.68986906324116L163.35,158.39067722165157L164.278125,158.56376634804266L165.20625,158.45047323991147L166.134375,158.5285669527948L167.0625,158.50915585405062L167.99062500000002,158.52717425567764L168.91875000000002,158.501680880785L169.84687499999998,158.69871667346786L170.77499999999998,158.73741735730854L171.703125,158.683356971613L172.63125,158.79444446574365L173.559375,158.81542629322837L174.4875,158.86309967668993L175.415625,158.89026880956123L176.34375,158.8731452758823L177.27187500000002,158.95096628953306L178.20000000000002,158.9292572640947L179.12812499999998,158.950803800353L180.05624999999998,158.9781660363078L180.984375,158.8449715359935L181.9125,158.92145213165452L182.840625,159.04517563219582L183.76875,159.06124369267908L184.696875,159.1546537769692L185.625,159.17072466335128L186.55312500000002,158.0428076684475L187.48125,159.22625922624556L188.40937499999998,159.16576803688494L189.3375,159.28545568298017L190.265625,159.28041663446595L191.19375,159.24960915691088L192.121875,159.21077565582735L193.05,159.31194141932895L193.978125,159.37838300956147L194.90625,159.18176686284798L195.83437500000002,159.3200079474066L196.7625,159.3919228325997L197.69062499999998,159.43999089992474L198.61875,159.4565209948591L199.546875,159.50107882491181L200.475,159.42535745405723L201.40312500000002,159.33946473151445L202.33125,159.43081285165889L203.259375,159.4957119721387L204.18749999999997,159.56448963869897L205.115625,159.41961475674597L206.04375,159.58869204883067L206.97187499999998,159.60485383495688L207.9,159.6880214491061L208.828125,159.64766525956136L209.75625,159.60114107493845L210.68437500000002,159.60920100925225L211.6125,159.72987677795547L212.540625,159.71234866976738L213.46875000000003,159.5249166941004L214.396875,159.84462428199393L215.325,159.84001147321294L216.25312499999998,159.84964543314916L217.18125,159.82134594076445L218.109375,159.8591187878379L219.0375,159.9132159102176L219.96562500000002,159.83583809169275L220.89375,159.92435890010427L221.82187499999998,159.9830339785133L222.75,159.95960821956396L223.678125,159.96636258863975L224.60625,159.99757134382216L225.534375,160.04692142722863L226.4625,160.0204135546727L227.390625,160.07901044988205L228.31875,160.078530518072L229.24687500000002,160.11501240038444L230.175,160.1198211381478L231.10312499999998,160.10415529725807L232.03125,160.13957417064478L232.959375,160.13266060927083L233.8875,160.14265016147067L234.815625,160.19456474802325L235.74375,160.13337650362936L236.671875,160.23612759634852L237.60000000000002,160.15534692470519L238.52812500000002,160.22581165283918L239.45624999999998,160.26353551766704L240.38437499999998,160.30126833117436L241.3125,160.314885395446L242.240625,160.31367355585098L243.16875,160.28475660458207L244.096875,160.31935314142277L245.025,160.31224883188096L245.953125,160.3346106399383L246.88125000000002,160.35804770248276L247.80937500000002,160.39776900676745L248.73749999999998,160.43476096381036L249.66562499999998,160.3818785069244L250.59375,160.37708013078998L251.521875,160.38682288782937L252.45,160.43337085710039L253.378125,160.41287955854622L254.30625,160.49939633373705" style="fill: none;" fill="none"></path></g></g></g></g></g></g><g transform="translate(51, 177)" clip-path="url(#clip_1)"><clipPath id="clip_1"><rect width="278" height="22"></rect></clipPath><g><g><line x1="0" y1="0" x2="0" y2="5" style="visibility: inherit;" fill="rgb(0, 0, 0)" stroke="rgb(204, 204, 204)" stroke-width="1px"></line><line x1="18.5625" y1="0" x2="18.5625" y2="5" style="visibility: inherit;" fill="rgb(0, 0, 0)" stroke="rgb(204, 204, 204)" stroke-width="1px"></line><line x1="37.125" y1="0" x2="37.125" y2="5" style="visibility: inherit;" fill="rgb(0, 0, 0)" stroke="rgb(204, 204, 204)" stroke-width="1px"></line><line x1="55.6875" y1="0" x2="55.6875" y2="5" style="visibility: inherit;" fill="rgb(0, 0, 0)" stroke="rgb(204, 204, 204)" stroke-width="1px"></line><line x1="74.25" y1="0" x2="74.25" y2="5" style="visibility: inherit;" fill="rgb(0, 0, 0)" stroke="rgb(204, 204, 204)" stroke-width="1px"></line><line x1="92.8125" y1="0" x2="92.8125" y2="5" style="visibility: inherit;" fill="rgb(0, 0, 0)" stroke="rgb(204, 204, 204)" stroke-width="1px"></line><line x1="111.375" y1="0" x2="111.375" y2="5" style="visibility: inherit;" fill="rgb(0, 0, 0)" stroke="rgb(204, 204, 204)" stroke-width="1px"></line><line x1="129.9375" y1="0" x2="129.9375" y2="5" style="visibility: inherit;" fill="rgb(0, 0, 0)" stroke="rgb(204, 204, 204)" stroke-width="1px"></line><line x1="148.5" y1="0" x2="148.5" y2="5" style="visibility: inherit;" fill="rgb(0, 0, 0)" stroke="rgb(204, 204, 204)" stroke-width="1px"></line><line x1="167.0625" y1="0" x2="167.0625" y2="5" style="visibility: inherit;" fill="rgb(0, 0, 0)" stroke="rgb(204, 204, 204)" stroke-width="1px"></line><line x1="185.625" y1="0" x2="185.625" y2="5" style="visibility: inherit;" fill="rgb(0, 0, 0)" stroke="rgb(204, 204, 204)" stroke-width="1px"></line><line x1="204.18749999999997" y1="0" x2="204.18749999999997" y2="5" style="visibility: inherit;" fill="rgb(0, 0, 0)" stroke="rgb(204, 204, 204)" stroke-width="1px"></line><line x1="222.75" y1="0" x2="222.75" y2="5" style="visibility: inherit;" fill="rgb(0, 0, 0)" stroke="rgb(204, 204, 204)" stroke-width="1px"></line><line x1="241.3125" y1="0" x2="241.3125" y2="5" style="visibility: inherit;" fill="rgb(0, 0, 0)" stroke="rgb(204, 204, 204)" stroke-width="1px"></line><line x1="259.875" y1="0" x2="259.875" y2="5" style="visibility: inherit;" fill="rgb(0, 0, 0)" stroke="rgb(204, 204, 204)" stroke-width="1px"></line><line x1="278.4375" y1="0" x2="278.4375" y2="5" style="visibility: inherit;" fill="rgb(0, 0, 0)" stroke="rgb(204, 204, 204)" stroke-width="1px"></line></g><g transform="translate(0, 8)"><text x="0" y="0" dx="0em" dy="0.95em" style="text-anchor: middle; visibility: hidden; font-family: Roboto, sans-serif; font-size: 12px; font-weight: 200;" fill="rgb(33, 33, 33)" stroke="none" stroke-width="1px">-2k</text><text x="18.5625" y="0" dx="0em" dy="0.95em" style="text-anchor: middle; visibility: inherit; font-family: Roboto, sans-serif; font-size: 12px; font-weight: 200;" fill="rgb(33, 33, 33)" stroke="none" stroke-width="1px">0</text><text x="37.125" y="0" dx="0em" dy="0.95em" style="text-anchor: middle; visibility: hidden; font-family: Roboto, sans-serif; font-size: 12px; font-weight: 200;" fill="rgb(33, 33, 33)" stroke="none" stroke-width="1px">2k</text><text x="55.6875" y="0" dx="0em" dy="0.95em" style="text-anchor: middle; visibility: inherit; font-family: Roboto, sans-serif; font-size: 12px; font-weight: 200;" fill="rgb(33, 33, 33)" stroke="none" stroke-width="1px">4k</text><text x="74.25" y="0" dx="0em" dy="0.95em" style="text-anchor: middle; visibility: hidden; font-family: Roboto, sans-serif; font-size: 12px; font-weight: 200;" fill="rgb(33, 33, 33)" stroke="none" stroke-width="1px">6k</text><text x="92.8125" y="0" dx="0em" dy="0.95em" style="text-anchor: middle; visibility: inherit; font-family: Roboto, sans-serif; font-size: 12px; font-weight: 200;" fill="rgb(33, 33, 33)" stroke="none" stroke-width="1px">8k</text><text x="111.375" y="0" dx="0em" dy="0.95em" style="text-anchor: middle; visibility: hidden; font-family: Roboto, sans-serif; font-size: 12px; font-weight: 200;" fill="rgb(33, 33, 33)" stroke="none" stroke-width="1px">10k</text><text x="129.9375" y="0" dx="0em" dy="0.95em" style="text-anchor: middle; visibility: inherit; font-family: Roboto, sans-serif; font-size: 12px; font-weight: 200;" fill="rgb(33, 33, 33)" stroke="none" stroke-width="1px">12k</text><text x="148.5" y="0" dx="0em" dy="0.95em" style="text-anchor: middle; visibility: hidden; font-family: Roboto, sans-serif; font-size: 12px; font-weight: 200;" fill="rgb(33, 33, 33)" stroke="none" stroke-width="1px">14k</text><text x="167.0625" y="0" dx="0em" dy="0.95em" style="text-anchor: middle; visibility: inherit; font-family: Roboto, sans-serif; font-size: 12px; font-weight: 200;" fill="rgb(33, 33, 33)" stroke="none" stroke-width="1px">16k</text><text x="185.625" y="0" dx="0em" dy="0.95em" style="text-anchor: middle; visibility: hidden; font-family: Roboto, sans-serif; font-size: 12px; font-weight: 200;" fill="rgb(33, 33, 33)" stroke="none" stroke-width="1px">18k</text><text x="204.18749999999997" y="0" dx="0em" dy="0.95em" style="text-anchor: middle; visibility: inherit; font-family: Roboto, sans-serif; font-size: 12px; font-weight: 200;" fill="rgb(33, 33, 33)" stroke="none" stroke-width="1px">20k</text><text x="222.75" y="0" dx="0em" dy="0.95em" style="text-anchor: middle; visibility: hidden; font-family: Roboto, sans-serif; font-size: 12px; font-weight: 200;" fill="rgb(33, 33, 33)" stroke="none" stroke-width="1px">22k</text><text x="241.3125" y="0" dx="0em" dy="0.95em" style="text-anchor: middle; visibility: inherit; font-family: Roboto, sans-serif; font-size: 12px; font-weight: 200;" fill="rgb(33, 33, 33)" stroke="none" stroke-width="1px">24k</text><text x="259.875" y="0" dx="0em" dy="0.95em" style="text-anchor: middle; visibility: hidden; font-family: Roboto, sans-serif; font-size: 12px; font-weight: 200;" fill="rgb(33, 33, 33)" stroke="none" stroke-width="1px">26k</text><text x="278.4375" y="0" dx="0em" dy="0.95em" style="text-anchor: middle; visibility: hidden; font-family: Roboto, sans-serif; font-size: 12px; font-weight: 200;" fill="rgb(33, 33, 33)" stroke="none" stroke-width="1px">28k</text></g><line x1="0" y1="0" x2="278.4375" y2="0" fill="rgb(0, 0, 0)" stroke="rgb(204, 204, 204)" stroke-width="1px"></line></g></g></g></g></svg>