<svg viewBox="0 0 330 200" xmlns="http://www.w3.org/2000/svg"><g><g><g><g><g><line x1="61.953125" y1="177" x2="56.953125" y2="177" style="visibility: inherit;" fill="rgb(0, 0, 0)" stroke="rgb(204, 204, 204)" stroke-width="1px"></line><line x1="61.953125" y1="162.25" x2="56.953125" y2="162.25" style="visibility: inherit;" fill="rgb(0, 0, 0)" stroke="rgb(204, 204, 204)" stroke-width="1px"></line><line x1="61.953125" y1="147.5" x2="56.953125" y2="147.5" style="visibility: inherit;" fill="rgb(0, 0, 0)" stroke="rgb(204, 204, 204)" stroke-width="1px"></line><line x1="61.953125" y1="132.75" x2="56.953125" y2="132.75" style="visibility: inherit;" fill="rgb(0, 0, 0)" stroke="rgb(204, 204, 204)" stroke-width="1px"></line><line x1="61.953125" y1="118.00000000000001" x2="56.953125" y2="118.00000000000001" style="visibility: inherit;" fill="rgb(0, 0, 0)" stroke="rgb(204, 204, 204)" stroke-width="1px"></line><line x1="61.953125" y1="103.25" x2="56.953125" y2="103.25" style="visibility: inherit;" fill="rgb(0, 0, 0)" stroke="rgb(204, 204, 204)" stroke-width="1px"></line><line x1="61.953125" y1="88.5" x2="56.953125" y2="88.5" style="visibility: inherit;" fill="rgb(0, 0, 0)" stroke="rgb(204, 204, 204)" stroke-width="1px"></line><line x1="61.953125" y1="73.75000000000001" x2="56.953125" y2="73.75000000000001" style="visibility: inherit;" fill="rgb(0, 0, 0)" stroke="rgb(204, 204, 204)" stroke-width="1px"></line><line x1="61.953125" y1="59.00000000000001" x2="56.953125" y2="59.00000000000001" style="visibility: inherit;" fill="rgb(0, 0, 0)" stroke="rgb(204, 204, 204)" stroke-width="1px"></line><line x1="61.953125" y1="44.25" x2="56.953125" y2="44.25" style="visibility: inherit;" fill="rgb(0, 0, 0)" stroke="rgb(204, 204, 204)" stroke-width="1px"></line><line x1="61.953125" y1="29.500000000000032" x2="56.953125" y2="29.500000000000032" style="visibility: inherit;" fill="rgb(0, 0, 0)" stroke="rgb(204, 204, 204)" stroke-width="1px"></line><line x1="61.953125" y1="14.750000000000007" x2="56.953125" y2="14.750000000000007" style="visibility: inherit;" fill="rgb(0, 0, 0)" stroke="rgb(204, 204, 204)" stroke-width="1px"></line><line x1="61.953125" y1="0" x2="56.953125" y2="0" style="visibility: inherit;" fill="rgb(0, 0, 0)" stroke="rgb(204, 204, 204)" stroke-width="1px"></line></g><g transform="translate(51.953125, 0)"><text x="0" y="177" dx="0em" dy="0.3em" style="text-anchor: end; visibility: hidden; font-family: Roboto, sans-serif; font-size: 12px; font-weight: 200;" fill="rgb(33, 33, 33)" stroke="none" stroke-width="1px">0.025</text><text x="0" y="162.25" dx="0em" dy="0.3em" style="text-anchor: end; visibility: inherit; font-family: Roboto, sans-serif; font-size: 12px; font-weight: 200;" fill="rgb(33, 33, 33)" stroke="none" stroke-width="1px">0.03</text><text x="0" y="147.5" dx="0em" dy="0.3em" style="text-anchor: end; visibility: hidden; font-family: Roboto, sans-serif; font-size: 12px; font-weight: 200;" fill="rgb(33, 33, 33)" stroke="none" stroke-width="1px">0.035</text><text x="0" y="132.75" dx="0em" dy="0.3em" style="text-anchor: end; visibility: inherit; font-family: Roboto, sans-serif; font-size: 12px; font-weight: 200;" fill="rgb(33, 33, 33)" stroke="none" stroke-width="1px">0.04</text><text x="0" y="118.00000000000001" dx="0em" dy="0.3em" style="text-anchor: end; visibility: hidden; font-family: Roboto, sans-serif; font-size: 12px; font-weight: 200;" fill="rgb(33, 33, 33)" stroke="none" stroke-width="1px">0.045</text><text x="0" y="103.25" dx="0em" dy="0.3em" style="text-anchor: end; visibility: inherit; font-family: Roboto, sans-serif; font-size: 12px; font-weight: 200;" fill="rgb(33, 33, 33)" stroke="none" stroke-width="1px">0.05</text><text x="0" y="88.5" dx="0em" dy="0.3em" style="text-anchor: end; visibility: hidden; font-family: Roboto, sans-serif; font-size: 12px; font-weight: 200;" fill="rgb(33, 33, 33)" stroke="none" stroke-width="1px">0.055</text><text x="0" y="73.75000000000001" dx="0em" dy="0.3em" style="text-anchor: end; visibility: inherit; font-family: Roboto, sans-serif; font-size: 12px; font-weight: 200;" fill="rgb(33, 33, 33)" stroke="none" stroke-width="1px">0.06</text><text x="0" y="59.00000000000001" dx="0em" dy="0.3em" style="text-anchor: end; visibility: hidden; font-family: Roboto, sans-serif; font-size: 12px; font-weight: 200;" fill="rgb(33, 33, 33)" stroke="none" stroke-width="1px">0.065</text><text x="0" y="44.25" dx="0em" dy="0.3em" style="text-anchor: end; visibility: inherit; font-family: Roboto, sans-serif; font-size: 12px; font-weight: 200;" fill="rgb(33, 33, 33)" stroke="none" stroke-width="1px">0.07</text><text x="0" y="29.500000000000032" dx="0em" dy="0.3em" style="text-anchor: end; visibility: hidden; font-family: Roboto, sans-serif; font-size: 12px; font-weight: 200;" fill="rgb(33, 33, 33)" stroke="none" stroke-width="1px">0.075</text><text x="0" y="14.750000000000007" dx="0em" dy="0.3em" style="text-anchor: end; visibility: inherit; font-family: Roboto, sans-serif; font-size: 12px; font-weight: 200;" fill="rgb(33, 33, 33)" stroke="none" stroke-width="1px">0.08</text><text x="0" y="0" dx="0em" dy="0.3em" style="text-anchor: end; visibility: hidden; font-family: Roboto, sans-serif; font-size: 12px; font-weight: 200;" fill="rgb(33, 33, 33)" stroke="none" stroke-width="1px">0.085</text></g><line x1="61.953125" y1="0" x2="61.953125" y2="177" fill="rgb(0, 0, 0)" stroke="rgb(204, 204, 204)" stroke-width="1px"></line></g></g><g transform="translate(61, 0)" clip-path="url(#clip_0)"><clipPath id="clip_0"><rect width="268" height="176"></rect></clipPath><g><g><g><line x1="0" y1="0" x2="0" y2="177" fill="rgb(0, 0, 0)" stroke="rgb(66, 66, 66)" stroke-width="1px" opacity="0.25"></line><line x1="17.869791666666668" y1="0" x2="17.869791666666668" y2="177" fill="rgb(0, 0, 0)" stroke="rgb(66, 66, 66)" stroke-width="1px" opacity="0.25"></line><line x1="35.739583333333336" y1="0" x2="35.739583333333336" y2="177" fill="rgb(0, 0, 0)" stroke="rgb(66, 66, 66)" stroke-width="1px" opacity="0.25"></line><line x1="53.609375" y1="0" x2="53.609375" y2="177" fill="rgb(0, 0, 0)" stroke="rgb(66, 66, 66)" stroke-width="1px" opacity="0.25"></line><line x1="71.47916666666667" y1="0" x2="71.47916666666667" y2="177" fill="rgb(0, 0, 0)" stroke="rgb(66, 66, 66)" stroke-width="1px" opacity="0.25"></line><line x1="89.34895833333333" y1="0" x2="89.34895833333333" y2="177" fill="rgb(0, 0, 0)" stroke="rgb(66, 66, 66)" stroke-width="1px" opacity="0.25"></line><line x1="107.21875" y1="0" x2="107.21875" y2="177" fill="rgb(0, 0, 0)" stroke="rgb(66, 66, 66)" stroke-width="1px" opacity="0.25"></line><line x1="125.08854166666667" y1="0" x2="125.08854166666667" y2="177" fill="rgb(0, 0, 0)" stroke="rgb(66, 66, 66)" stroke-width="1px" opacity="0.25"></line><line x1="142.95833333333334" y1="0" x2="142.95833333333334" y2="177" fill="rgb(0, 0, 0)" stroke="rgb(66, 66, 66)" stroke-width="1px" opacity="0.25"></line><line x1="160.828125" y1="0" x2="160.828125" y2="177" fill="rgb(0, 0, 0)" stroke="rgb(66, 66, 66)" stroke-width="1px" opacity="0.25"></line><line x1="178.69791666666666" y1="0" x2="178.69791666666666" y2="177" fill="rgb(0, 0, 0)" stroke="rgb(66, 66, 66)" stroke-width="1px" opacity="0.25"></line><line x1="196.56770833333331" y1="0" x2="196.56770833333331" y2="177" fill="rgb(0, 0, 0)" stroke="rgb(66, 66, 66)" stroke-width="1px" opacity="0.25"></line><line x1="214.4375" y1="0" x2="214.4375" y2="177" fill="rgb(0, 0, 0)" stroke="rgb(66, 66, 66)" stroke-width="1px" opacity="0.25"></line><line x1="232.30729166666669" y1="0" x2="232.30729166666669" y2="177" fill="rgb(0, 0, 0)" stroke="rgb(66, 66, 66)" stroke-width="1px" opacity="0.25"></line><line x1="250.17708333333334" y1="0" x2="250.17708333333334" y2="177" fill="rgb(0, 0, 0)" stroke="rgb(66, 66, 66)" stroke-width="1px" opacity="0.25"></line><line x1="268.046875" y1="0" x2="268.046875" y2="177" fill="rgb(0, 0, 0)" stroke="rgb(66, 66, 66)" stroke-width="1px" opacity="0.25"></line></g><g><line x1="0" y1="177" x2="268.046875" y2="177" fill="rgb(0, 0, 0)" stroke="rgb(66, 66, 66)" stroke-width="1px" opacity="0.25"></line><line x1="0" y1="162.25" x2="268.046875" y2="162.25" fill="rgb(0, 0, 0)" stroke="rgb(66, 66, 66)" stroke-width="1px" opacity="0.25"></line><line x1="0" y1="147.5" x2="268.046875" y2="147.5" fill="rgb(0, 0, 0)" stroke="rgb(66, 66, 66)" stroke-width="1px" opacity="0.25"></line><line x1="0" y1="132.75" x2="268.046875" y2="132.75" fill="rgb(0, 0, 0)" stroke="rgb(66, 66, 66)" stroke-width="1px" opacity="0.25"></line><line x1="0" y1="118.00000000000001" x2="268.046875" y2="118.00000000000001" fill="rgb(0, 0, 0)" stroke="rgb(66, 66, 66)" stroke-width="1px" opacity="0.25"></line><line x1="0" y1="103.25" x2="268.046875" y2="103.25" fill="rgb(0, 0, 0)" stroke="rgb(66, 66, 66)" stroke-width="1px" opacity="0.25"></line><line x1="0" y1="88.5" x2="268.046875" y2="88.5" fill="rgb(0, 0, 0)" stroke="rgb(66, 66, 66)" stroke-width="1px" opacity="0.25"></line><line x1="0" y1="73.75000000000001" x2="268.046875" y2="73.75000000000001" fill="rgb(0, 0, 0)" stroke="rgb(66, 66, 66)" stroke-width="1px" opacity="0.25"></line><line x1="0" y1="59.00000000000001" x2="268.046875" y2="59.00000000000001" fill="rgb(0, 0, 0)" stroke="rgb(66, 66, 66)" stroke-width="1px" opacity="0.25"></line><line x1="0" y1="44.25" x2="268.046875" y2="44.25" fill="rgb(0, 0, 0)" stroke="rgb(66, 66, 66)" stroke-width="1px" opacity="0.25"></line><line x1="0" y1="29.500000000000032" x2="268.046875" y2="29.500000000000032" fill="rgb(0, 0, 0)" stroke="rgb(66, 66, 66)" stroke-width="1px" opacity="0.25"></line><line x1="0" y1="14.750000000000007" x2="268.046875" y2="14.750000000000007" fill="rgb(0, 0, 0)" stroke="rgb(66, 66, 66)" stroke-width="1px" opacity="0.25"></line><line x1="0" y1="0" x2="268.046875" y2="0" fill="rgb(0, 0, 0)" stroke="rgb(66, 66, 66)" stroke-width="1px" opacity="0.25"></line></g></g></g><g><g><line x1="0" y1="250.74999999999997" x2="268.046875" y2="250.74999999999997" fill="rgb(0, 0, 0)" stroke="rgb(153, 153, 153)" stroke-width="1.5px"></line></g></g><g><g><line x1="17.869791666666668" y1="0" x2="17.869791666666668" y2="177" fill="rgb(0, 0, 0)" stroke="rgb(153, 153, 153)" stroke-width="1.5px"></line></g></g><g><g><g><g><g><path stroke="rgb(255, 112, 67)" stroke-width="2px" d="M18.763281250000002,164.2185317054391L19.656770833333333,158.97402046372494L20.550260416666664,152.9802996101124L21.44375,146.38720227529606L22.337239583333332,139.3494076788906L23.230729166666666,132.00225882977247L24.12421875,124.45110679945843L25.017708333333335,116.77114637765813L25.911197916666666,109.01262372150406L26.8046875,101.20751564565207L27.698177083333334,93.37537606539135L28.59166666666667,85.52783122637807L29.48515625,77.67163227142605L30.378645833333334,69.81062857373692L31.272135416666668,61.946988606751866L32.165625,54.081910654458525L33.05911458333333,46.21604275197889L33.95260416666667,38.34974987893395L34.84609375,30.483240509279035L35.739583333333336,22.616615389946748L36.63307291666666,18.684572262268382L37.526562500000004,16.72234351974298L38.42005208333334,15.747548523776205L39.313541666666666,15.268986757002788L40.20703125,15.041091127558952L41.10052083333333,14.941045170209337L41.99401041666667,14.907429675100904L42.8875,14.909568009204992L43.78098958333333,14.932110867158539L44.674479166666664,14.967372606854692L45.567968750000006,15.0115323864929L46.46145833333333,15.062646816360557L47.35494791666667,15.119755191207407L48.2484375,15.182388148013647L49.14192708333333,15.250300015662095L50.03541666666667,15.323367958593456L50.92890625,15.401519569421431L51.82239583333333,15.484718644452725L52.715885416666666,15.572969061053307L53.609375,15.666239789086896L54.502864583333334,15.764526303091863L55.39635416666667,15.867826340337214L56.289843749999996,15.97613876945757L57.18333333333334,16.089463024770126L58.07682291666667,16.20777684422082L58.9703125,16.331080086388955L59.86380208333333,16.45938367017048L60.75729166666667,16.592660086194364L61.65078125,16.73090656938141L62.544270833333336,16.874121737192016L63.43776041666666,17.02230489835635L64.33125,17.17544471763324L65.22473958333333,17.333535527401903L66.11822916666667,17.496574493852158L67.01171875,17.66454921047237L67.90520833333333,17.837453474006818L68.79869791666667,18.015284182827564L69.6921875,18.198017806907973L70.58567708333332,18.385664560447385L71.47916666666667,18.578207571332783L72.37265625,18.775649393114044L73.26614583333333,18.97796932335327L74.15963541666667,19.185157010831567L75.05312500000001,19.397218269545913L75.94661458333333,19.614123037675554L76.84010416666668,19.835889253129334L77.73359375,20.062481926436142L78.62708333333333,20.293916531679493L79.52057291666667,20.5301568474757L80.4140625,20.77119575273929L81.30755208333333,21.017040676533874L82.20104166666665,21.26767335417852L83.09453125,21.52308465333277L83.98802083333334,21.783248028613595L84.88151041666666,22.048172186542306L85.775,22.31785049077308L86.66848958333333,22.592246654313982L87.56197916666666,22.87136451288174L88.45546875000001,23.155184005121953L89.34895833333333,23.443695100357417L90.24244791666666,23.736892783249544L91.13593750000001,24.034774546129075L92.02942708333333,24.337295176735807L92.92291666666667,24.644465037758778L93.81640625,24.956267331329805L94.70989583333333,25.272693658514747L95.60338541666667,25.593717840633765L96.496875,25.919326788346968L97.39036458333334,26.249513956984398L98.28385416666666,26.584265084604688L99.17734375,26.923562050630792L100.07083333333334,27.26740678438057L100.96432291666666,27.615756292087397L101.8578125,27.968611056080718L102.75130208333334,28.32594933831259L103.64479166666666,28.687771259365288L104.53828125,29.054043910710924L105.43177083333333,29.42476182769184L106.32526041666667,29.799900298766516L107.21875,30.179446968164196L108.11223958333333,30.563395657999397L109.00572916666667,30.951721300116713L109.89921874999999,31.34440037083206L110.79270833333334,31.741432097909716L111.68619791666667,32.14279411601916L112.57968749999999,32.54846425288866L113.47317708333334,32.95842043277598L114.36666666666667,33.37265161781002L115.26015625,33.79113030984245L116.15364583333334,34.213853749405565L117.04713541666666,34.64080956715903L117.940625,35.0719586096136L118.83411458333335,35.50729228963101L119.72760416666667,35.946795324035705L120.62109375,36.390449081633584L121.51458333333333,36.83822226761485L122.40807291666667,37.29011022418093L123.3015625,37.74608864321984L124.19505208333332,38.206134381069155L125.08854166666667,38.67022487629126L125.98203124999999,39.13833785856104L126.87552083333333,39.61047318232228L127.76901041666667,40.08659780597772L128.6625,40.56668421912236L129.55598958333334,41.05072965616011L130.44947916666666,41.5386997654737L131.34296875,42.03057737125462L132.23645833333333,42.52633190638575L133.12994791666665,43.02597006652132L134.0234375,43.5294292618502L134.91692708333332,44.03673314549868L135.81041666666667,44.54782760639164L136.70390625,45.0626965785979L137.59739583333334,45.58132103954547L138.49088541666669,46.10368048834203L139.384375,46.629753684934975L140.27786458333333,47.15951901969163L141.17135416666665,47.69294370858297L142.06484375,48.23001135959441L142.95833333333334,48.770702787112285L143.85182291666666,49.31499740872338L144.7453125,49.86286295400838L145.63880208333333,50.414283287757556L146.53229166666665,50.969228363153306L147.42578125,51.527672167180455L148.31927083333335,52.089601693331446L149.21276041666667,52.65497746953331L150.10625000000002,53.22379074935596L150.99973958333334,53.79600419076524L151.89322916666666,54.3716101123504L152.78671874999998,54.95056071498058L153.68020833333335,55.532843088696694L154.57369791666667,56.118439788912895L155.4671875,56.70732011412341L156.36067708333334,57.29945772396904L157.25416666666666,57.894828458663746L158.14765624999998,58.49340924870818L159.04114583333333,59.095166580139846L159.93463541666668,59.70007270637118L160.828125,60.30811375410837L161.72161458333335,60.91926080749178L162.61510416666667,61.53348841898513L163.50859375,62.15075089600123L164.4020833333333,62.771047371459204L165.29557291666669,63.39434444299947L166.1890625,64.02061441983587L167.08255208333333,64.64982147736256L167.97604166666667,65.28194770327661L168.86953125,65.91696216221379L169.76302083333331,66.55484389168882L170.6565104166667,67.19556043124628L171.55,67.83907906624891L172.44348958333333,68.48538343937804L173.33697916666665,69.1344378979584L174.23046875,69.7862191208492L175.12395833333332,70.44069896307045L176.01744791666667,71.09784686772254L176.91093750000002,71.75762557714299L177.80442708333334,72.42003294691004L178.69791666666666,73.08501845158418L179.59140625,73.75256781805197L180.48489583333333,74.42263544613444L181.37838541666665,75.09520403054518L182.27187500000002,75.77023744462511L183.16536458333334,76.44771762504469L184.05885416666666,77.12760257132L184.95234374999998,77.80987128320906L185.84583333333333,78.49449128137813L186.73932291666665,79.18144632616037L187.6328125,79.87069532890317L188.52630208333335,80.56220675567387L189.41979166666667,81.25595384989977L190.31328125,81.95190125408173L191.20677083333334,82.65003128947019L192.10026041666666,83.35029665306807L192.99375,84.05269017778635L193.88723958333335,84.75716432165505L194.78072916666667,85.46370080849232L195.67421875,86.17225753138811L196.56770833333331,86.88280244728105L197.46119791666666,87.59531953464041L198.3546875,88.30977330868487L199.24817708333333,89.02612954261426L200.14166666666668,89.74436013342203L201.03515625,90.46443454519543L201.92864583333332,91.18631553076523L202.82213541666667,91.90997897174367L203.715625,92.63539082972412L204.60911458333334,93.36251760109366L205.50260416666669,94.0913315444395L206.39609375,94.82180779944883L207.28958333333333,95.55390646194927L208.18307291666665,96.28759659024831L209.0765625,97.0228407342869L209.97005208333334,97.75963115864187L210.86354166666666,98.49790904756979L211.75703125,99.23766147760847L212.65052083333333,99.97884901820768L213.54401041666665,100.72143546968276L214.4375,101.46539723738819L215.33098958333335,102.21070603959157L216.22447916666667,102.95731476660767L217.11796875000002,103.70519436879056L218.01145833333334,104.45432482651421L218.90494791666666,105.20466316114639L219.79843749999998,105.956187883371L220.69192708333335,106.70886077451402L221.58541666666667,107.4626462408289L222.47890625,108.21751000103278L223.37239583333334,108.97342941968104L224.26588541666666,109.73036570503542L225.15937499999998,110.48828847162045L226.05286458333333,111.24716604228873L226.94635416666668,112.00696609405706L227.83984375,112.76765598102426L228.73333333333335,113.52919740102695L229.62682291666667,114.2915657081803L230.5203125,115.05472110552593L231.4138020833333,115.8186381997814L232.30729166666669,116.58328231509279L233.20078125,117.34861962912356L234.09427083333333,118.1146057566895L234.98776041666667,118.88121850519848L235.88125,119.64843578874802L236.77473958333331,120.41620810076463L237.6682291666667,121.18450519315832L238.56171875,121.95330644708093L239.45520833333333,122.72257407909244L240.34869791666665,123.49226721826003L241.2421875,124.26235443951091L242.13567708333332,125.03280354589921L243.02916666666667,125.8035874493455L243.92265625000002,126.57466513179418L244.81614583333334,127.34601058941422" style="fill: none;" fill="none"></path></g></g></g></g><g opacity="0.2"><g><g><g><path stroke="rgb(255, 112, 67)" stroke-width="2px" d="M18.763281250000002,164.2185317054391L19.656770833333333,156.35176484286785L20.550260416666664,148.485008969903L21.44375,140.61824210733175L22.337239583333332,132.7514752447605L23.230729166666666,124.88470838218929L24.12421875,117.01794151961803L25.017708333333335,109.15118564665318L25.911197916666666,101.28440779447557L26.8046875,93.41765192151071L27.698177083333334,85.55088505893947L28.59166666666667,77.68411819636822L29.48515625,69.81735133379699L30.378645833333334,61.95058447122576L31.272135416666668,54.0838285982609L32.165625,46.21707272529604L33.05911458333333,38.350294873118415L33.95260416666667,30.483517020940788L34.84609375,22.61676114797593L35.739583333333336,14.75000527501109L36.63307291666666,14.752532884478581L37.526562500000004,14.7601157128811L38.42005208333334,14.772753760218647L39.313541666666666,14.79042504727843L40.20703125,14.813195511698735L41.10052083333333,14.84099921584132L41.99401041666667,14.873814180493374L42.8875,14.911706343293202L43.78098958333333,14.954653725028058L44.674479166666664,15.00263434648515L45.567968750000006,15.055692166090038L46.46145833333333,15.113761246204396L47.35494791666667,15.176863566041012L48.2484375,15.245021104812635L49.14192708333333,15.318211883306516L50.03541666666667,15.396435901522656L50.92890625,15.479671180248287L51.82239583333333,15.567917719483388L52.715885416666666,15.661219477653516L53.609375,15.759510517120388L54.502864583333334,15.86281281709673L55.39635416666667,15.971126377582562L56.289843749999996,16.084451198577906L57.18333333333334,16.202787280082724L58.07682291666667,16.326090663671515L58.9703125,16.45438332855703L59.86380208333333,16.58768725395205L60.75729166666667,16.725936502218268L61.65078125,16.869153052568457L62.544270833333336,17.01733690500262L63.43776041666666,17.170488059520743L64.33125,17.32858453691007L65.22473958333333,17.491626337170626L66.11822916666667,17.659613460302374L67.01171875,17.832523927092577L67.90520833333333,18.010357737541224L68.79869791666667,18.193114891648314L69.6921875,18.380751430988326L70.58567708333332,18.5733113139868L71.47916666666667,18.770750582218195L72.37265625,18.97309121489527L73.26614583333333,19.180289253592516L74.15963541666667,19.392344698309923L75.05312500000001,19.609279528260256L75.94661458333333,19.83102780580523L76.84010416666668,20.057655468583132L77.73359375,20.28907459974291L78.62708333333333,20.52535113692286L79.52057291666667,20.766397163271925L80.4140625,21.01223465800286L81.30755208333333,21.26288560032846L82.20104166666665,21.518306031823165L83.09453125,21.778495952487L83.98802083333334,22.043411403894446L84.88151041666666,22.313096344471L85.775,22.587528795003912L86.66848958333333,22.866642817854903L87.56197916666666,23.150482371449485L88.45546875000001,23.439003497362144L89.34895833333333,23.7322061955929L90.24244791666666,24.030090466141715L91.13593750000001,24.332656309008605L92.02942708333333,24.639815807342544L92.92291666666667,24.95163489878179L93.81640625,25.268069624900832L94.70989583333333,25.589119985699668L95.60338541666667,25.914742022752783L96.496875,26.244935736060157L97.39036458333334,26.57970112562181L98.28385416666666,26.919016212224975L99.17734375,27.262859016656883L100.07083333333334,27.611251518130324L100.96432291666666,27.964105799794204L101.8578125,28.321465820074103L102.75130208333334,28.68328762054444L103.64479166666666,29.04959318041803L104.53828125,29.420316562056563L105.43177083333333,29.79547974467279L106.32526041666667,30.175038769841215L107.21875,30.55899363756182L108.11223958333333,30.9473443478346L109.00572916666667,31.340046942234046L109.89921874999999,31.737079441547408L110.79270833333334,32.13846382498743L111.68619791666667,32.544156134128585L112.57968749999999,32.95413438975812L113.47317708333334,33.36837661266328L114.36666666666667,33.78688280284406L115.26015625,34.20960900187494L116.15364583333334,34.63657718896868L117.04713541666666,35.0677653849125L117.940625,35.50310765206815L118.83411458333335,35.94262596964837L119.72760416666667,36.38629835844042L120.62109375,36.8341028392315L121.51458333333333,37.28599545359613L122.40807291666667,37.74199818074704L123.3015625,38.202067062258735L124.19505208333332,38.666180118918426L125.08854166666667,39.13431537151339L125.98203124999999,39.60645084083081L126.87552083333333,40.0826085060835L127.76901041666667,40.56272242963316L128.6625,41.04677063226702L129.55598958333334,41.534775093197844L130.44947916666666,42.02666987478735L131.34296875,42.522454977035544L132.23645833333333,43.02208644151688L133.12994791666665,43.52560822665693L134.0234375,44.03288845717909L134.91692708333332,44.54403702914717L135.81041666666667,45.0589220672846L136.70390625,45.577565550804145L137.59739583333334,46.099945500493064L138.49088541666669,46.626039937138565L139.384375,47.15582688152792L140.27786458333333,47.689284354448326L141.17135416666665,48.2263683974743L142.06484375,48.76707901060583L142.95833333333334,49.31139421463015L143.85182291666666,49.85929203033448L144.7453125,50.410728499293334L145.63880208333333,50.96570362150671L146.53229166666665,51.524173438549056L147.42578125,52.08611597120764L148.31927083333335,52.65153121948244L149.21276041666667,53.22035324573518L150.10625000000002,53.79260402917863L150.99973958333334,54.36821763217451L151.89322916666666,54.94721603393557L152.78671874999998,55.52951131761076L153.68020833333335,56.11512546241284L154.57369791666667,56.70403648912908L155.4671875,57.29620043933392L156.36067708333334,57.89159533381464L157.25416666666666,58.49019919335843L158.14765624999998,59.09199003875258L159.04114583333333,59.69692391157151L159.93463541666668,60.30497883260252L160.828125,60.91615480184557L161.72161458333335,61.530407860875144L162.61510416666667,62.14771603047849L163.50859375,62.76801337301733L164.4020833333333,63.39134384691716L165.29557291666669,64.01764151453973L166.1890625,64.64688439667226L167.08255208333333,65.27902853488924L167.97604166666667,65.91407392919065L168.86953125,66.55197662115098L169.76302083333331,67.19272562116386L170.6565104166667,67.83627697080375L171.55,68.48259770125152L172.44348958333333,69.13168781250717L173.33697916666665,69.78349235653879L174.23046875,70.43800034373999L175.12395833333332,71.09517880529167L176.01744791666667,71.75499477237464L176.91093750000002,72.41740428656341L177.80442708333334,73.08244031667711L178.69791666666666,73.75000395625831L179.59140625,74.42011718451978L180.48489583333333,75.09270307421684L181.37838541666665,75.7677726149559L182.27187500000002,76.44527085870506L183.16536458333334,77.12519780546427L184.05885416666666,77.80748751759529L184.95234374999998,78.49213999509813L185.84583333333333,79.17911127954723L186.73932291666665,79.86840137094259L187.6328125,80.55994433164598L188.52630208333335,81.25371818244457L189.41979166666667,81.94970094412567L190.31328125,82.6478486582637L191.20677083333334,83.34816132485867L192.10026041666666,84.05056201666594L192.99375,84.75508370250465L193.88723958333335,85.46163846552373L194.78072916666667,86.17023729532958L195.67421875,86.88081425428392L196.56770833333331,87.59334736317398L197.46119791666666,88.30783662199975L198.3546875,89.02422708272935L199.24817708333333,89.74248577654363L200.14166666666668,90.46259072422983L201.03515625,91.1845089569688L201.92864583333332,91.90819651633501L202.82213541666667,92.63364241272211L203.715625,93.36080268770456L204.60911458333334,94.08964437246323L205.50260416666669,94.82014548778535L206.39609375,95.55228405445816L207.28958333333333,96.28600512444974L208.18307291666665,97.02128671854734L209.0765625,97.75808487832546L209.97005208333334,98.49642158299685L210.86354166666666,99.2361869364977L211.75703125,99.97741390764713L212.65052083333333,100.7200365588069L213.54401041666665,101.46402192115785L214.4375,102.20935900509357L215.33098958333335,102.95601484179497L216.22447916666667,103.70392349362375L217.11796875000002,104.4530739709735L218.01145833333334,105.20345528423786L218.90494791666666,105.95500149577857L219.79843749999998,106.7077126055956L220.69192708333335,107.46153366565704L221.58541666666667,108.2164317071438L222.47890625,108.97237376123668L223.37239583333334,109.72934883832932L224.26588541666666,110.48730199038982L225.15937499999998,111.24621123820543L226.05286458333333,112.006043612957L226.94635416666668,112.76676614582539L227.83984375,113.52834586799145L228.73333333333335,114.29073882102968L229.62682291666667,115.05393401533367L230.5203125,115.81787650287151L231.4138020833333,116.58255529403687L232.30729166666669,117.34792643040419L233.20078125,118.11395694315434L234.09427083333333,118.88059188425542L234.98776041666667,119.64783125370741L235.88125,120.41565307229759L236.77473958333331,121.18398041278124L237.6682291666667,121.95280228555202L238.56171875,122.72210770100355L239.45520833333333,123.49184171110393L240.34869791666665,124.26196035742761L241.2421875,125.03244166076185L242.13567708333332,125.8032526522875L243.02916666666667,126.57437135279179L243.92265625000002,127.34574281424284L244.81614583333334,128.11735604703426" style="fill: none;" fill="none"></path></g></g></g></g></g></g><g transform="translate(61, 177)" clip-path="url(#clip_1)"><clipPath id="clip_1"><rect width="268" height="22"></rect></clipPath><g><g><line x1="0" y1="0" x2="0" y2="5" style="visibility: inherit;" fill="rgb(0, 0, 0)" stroke="rgb(204, 204, 204)" stroke-width="1px"></line><line x1="17.869791666666668" y1="0" x2="17.869791666666668" y2="5" style="visibility: inherit;" fill="rgb(0, 0, 0)" stroke="rgb(204, 204, 204)" stroke-width="1px"></line><line x1="35.739583333333336" y1="0" x2="35.739583333333336" y2="5" style="visibility: inherit;" fill="rgb(0, 0, 0)" stroke="rgb(204, 204, 204)" stroke-width="1px"></line><line x1="53.609375" y1="0" x2="53.609375" y2="5" style="visibility: inherit;" fill="rgb(0, 0, 0)" stroke="rgb(204, 204, 204)" stroke-width="1px"></line><line x1="71.47916666666667" y1="0" x2="71.47916666666667" y2="5" style="visibility: inherit;" fill="rgb(0, 0, 0)" stroke="rgb(204, 204, 204)" stroke-width="1px"></line><line x1="89.34895833333333" y1="0" x2="89.34895833333333" y2="5" style="visibility: inherit;" fill="rgb(0, 0, 0)" stroke="rgb(204, 204, 204)" stroke-width="1px"></line><line x1="107.21875" y1="0" x2="107.21875" y2="5" style="visibility: inherit;" fill="rgb(0, 0, 0)" stroke="rgb(204, 204, 204)" stroke-width="1px"></line><line x1="125.08854166666667" y1="0" x2="125.08854166666667" y2="5" style="visibility: inherit;" fill="rgb(0, 0, 0)" stroke="rgb(204, 204, 204)" stroke-width="1px"></line><line x1="142.95833333333334" y1="0" x2="142.95833333333334" y2="5" style="visibility: inherit;" fill="rgb(0, 0, 0)" stroke="rgb(204, 204, 204)" stroke-width="1px"></line><line x1="160.828125" y1="0" x2="160.828125" y2="5" style="visibility: inherit;" fill="rgb(0, 0, 0)" stroke="rgb(204, 204, 204)" stroke-width="1px"></line><line x1="178.69791666666666" y1="0" x2="178.69791666666666" y2="5" style="visibility: inherit;" fill="rgb(0, 0, 0)" stroke="rgb(204, 204, 204)" stroke-width="1px"></line><line x1="196.56770833333331" y1="0" x2="196.56770833333331" y2="5" style="visibility: inherit;" fill="rgb(0, 0, 0)" stroke="rgb(204, 204, 204)" stroke-width="1px"></line><line x1="214.4375" y1="0" x2="214.4375" y2="5" style="visibility: inherit;" fill="rgb(0, 0, 0)" stroke="rgb(204, 204, 204)" stroke-width="1px"></line><line x1="232.30729166666669" y1="0" x2="232.30729166666669" y2="5" style="visibility: inherit;" fill="rgb(0, 0, 0)" stroke="rgb(204, 204, 204)" stroke-width="1px"></line><line x1="250.17708333333334" y1="0" x2="250.17708333333334" y2="5" style="visibility: inherit;" fill="rgb(0, 0, 0)" stroke="rgb(204, 204, 204)" stroke-width="1px"></line><line x1="268.046875" y1="0" x2="268.046875" y2="5" style="visibility: inherit;" fill="rgb(0, 0, 0)" stroke="rgb(204, 204, 204)" stroke-width="1px"></line></g><g transform="translate(0, 8)"><text x="0" y="0" dx="0em" dy="0.95em" style="text-anchor: middle; visibility: hidden; font-family: Roboto, sans-serif; font-size: 12px; font-weight: 200;" fill="rgb(33, 33, 33)" stroke="none" stroke-width="1px">-2k</text><text x="17.869791666666668" y="0" dx="0em" dy="0.95em" style="text-anchor: middle; visibility: inherit; font-family: Roboto, sans-serif; font-size: 12px; font-weight: 200;" fill="rgb(33, 33, 33)" stroke="none" stroke-width="1px">0</text><text x="35.739583333333336" y="0" dx="0em" dy="0.95em" style="text-anchor: middle; visibility: hidden; font-family: Roboto, sans-serif; font-size: 12px; font-weight: 200;" fill="rgb(33, 33, 33)" stroke="none" stroke-width="1px">2k</text><text x="53.609375" y="0" dx="0em" dy="0.95em" style="text-anchor: middle; visibility: inherit; font-family: Roboto, sans-serif; font-size: 12px; font-weight: 200;" fill="rgb(33, 33, 33)" stroke="none" stroke-width="1px">4k</text><text x="71.47916666666667" y="0" dx="0em" dy="0.95em" style="text-anchor: middle; visibility: hidden; font-family: Roboto, sans-serif; font-size: 12px; font-weight: 200;" fill="rgb(33, 33, 33)" stroke="none" stroke-width="1px">6k</text><text x="89.34895833333333" y="0" dx="0em" dy="0.95em" style="text-anchor: middle; visibility: inherit; font-family: Roboto, sans-serif; font-size: 12px; font-weight: 200;" fill="rgb(33, 33, 33)" stroke="none" stroke-width="1px">8k</text><text x="107.21875" y="0" dx="0em" dy="0.95em" style="text-anchor: middle; visibility: hidden; font-family: Roboto, sans-serif; font-size: 12px; font-weight: 200;" fill="rgb(33, 33, 33)" stroke="none" stroke-width="1px">10k</text><text x="125.08854166666667" y="0" dx="0em" dy="0.95em" style="text-anchor: middle; visibility: inherit; font-family: Roboto, sans-serif; font-size: 12px; font-weight: 200;" fill="rgb(33, 33, 33)" stroke="none" stroke-width="1px">12k</text><text x="142.95833333333334" y="0" dx="0em" dy="0.95em" style="text-anchor: middle; visibility: hidden; font-family: Roboto, sans-serif; font-size: 12px; font-weight: 200;" fill="rgb(33, 33, 33)" stroke="none" stroke-width="1px">14k</text><text x="160.828125" y="0" dx="0em" dy="0.95em" style="text-anchor: middle; visibility: inherit; font-family: Roboto, sans-serif; font-size: 12px; font-weight: 200;" fill="rgb(33, 33, 33)" stroke="none" stroke-width="1px">16k</text><text x="178.69791666666666" y="0" dx="0em" dy="0.95em" style="text-anchor: middle; visibility: hidden; font-family: Roboto, sans-serif; font-size: 12px; font-weight: 200;" fill="rgb(33, 33, 33)" stroke="none" stroke-width="1px">18k</text><text x="196.56770833333331" y="0" dx="0em" dy="0.95em" style="text-anchor: middle; visibility: inherit; font-family: Roboto, sans-serif; font-size: 12px; font-weight: 200;" fill="rgb(33, 33, 33)" stroke="none" stroke-width="1px">20k</text><text x="214.4375" y="0" dx="0em" dy="0.95em" style="text-anchor: middle; visibility: hidden; font-family: Roboto, sans-serif; font-size: 12px; font-weight: 200;" fill="rgb(33, 33, 33)" stroke="none" stroke-width="1px">22k</text><text x="232.30729166666669" y="0" dx="0em" dy="0.95em" style="text-anchor: middle; visibility: inherit; font-family: Roboto, sans-serif; font-size: 12px; font-weight: 200;" fill="rgb(33, 33, 33)" stroke="none" stroke-width="1px">24k</text><text x="250.17708333333334" y="0" dx="0em" dy="0.95em" style="text-anchor: middle; visibility: hidden; font-family: Roboto, sans-serif; font-size: 12px; font-weight: 200;" fill="rgb(33, 33, 33)" stroke="none" stroke-width="1px">26k</text><text x="268.046875" y="0" dx="0em" dy="0.95em" style="text-anchor: middle; visibility: hidden; font-family: Roboto, sans-serif; font-size: 12px; font-weight: 200;" fill="rgb(33, 33, 33)" stroke="none" stroke-width="1px">28k</text></g><line x1="0" y1="0" x2="268.046875" y2="0" fill="rgb(0, 0, 0)" stroke="rgb(204, 204, 204)" stroke-width="1px"></line></g></g></g></g></svg>