<svg viewBox="0 0 330 200" xmlns="http://www.w3.org/2000/svg"><g><g><g><g><g><line x1="61.953125" y1="177" x2="56.953125" y2="177" style="visibility: inherit;" fill="rgb(0, 0, 0)" stroke="rgb(204, 204, 204)" stroke-width="1px"></line><line x1="61.953125" y1="163.3846153846154" x2="56.953125" y2="163.3846153846154" style="visibility: inherit;" fill="rgb(0, 0, 0)" stroke="rgb(204, 204, 204)" stroke-width="1px"></line><line x1="61.953125" y1="149.76923076923077" x2="56.953125" y2="149.76923076923077" style="visibility: inherit;" fill="rgb(0, 0, 0)" stroke="rgb(204, 204, 204)" stroke-width="1px"></line><line x1="61.953125" y1="136.15384615384616" x2="56.953125" y2="136.15384615384616" style="visibility: inherit;" fill="rgb(0, 0, 0)" stroke="rgb(204, 204, 204)" stroke-width="1px"></line><line x1="61.953125" y1="122.53846153846153" x2="56.953125" y2="122.53846153846153" style="visibility: inherit;" fill="rgb(0, 0, 0)" stroke="rgb(204, 204, 204)" stroke-width="1px"></line><line x1="61.953125" y1="108.92307692307693" x2="56.953125" y2="108.92307692307693" style="visibility: inherit;" fill="rgb(0, 0, 0)" stroke="rgb(204, 204, 204)" stroke-width="1px"></line><line x1="61.953125" y1="95.3076923076923" x2="56.953125" y2="95.3076923076923" style="visibility: inherit;" fill="rgb(0, 0, 0)" stroke="rgb(204, 204, 204)" stroke-width="1px"></line><line x1="61.953125" y1="81.6923076923077" x2="56.953125" y2="81.6923076923077" style="visibility: inherit;" fill="rgb(0, 0, 0)" stroke="rgb(204, 204, 204)" stroke-width="1px"></line><line x1="61.953125" y1="68.07692307692307" x2="56.953125" y2="68.07692307692307" style="visibility: inherit;" fill="rgb(0, 0, 0)" stroke="rgb(204, 204, 204)" stroke-width="1px"></line><line x1="61.953125" y1="54.46153846153847" x2="56.953125" y2="54.46153846153847" style="visibility: inherit;" fill="rgb(0, 0, 0)" stroke="rgb(204, 204, 204)" stroke-width="1px"></line><line x1="61.953125" y1="40.84615384615386" x2="56.953125" y2="40.84615384615386" style="visibility: inherit;" fill="rgb(0, 0, 0)" stroke="rgb(204, 204, 204)" stroke-width="1px"></line><line x1="61.953125" y1="27.230769230769234" x2="56.953125" y2="27.230769230769234" style="visibility: inherit;" fill="rgb(0, 0, 0)" stroke="rgb(204, 204, 204)" stroke-width="1px"></line><line x1="61.953125" y1="13.615384615384626" x2="56.953125" y2="13.615384615384626" style="visibility: inherit;" fill="rgb(0, 0, 0)" stroke="rgb(204, 204, 204)" stroke-width="1px"></line><line x1="61.953125" y1="0" x2="56.953125" y2="0" style="visibility: inherit;" fill="rgb(0, 0, 0)" stroke="rgb(204, 204, 204)" stroke-width="1px"></line></g><g transform="translate(51.953125, 0)"><text x="0" y="177" dx="0em" dy="0.3em" style="text-anchor: end; visibility: hidden; font-family: Roboto, sans-serif; font-size: 12px; font-weight: 200;" fill="rgb(33, 33, 33)" stroke="none" stroke-width="1px">-0.02</text><text x="0" y="163.3846153846154" dx="0em" dy="0.3em" style="text-anchor: end; visibility: inherit; font-family: Roboto, sans-serif; font-size: 12px; font-weight: 200;" fill="rgb(33, 33, 33)" stroke="none" stroke-width="1px">0</text><text x="0" y="149.76923076923077" dx="0em" dy="0.3em" style="text-anchor: end; visibility: hidden; font-family: Roboto, sans-serif; font-size: 12px; font-weight: 200;" fill="rgb(33, 33, 33)" stroke="none" stroke-width="1px">0.02</text><text x="0" y="136.15384615384616" dx="0em" dy="0.3em" style="text-anchor: end; visibility: inherit; font-family: Roboto, sans-serif; font-size: 12px; font-weight: 200;" fill="rgb(33, 33, 33)" stroke="none" stroke-width="1px">0.04</text><text x="0" y="122.53846153846153" dx="0em" dy="0.3em" style="text-anchor: end; visibility: hidden; font-family: Roboto, sans-serif; font-size: 12px; font-weight: 200;" fill="rgb(33, 33, 33)" stroke="none" stroke-width="1px">0.06</text><text x="0" y="108.92307692307693" dx="0em" dy="0.3em" style="text-anchor: end; visibility: inherit; font-family: Roboto, sans-serif; font-size: 12px; font-weight: 200;" fill="rgb(33, 33, 33)" stroke="none" stroke-width="1px">0.08</text><text x="0" y="95.3076923076923" dx="0em" dy="0.3em" style="text-anchor: end; visibility: hidden; font-family: Roboto, sans-serif; font-size: 12px; font-weight: 200;" fill="rgb(33, 33, 33)" stroke="none" stroke-width="1px">0.1</text><text x="0" y="81.6923076923077" dx="0em" dy="0.3em" style="text-anchor: end; visibility: inherit; font-family: Roboto, sans-serif; font-size: 12px; font-weight: 200;" fill="rgb(33, 33, 33)" stroke="none" stroke-width="1px">0.12</text><text x="0" y="68.07692307692307" dx="0em" dy="0.3em" style="text-anchor: end; visibility: hidden; font-family: Roboto, sans-serif; font-size: 12px; font-weight: 200;" fill="rgb(33, 33, 33)" stroke="none" stroke-width="1px">0.14</text><text x="0" y="54.46153846153847" dx="0em" dy="0.3em" style="text-anchor: end; visibility: inherit; font-family: Roboto, sans-serif; font-size: 12px; font-weight: 200;" fill="rgb(33, 33, 33)" stroke="none" stroke-width="1px">0.16</text><text x="0" y="40.84615384615386" dx="0em" dy="0.3em" style="text-anchor: end; visibility: hidden; font-family: Roboto, sans-serif; font-size: 12px; font-weight: 200;" fill="rgb(33, 33, 33)" stroke="none" stroke-width="1px">0.18</text><text x="0" y="27.230769230769234" dx="0em" dy="0.3em" style="text-anchor: end; visibility: inherit; font-family: Roboto, sans-serif; font-size: 12px; font-weight: 200;" fill="rgb(33, 33, 33)" stroke="none" stroke-width="1px">0.2</text><text x="0" y="13.615384615384626" dx="0em" dy="0.3em" style="text-anchor: end; visibility: hidden; font-family: Roboto, sans-serif; font-size: 12px; font-weight: 200;" fill="rgb(33, 33, 33)" stroke="none" stroke-width="1px">0.22</text><text x="0" y="0" dx="0em" dy="0.3em" style="text-anchor: end; visibility: hidden; font-family: Roboto, sans-serif; font-size: 12px; font-weight: 200;" fill="rgb(33, 33, 33)" stroke="none" stroke-width="1px">0.24</text></g><line x1="61.953125" y1="0" x2="61.953125" y2="177" fill="rgb(0, 0, 0)" stroke="rgb(204, 204, 204)" stroke-width="1px"></line></g></g><g transform="translate(61, 0)" clip-path="url(#clip_0)"><clipPath id="clip_0"><rect width="268" height="176"></rect></clipPath><g><g><g><line x1="0" y1="0" x2="0" y2="177" fill="rgb(0, 0, 0)" stroke="rgb(66, 66, 66)" stroke-width="1px" opacity="0.25"></line><line x1="17.869791666666668" y1="0" x2="17.869791666666668" y2="177" fill="rgb(0, 0, 0)" stroke="rgb(66, 66, 66)" stroke-width="1px" opacity="0.25"></line><line x1="35.739583333333336" y1="0" x2="35.739583333333336" y2="177" fill="rgb(0, 0, 0)" stroke="rgb(66, 66, 66)" stroke-width="1px" opacity="0.25"></line><line x1="53.609375" y1="0" x2="53.609375" y2="177" fill="rgb(0, 0, 0)" stroke="rgb(66, 66, 66)" stroke-width="1px" opacity="0.25"></line><line x1="71.47916666666667" y1="0" x2="71.47916666666667" y2="177" fill="rgb(0, 0, 0)" stroke="rgb(66, 66, 66)" stroke-width="1px" opacity="0.25"></line><line x1="89.34895833333333" y1="0" x2="89.34895833333333" y2="177" fill="rgb(0, 0, 0)" stroke="rgb(66, 66, 66)" stroke-width="1px" opacity="0.25"></line><line x1="107.21875" y1="0" x2="107.21875" y2="177" fill="rgb(0, 0, 0)" stroke="rgb(66, 66, 66)" stroke-width="1px" opacity="0.25"></line><line x1="125.08854166666667" y1="0" x2="125.08854166666667" y2="177" fill="rgb(0, 0, 0)" stroke="rgb(66, 66, 66)" stroke-width="1px" opacity="0.25"></line><line x1="142.95833333333334" y1="0" x2="142.95833333333334" y2="177" fill="rgb(0, 0, 0)" stroke="rgb(66, 66, 66)" stroke-width="1px" opacity="0.25"></line><line x1="160.828125" y1="0" x2="160.828125" y2="177" fill="rgb(0, 0, 0)" stroke="rgb(66, 66, 66)" stroke-width="1px" opacity="0.25"></line><line x1="178.69791666666666" y1="0" x2="178.69791666666666" y2="177" fill="rgb(0, 0, 0)" stroke="rgb(66, 66, 66)" stroke-width="1px" opacity="0.25"></line><line x1="196.56770833333331" y1="0" x2="196.56770833333331" y2="177" fill="rgb(0, 0, 0)" stroke="rgb(66, 66, 66)" stroke-width="1px" opacity="0.25"></line><line x1="214.4375" y1="0" x2="214.4375" y2="177" fill="rgb(0, 0, 0)" stroke="rgb(66, 66, 66)" stroke-width="1px" opacity="0.25"></line><line x1="232.30729166666669" y1="0" x2="232.30729166666669" y2="177" fill="rgb(0, 0, 0)" stroke="rgb(66, 66, 66)" stroke-width="1px" opacity="0.25"></line><line x1="250.17708333333334" y1="0" x2="250.17708333333334" y2="177" fill="rgb(0, 0, 0)" stroke="rgb(66, 66, 66)" stroke-width="1px" opacity="0.25"></line><line x1="268.046875" y1="0" x2="268.046875" y2="177" fill="rgb(0, 0, 0)" stroke="rgb(66, 66, 66)" stroke-width="1px" opacity="0.25"></line></g><g><line x1="0" y1="177" x2="268.046875" y2="177" fill="rgb(0, 0, 0)" stroke="rgb(66, 66, 66)" stroke-width="1px" opacity="0.25"></line><line x1="0" y1="163.3846153846154" x2="268.046875" y2="163.3846153846154" fill="rgb(0, 0, 0)" stroke="rgb(66, 66, 66)" stroke-width="1px" opacity="0.25"></line><line x1="0" y1="149.76923076923077" x2="268.046875" y2="149.76923076923077" fill="rgb(0, 0, 0)" stroke="rgb(66, 66, 66)" stroke-width="1px" opacity="0.25"></line><line x1="0" y1="136.15384615384616" x2="268.046875" y2="136.15384615384616" fill="rgb(0, 0, 0)" stroke="rgb(66, 66, 66)" stroke-width="1px" opacity="0.25"></line><line x1="0" y1="122.53846153846153" x2="268.046875" y2="122.53846153846153" fill="rgb(0, 0, 0)" stroke="rgb(66, 66, 66)" stroke-width="1px" opacity="0.25"></line><line x1="0" y1="108.92307692307693" x2="268.046875" y2="108.92307692307693" fill="rgb(0, 0, 0)" stroke="rgb(66, 66, 66)" stroke-width="1px" opacity="0.25"></line><line x1="0" y1="95.3076923076923" x2="268.046875" y2="95.3076923076923" fill="rgb(0, 0, 0)" stroke="rgb(66, 66, 66)" stroke-width="1px" opacity="0.25"></line><line x1="0" y1="81.6923076923077" x2="268.046875" y2="81.6923076923077" fill="rgb(0, 0, 0)" stroke="rgb(66, 66, 66)" stroke-width="1px" opacity="0.25"></line><line x1="0" y1="68.07692307692307" x2="268.046875" y2="68.07692307692307" fill="rgb(0, 0, 0)" stroke="rgb(66, 66, 66)" stroke-width="1px" opacity="0.25"></line><line x1="0" y1="54.46153846153847" x2="268.046875" y2="54.46153846153847" fill="rgb(0, 0, 0)" stroke="rgb(66, 66, 66)" stroke-width="1px" opacity="0.25"></line><line x1="0" y1="40.84615384615386" x2="268.046875" y2="40.84615384615386" fill="rgb(0, 0, 0)" stroke="rgb(66, 66, 66)" stroke-width="1px" opacity="0.25"></line><line x1="0" y1="27.230769230769234" x2="268.046875" y2="27.230769230769234" fill="rgb(0, 0, 0)" stroke="rgb(66, 66, 66)" stroke-width="1px" opacity="0.25"></line><line x1="0" y1="13.615384615384626" x2="268.046875" y2="13.615384615384626" fill="rgb(0, 0, 0)" stroke="rgb(66, 66, 66)" stroke-width="1px" opacity="0.25"></line><line x1="0" y1="0" x2="268.046875" y2="0" fill="rgb(0, 0, 0)" stroke="rgb(66, 66, 66)" stroke-width="1px" opacity="0.25"></line></g></g></g><g><g><line x1="0" y1="163.3846153846154" x2="268.046875" y2="163.3846153846154" fill="rgb(0, 0, 0)" stroke="rgb(153, 153, 153)" stroke-width="1.5px"></line></g></g><g><g><line x1="17.869791666666668" y1="0" x2="17.869791666666668" y2="177" fill="rgb(0, 0, 0)" stroke="rgb(153, 153, 153)" stroke-width="1.5px"></line></g></g><g><g><g><g><g><path stroke="rgb(255, 112, 67)" stroke-width="2px" d="M18.763281250000002,13.953300606745945L19.656770833333333,81.07680533482478L20.550260416666664,113.867651786123L21.44375,105.75844684013954L22.337239583333332,116.09909160320575L23.230729166666666,122.0495604254824L24.12421875,131.6623442996133L25.017708333333335,136.13456478701457L25.911197916666666,138.4208479499343L26.8046875,141.54447355637183L27.698177083333334,138.91369277379732L28.59166666666667,141.13211999130303L29.48515625,140.86785187736746L30.378645833333334,135.34881538933593L31.272135416666668,139.03453943090165L32.165625,144.7961490030853L33.05911458333333,139.9709705354832L33.95260416666667,138.11762435109944L34.84609375,133.71911264629682L35.739583333333336,127.99731892581651L36.63307291666666,114.83567382656352L37.526562500000004,120.83763325076428L38.42005208333334,131.24512393030668L39.313541666666666,129.87582121824974L40.20703125,137.79545502142886L41.10052083333333,146.3797098034311L41.99401041666667,149.21316845763073L42.8875,151.9373590358755L43.78098958333333,154.2176454424208L44.674479166666664,155.974390519137L45.567968750000006,156.55138747216722L46.46145833333333,157.08479957664778L47.35494791666667,157.19256421972727L48.2484375,158.76210383578L49.14192708333333,160.01332402590083L50.03541666666667,159.32622011754805L50.92890625,159.90845463692347L51.82239583333333,160.25542155174554L52.715885416666666,160.6563267766642L53.609375,161.0188667843373L54.502864583333334,161.1401394812339L55.39635416666667,159.78213982608312L56.289843749999996,160.0803473686463L57.18333333333334,160.59629376397865L58.07682291666667,161.07671432080915L58.9703125,160.959290657722L59.86380208333333,160.6370287805291L60.75729166666667,161.27258697892523L61.65078125,160.2593655546607L62.544270833333336,160.36482144540008L63.43776041666666,160.2046980977788L64.33125,160.4696463193142L65.22473958333333,161.3091817716874L66.11822916666667,161.01383496742946L67.01171875,161.5357948568458L67.90520833333333,161.7703311536616L68.79869791666667,161.81542532633904L69.6921875,161.85385561681093L70.58567708333332,161.6247397890298L71.47916666666667,161.8937332710852L72.37265625,161.50748473995574L73.26614583333333,161.97317436636817L74.15963541666667,160.56175444464216L75.05312500000001,159.73558608737676L75.94661458333333,160.55917095320214L76.84010416666668,161.25810816949763L77.73359375,161.83743280901015L78.62708333333333,162.06897391406505L79.52057291666667,161.4831712445945L80.4140625,161.11545232619582L81.30755208333333,161.5262176172589L82.20104166666665,161.63443576364688L83.09453125,161.73503570620034L83.98802083333334,161.26679345155668L84.88151041666666,161.45845915506L85.775,161.66379350147952L86.66848958333333,161.62623953176282L87.56197916666666,160.83862984303124L88.45546875000001,161.50598302863693L89.34895833333333,161.72803258896096L90.24244791666666,162.08597298122407L91.13593750000001,161.80007268321003L92.02942708333333,162.10619898268067L92.92291666666667,162.40368862257827L93.81640625,162.49530723629763L94.70989583333333,161.9038934236233L95.60338541666667,162.19131596756193L96.496875,161.0033322706895L97.39036458333334,161.62735981409318L98.28385416666666,162.05661233132716L99.17734375,162.02178600343453L100.07083333333334,162.0980249309877L100.96432291666666,161.1707100235123L101.8578125,161.9541055836697L102.75130208333334,161.69789634570031L103.64479166666666,162.05464310843024L104.53828125,162.12040380057675L105.43177083333333,161.95974865870343L106.32526041666667,162.3905448538685L107.21875,162.4747353330991L108.11223958333333,162.36790447275504L109.00572916666667,162.30895297553423L109.89921874999999,162.49532329332277L110.79270833333334,162.51848810912065L111.68619791666667,161.2907590534081L112.57968749999999,161.21435403799L113.47317708333334,161.85149242976217L114.36666666666667,161.25590117822028L115.26015625,161.0587241694137L116.15364583333334,161.4098750562095L117.04713541666666,161.33909646695923L117.940625,161.75275061236667L118.83411458333335,162.25185995753645L119.72760416666667,162.36360867113987L120.62109375,162.5323816186385L121.51458333333333,161.73175061491935L122.40807291666667,162.13977076279596L123.3015625,161.6967985504745L124.19505208333332,162.15773276368984L125.08854166666667,162.42181617802638L125.98203124999999,161.93819134087903L126.87552083333333,160.05233819306378L127.76901041666667,161.14991666392734L128.6625,161.02128320915386L129.55598958333334,161.4098219018869L130.44947916666666,161.71369624599288L131.34296875,161.9327235384632L132.23645833333333,161.62190241383473L133.12994791666665,161.86344091171907L134.0234375,162.34925487454123L134.91692708333332,161.8350087128938L135.81041666666667,162.28779824158053L136.70390625,161.94220061692133L137.59739583333334,161.8343930951116L138.49088541666669,161.8432904965608L139.384375,162.25958196115707L140.27786458333333,162.44686354269072L141.17135416666665,162.61377194673545L142.06484375,162.5895878678833L142.95833333333334,162.49257207332144L143.85182291666666,162.7022908074871L144.7453125,162.735882445106L145.63880208333333,162.74558257755393L146.53229166666665,162.68095394826423L147.42578125,162.5555705592305L148.31927083333335,162.33847451201694L149.21276041666667,162.50308761848092L150.10625000000002,162.20931809887338L150.99973958333334,162.23790120085906L151.89322916666666,161.51470860023798L152.78671874999998,162.13426463495705L153.68020833333335,162.29770515942363L154.57369791666667,162.51704117591254L155.4671875,162.5478480659657L156.36067708333334,157.94208769869644L157.25416666666666,160.09373510687368L158.14765624999998,161.51892282930314L159.04114583333333,161.88253660834127L159.93463541666668,162.16145806826339L160.828125,162.26017551941928L161.72161458333335,162.24505678461895L162.61510416666667,162.12556609680462L163.50859375,162.4455949999966L164.4020833333333,162.67887458824646L165.29557291666669,162.57633634524896L166.1890625,162.72776701314254L167.08255208333333,162.813067199109L167.97604166666667,162.88305999413498L168.86953125,162.90022277674245L169.76302083333331,162.8998383531571L170.6565104166667,162.93656721657834L171.55,162.8717977790621L172.44348958333333,162.83690023793304L173.33697916666665,162.7936251130634L174.23046875,162.34026958168872L175.12395833333332,162.24766241173668L176.01744791666667,162.4729511244773L176.91093750000002,162.56071848588024L177.80442708333334,162.79470350820372L178.69791666666666,162.88535476501715L179.59140625,159.88656827583895L180.48489583333333,161.46432400579164L181.37838541666665,162.0431236041754L182.27187500000002,162.58000741059075L183.16536458333334,162.7692466988723L184.05885416666666,162.7297499990786L184.95234374999998,162.6708397245418L185.84583333333333,162.7322598680929L186.73932291666665,162.85903394616926L187.6328125,162.39730015239786L188.52630208333335,162.46225446521896L189.41979166666667,162.6513847489491L190.31328125,162.76506051251062L191.20677083333334,162.80931775840108L192.10026041666666,162.9098230520636L192.99375,162.73758576161012L193.88723958333335,162.30594667985247L194.78072916666667,162.35035577422437L195.67421875,162.47647922812354L196.56770833333331,162.6618461601112L197.46119791666666,162.28810099862113L198.3546875,162.53972880995667L199.24817708333333,162.61697948652525L200.14166666666668,162.82377235184023L201.03515625,162.8348341579194L201.92864583333332,162.5879474403428L202.82213541666667,162.44874530301277L203.715625,162.63668622784633L204.60911458333334,162.6546603128115L205.50260416666669,162.1059422933361L206.39609375,162.62158432710652L207.28958333333333,162.803383546471L208.18307291666665,162.88318227340383L209.0765625,162.81506272860116L209.97005208333334,162.84498061403502L210.86354166666666,162.94189677199375L211.75703125,162.7599862773112L212.65052083333333,162.85684208875028L213.54401041666665,162.99225661892197L214.4375,162.96985146282978L215.33098958333335,162.91659097431526L216.22447916666667,162.94771060965817L217.11796875000002,163.02010957302053L218.01145833333334,162.9772120925569L218.90494791666666,163.0338414412488L219.79843749999998,163.0143367454774L220.69192708333335,163.06668214918764L221.58541666666667,163.07542518342373L222.47890625,162.9813979213251L223.37239583333334,163.00319720981014L224.26588541666666,162.96583767513286L225.15937499999998,162.93502732402345L226.05286458333333,162.9975326888233L226.94635416666668,162.86388596754836L227.83984375,162.9869354948255L228.73333333333335,162.81031638308627L229.62682291666667,162.8650411971029L230.5203125,162.95498797270383L231.4138020833333,163.0480618868885L232.30729166666669,163.09969693492894L233.20078125,163.09647371412322L234.09427083333333,162.96574145718995L234.98776041666667,162.9665453139665L235.88125,162.9125449263029L236.77473958333331,162.89915443536702L237.6682291666667,162.91774894893447L238.56171875,163.00782814397786L239.45520833333333,163.11853696326952L240.34869791666665,162.98754288941163L241.2421875,162.896243987036L242.13567708333332,162.82649153542394L243.02916666666667,162.8673804694497L243.92265625000002,162.81754054561816L244.81614583333334,162.990266019327" style="fill: none;" fill="none"></path></g></g></g></g><g opacity="0.2"><g><g><g><path stroke="rgb(255, 112, 67)" stroke-width="2px" d="M18.763281250000002,13.953300606745945L19.656770833333333,114.63855769886419L20.550260416666664,138.46078662459666L21.44375,98.662892512404L22.337239583333332,125.79344606858032L23.230729166666666,127.81407709706289L24.12421875,141.12492842571092L25.017708333333335,140.57184605185802L25.911197916666666,140.6982003192489L26.8046875,144.66199833154678L27.698177083333334,136.2854811130808L28.59166666666667,143.34946399239394L29.48515625,140.6036482820144L30.378645833333334,129.8304526118132L31.272135416666668,142.72003851372463L32.165625,150.5575827448987L33.05911458333333,135.14586569426152L33.95260416666667,136.26429230662492L34.84609375,129.32061772048473L35.739583333333336,122.27553611879165L36.63307291666666,101.67404127923342L37.526562500000004,126.83958981300776L38.42005208333334,141.65261212850993L39.313541666666666,128.50651866942644L40.20703125,145.715088352561L41.10052083333333,154.96396432960262L41.99401041666667,152.04662706960852L42.8875,154.66154959382345L43.78098958333333,156.49793184047135L44.674479166666664,157.73113559258098L45.567968750000006,157.12838442466008L46.46145833333333,157.61821168087997L47.35494791666667,157.3003288627817L48.2484375,160.33164345164997L49.14192708333333,161.26454421594883L50.03541666666667,158.63911620921527L50.92890625,160.49068915629041L51.82239583333333,160.6023884665651L52.715885416666666,161.05723200158144L53.609375,161.38140679200967L54.502864583333334,161.2614121781304L55.39635416666667,158.42414017093296L56.289843749999996,160.37855491120942L57.18333333333334,161.11224015931097L58.07682291666667,161.5571348776396L58.9703125,160.84186699463484L59.86380208333333,160.31476690333622L60.75729166666667,161.90814517732136L61.65078125,159.24614413039615L62.544270833333336,160.4702773361395L63.43776041666666,160.0445747501575L64.33125,160.7345945408496L65.22473958333333,162.14871722406062L66.11822916666667,160.7184881631715L67.01171875,162.05775474626213L67.90520833333333,162.0048674504774L68.79869791666667,161.8605194990165L69.6921875,161.89228590728285L70.58567708333332,161.39562396124865L71.47916666666667,162.1627267531406L72.37265625,161.1212362088263L73.26614583333333,162.4388639927806L74.15963541666667,159.15033452291615L75.05312500000001,158.90941773011136L75.94661458333333,161.38275581902752L76.84010416666668,161.95704538579312L77.73359375,162.41675744852265L78.62708333333333,162.30051501911993L79.52057291666667,160.89736857512392L80.4140625,160.74773340779714L81.30755208333333,161.93698290832197L82.20104166666665,161.74265391003485L83.09453125,161.83563564875377L83.98802083333334,160.79855119691302L84.88151041666666,161.65012485856334L85.775,161.86912784789902L86.66848958333333,161.5886855620461L87.56197916666666,160.05102015429964L88.45546875000001,162.17333621424265L89.34895833333333,161.95008214928495L90.24244791666666,162.44391337348722L91.13593750000001,161.514172385196L92.02942708333333,162.4123252821513L92.92291666666667,162.70117826247588L93.81640625,162.586925850017L94.70989583333333,161.31247961094888L95.60338541666667,162.4787385115006L96.496875,159.8153485738171L97.39036458333334,162.25138735749687L98.28385416666666,162.48586484856116L99.17734375,161.98695967554187L100.07083333333334,162.17426385854085L100.96432291666666,160.2433951160369L101.8578125,162.7375011438271L102.75130208333334,161.44168710773093L103.64479166666666,162.41138987116014L104.53828125,162.18616449272332L105.43177083333333,161.79909351683008L106.32526041666667,162.82134104903358L107.21875,162.55892581232968L108.11223958333333,162.261073612411L109.00572916666667,162.2500014783134L109.89921874999999,162.68169361111134L110.79270833333334,162.5416529249185L111.68619791666667,160.0630299976955L112.57968749999999,161.13794902257192L113.47317708333334,162.48863082153437L114.36666666666667,160.66030992667837L115.26015625,160.8615471606071L116.15364583333334,161.7610259430053L117.04713541666666,161.268317877709L117.940625,162.16640475777407L118.83411458333335,162.7509693027062L119.72760416666667,162.47535738474332L120.62109375,162.70115456613712L121.51458333333333,160.93111961120022L122.40807291666667,162.54779091067255L123.3015625,161.25382633815306L124.19505208333332,162.61866697690522L125.08854166666667,162.68589959236292L125.98203124999999,161.45456650373168L126.87552083333333,158.1664850452485L127.76901041666667,162.24749513479094L128.6625,160.8926497543804L129.55598958333334,161.79836059461994L130.44947916666666,162.0175705900989L131.34296875,162.15175083093345L132.23645833333333,161.31108128920627L133.12994791666665,162.1049794096034L134.0234375,162.83506883736342L134.91692708333332,161.32076255124636L135.81041666666667,162.74058777026724L136.70390625,161.59660299226212L137.59739583333334,161.72658557330186L138.49088541666669,161.85218789801002L139.384375,162.67587342575337L140.27786458333333,162.63414512422437L141.17135416666665,162.78068035078022L142.06484375,162.5654037890311L142.95833333333334,162.3955562787596L143.85182291666666,162.91200954165274L144.7453125,162.7694740827249L145.63880208333333,162.75528271000186L146.53229166666665,162.6163253189745L147.42578125,162.43018717019675L148.31927083333335,162.12137846480337L149.21276041666667,162.6677007249449L150.10625000000002,161.91554857926587L150.99973958333334,162.2664843028447L151.89322916666666,160.7915159996169L152.78671874999998,162.75382066967612L153.68020833333335,162.4611456838902L154.57369791666667,162.73637719240148L155.4671875,162.57865495601882L156.36067708333334,153.3363273314272L157.25416666666666,162.2453825150509L158.14765624999998,162.9441105517326L159.04114583333333,162.2461503873794L159.93463541666668,162.4403795281855L160.828125,162.35889297057517L161.72161458333335,162.2299380498186L162.61510416666667,162.00607540899028L163.50859375,162.76562390318858L164.4020833333333,162.91215417649633L165.29557291666669,162.47379810225146L166.1890625,162.87919768103612L167.08255208333333,162.8983673850755L167.97604166666667,162.95305278916092L168.86953125,162.91738555934998L169.76302083333331,162.8994539295717L170.6565104166667,162.97329607999956L171.55,162.80702834154587L172.44348958333333,162.80200269680398L173.33697916666665,162.75034998819376L174.23046875,161.886914050314L175.12395833333332,162.15505524178465L176.01744791666667,162.69823983721793L176.91093750000002,162.64848584728315L177.80442708333334,163.0286885305272L178.69791666666666,162.9760060218306L179.59140625,156.88778178666072L180.48489583333333,163.04207973574432L181.37838541666665,162.6219232025592L182.27187500000002,163.1168912170061L183.16536458333334,162.95848598715384L184.05885416666666,162.69025329928488L184.95234374999998,162.61192945000502L185.84583333333333,162.79368001164403L186.73932291666665,162.98580802424559L187.6328125,161.93556635862646L188.52630208333335,162.52720877804006L189.41979166666667,162.84051503267926L190.31328125,162.8787362760721L191.20677083333334,162.85357500429157L192.10026041666666,163.0103283457261L192.99375,162.56534847115668L193.88723958333335,161.87430759809482L194.78072916666667,162.3947648685963L195.67421875,162.60260268202265L196.56770833333331,162.84721309209888L197.46119791666666,161.91435583713107L198.3546875,162.7913566212922L199.24817708333333,162.6942301630938L200.14166666666668,163.03056521715524L201.03515625,162.84589596399857L201.92864583333332,162.34106072276617L202.82213541666667,162.30954316568275L203.715625,162.8246271526799L204.60911458333334,162.67263439777665L205.50260416666669,161.55722427386073L206.39609375,163.1372263608769L207.28958333333333,162.98518276583548L208.18307291666665,162.96298100033667L209.0765625,162.7469431837985L209.97005208333334,162.8748984994689L210.86354166666666,163.03881292995246L211.75703125,162.57807578262873L212.65052083333333,162.9536979001893L213.54401041666665,163.12767114909366L214.4375,162.94744630673756L215.33098958333335,162.8633304858007L216.22447916666667,162.9788302450011L217.11796875000002,163.0925085363829L218.01145833333334,162.93431461209323L218.90494791666666,163.09047078994067L219.79843749999998,162.99483204970602L220.69192708333335,163.11902755289785L221.58541666666667,163.08416821765982L222.47890625,162.8873706592265L223.37239583333334,163.02499649829517L224.26588541666666,162.9284781404556L225.15937499999998,162.904216972914L226.05286458333333,163.06003805362315L226.94635416666668,162.7302392462734L227.83984375,163.10998502210268L228.73333333333335,162.63369727134705L229.62682291666667,162.91976601111955L230.5203125,163.0449347483048L231.4138020833333,163.14113580107312L232.30729166666669,163.15133198296937L233.20078125,163.09325049331753L234.09427083333333,162.83500920025668L234.98776041666667,162.96734917074298L235.88125,162.85854453863934L236.77473958333331,162.88576394443115L237.6682291666667,162.93634346250192L238.56171875,163.09790733902125L239.45520833333333,163.22924578256118L240.34869791666665,162.85654881555374L241.2421875,162.80494508466037L242.13567708333332,162.75673908381185L243.02916666666667,162.9082694034755L243.92265625000002,162.7677006217866L244.81614583333334,163.1629914930359" style="fill: none;" fill="none"></path></g></g></g></g></g></g><g transform="translate(61, 177)" clip-path="url(#clip_1)"><clipPath id="clip_1"><rect width="268" height="22"></rect></clipPath><g><g><line x1="0" y1="0" x2="0" y2="5" style="visibility: inherit;" fill="rgb(0, 0, 0)" stroke="rgb(204, 204, 204)" stroke-width="1px"></line><line x1="17.869791666666668" y1="0" x2="17.869791666666668" y2="5" style="visibility: inherit;" fill="rgb(0, 0, 0)" stroke="rgb(204, 204, 204)" stroke-width="1px"></line><line x1="35.739583333333336" y1="0" x2="35.739583333333336" y2="5" style="visibility: inherit;" fill="rgb(0, 0, 0)" stroke="rgb(204, 204, 204)" stroke-width="1px"></line><line x1="53.609375" y1="0" x2="53.609375" y2="5" style="visibility: inherit;" fill="rgb(0, 0, 0)" stroke="rgb(204, 204, 204)" stroke-width="1px"></line><line x1="71.47916666666667" y1="0" x2="71.47916666666667" y2="5" style="visibility: inherit;" fill="rgb(0, 0, 0)" stroke="rgb(204, 204, 204)" stroke-width="1px"></line><line x1="89.34895833333333" y1="0" x2="89.34895833333333" y2="5" style="visibility: inherit;" fill="rgb(0, 0, 0)" stroke="rgb(204, 204, 204)" stroke-width="1px"></line><line x1="107.21875" y1="0" x2="107.21875" y2="5" style="visibility: inherit;" fill="rgb(0, 0, 0)" stroke="rgb(204, 204, 204)" stroke-width="1px"></line><line x1="125.08854166666667" y1="0" x2="125.08854166666667" y2="5" style="visibility: inherit;" fill="rgb(0, 0, 0)" stroke="rgb(204, 204, 204)" stroke-width="1px"></line><line x1="142.95833333333334" y1="0" x2="142.95833333333334" y2="5" style="visibility: inherit;" fill="rgb(0, 0, 0)" stroke="rgb(204, 204, 204)" stroke-width="1px"></line><line x1="160.828125" y1="0" x2="160.828125" y2="5" style="visibility: inherit;" fill="rgb(0, 0, 0)" stroke="rgb(204, 204, 204)" stroke-width="1px"></line><line x1="178.69791666666666" y1="0" x2="178.69791666666666" y2="5" style="visibility: inherit;" fill="rgb(0, 0, 0)" stroke="rgb(204, 204, 204)" stroke-width="1px"></line><line x1="196.56770833333331" y1="0" x2="196.56770833333331" y2="5" style="visibility: inherit;" fill="rgb(0, 0, 0)" stroke="rgb(204, 204, 204)" stroke-width="1px"></line><line x1="214.4375" y1="0" x2="214.4375" y2="5" style="visibility: inherit;" fill="rgb(0, 0, 0)" stroke="rgb(204, 204, 204)" stroke-width="1px"></line><line x1="232.30729166666669" y1="0" x2="232.30729166666669" y2="5" style="visibility: inherit;" fill="rgb(0, 0, 0)" stroke="rgb(204, 204, 204)" stroke-width="1px"></line><line x1="250.17708333333334" y1="0" x2="250.17708333333334" y2="5" style="visibility: inherit;" fill="rgb(0, 0, 0)" stroke="rgb(204, 204, 204)" stroke-width="1px"></line><line x1="268.046875" y1="0" x2="268.046875" y2="5" style="visibility: inherit;" fill="rgb(0, 0, 0)" stroke="rgb(204, 204, 204)" stroke-width="1px"></line></g><g transform="translate(0, 8)"><text x="0" y="0" dx="0em" dy="0.95em" style="text-anchor: middle; visibility: hidden; font-family: Roboto, sans-serif; font-size: 12px; font-weight: 200;" fill="rgb(33, 33, 33)" stroke="none" stroke-width="1px">-2k</text><text x="17.869791666666668" y="0" dx="0em" dy="0.95em" style="text-anchor: middle; visibility: inherit; font-family: Roboto, sans-serif; font-size: 12px; font-weight: 200;" fill="rgb(33, 33, 33)" stroke="none" stroke-width="1px">0</text><text x="35.739583333333336" y="0" dx="0em" dy="0.95em" style="text-anchor: middle; visibility: hidden; font-family: Roboto, sans-serif; font-size: 12px; font-weight: 200;" fill="rgb(33, 33, 33)" stroke="none" stroke-width="1px">2k</text><text x="53.609375" y="0" dx="0em" dy="0.95em" style="text-anchor: middle; visibility: inherit; font-family: Roboto, sans-serif; font-size: 12px; font-weight: 200;" fill="rgb(33, 33, 33)" stroke="none" stroke-width="1px">4k</text><text x="71.47916666666667" y="0" dx="0em" dy="0.95em" style="text-anchor: middle; visibility: hidden; font-family: Roboto, sans-serif; font-size: 12px; font-weight: 200;" fill="rgb(33, 33, 33)" stroke="none" stroke-width="1px">6k</text><text x="89.34895833333333" y="0" dx="0em" dy="0.95em" style="text-anchor: middle; visibility: inherit; font-family: Roboto, sans-serif; font-size: 12px; font-weight: 200;" fill="rgb(33, 33, 33)" stroke="none" stroke-width="1px">8k</text><text x="107.21875" y="0" dx="0em" dy="0.95em" style="text-anchor: middle; visibility: hidden; font-family: Roboto, sans-serif; font-size: 12px; font-weight: 200;" fill="rgb(33, 33, 33)" stroke="none" stroke-width="1px">10k</text><text x="125.08854166666667" y="0" dx="0em" dy="0.95em" style="text-anchor: middle; visibility: inherit; font-family: Roboto, sans-serif; font-size: 12px; font-weight: 200;" fill="rgb(33, 33, 33)" stroke="none" stroke-width="1px">12k</text><text x="142.95833333333334" y="0" dx="0em" dy="0.95em" style="text-anchor: middle; visibility: hidden; font-family: Roboto, sans-serif; font-size: 12px; font-weight: 200;" fill="rgb(33, 33, 33)" stroke="none" stroke-width="1px">14k</text><text x="160.828125" y="0" dx="0em" dy="0.95em" style="text-anchor: middle; visibility: inherit; font-family: Roboto, sans-serif; font-size: 12px; font-weight: 200;" fill="rgb(33, 33, 33)" stroke="none" stroke-width="1px">16k</text><text x="178.69791666666666" y="0" dx="0em" dy="0.95em" style="text-anchor: middle; visibility: hidden; font-family: Roboto, sans-serif; font-size: 12px; font-weight: 200;" fill="rgb(33, 33, 33)" stroke="none" stroke-width="1px">18k</text><text x="196.56770833333331" y="0" dx="0em" dy="0.95em" style="text-anchor: middle; visibility: inherit; font-family: Roboto, sans-serif; font-size: 12px; font-weight: 200;" fill="rgb(33, 33, 33)" stroke="none" stroke-width="1px">20k</text><text x="214.4375" y="0" dx="0em" dy="0.95em" style="text-anchor: middle; visibility: hidden; font-family: Roboto, sans-serif; font-size: 12px; font-weight: 200;" fill="rgb(33, 33, 33)" stroke="none" stroke-width="1px">22k</text><text x="232.30729166666669" y="0" dx="0em" dy="0.95em" style="text-anchor: middle; visibility: inherit; font-family: Roboto, sans-serif; font-size: 12px; font-weight: 200;" fill="rgb(33, 33, 33)" stroke="none" stroke-width="1px">24k</text><text x="250.17708333333334" y="0" dx="0em" dy="0.95em" style="text-anchor: middle; visibility: hidden; font-family: Roboto, sans-serif; font-size: 12px; font-weight: 200;" fill="rgb(33, 33, 33)" stroke="none" stroke-width="1px">26k</text><text x="268.046875" y="0" dx="0em" dy="0.95em" style="text-anchor: middle; visibility: hidden; font-family: Roboto, sans-serif; font-size: 12px; font-weight: 200;" fill="rgb(33, 33, 33)" stroke="none" stroke-width="1px">28k</text></g><line x1="0" y1="0" x2="268.046875" y2="0" fill="rgb(0, 0, 0)" stroke="rgb(204, 204, 204)" stroke-width="1px"></line></g></g></g></g></svg>