<svg viewBox="0 0 330 200" xmlns="http://www.w3.org/2000/svg"><g><g><g><g><g><line x1="51.5625" y1="177" x2="46.5625" y2="177" style="visibility: inherit;" fill="rgb(0, 0, 0)" stroke="rgb(204, 204, 204)" stroke-width="1px"></line><line x1="51.5625" y1="154.875" x2="46.5625" y2="154.875" style="visibility: inherit;" fill="rgb(0, 0, 0)" stroke="rgb(204, 204, 204)" stroke-width="1px"></line><line x1="51.5625" y1="132.75" x2="46.5625" y2="132.75" style="visibility: inherit;" fill="rgb(0, 0, 0)" stroke="rgb(204, 204, 204)" stroke-width="1px"></line><line x1="51.5625" y1="110.625" x2="46.5625" y2="110.625" style="visibility: inherit;" fill="rgb(0, 0, 0)" stroke="rgb(204, 204, 204)" stroke-width="1px"></line><line x1="51.5625" y1="88.50000000000001" x2="46.5625" y2="88.50000000000001" style="visibility: inherit;" fill="rgb(0, 0, 0)" stroke="rgb(204, 204, 204)" stroke-width="1px"></line><line x1="51.5625" y1="66.375" x2="46.5625" y2="66.375" style="visibility: inherit;" fill="rgb(0, 0, 0)" stroke="rgb(204, 204, 204)" stroke-width="1px"></line><line x1="51.5625" y1="44.25" x2="46.5625" y2="44.25" style="visibility: inherit;" fill="rgb(0, 0, 0)" stroke="rgb(204, 204, 204)" stroke-width="1px"></line><line x1="51.5625" y1="22.12500000000002" x2="46.5625" y2="22.12500000000002" style="visibility: inherit;" fill="rgb(0, 0, 0)" stroke="rgb(204, 204, 204)" stroke-width="1px"></line><line x1="51.5625" y1="0" x2="46.5625" y2="0" style="visibility: inherit;" fill="rgb(0, 0, 0)" stroke="rgb(204, 204, 204)" stroke-width="1px"></line></g><g transform="translate(41.5625, 0)"><text x="0" y="177" dx="0em" dy="0.3em" style="text-anchor: end; visibility: hidden; font-family: Roboto, sans-serif; font-size: 12px; font-weight: 200;" fill="rgb(33, 33, 33)" stroke="none" stroke-width="1px">0.02</text><text x="0" y="154.875" dx="0em" dy="0.3em" style="text-anchor: end; visibility: inherit; font-family: Roboto, sans-serif; font-size: 12px; font-weight: 200;" fill="rgb(33, 33, 33)" stroke="none" stroke-width="1px">0.03</text><text x="0" y="132.75" dx="0em" dy="0.3em" style="text-anchor: end; visibility: hidden; font-family: Roboto, sans-serif; font-size: 12px; font-weight: 200;" fill="rgb(33, 33, 33)" stroke="none" stroke-width="1px">0.04</text><text x="0" y="110.625" dx="0em" dy="0.3em" style="text-anchor: end; visibility: inherit; font-family: Roboto, sans-serif; font-size: 12px; font-weight: 200;" fill="rgb(33, 33, 33)" stroke="none" stroke-width="1px">0.05</text><text x="0" y="88.50000000000001" dx="0em" dy="0.3em" style="text-anchor: end; visibility: hidden; font-family: Roboto, sans-serif; font-size: 12px; font-weight: 200;" fill="rgb(33, 33, 33)" stroke="none" stroke-width="1px">0.06</text><text x="0" y="66.375" dx="0em" dy="0.3em" style="text-anchor: end; visibility: inherit; font-family: Roboto, sans-serif; font-size: 12px; font-weight: 200;" fill="rgb(33, 33, 33)" stroke="none" stroke-width="1px">0.07</text><text x="0" y="44.25" dx="0em" dy="0.3em" style="text-anchor: end; visibility: hidden; font-family: Roboto, sans-serif; font-size: 12px; font-weight: 200;" fill="rgb(33, 33, 33)" stroke="none" stroke-width="1px">0.08</text><text x="0" y="22.12500000000002" dx="0em" dy="0.3em" style="text-anchor: end; visibility: inherit; font-family: Roboto, sans-serif; font-size: 12px; font-weight: 200;" fill="rgb(33, 33, 33)" stroke="none" stroke-width="1px">0.09</text><text x="0" y="0" dx="0em" dy="0.3em" style="text-anchor: end; visibility: hidden; font-family: Roboto, sans-serif; font-size: 12px; font-weight: 200;" fill="rgb(33, 33, 33)" stroke="none" stroke-width="1px">0.1</text></g><line x1="51.5625" y1="0" x2="51.5625" y2="177" fill="rgb(0, 0, 0)" stroke="rgb(204, 204, 204)" stroke-width="1px"></line></g></g><g transform="translate(51, 0)" clip-path="url(#clip_0)"><clipPath id="clip_0"><rect width="278" height="176"></rect></clipPath><g><g><g><line x1="0" y1="0" x2="0" y2="177" fill="rgb(0, 0, 0)" stroke="rgb(66, 66, 66)" stroke-width="1px" opacity="0.25"></line><line x1="18.5625" y1="0" x2="18.5625" y2="177" fill="rgb(0, 0, 0)" stroke="rgb(66, 66, 66)" stroke-width="1px" opacity="0.25"></line><line x1="37.125" y1="0" x2="37.125" y2="177" fill="rgb(0, 0, 0)" stroke="rgb(66, 66, 66)" stroke-width="1px" opacity="0.25"></line><line x1="55.6875" y1="0" x2="55.6875" y2="177" fill="rgb(0, 0, 0)" stroke="rgb(66, 66, 66)" stroke-width="1px" opacity="0.25"></line><line x1="74.25" y1="0" x2="74.25" y2="177" fill="rgb(0, 0, 0)" stroke="rgb(66, 66, 66)" stroke-width="1px" opacity="0.25"></line><line x1="92.8125" y1="0" x2="92.8125" y2="177" fill="rgb(0, 0, 0)" stroke="rgb(66, 66, 66)" stroke-width="1px" opacity="0.25"></line><line x1="111.375" y1="0" x2="111.375" y2="177" fill="rgb(0, 0, 0)" stroke="rgb(66, 66, 66)" stroke-width="1px" opacity="0.25"></line><line x1="129.9375" y1="0" x2="129.9375" y2="177" fill="rgb(0, 0, 0)" stroke="rgb(66, 66, 66)" stroke-width="1px" opacity="0.25"></line><line x1="148.5" y1="0" x2="148.5" y2="177" fill="rgb(0, 0, 0)" stroke="rgb(66, 66, 66)" stroke-width="1px" opacity="0.25"></line><line x1="167.0625" y1="0" x2="167.0625" y2="177" fill="rgb(0, 0, 0)" stroke="rgb(66, 66, 66)" stroke-width="1px" opacity="0.25"></line><line x1="185.625" y1="0" x2="185.625" y2="177" fill="rgb(0, 0, 0)" stroke="rgb(66, 66, 66)" stroke-width="1px" opacity="0.25"></line><line x1="204.18749999999997" y1="0" x2="204.18749999999997" y2="177" fill="rgb(0, 0, 0)" stroke="rgb(66, 66, 66)" stroke-width="1px" opacity="0.25"></line><line x1="222.75" y1="0" x2="222.75" y2="177" fill="rgb(0, 0, 0)" stroke="rgb(66, 66, 66)" stroke-width="1px" opacity="0.25"></line><line x1="241.3125" y1="0" x2="241.3125" y2="177" fill="rgb(0, 0, 0)" stroke="rgb(66, 66, 66)" stroke-width="1px" opacity="0.25"></line><line x1="259.875" y1="0" x2="259.875" y2="177" fill="rgb(0, 0, 0)" stroke="rgb(66, 66, 66)" stroke-width="1px" opacity="0.25"></line><line x1="278.4375" y1="0" x2="278.4375" y2="177" fill="rgb(0, 0, 0)" stroke="rgb(66, 66, 66)" stroke-width="1px" opacity="0.25"></line></g><g><line x1="0" y1="177" x2="278.4375" y2="177" fill="rgb(0, 0, 0)" stroke="rgb(66, 66, 66)" stroke-width="1px" opacity="0.25"></line><line x1="0" y1="154.875" x2="278.4375" y2="154.875" fill="rgb(0, 0, 0)" stroke="rgb(66, 66, 66)" stroke-width="1px" opacity="0.25"></line><line x1="0" y1="132.75" x2="278.4375" y2="132.75" fill="rgb(0, 0, 0)" stroke="rgb(66, 66, 66)" stroke-width="1px" opacity="0.25"></line><line x1="0" y1="110.625" x2="278.4375" y2="110.625" fill="rgb(0, 0, 0)" stroke="rgb(66, 66, 66)" stroke-width="1px" opacity="0.25"></line><line x1="0" y1="88.50000000000001" x2="278.4375" y2="88.50000000000001" fill="rgb(0, 0, 0)" stroke="rgb(66, 66, 66)" stroke-width="1px" opacity="0.25"></line><line x1="0" y1="66.375" x2="278.4375" y2="66.375" fill="rgb(0, 0, 0)" stroke="rgb(66, 66, 66)" stroke-width="1px" opacity="0.25"></line><line x1="0" y1="44.25" x2="278.4375" y2="44.25" fill="rgb(0, 0, 0)" stroke="rgb(66, 66, 66)" stroke-width="1px" opacity="0.25"></line><line x1="0" y1="22.12500000000002" x2="278.4375" y2="22.12500000000002" fill="rgb(0, 0, 0)" stroke="rgb(66, 66, 66)" stroke-width="1px" opacity="0.25"></line><line x1="0" y1="0" x2="278.4375" y2="0" fill="rgb(0, 0, 0)" stroke="rgb(66, 66, 66)" stroke-width="1px" opacity="0.25"></line></g></g></g><g><g><line x1="0" y1="221.25" x2="278.4375" y2="221.25" fill="rgb(0, 0, 0)" stroke="rgb(153, 153, 153)" stroke-width="1.5px"></line></g></g><g><g><line x1="18.5625" y1="0" x2="18.5625" y2="177" fill="rgb(0, 0, 0)" stroke="rgb(153, 153, 153)" stroke-width="1.5px"></line></g></g><g><g><g><g><g><path stroke="rgb(255, 112, 67)" stroke-width="2px" d="M19.490625,27.916162982583067L20.41875,27.004992738366152L21.346874999999997,26.31334145154273L22.275000000000002,25.558589100837708L23.203125,24.895727807475676L24.13125,24.358830537114834L25.059375,23.960478394988968L25.9875,23.705740430775812L26.915625,23.24596974597753L27.84375,22.61496255999089L28.771875,22.067014800378264L29.700000000000003,21.473802937256107L30.628125,20.85322379738462L31.55625,20.062366992840936L32.484375,19.54820924103634L33.4125,19.40248777689556L34.340625,19.32331513545335L35.268750000000004,19.24236148414026L36.196875,18.94384569270884L37.125,17.821116972861496L38.053124999999994,16.395557832152168L38.98125,14.750609914762558L39.909375000000004,13.283554548129182L40.8375,12.354159229783866L41.765625,12.091774776848958L42.693749999999994,12.252892353314353L43.621875,12.46762599244672L44.550000000000004,13.034009439223754L45.478125,13.859719565421438L46.40625,14.836259013161605L47.334375,15.902595769239094L48.2625,17.008729254897005L49.190625,18.154740209859696L50.11875,19.323970297038123L51.04687499999999,20.51152734725634L51.975,21.687263225626985L52.903125,22.864432322546477L53.83125,24.046084716331638L54.759375,25.232632748492584L55.6875,26.4203840269199L56.615625,27.607583019811L57.54375,28.78810991902085L58.471875,29.964814481307872L59.400000000000006,31.133417979339722L60.328125,32.29722090460857L61.25625,33.4547167384277L62.184374999999996,34.607641367298875L63.1125,35.75082119836537L64.040625,36.88631803869766L64.96875,38.00940973289095L65.896875,39.12509549211602L66.825,40.23409460572474L67.753125,41.33262088938589L68.68125,42.42489696688471L69.609375,43.50976199481398L70.53750000000001,44.590295090394754L71.465625,45.66576096371688L72.39375,46.73066531844876L73.32187499999999,47.78674476582777L74.25,48.83356534311656L75.17812500000001,49.87798188065233L76.10624999999999,50.91592138724895L77.034375,51.947383191895376L77.9625,52.968633240318255L78.890625,53.97961779043375L79.81875000000001,54.98247767105847L80.74687499999999,55.96976085685269L81.675,56.95264324139842L82.603125,57.9349654240722L83.53125,58.9125484730211L84.45937500000001,59.8864184757276L85.38749999999999,60.85548124599973L86.315625,61.817928633409345L87.24375,62.76973276712876L88.171875,63.711558428299355L89.10000000000001,64.6481228604376L90.02812499999999,65.57492717092036L90.95625,66.49595302025378L91.884375,67.40233625498863L92.8125,68.30506596355364L93.740625,69.20556504099932L94.66875,70.1042399732737L95.596875,70.9949639900758L96.525,71.87960254471669L97.453125,72.75646734273022L98.38125,73.62723635154757L99.309375,74.49470195741848L100.2375,75.3573590973834L101.165625,76.21477668594916L102.09374999999999,77.06786836242478L103.021875,77.91286269540987L103.95,78.75165714120071L104.878125,79.58381573754151L105.80625,80.40560932406585L106.73437500000001,81.22242646080157L107.6625,82.03074680535445L108.590625,82.83465390972025L109.51875,83.6332965360171L110.446875,84.42427505725801L111.375,85.21292160724195L112.303125,85.99602556085632L113.23125,86.77427705957766L114.159375,87.5485816440695L115.0875,88.31623532023102L116.015625,89.07921182064251L116.94375,89.83146328980992L117.871875,90.57665434916947L118.80000000000001,91.315690061401L119.72812499999999,92.0343271067121L120.65625,92.7484519398649L121.584375,93.4550209292615L122.5125,94.16129844940428L123.44062500000001,94.8676033212206L124.36874999999999,95.57322952367171L125.296875,96.27306417297477L126.225,96.96778177151407L127.153125,97.65563017156882L128.08125,98.33520991927467L129.009375,99.00965391292462L129.9375,99.68368536609805L130.865625,100.3542260304262L131.79375,101.01775865257629L132.721875,101.67711963504975L133.65,102.332643329168L134.578125,102.9826547778222L135.50625,103.63023979193585L136.434375,104.27381748135694L137.3625,104.90969202382271L138.290625,105.53914342491777L139.21875,106.15691851101296L140.146875,106.77531320705751L141.07500000000002,107.39023453608026L142.003125,107.99857276517834L142.93125,108.6004585587789L143.85937500000003,109.1976469010765L144.7875,109.792280462603L145.715625,110.38703780855747L146.64374999999998,110.97680045409008L147.571875,111.55925230181717L148.5,112.1386998848195L149.428125,112.70996502848094L150.35625000000002,113.27638891183646L151.284375,113.8373713969852L152.21249999999998,114.39742174146899L153.140625,114.95186287983422L154.06875,115.50176855213526L154.996875,116.04664123169871L155.925,116.58552332557635L156.853125,117.11226952150412L157.78125,117.63772824723247L158.709375,118.16219294415774L159.63750000000002,118.68011084836903L160.565625,119.19228269478769L161.49374999999998,119.70196477483256L162.421875,120.21134570413851L163.35,120.71343418762845L164.278125,121.21023624945812L165.20625,121.70730047764447L166.134375,122.19982657999826L167.0625,122.68750380933798L167.99062500000002,123.17316047020512L168.91875000000002,123.65707741171249L169.84687499999998,124.1382535130537L170.77499999999998,124.61534338783504L171.703125,125.0903242116982L172.63125,125.56312544914901L173.559375,126.03151940596761L174.4875,126.49609837143451L175.415625,126.95710079475656L176.34375,127.4138216800586L177.27187500000002,127.86576016971698L178.20000000000002,128.31294606988246L179.12812499999998,128.75804003136662L180.05624999999998,129.1992980371903L180.984375,129.6362766735127L181.9125,130.07025019358198L182.840625,130.50154252024043L183.76875,130.92882377584306L184.696875,131.35192355385436L185.625,131.7727389012576L186.55312500000002,132.18599959803376L187.48125,132.59642258084193L188.40937499999998,133.00520416713692L189.3375,133.41073360476364L190.265625,133.81284840961777L191.19375,134.21321056595934L192.121875,134.6094283638472L193.05,134.99882235144946L193.978125,135.38500636792617L194.90625,135.76700558874228L195.83437500000002,136.14384219044555L196.7625,136.51869092133694L197.69062499999998,136.89256220123198L198.61875,137.2644364321531L199.546875,137.63293838360912L200.475,137.9968653025553L201.40312500000002,138.3552696398683L202.33125,138.71218610700407L203.259375,139.06722121479083L204.18749999999997,139.42154642463709L205.115625,139.76995319728297L206.04375,140.11655878110102L206.97187499999998,140.46141894451466L207.9,140.80389395314796L208.828125,141.1432600717785L209.75625,141.47959226964872L210.68437500000002,141.81254888995966L211.6125,142.1438589325149L212.540625,142.4706655417556L213.46875000000003,142.79514213339363L214.396875,143.11504968565393L215.325,143.43219467034783L216.25312499999998,143.74800370338482L217.18125,144.06137680766693L218.109375,144.37255112520214L219.0375,144.6808168854135L219.96562500000002,144.98616125451116L220.89375,145.2895174269457L221.82187499999998,145.59126957789456L222.75,145.8900891081636L223.678125,146.1865315644639L224.60625,146.4797043270716L225.534375,146.7705869875525L226.4625,147.05837531553826L227.390625,147.34420024593484L228.31875,147.62772472477116L229.24687500000002,147.90904809671719L230.175,148.18788622481415L231.10312499999998,148.46431545900947L232.03125,148.73797422734472L232.959375,149.0092504559709L233.8875,149.2780949629224L234.815625,149.54438837186134L235.74375,149.80843777273165L236.671875,150.07053682798679L237.60000000000002,150.32957543262359L238.52812500000002,150.58574857477603L239.45624999999998,150.83989966804413L240.38437499999998,151.09118524079338L241.3125,151.34030861815967L242.240625,151.58768327924687L243.16875,151.83279064958583L244.096875,152.07589482194578L245.025,152.3169465142061L245.953125,152.5555790338079L246.88125000000002,152.79209532455405L247.80937500000002,153.026510861967L248.73749999999998,153.25885398932002L249.66562499999998,153.48917596817114L250.59375,153.71675238866408L251.521875,153.94191957272614L252.45,154.16391843328265L253.378125,154.3839993227926L254.30625,154.60147484637335" style="fill: none;" fill="none"></path></g></g></g></g><g opacity="0.2"><g><g><g><path stroke="rgb(255, 112, 67)" stroke-width="2px" d="M19.490625,27.916162982583067L20.41875,26.54940761625769L21.346874999999997,25.794602986425183L22.275000000000002,24.898180793970845L23.203125,24.27429534494879L24.13125,23.838711306452772L25.059375,23.56835050508382L25.9875,23.452992606908104L26.915625,22.78799504041674L27.84375,21.985187809914372L28.771875,21.51960214599969L29.700000000000003,20.880880728364012L30.628125,20.23279616609218L31.55625,19.271606728434584L32.484375,19.034082870930455L33.4125,19.25677075982096L34.340625,19.244143702089808L35.268750000000004,19.161408450454495L36.196875,18.64533104002478L37.125,16.698390394449255L38.053124999999994,14.97000005096199L38.98125,13.105662781745215L39.909375000000004,11.816499531269093L40.8375,11.424764022231122L41.765625,11.829390339553376L42.693749999999994,12.414009924978037L43.621875,12.682359628379364L44.550000000000004,13.600392881780882L45.478125,14.6854296885431L46.40625,15.812798459082861L47.334375,16.968932524323485L48.2625,18.114862740039847L49.190625,19.30075116455557L50.11875,20.49320038408043L51.04687499999999,21.699084397405407L51.975,22.862999103963396L52.903125,24.041601419448874L53.83125,25.22773711010816L54.759375,26.419180780649206L55.6875,27.60813530534508L56.615625,28.794782012701056L57.54375,29.968636818230173L58.471875,31.14151904359462L59.400000000000006,32.302021477371476L60.328125,33.4610238298774L61.25625,34.61221257224681L62.184374999999996,35.760565996170065L63.1125,36.89400102943184L64.040625,38.02181487903001L64.96875,39.13250142708423L65.896875,40.240781251341126L66.825,41.34309371933343L67.753125,42.43114717304709L68.68125,43.51717304438355L69.609375,44.594627022743246L70.53750000000001,45.67082818597557L71.465625,46.741226837039015L72.39375,47.7955696731806L73.32187499999999,48.84282421320679L74.25,49.88038592040541L75.17812500000001,50.922398418188116L76.10624999999999,51.95386089384558L77.034375,52.97884499654176L77.9625,53.98988328874113L78.890625,54.99060234054925L79.81875000000001,55.98533755168321L80.74687499999999,56.957044042646906L81.675,57.93552562594416L82.603125,58.91728760674598L83.53125,59.890131521970055L84.45937500000001,60.86028847843411L85.38749999999999,61.82454401627185L86.315625,62.78037602081897L87.24375,63.72153690084817L88.171875,64.65338408946992L89.10000000000001,65.58468729257585L90.02812499999999,66.50173148140313L90.95625,67.4169788695872L91.884375,68.30871948972346L92.8125,69.20779567211868L93.740625,70.10606411844493L94.66875,71.00291490554811L95.596875,71.88568800687791L96.525,72.76424109935762L97.453125,73.63333214074375L98.38125,74.49800536036493L99.309375,75.36216756328942L100.2375,76.22001623734833L101.165625,77.07219427451493L102.09374999999999,77.92096003890039L103.021875,78.75785702839495L103.95,79.59045158699156L104.878125,80.41597433388235L105.80625,81.22740291059019L106.73437500000001,82.0392435975373L107.6625,82.83906714990736L108.590625,83.63856101408602L109.51875,84.43193916231395L110.446875,85.21525357849897L111.375,86.00156815722586L112.303125,86.77912951447071L113.23125,87.55252855829896L114.159375,88.32288622856142L115.0875,89.08388899639249L116.015625,89.84218832105398L116.94375,90.5837147589773L117.871875,91.32184540852904L118.80000000000001,92.05472577363253L119.72812499999999,92.7529641520232L120.65625,93.46257677301764L121.584375,94.16158991865814L122.5125,94.86757596954703L123.44062500000001,95.57390819303691L124.36874999999999,96.27885572612286L125.296875,96.97289882227778L126.225,97.66249937005341L127.153125,98.34347857162356L128.08125,99.0147896669805L129.009375,99.6840979065746L129.9375,100.35771681927145L130.865625,101.02476669475436L131.79375,101.68129127472639L132.721875,102.3364806175232L133.65,102.98816702328622L134.578125,103.63266622647643L135.50625,104.27782480604947L136.434375,104.91739517077804L137.3625,105.54556656628847L138.290625,106.16859482601285L139.21875,106.77469359710813L140.146875,107.39370790310204L141.07500000000002,108.005155865103L142.003125,108.6069109942764L142.93125,109.20234435237944L143.85937500000003,109.79483524337411L144.7875,110.38691402412951L145.715625,110.98179515451193L146.64374999999998,111.56656309962273L147.571875,112.14170414954424L148.5,112.71814746782184L149.428125,113.28123017214239L150.35625000000002,113.842812795192L151.284375,114.39835388213396L152.21249999999998,114.95747208595276L153.140625,115.50630401819944L154.06875,116.05167422443628L154.996875,116.59151391126215L155.925,117.12440541945398L156.853125,117.6390157174319L157.78125,118.16318697296083L158.709375,118.686657641083L159.63750000000002,119.19802875258029L160.565625,119.70445454120636L161.49374999999998,120.21164685487747L162.421875,120.72072663344443L163.35,121.21552267111838L164.278125,121.70703831128776L165.20625,122.20436470583081L166.134375,122.69235268235207L167.0625,123.17518103867769L167.99062500000002,123.65881713107228L168.91875000000002,124.14099435321987L169.84687499999998,124.6194296143949L170.77499999999998,125.0924332626164L171.703125,125.56530503556132L172.63125,126.03592668659985L173.559375,126.49991336278617L174.4875,126.96067733690143L175.415625,127.41810321807861L176.34375,127.87054256536067L177.27187500000002,128.3176986593753L178.20000000000002,128.76013197004795L179.12812499999998,129.20313399285078L180.05624999999998,129.64055604301393L180.984375,130.07325530983508L181.9125,130.5042237136513L182.840625,130.9328348468989L183.76875,131.35610503144562L184.696875,131.77502333186567L185.625,132.1935542486608L186.55312500000002,132.59926029480994L187.48125,133.00684556365013L188.40937499999998,133.41398575343192L189.3375,133.81626304239035L190.265625,134.21496321447194L191.19375,134.6135727223009L192.121875,135.00564616173506L193.05,135.38821633905172L193.978125,135.77119038440287L194.90625,136.1490048095584L195.83437500000002,136.52067879214883L196.7625,136.89353965222836L197.69062499999998,137.26643348112702L198.61875,137.63631066307425L199.546875,138.00144033506513L200.475,138.36079222150147L201.40312500000002,138.71367397718132L202.33125,139.06910257413983L203.259375,139.4222563225776L204.18749999999997,139.77587163448334L205.115625,140.11835996992886L206.04375,140.46316436491907L206.97187499999998,140.80627910792828L207.9,141.14636896178126L208.828125,141.48262619040906L209.75625,141.81592446751893L210.68437500000002,142.1455055102706L211.6125,142.47516897507012L212.540625,142.79747215099633L213.46875000000003,143.11961872503161L214.396875,143.4349572379142L215.325,143.7493396550417L216.25312499999998,144.06381273642182L217.18125,144.37474991194904L218.109375,144.68372544273734L219.0375,144.98908264562488L219.96562500000002,145.29150562360883L220.89375,145.59287359938025L221.82187499999998,145.89302172884345L222.75,146.18890863843262L223.678125,146.48297402076423L224.60625,146.77287708967924L225.534375,147.06146964803338L226.4625,147.34616364352405L227.390625,147.6300251763314L228.31875,147.91124920360744L229.24687500000002,148.19037146866322L230.175,148.46672435291111L231.10312499999998,148.74074469320476L232.03125,149.01163299567997L232.959375,149.28052668459713L233.8875,149.5469394698739L234.815625,149.81068178080022L235.74375,150.07248717360198L236.671875,150.3326358832419L237.60000000000002,150.5886140372604L238.52812500000002,150.84192171692848L239.45624999999998,151.09405076131225L240.38437499999998,151.3424708135426L241.3125,151.58943199552596L242.240625,151.83505794033408L243.16875,152.07789801992476L244.096875,152.31899899430573L245.025,152.55799820646644L245.953125,152.7942115534097L246.88125000000002,153.02861161530018L247.80937500000002,153.26092639937997L248.73749999999998,153.491197116673L249.66562499999998,153.71949794702232L250.59375,153.944328809157L251.521875,154.1670867567882L252.45,154.38591729383916L253.378125,154.6040802123025L254.30625,154.8189503699541" style="fill: none;" fill="none"></path></g></g></g></g></g><g><g><span fill="rgb(0, 0, 0)" stroke="none" stroke-width="1px">Alt + Scroll to Zoom</span></g></g></g><g transform="translate(51, 177)" clip-path="url(#clip_1)"><clipPath id="clip_1"><rect width="278" height="22"></rect></clipPath><g><g><line x1="0" y1="0" x2="0" y2="5" style="visibility: inherit;" fill="rgb(0, 0, 0)" stroke="rgb(204, 204, 204)" stroke-width="1px"></line><line x1="18.5625" y1="0" x2="18.5625" y2="5" style="visibility: inherit;" fill="rgb(0, 0, 0)" stroke="rgb(204, 204, 204)" stroke-width="1px"></line><line x1="37.125" y1="0" x2="37.125" y2="5" style="visibility: inherit;" fill="rgb(0, 0, 0)" stroke="rgb(204, 204, 204)" stroke-width="1px"></line><line x1="55.6875" y1="0" x2="55.6875" y2="5" style="visibility: inherit;" fill="rgb(0, 0, 0)" stroke="rgb(204, 204, 204)" stroke-width="1px"></line><line x1="74.25" y1="0" x2="74.25" y2="5" style="visibility: inherit;" fill="rgb(0, 0, 0)" stroke="rgb(204, 204, 204)" stroke-width="1px"></line><line x1="92.8125" y1="0" x2="92.8125" y2="5" style="visibility: inherit;" fill="rgb(0, 0, 0)" stroke="rgb(204, 204, 204)" stroke-width="1px"></line><line x1="111.375" y1="0" x2="111.375" y2="5" style="visibility: inherit;" fill="rgb(0, 0, 0)" stroke="rgb(204, 204, 204)" stroke-width="1px"></line><line x1="129.9375" y1="0" x2="129.9375" y2="5" style="visibility: inherit;" fill="rgb(0, 0, 0)" stroke="rgb(204, 204, 204)" stroke-width="1px"></line><line x1="148.5" y1="0" x2="148.5" y2="5" style="visibility: inherit;" fill="rgb(0, 0, 0)" stroke="rgb(204, 204, 204)" stroke-width="1px"></line><line x1="167.0625" y1="0" x2="167.0625" y2="5" style="visibility: inherit;" fill="rgb(0, 0, 0)" stroke="rgb(204, 204, 204)" stroke-width="1px"></line><line x1="185.625" y1="0" x2="185.625" y2="5" style="visibility: inherit;" fill="rgb(0, 0, 0)" stroke="rgb(204, 204, 204)" stroke-width="1px"></line><line x1="204.18749999999997" y1="0" x2="204.18749999999997" y2="5" style="visibility: inherit;" fill="rgb(0, 0, 0)" stroke="rgb(204, 204, 204)" stroke-width="1px"></line><line x1="222.75" y1="0" x2="222.75" y2="5" style="visibility: inherit;" fill="rgb(0, 0, 0)" stroke="rgb(204, 204, 204)" stroke-width="1px"></line><line x1="241.3125" y1="0" x2="241.3125" y2="5" style="visibility: inherit;" fill="rgb(0, 0, 0)" stroke="rgb(204, 204, 204)" stroke-width="1px"></line><line x1="259.875" y1="0" x2="259.875" y2="5" style="visibility: inherit;" fill="rgb(0, 0, 0)" stroke="rgb(204, 204, 204)" stroke-width="1px"></line><line x1="278.4375" y1="0" x2="278.4375" y2="5" style="visibility: inherit;" fill="rgb(0, 0, 0)" stroke="rgb(204, 204, 204)" stroke-width="1px"></line></g><g transform="translate(0, 8)"><text x="0" y="0" dx="0em" dy="0.95em" style="text-anchor: middle; visibility: hidden; font-family: Roboto, sans-serif; font-size: 12px; font-weight: 200;" fill="rgb(33, 33, 33)" stroke="none" stroke-width="1px">-2k</text><text x="18.5625" y="0" dx="0em" dy="0.95em" style="text-anchor: middle; visibility: inherit; font-family: Roboto, sans-serif; font-size: 12px; font-weight: 200;" fill="rgb(33, 33, 33)" stroke="none" stroke-width="1px">0</text><text x="37.125" y="0" dx="0em" dy="0.95em" style="text-anchor: middle; visibility: hidden; font-family: Roboto, sans-serif; font-size: 12px; font-weight: 200;" fill="rgb(33, 33, 33)" stroke="none" stroke-width="1px">2k</text><text x="55.6875" y="0" dx="0em" dy="0.95em" style="text-anchor: middle; visibility: inherit; font-family: Roboto, sans-serif; font-size: 12px; font-weight: 200;" fill="rgb(33, 33, 33)" stroke="none" stroke-width="1px">4k</text><text x="74.25" y="0" dx="0em" dy="0.95em" style="text-anchor: middle; visibility: hidden; font-family: Roboto, sans-serif; font-size: 12px; font-weight: 200;" fill="rgb(33, 33, 33)" stroke="none" stroke-width="1px">6k</text><text x="92.8125" y="0" dx="0em" dy="0.95em" style="text-anchor: middle; visibility: inherit; font-family: Roboto, sans-serif; font-size: 12px; font-weight: 200;" fill="rgb(33, 33, 33)" stroke="none" stroke-width="1px">8k</text><text x="111.375" y="0" dx="0em" dy="0.95em" style="text-anchor: middle; visibility: hidden; font-family: Roboto, sans-serif; font-size: 12px; font-weight: 200;" fill="rgb(33, 33, 33)" stroke="none" stroke-width="1px">10k</text><text x="129.9375" y="0" dx="0em" dy="0.95em" style="text-anchor: middle; visibility: inherit; font-family: Roboto, sans-serif; font-size: 12px; font-weight: 200;" fill="rgb(33, 33, 33)" stroke="none" stroke-width="1px">12k</text><text x="148.5" y="0" dx="0em" dy="0.95em" style="text-anchor: middle; visibility: hidden; font-family: Roboto, sans-serif; font-size: 12px; font-weight: 200;" fill="rgb(33, 33, 33)" stroke="none" stroke-width="1px">14k</text><text x="167.0625" y="0" dx="0em" dy="0.95em" style="text-anchor: middle; visibility: inherit; font-family: Roboto, sans-serif; font-size: 12px; font-weight: 200;" fill="rgb(33, 33, 33)" stroke="none" stroke-width="1px">16k</text><text x="185.625" y="0" dx="0em" dy="0.95em" style="text-anchor: middle; visibility: hidden; font-family: Roboto, sans-serif; font-size: 12px; font-weight: 200;" fill="rgb(33, 33, 33)" stroke="none" stroke-width="1px">18k</text><text x="204.18749999999997" y="0" dx="0em" dy="0.95em" style="text-anchor: middle; visibility: inherit; font-family: Roboto, sans-serif; font-size: 12px; font-weight: 200;" fill="rgb(33, 33, 33)" stroke="none" stroke-width="1px">20k</text><text x="222.75" y="0" dx="0em" dy="0.95em" style="text-anchor: middle; visibility: hidden; font-family: Roboto, sans-serif; font-size: 12px; font-weight: 200;" fill="rgb(33, 33, 33)" stroke="none" stroke-width="1px">22k</text><text x="241.3125" y="0" dx="0em" dy="0.95em" style="text-anchor: middle; visibility: inherit; font-family: Roboto, sans-serif; font-size: 12px; font-weight: 200;" fill="rgb(33, 33, 33)" stroke="none" stroke-width="1px">24k</text><text x="259.875" y="0" dx="0em" dy="0.95em" style="text-anchor: middle; visibility: hidden; font-family: Roboto, sans-serif; font-size: 12px; font-weight: 200;" fill="rgb(33, 33, 33)" stroke="none" stroke-width="1px">26k</text><text x="278.4375" y="0" dx="0em" dy="0.95em" style="text-anchor: middle; visibility: hidden; font-family: Roboto, sans-serif; font-size: 12px; font-weight: 200;" fill="rgb(33, 33, 33)" stroke="none" stroke-width="1px">28k</text></g><line x1="0" y1="0" x2="278.4375" y2="0" fill="rgb(0, 0, 0)" stroke="rgb(204, 204, 204)" stroke-width="1px"></line></g></g></g></g></svg>