<svg viewBox="0 0 330 200" xmlns="http://www.w3.org/2000/svg"><g><g><g><g><g><line x1="41.171875" y1="177" x2="36.171875" y2="177" style="visibility: inherit;" fill="rgb(0, 0, 0)" stroke="rgb(204, 204, 204)" stroke-width="1px"></line><line x1="41.171875" y1="157.33333333333334" x2="36.171875" y2="157.33333333333334" style="visibility: inherit;" fill="rgb(0, 0, 0)" stroke="rgb(204, 204, 204)" stroke-width="1px"></line><line x1="41.171875" y1="137.66666666666666" x2="36.171875" y2="137.66666666666666" style="visibility: inherit;" fill="rgb(0, 0, 0)" stroke="rgb(204, 204, 204)" stroke-width="1px"></line><line x1="41.171875" y1="117.99999999999997" x2="36.171875" y2="117.99999999999997" style="visibility: inherit;" fill="rgb(0, 0, 0)" stroke="rgb(204, 204, 204)" stroke-width="1px"></line><line x1="41.171875" y1="98.33333333333331" x2="36.171875" y2="98.33333333333331" style="visibility: inherit;" fill="rgb(0, 0, 0)" stroke="rgb(204, 204, 204)" stroke-width="1px"></line><line x1="41.171875" y1="78.66666666666666" x2="36.171875" y2="78.66666666666666" style="visibility: inherit;" fill="rgb(0, 0, 0)" stroke="rgb(204, 204, 204)" stroke-width="1px"></line><line x1="41.171875" y1="58.999999999999964" x2="36.171875" y2="58.999999999999964" style="visibility: inherit;" fill="rgb(0, 0, 0)" stroke="rgb(204, 204, 204)" stroke-width="1px"></line><line x1="41.171875" y1="39.33333333333333" x2="36.171875" y2="39.33333333333333" style="visibility: inherit;" fill="rgb(0, 0, 0)" stroke="rgb(204, 204, 204)" stroke-width="1px"></line><line x1="41.171875" y1="19.666666666666636" x2="36.171875" y2="19.666666666666636" style="visibility: inherit;" fill="rgb(0, 0, 0)" stroke="rgb(204, 204, 204)" stroke-width="1px"></line><line x1="41.171875" y1="0" x2="36.171875" y2="0" style="visibility: inherit;" fill="rgb(0, 0, 0)" stroke="rgb(204, 204, 204)" stroke-width="1px"></line></g><g transform="translate(31.171875, 0)"><text x="0" y="177" dx="0em" dy="0.3em" style="text-anchor: end; visibility: hidden; font-family: Roboto, sans-serif; font-size: 12px; font-weight: 200;" fill="rgb(33, 33, 33)" stroke="none" stroke-width="1px">1</text><text x="0" y="157.33333333333334" dx="0em" dy="0.3em" style="text-anchor: end; visibility: inherit; font-family: Roboto, sans-serif; font-size: 12px; font-weight: 200;" fill="rgb(33, 33, 33)" stroke="none" stroke-width="1px">1.2</text><text x="0" y="137.66666666666666" dx="0em" dy="0.3em" style="text-anchor: end; visibility: hidden; font-family: Roboto, sans-serif; font-size: 12px; font-weight: 200;" fill="rgb(33, 33, 33)" stroke="none" stroke-width="1px">1.4</text><text x="0" y="117.99999999999997" dx="0em" dy="0.3em" style="text-anchor: end; visibility: inherit; font-family: Roboto, sans-serif; font-size: 12px; font-weight: 200;" fill="rgb(33, 33, 33)" stroke="none" stroke-width="1px">1.6</text><text x="0" y="98.33333333333331" dx="0em" dy="0.3em" style="text-anchor: end; visibility: hidden; font-family: Roboto, sans-serif; font-size: 12px; font-weight: 200;" fill="rgb(33, 33, 33)" stroke="none" stroke-width="1px">1.8</text><text x="0" y="78.66666666666666" dx="0em" dy="0.3em" style="text-anchor: end; visibility: inherit; font-family: Roboto, sans-serif; font-size: 12px; font-weight: 200;" fill="rgb(33, 33, 33)" stroke="none" stroke-width="1px">2</text><text x="0" y="58.999999999999964" dx="0em" dy="0.3em" style="text-anchor: end; visibility: hidden; font-family: Roboto, sans-serif; font-size: 12px; font-weight: 200;" fill="rgb(33, 33, 33)" stroke="none" stroke-width="1px">2.2</text><text x="0" y="39.33333333333333" dx="0em" dy="0.3em" style="text-anchor: end; visibility: inherit; font-family: Roboto, sans-serif; font-size: 12px; font-weight: 200;" fill="rgb(33, 33, 33)" stroke="none" stroke-width="1px">2.4</text><text x="0" y="19.666666666666636" dx="0em" dy="0.3em" style="text-anchor: end; visibility: hidden; font-family: Roboto, sans-serif; font-size: 12px; font-weight: 200;" fill="rgb(33, 33, 33)" stroke="none" stroke-width="1px">2.6</text><text x="0" y="0" dx="0em" dy="0.3em" style="text-anchor: end; visibility: hidden; font-family: Roboto, sans-serif; font-size: 12px; font-weight: 200;" fill="rgb(33, 33, 33)" stroke="none" stroke-width="1px">2.8</text></g><line x1="41.171875" y1="0" x2="41.171875" y2="177" fill="rgb(0, 0, 0)" stroke="rgb(204, 204, 204)" stroke-width="1px"></line></g></g><g transform="translate(41, 0)" clip-path="url(#clip_0)"><clipPath id="clip_0"><rect width="288" height="176"></rect></clipPath><g><g><g><line x1="0" y1="0" x2="0" y2="177" fill="rgb(0, 0, 0)" stroke="rgb(66, 66, 66)" stroke-width="1px" opacity="0.25"></line><line x1="19.255208333333332" y1="0" x2="19.255208333333332" y2="177" fill="rgb(0, 0, 0)" stroke="rgb(66, 66, 66)" stroke-width="1px" opacity="0.25"></line><line x1="38.510416666666664" y1="0" x2="38.510416666666664" y2="177" fill="rgb(0, 0, 0)" stroke="rgb(66, 66, 66)" stroke-width="1px" opacity="0.25"></line><line x1="57.765625" y1="0" x2="57.765625" y2="177" fill="rgb(0, 0, 0)" stroke="rgb(66, 66, 66)" stroke-width="1px" opacity="0.25"></line><line x1="77.02083333333333" y1="0" x2="77.02083333333333" y2="177" fill="rgb(0, 0, 0)" stroke="rgb(66, 66, 66)" stroke-width="1px" opacity="0.25"></line><line x1="96.27604166666666" y1="0" x2="96.27604166666666" y2="177" fill="rgb(0, 0, 0)" stroke="rgb(66, 66, 66)" stroke-width="1px" opacity="0.25"></line><line x1="115.53125" y1="0" x2="115.53125" y2="177" fill="rgb(0, 0, 0)" stroke="rgb(66, 66, 66)" stroke-width="1px" opacity="0.25"></line><line x1="134.78645833333334" y1="0" x2="134.78645833333334" y2="177" fill="rgb(0, 0, 0)" stroke="rgb(66, 66, 66)" stroke-width="1px" opacity="0.25"></line><line x1="154.04166666666666" y1="0" x2="154.04166666666666" y2="177" fill="rgb(0, 0, 0)" stroke="rgb(66, 66, 66)" stroke-width="1px" opacity="0.25"></line><line x1="173.296875" y1="0" x2="173.296875" y2="177" fill="rgb(0, 0, 0)" stroke="rgb(66, 66, 66)" stroke-width="1px" opacity="0.25"></line><line x1="192.55208333333331" y1="0" x2="192.55208333333331" y2="177" fill="rgb(0, 0, 0)" stroke="rgb(66, 66, 66)" stroke-width="1px" opacity="0.25"></line><line x1="211.80729166666666" y1="0" x2="211.80729166666666" y2="177" fill="rgb(0, 0, 0)" stroke="rgb(66, 66, 66)" stroke-width="1px" opacity="0.25"></line><line x1="231.0625" y1="0" x2="231.0625" y2="177" fill="rgb(0, 0, 0)" stroke="rgb(66, 66, 66)" stroke-width="1px" opacity="0.25"></line><line x1="250.31770833333334" y1="0" x2="250.31770833333334" y2="177" fill="rgb(0, 0, 0)" stroke="rgb(66, 66, 66)" stroke-width="1px" opacity="0.25"></line><line x1="269.5729166666667" y1="0" x2="269.5729166666667" y2="177" fill="rgb(0, 0, 0)" stroke="rgb(66, 66, 66)" stroke-width="1px" opacity="0.25"></line><line x1="288.828125" y1="0" x2="288.828125" y2="177" fill="rgb(0, 0, 0)" stroke="rgb(66, 66, 66)" stroke-width="1px" opacity="0.25"></line></g><g><line x1="0" y1="177" x2="288.828125" y2="177" fill="rgb(0, 0, 0)" stroke="rgb(66, 66, 66)" stroke-width="1px" opacity="0.25"></line><line x1="0" y1="157.33333333333334" x2="288.828125" y2="157.33333333333334" fill="rgb(0, 0, 0)" stroke="rgb(66, 66, 66)" stroke-width="1px" opacity="0.25"></line><line x1="0" y1="137.66666666666666" x2="288.828125" y2="137.66666666666666" fill="rgb(0, 0, 0)" stroke="rgb(66, 66, 66)" stroke-width="1px" opacity="0.25"></line><line x1="0" y1="117.99999999999997" x2="288.828125" y2="117.99999999999997" fill="rgb(0, 0, 0)" stroke="rgb(66, 66, 66)" stroke-width="1px" opacity="0.25"></line><line x1="0" y1="98.33333333333331" x2="288.828125" y2="98.33333333333331" fill="rgb(0, 0, 0)" stroke="rgb(66, 66, 66)" stroke-width="1px" opacity="0.25"></line><line x1="0" y1="78.66666666666666" x2="288.828125" y2="78.66666666666666" fill="rgb(0, 0, 0)" stroke="rgb(66, 66, 66)" stroke-width="1px" opacity="0.25"></line><line x1="0" y1="58.999999999999964" x2="288.828125" y2="58.999999999999964" fill="rgb(0, 0, 0)" stroke="rgb(66, 66, 66)" stroke-width="1px" opacity="0.25"></line><line x1="0" y1="39.33333333333333" x2="288.828125" y2="39.33333333333333" fill="rgb(0, 0, 0)" stroke="rgb(66, 66, 66)" stroke-width="1px" opacity="0.25"></line><line x1="0" y1="19.666666666666636" x2="288.828125" y2="19.666666666666636" fill="rgb(0, 0, 0)" stroke="rgb(66, 66, 66)" stroke-width="1px" opacity="0.25"></line><line x1="0" y1="0" x2="288.828125" y2="0" fill="rgb(0, 0, 0)" stroke="rgb(66, 66, 66)" stroke-width="1px" opacity="0.25"></line></g></g></g><g><g><line x1="0" y1="275.3333333333333" x2="288.828125" y2="275.3333333333333" fill="rgb(0, 0, 0)" stroke="rgb(153, 153, 153)" stroke-width="1.5px"></line></g></g><g><g><line x1="19.255208333333332" y1="0" x2="19.255208333333332" y2="177" fill="rgb(0, 0, 0)" stroke="rgb(153, 153, 153)" stroke-width="1.5px"></line></g></g><g><g><g><g><g><path stroke="rgb(255, 112, 67)" stroke-width="2px" d="M20.21796875,154.78485357761383L21.180729166666666,69.15827167034149L22.14348958333333,45.183336343084044L23.10625,34.244734909799334L24.069010416666664,29.542506001328913L25.031770833333333,27.00768975290671L25.994531249999998,26.24328671822085L26.957291666666666,25.647045910747998L27.92005208333333,25.180934287563904L28.8828125,25.606869737617984L29.845572916666665,27.20735507280464L30.808333333333334,26.244809617780792L31.77109375,26.920652590866954L32.73385416666667,26.75912572654834L33.696614583333336,26.21846846697005L34.659375,25.709975967150474L35.622135416666666,25.359026262538677L36.584895833333334,25.154833804159846L37.54765625,25.145918476757707L38.510416666666664,25.905119044503785L39.47317708333333,27.383316557601486L40.4359375,25.822321857868573L41.39869791666667,25.488501054913776L42.36145833333333,25.07507181826206L43.32421875,25.63922391358954L44.28697916666666,25.23752956002384L45.24973958333334,24.882816175010603L46.2125,25.521620921382215L47.17526041666667,25.27720666486634L48.13802083333333,25.057107053783277L49.100781250000004,26.41886739128L50.063541666666666,26.229593456706898L51.026302083333334,26.21109248246606L51.989062499999996,25.26015874263997L52.951822916666664,25.93872362634207L53.91458333333333,25.7939241640778L54.87734375,25.478053366788494L55.84010416666666,26.045959490365L56.80286458333333,25.375264494530228L57.765625,23.95494099900587L58.72838541666667,25.789643866050373L59.69114583333333,25.417899818334963L60.65390625,24.89084007894687L61.61666666666667,24.970326595284995L62.579427083333336,23.803592767704696L63.5421875,24.281171245569553L64.50494791666667,24.81832683245069L65.46770833333333,24.38065097808701L66.43046875,24.865593304633414L67.39322916666667,25.28745001077617L68.35598958333333,26.195219047466708L69.31875,25.501483881274766L70.28151041666668,25.097118677596182L71.24427083333333,24.689796756654957L72.20703125,25.357825513159213L73.16979166666667,26.03932245347648L74.13255208333332,25.77666826930515L75.0953125,25.387393136257277L76.05807291666666,25.3845784164639L77.02083333333333,24.798101996241563L77.98359375000001,25.986637838114564L78.94635416666667,25.248297297671073L79.90911458333333,25.652549149450966L80.871875,25.26198655459147L81.83463541666667,24.053528021240545L82.79739583333334,24.100117897224578L83.76015625,24.53031546634047L84.72291666666666,24.714748853254346L85.68567708333335,25.40202196131551L86.6484375,25.41303976223072L87.61119791666667,27.401202598438644L88.57395833333332,25.964723030341652L89.53671875,24.885930379039557L90.49947916666667,24.183243155383312L91.46223958333333,23.732225278965224L92.425,24.07409653065183L93.38776041666667,25.52220611273037L94.35052083333333,24.78126138696464L95.31328125,24.838428309805142L96.27604166666666,25.023679599785275L97.23880208333334,26.107139878284674L98.20156250000001,25.913181808000665L99.16432291666666,25.63434383591307L100.12708333333333,25.510808494291155L101.08984375,25.669501119157363L102.05260416666667,24.67659007176791L103.01536458333334,24.905600958392192L103.97812499999999,24.8703781432535L104.94088541666667,24.965523027709374L105.90364583333333,24.2917670127408L106.86640625,25.873176083796032L107.82916666666667,25.317123406049L108.79192708333333,24.751386241573286L109.7546875,24.156108059713343L110.71744791666667,25.200619339063323L111.68020833333333,25.112626532273726L112.64296875000001,24.50058177091541L113.60572916666666,25.686461463460613L114.56848958333333,25.454330968305122L115.53125,25.07950884473554L116.49401041666667,26.615221174420082L117.45677083333334,25.96477925373175L118.41953124999999,25.773871797288763L119.38229166666666,25.38380284009639L120.34505208333334,25.53459808676572L121.3078125,25.516616292045136L122.27057291666667,24.89575927816113L123.23333333333333,24.592223452340928L124.19609375,24.529333614712645L125.15885416666667,25.379190655254156L126.12161458333333,27.172492211909503L127.084375,26.66866271985141L128.04713541666666,25.762881046993364L129.00989583333333,25.041023257604646L129.97265625,24.39488037587773L130.93541666666667,23.92653513034965L131.89817708333334,24.601223469181804L132.8609375,24.15713922202782L133.82369791666667,24.669671694538L134.78645833333334,24.782094240238763L135.74921874999998,25.97367544971431L136.71197916666665,25.434119562320518L137.67473958333335,24.73762839039792L138.6375,24.072085027896478L139.60026041666666,24.233183326822072L140.56302083333335,24.494665355732806L141.52578125,23.485101367657744L142.48854166666666,22.373189044806043L143.45130208333333,23.377288099533672L144.4140625,23.37538651446816L145.37682291666667,25.835298716129444L146.33958333333334,24.748317569047988L147.30234375,24.389264826750136L148.26510416666665,24.32208446898827L149.22786458333334,25.329054694566956L150.190625,24.77896770894221L151.15338541666665,24.04100096752091L152.11614583333332,24.251131755758514L153.07890625000002,24.83154598010042L154.04166666666666,24.71596407459405L155.00442708333333,25.877896346480775L155.96718750000002,25.96081938238498L156.92994791666666,24.82491015340662L157.89270833333333,24.238047554819683L158.85546875,24.95911810533648L159.81822916666667,24.339439102691617L160.78098958333334,24.200662349006624L161.74375,23.44378764149603L162.70651041666667,23.622555567408877L163.66927083333334,23.975783861470834L164.63203124999998,25.840108492370746L165.59479166666668,25.232952246266745L166.55755208333332,24.715349341033964L167.5203125,25.336185288726842L168.48307291666669,25.33674911275483L169.44583333333333,24.770108002498617L170.40859375,24.838044572907098L171.3713541666667,23.589634224294322L172.33411458333333,23.21327251420352L173.296875,23.197643132139905L174.25963541666667,25.663832073971456L175.22239583333334,25.786337438009586L176.18515625,25.639168571821067L177.14791666666665,24.85200408666889L178.11067708333334,24.890374916640695L179.0734375,24.195288667007173L180.03619791666665,25.35385497854346L180.99895833333335,25.820065341622588L181.96171875,24.67082456858503L182.92447916666666,24.435047448235473L183.88723958333335,26.194804936924438L184.85,25.80718057864847L185.81276041666666,24.633048621385996L186.77552083333333,23.594734751964477L187.73828125,24.378974439593577L188.70104166666667,23.448203564630187L189.6638020833333,23.379334847602344L190.6265625,23.882306893901564L191.58932291666667,23.502221703646814L192.55208333333331,24.44220370060118L193.51484375,25.959706395893864L194.47760416666668,25.312514906142933L195.44036458333332,25.182371400304024L196.40312500000002,24.847219080978316L197.36588541666666,24.106542274978562L198.32864583333333,24.519050680412256L199.29140625,24.201168061700127L200.25416666666666,23.9856903559996L201.21692708333333,24.102315307012827L202.1796875,24.230597873703456L203.14244791666667,26.246493250218908L204.10520833333334,25.14733190838887L205.06796874999998,24.97504347316616L206.03072916666667,24.648393917839684L206.99348958333334,24.580019339303643L207.95624999999998,25.367256772707112L208.91901041666668,24.957995361184167L209.88177083333335,24.317039184816245L210.84453125,24.51395762614784L211.80729166666666,24.287980221968787L212.77005208333335,25.333641838660782L213.7328125,24.427753484065764L214.69557291666666,24.12091539095612L215.65833333333333,24.79222674067204L216.62109375,24.18915316907258L217.58385416666667,24.18577173077904L218.54661458333334,24.323317859191906L219.509375,23.953585114885954L220.47213541666665,24.196393195196787L221.43489583333334,23.504109195572497L222.39765625,25.62655515059945L223.36041666666665,26.222100151504666L224.32317708333332,25.688636408709293L225.28593750000002,25.39993704679746L226.24869791666666,24.755950040236797L227.21145833333333,24.75378631880665L228.17421875000002,24.50736955469242L229.13697916666666,24.646505056149692L230.09973958333333,23.972683081193225L231.0625,24.02164501406919L232.02526041666667,24.660864047498375L232.98802083333334,24.62908749396149L233.95078125,24.65700525350641L234.91354166666667,25.3236822799209L235.87630208333334,25.452069029975096L236.83906249999998,25.039342793707103L237.80182291666668,23.95263894045554L238.76458333333332,24.24742766044638L239.72734375,23.88267705749522L240.69010416666669,24.37529217159278L241.65286458333333,25.958697810548177L242.615625,25.575890111316056L243.5783854166667,26.2445240653499L244.54114583333333,25.12271526639379L245.50390625,25.235640780055107L246.46666666666667,24.835826802215752L247.42942708333334,25.033737703145402L248.3921875,24.90371078450523L249.35494791666665,24.842999389762852L250.31770833333334,24.87922605424879L251.28046875,26.23088562761621L252.24322916666665,25.382870218529682L253.20598958333335,25.698172897783106L254.16875,25.175582255267656L255.13151041666666,25.552399161131945L256.0942708333333,25.316251279250643L257.05703125,24.90461711155169L258.01979166666666,25.928791940544002L258.9825520833333,25.76522077139913L259.9453125,26.060106143438304L260.90807291666664,27.047647091291072L261.87083333333334,26.358033305675644L262.83359375000003,24.693899257118943L263.7963541666667,25.164056630499868L264.7591145833333,24.590710566226463" style="fill: none;" fill="none"></path></g></g></g></g><g opacity="0.2"><g><g><g><path stroke="rgb(255, 112, 67)" stroke-width="2px" d="M20.21796875,154.78485357761383L21.180729166666666,26.344980716705308L22.14348958333333,27.20213484764097L23.10625,24.673458655675237L24.069010416666664,25.134166399637834L25.031770833333333,24.552086512247712L25.994531249999998,25.490827480951936L26.957291666666666,25.055463234583513L27.92005208333333,24.71664341290791L28.8828125,26.03197328249611L29.845572916666665,28.80627743403116L30.808333333333334,25.2827341556549L31.77109375,27.596330563227312L32.73385416666667,26.59761857986448L33.696614583333336,25.67784420649209L34.659375,25.20149898529052L35.622135416666666,25.00808191299437L36.584895833333334,24.950642903645825L37.54765625,25.137003183364854L38.510416666666664,26.664318164189634L39.47317708333333,28.861512660980218L40.4359375,24.261327902475983L41.39869791666667,25.154680331548047L42.36145833333333,24.661642630894963L43.32421875,26.203375975290925L44.28697916666666,24.83583521842956L45.24973958333334,24.528102795282983L46.2125,26.160425662994363L47.17526041666667,25.032792409261052L48.13802083333333,24.83700744311013L49.100781250000004,27.78062772750853L50.063541666666666,26.040319522221868L51.026302083333334,26.192591508229565L51.989062499999996,24.30922500292459L52.951822916666664,26.617288510004656L53.91458333333333,25.649124701817815L54.87734375,25.162182569503763L55.84010416666666,26.613865613937357L56.80286458333333,24.704569498697893L57.765625,22.534617503484068L58.72838541666667,27.62434673309324L59.69114583333333,25.046155770619688L60.65390625,24.363780339558897L61.61666666666667,25.04981311162312L62.579427083333336,22.636858940124498L63.5421875,24.758749723434427L64.50494791666667,25.355482419331846L65.46770833333333,23.942975123723333L66.43046875,25.350535631179795L67.39322916666667,25.709306716918924L68.35598958333333,27.102988084157285L69.31875,24.80774871508278L70.28151041666668,24.69275347391762L71.24427083333333,24.28247483571369L72.20703125,26.02585426966347L73.16979166666667,26.720819393793725L74.13255208333332,25.514014085133862L75.0953125,24.998118003209424L76.05807291666666,25.381763696670518L77.02083333333333,24.211625576019266L77.98359375000001,27.175173679987566L78.94635416666667,24.509956757227563L79.90911458333333,26.05680100123086L80.871875,24.871423959732034L81.83463541666667,22.8450694878896L82.79739583333334,24.14670777320861L83.76015625,24.960513035456316L84.72291666666666,24.899182240168244L85.68567708333335,26.08929506937661L86.6484375,25.424057563145933L87.61119791666667,29.389365434646585L88.57395833333332,24.52824346224466L89.53671875,23.807137727737405L90.49947916666667,23.480555931727068L91.46223958333333,23.281207402547192L92.425,24.415967782338452L93.38776041666667,26.970315694808953L94.35052083333333,24.04031666119891L95.31328125,24.89559523264566L96.27604166666666,25.208930889765412L97.23880208333334,27.19060015678405L98.20156250000001,25.719223737716653L99.16432291666666,25.355505863825456L100.12708333333333,25.387273152669255L101.08984375,25.828193744023633L102.05260416666667,23.683679024378442L103.01536458333334,25.134611845016472L103.97812499999999,24.835155328114805L104.94088541666667,25.060667912165307L105.90364583333333,23.618010997772203L106.86640625,27.45458515485127L107.82916666666667,24.76107072830198L108.79192708333333,24.18564907709756L109.7546875,23.56082987785338L110.71744791666667,26.24513061841328L111.68020833333333,25.02463372548419L112.64296875000001,23.888537009557073L113.60572916666666,26.872341156005838L114.56848958333333,25.22220047314961L115.53125,24.70468672116596L116.49401041666667,28.1509335041046L117.45677083333334,25.314337333043394L118.41953124999999,25.58296434084572L119.38229166666666,24.99373388290404L120.34505208333334,25.685393333435044L121.3078125,25.498634497324616L122.27057291666667,24.274902264277124L123.23333333333333,24.28868762652077L124.19609375,24.466443777084336L125.15885416666667,26.22904769579567L126.12161458333333,28.96579376856485L127.084375,26.16483322779336L128.04713541666666,24.857099374135313L129.00989583333333,24.319165468215928L129.97265625,23.748737494150774L130.93541666666667,23.45818988482155L131.89817708333334,25.275911808013895L132.8609375,23.713054974873838L133.82369791666667,25.18220416704812L134.78645833333334,24.894516785939526L135.74921874999998,27.165256659189836L136.71197916666665,24.894563674926744L137.67473958333335,24.04113721847532L138.6375,23.406541665395093L139.60026041666666,24.394281625747666L140.56302083333335,24.75614738464354L141.52578125,22.4755373795827L142.48854166666666,21.26127672195434L143.45130208333333,24.38138715426126L144.4140625,23.373484929402654L145.37682291666667,28.295210917790723L146.33958333333334,23.66133642196653L147.30234375,24.030212084452288L148.26510416666665,24.254904111226377L149.22786458333334,26.336024920145647L150.190625,24.22888072331745L151.15338541666665,23.303034226099633L152.11614583333332,24.461262543996153L153.07890625000002,25.411960204442327L154.04166666666666,24.60038216908772L155.00442708333333,27.039828618367498L155.96718750000002,26.043742418289163L156.92994791666666,23.68900092442828L157.89270833333333,23.65118495623269L158.85546875,25.68018865585325L159.81822916666667,23.719760100046777L160.78098958333334,24.061885595321648L161.74375,22.686912933985376L162.70651041666667,23.80132349332173L163.66927083333334,24.32901215553283L164.63203124999998,27.70443312327066L165.59479166666668,24.625796000162744L166.55755208333332,24.197746435801164L167.5203125,25.957021236419656L168.48307291666669,25.337312936782816L169.44583333333333,24.203466892242425L170.40859375,24.905981143315618L171.3713541666667,22.34122387568155L172.33411458333333,22.836910804112737L173.296875,23.182013750076287L174.25963541666667,28.13002101580301L175.22239583333334,25.908842802047715L176.18515625,25.491999705632505L177.14791666666665,24.064839601516717L178.11067708333334,24.928745746612535L179.0734375,23.50020241737365L180.03619791666665,26.51242129007973L180.99895833333335,26.286275704701733L181.96171875,23.52158379554747L182.92447916666666,24.199270327885937L183.88723958333335,27.954562425613382L184.85,25.419556220372503L185.81276041666666,23.45891666412352L186.77552083333333,22.55642088254292L187.73828125,25.16321412722268L188.70104166666667,22.517432689666734L189.6638020833333,23.31046613057452L190.6265625,24.385278940200784L191.58932291666667,23.12213651339212L192.55208333333331,25.382185697555528L193.51484375,27.47720909118651L194.47760416666668,24.665323416391985L195.44036458333332,25.052227894465112L196.40312500000002,24.512066761652612L197.36588541666666,23.365865468978868L198.32864583333333,24.931559085845926L199.29140625,23.88328544298806L200.25416666666666,23.77021265029905L201.21692708333333,24.21894025802611L202.1796875,24.358880440394067L203.14244791666667,28.2623886267344L204.10520833333334,24.04817056655883L205.06796874999998,24.802755037943513L206.03072916666667,24.321744362513208L206.99348958333334,24.511644760767602L207.95624999999998,26.15449420611062L208.91901041666668,24.54873394966124L209.88177083333335,23.676083008448266L210.84453125,24.71087606747943L211.80729166666666,24.062002817789697L212.77005208333335,26.379303455352776L213.7328125,23.521865129470804L214.69557291666666,23.81407729784646L215.65833333333333,25.463538090387956L216.62109375,23.586079597473137L217.58385416666667,24.182390292485547L218.54661458333334,24.460863987604753L219.509375,23.583852370580022L220.47213541666665,24.4392012755076L221.43489583333334,22.811825195948266L222.39765625,27.74900110562641L223.36041666666665,26.817645152409856L224.32317708333332,25.155172665913884L225.28593750000002,25.11123768488565L226.24869791666666,24.111963033676133L227.21145833333333,24.751622597376482L228.17421875000002,24.26095279057819L229.13697916666666,24.785640557607007L230.09973958333333,23.298861106236753L231.0625,24.070606946945176L232.02526041666667,25.30008308092752L232.98802083333334,24.597310940424585L233.95078125,24.68492301305133L234.91354166666667,25.990359306335428L235.87630208333334,25.58045578002929L236.83906249999998,24.626616557439153L237.80182291666668,22.865935087203972L238.76458333333332,24.5422163804372L239.72734375,23.51792645454406L240.69010416666669,24.8679072856903L241.65286458333333,27.542103449503557L242.615625,25.193082412083935L243.5783854166667,26.91315801938374L244.54114583333333,24.000906467437737L245.50390625,25.348566293716424L246.46666666666667,24.436012824376416L247.42942708333334,25.23164860407509L248.3921875,24.773683865865056L249.35494791666665,24.78228799502054L250.31770833333334,24.915452718734727L251.28046875,27.582545200983667L252.24322916666665,24.53485480944314L253.20598958333335,26.01347557703653L254.16875,24.652991612752263L255.13151041666666,25.929216066996233L256.0942708333333,25.080103397369363L257.05703125,24.492982943852734L258.01979166666666,26.952966769536314L258.9825520833333,25.601649602254216L259.9453125,26.354991515477476L260.90807291666664,28.035188039143858L261.87083333333334,25.668419520060198L262.83359375000003,23.0297652085622L263.7963541666667,25.634214003880796L264.7591145833333,24.017364501953118" style="fill: none;" fill="none"></path></g></g></g></g></g></g><g transform="translate(41, 177)" clip-path="url(#clip_1)"><clipPath id="clip_1"><rect width="288" height="22"></rect></clipPath><g><g><line x1="0" y1="0" x2="0" y2="5" style="visibility: inherit;" fill="rgb(0, 0, 0)" stroke="rgb(204, 204, 204)" stroke-width="1px"></line><line x1="19.255208333333332" y1="0" x2="19.255208333333332" y2="5" style="visibility: inherit;" fill="rgb(0, 0, 0)" stroke="rgb(204, 204, 204)" stroke-width="1px"></line><line x1="38.510416666666664" y1="0" x2="38.510416666666664" y2="5" style="visibility: inherit;" fill="rgb(0, 0, 0)" stroke="rgb(204, 204, 204)" stroke-width="1px"></line><line x1="57.765625" y1="0" x2="57.765625" y2="5" style="visibility: inherit;" fill="rgb(0, 0, 0)" stroke="rgb(204, 204, 204)" stroke-width="1px"></line><line x1="77.02083333333333" y1="0" x2="77.02083333333333" y2="5" style="visibility: inherit;" fill="rgb(0, 0, 0)" stroke="rgb(204, 204, 204)" stroke-width="1px"></line><line x1="96.27604166666666" y1="0" x2="96.27604166666666" y2="5" style="visibility: inherit;" fill="rgb(0, 0, 0)" stroke="rgb(204, 204, 204)" stroke-width="1px"></line><line x1="115.53125" y1="0" x2="115.53125" y2="5" style="visibility: inherit;" fill="rgb(0, 0, 0)" stroke="rgb(204, 204, 204)" stroke-width="1px"></line><line x1="134.78645833333334" y1="0" x2="134.78645833333334" y2="5" style="visibility: inherit;" fill="rgb(0, 0, 0)" stroke="rgb(204, 204, 204)" stroke-width="1px"></line><line x1="154.04166666666666" y1="0" x2="154.04166666666666" y2="5" style="visibility: inherit;" fill="rgb(0, 0, 0)" stroke="rgb(204, 204, 204)" stroke-width="1px"></line><line x1="173.296875" y1="0" x2="173.296875" y2="5" style="visibility: inherit;" fill="rgb(0, 0, 0)" stroke="rgb(204, 204, 204)" stroke-width="1px"></line><line x1="192.55208333333331" y1="0" x2="192.55208333333331" y2="5" style="visibility: inherit;" fill="rgb(0, 0, 0)" stroke="rgb(204, 204, 204)" stroke-width="1px"></line><line x1="211.80729166666666" y1="0" x2="211.80729166666666" y2="5" style="visibility: inherit;" fill="rgb(0, 0, 0)" stroke="rgb(204, 204, 204)" stroke-width="1px"></line><line x1="231.0625" y1="0" x2="231.0625" y2="5" style="visibility: inherit;" fill="rgb(0, 0, 0)" stroke="rgb(204, 204, 204)" stroke-width="1px"></line><line x1="250.31770833333334" y1="0" x2="250.31770833333334" y2="5" style="visibility: inherit;" fill="rgb(0, 0, 0)" stroke="rgb(204, 204, 204)" stroke-width="1px"></line><line x1="269.5729166666667" y1="0" x2="269.5729166666667" y2="5" style="visibility: inherit;" fill="rgb(0, 0, 0)" stroke="rgb(204, 204, 204)" stroke-width="1px"></line><line x1="288.828125" y1="0" x2="288.828125" y2="5" style="visibility: inherit;" fill="rgb(0, 0, 0)" stroke="rgb(204, 204, 204)" stroke-width="1px"></line></g><g transform="translate(0, 8)"><text x="0" y="0" dx="0em" dy="0.95em" style="text-anchor: middle; visibility: hidden; font-family: Roboto, sans-serif; font-size: 12px; font-weight: 200;" fill="rgb(33, 33, 33)" stroke="none" stroke-width="1px">-2k</text><text x="19.255208333333332" y="0" dx="0em" dy="0.95em" style="text-anchor: middle; visibility: inherit; font-family: Roboto, sans-serif; font-size: 12px; font-weight: 200;" fill="rgb(33, 33, 33)" stroke="none" stroke-width="1px">0</text><text x="38.510416666666664" y="0" dx="0em" dy="0.95em" style="text-anchor: middle; visibility: hidden; font-family: Roboto, sans-serif; font-size: 12px; font-weight: 200;" fill="rgb(33, 33, 33)" stroke="none" stroke-width="1px">2k</text><text x="57.765625" y="0" dx="0em" dy="0.95em" style="text-anchor: middle; visibility: inherit; font-family: Roboto, sans-serif; font-size: 12px; font-weight: 200;" fill="rgb(33, 33, 33)" stroke="none" stroke-width="1px">4k</text><text x="77.02083333333333" y="0" dx="0em" dy="0.95em" style="text-anchor: middle; visibility: hidden; font-family: Roboto, sans-serif; font-size: 12px; font-weight: 200;" fill="rgb(33, 33, 33)" stroke="none" stroke-width="1px">6k</text><text x="96.27604166666666" y="0" dx="0em" dy="0.95em" style="text-anchor: middle; visibility: inherit; font-family: Roboto, sans-serif; font-size: 12px; font-weight: 200;" fill="rgb(33, 33, 33)" stroke="none" stroke-width="1px">8k</text><text x="115.53125" y="0" dx="0em" dy="0.95em" style="text-anchor: middle; visibility: hidden; font-family: Roboto, sans-serif; font-size: 12px; font-weight: 200;" fill="rgb(33, 33, 33)" stroke="none" stroke-width="1px">10k</text><text x="134.78645833333334" y="0" dx="0em" dy="0.95em" style="text-anchor: middle; visibility: inherit; font-family: Roboto, sans-serif; font-size: 12px; font-weight: 200;" fill="rgb(33, 33, 33)" stroke="none" stroke-width="1px">12k</text><text x="154.04166666666666" y="0" dx="0em" dy="0.95em" style="text-anchor: middle; visibility: hidden; font-family: Roboto, sans-serif; font-size: 12px; font-weight: 200;" fill="rgb(33, 33, 33)" stroke="none" stroke-width="1px">14k</text><text x="173.296875" y="0" dx="0em" dy="0.95em" style="text-anchor: middle; visibility: inherit; font-family: Roboto, sans-serif; font-size: 12px; font-weight: 200;" fill="rgb(33, 33, 33)" stroke="none" stroke-width="1px">16k</text><text x="192.55208333333331" y="0" dx="0em" dy="0.95em" style="text-anchor: middle; visibility: hidden; font-family: Roboto, sans-serif; font-size: 12px; font-weight: 200;" fill="rgb(33, 33, 33)" stroke="none" stroke-width="1px">18k</text><text x="211.80729166666666" y="0" dx="0em" dy="0.95em" style="text-anchor: middle; visibility: inherit; font-family: Roboto, sans-serif; font-size: 12px; font-weight: 200;" fill="rgb(33, 33, 33)" stroke="none" stroke-width="1px">20k</text><text x="231.0625" y="0" dx="0em" dy="0.95em" style="text-anchor: middle; visibility: hidden; font-family: Roboto, sans-serif; font-size: 12px; font-weight: 200;" fill="rgb(33, 33, 33)" stroke="none" stroke-width="1px">22k</text><text x="250.31770833333334" y="0" dx="0em" dy="0.95em" style="text-anchor: middle; visibility: inherit; font-family: Roboto, sans-serif; font-size: 12px; font-weight: 200;" fill="rgb(33, 33, 33)" stroke="none" stroke-width="1px">24k</text><text x="269.5729166666667" y="0" dx="0em" dy="0.95em" style="text-anchor: middle; visibility: hidden; font-family: Roboto, sans-serif; font-size: 12px; font-weight: 200;" fill="rgb(33, 33, 33)" stroke="none" stroke-width="1px">26k</text><text x="288.828125" y="0" dx="0em" dy="0.95em" style="text-anchor: middle; visibility: hidden; font-family: Roboto, sans-serif; font-size: 12px; font-weight: 200;" fill="rgb(33, 33, 33)" stroke="none" stroke-width="1px">28k</text></g><line x1="0" y1="0" x2="288.828125" y2="0" fill="rgb(0, 0, 0)" stroke="rgb(204, 204, 204)" stroke-width="1px"></line></g></g></g></g></svg>