<svg viewBox="0 0 330 200" xmlns="http://www.w3.org/2000/svg"><g><g><g><g><g><line x1="59.98000144958496" y1="177.58999919891357" x2="54.98000144958496" y2="177.58999919891357" style="visibility: inherit;" fill="rgb(0, 0, 0)" stroke="rgb(204, 204, 204)" stroke-width="1px"></line><line x1="59.98000144958496" y1="162.79083259900412" x2="54.98000144958496" y2="162.79083259900412" style="visibility: inherit;" fill="rgb(0, 0, 0)" stroke="rgb(204, 204, 204)" stroke-width="1px"></line><line x1="59.98000144958496" y1="147.99166599909464" x2="54.98000144958496" y2="147.99166599909464" style="visibility: inherit;" fill="rgb(0, 0, 0)" stroke="rgb(204, 204, 204)" stroke-width="1px"></line><line x1="59.98000144958496" y1="133.19249939918518" x2="54.98000144958496" y2="133.19249939918518" style="visibility: inherit;" fill="rgb(0, 0, 0)" stroke="rgb(204, 204, 204)" stroke-width="1px"></line><line x1="59.98000144958496" y1="118.39333279927573" x2="54.98000144958496" y2="118.39333279927573" style="visibility: inherit;" fill="rgb(0, 0, 0)" stroke="rgb(204, 204, 204)" stroke-width="1px"></line><line x1="59.98000144958496" y1="103.59416619936626" x2="54.98000144958496" y2="103.59416619936626" style="visibility: inherit;" fill="rgb(0, 0, 0)" stroke="rgb(204, 204, 204)" stroke-width="1px"></line><line x1="59.98000144958496" y1="88.79499959945679" x2="54.98000144958496" y2="88.79499959945679" style="visibility: inherit;" fill="rgb(0, 0, 0)" stroke="rgb(204, 204, 204)" stroke-width="1px"></line><line x1="59.98000144958496" y1="73.99583299954733" x2="54.98000144958496" y2="73.99583299954733" style="visibility: inherit;" fill="rgb(0, 0, 0)" stroke="rgb(204, 204, 204)" stroke-width="1px"></line><line x1="59.98000144958496" y1="59.19666639963786" x2="54.98000144958496" y2="59.19666639963786" style="visibility: inherit;" fill="rgb(0, 0, 0)" stroke="rgb(204, 204, 204)" stroke-width="1px"></line><line x1="59.98000144958496" y1="44.397499799728394" x2="54.98000144958496" y2="44.397499799728394" style="visibility: inherit;" fill="rgb(0, 0, 0)" stroke="rgb(204, 204, 204)" stroke-width="1px"></line><line x1="59.98000144958496" y1="29.598333199818963" x2="54.98000144958496" y2="29.598333199818963" style="visibility: inherit;" fill="rgb(0, 0, 0)" stroke="rgb(204, 204, 204)" stroke-width="1px"></line><line x1="59.98000144958496" y1="14.799166599909471" x2="54.98000144958496" y2="14.799166599909471" style="visibility: inherit;" fill="rgb(0, 0, 0)" stroke="rgb(204, 204, 204)" stroke-width="1px"></line><line x1="59.98000144958496" y1="0" x2="54.98000144958496" y2="0" style="visibility: inherit;" fill="rgb(0, 0, 0)" stroke="rgb(204, 204, 204)" stroke-width="1px"></line></g><g transform="translate(49.98000144958496, 0)"><text style="text-anchor: end; visibility: hidden; font-family: Roboto, sans-serif; font-size: 12px; font-weight: 200;" x="0" y="177.58999919891357" dx="0em" dy="0.3em" fill="rgb(33, 33, 33)" stroke="none" stroke-width="1px">0.025</text><text style="text-anchor: end; visibility: inherit; font-family: Roboto, sans-serif; font-size: 12px; font-weight: 200;" x="0" y="162.79083259900412" dx="0em" dy="0.3em" fill="rgb(33, 33, 33)" stroke="none" stroke-width="1px">0.03</text><text style="text-anchor: end; visibility: hidden; font-family: Roboto, sans-serif; font-size: 12px; font-weight: 200;" x="0" y="147.99166599909464" dx="0em" dy="0.3em" fill="rgb(33, 33, 33)" stroke="none" stroke-width="1px">0.035</text><text style="text-anchor: end; visibility: inherit; font-family: Roboto, sans-serif; font-size: 12px; font-weight: 200;" x="0" y="133.19249939918518" dx="0em" dy="0.3em" fill="rgb(33, 33, 33)" stroke="none" stroke-width="1px">0.04</text><text style="text-anchor: end; visibility: hidden; font-family: Roboto, sans-serif; font-size: 12px; font-weight: 200;" x="0" y="118.39333279927573" dx="0em" dy="0.3em" fill="rgb(33, 33, 33)" stroke="none" stroke-width="1px">0.045</text><text style="text-anchor: end; visibility: inherit; font-family: Roboto, sans-serif; font-size: 12px; font-weight: 200;" x="0" y="103.59416619936626" dx="0em" dy="0.3em" fill="rgb(33, 33, 33)" stroke="none" stroke-width="1px">0.05</text><text style="text-anchor: end; visibility: hidden; font-family: Roboto, sans-serif; font-size: 12px; font-weight: 200;" x="0" y="88.79499959945679" dx="0em" dy="0.3em" fill="rgb(33, 33, 33)" stroke="none" stroke-width="1px">0.055</text><text style="text-anchor: end; visibility: inherit; font-family: Roboto, sans-serif; font-size: 12px; font-weight: 200;" x="0" y="73.99583299954733" dx="0em" dy="0.3em" fill="rgb(33, 33, 33)" stroke="none" stroke-width="1px">0.06</text><text style="text-anchor: end; visibility: hidden; font-family: Roboto, sans-serif; font-size: 12px; font-weight: 200;" x="0" y="59.19666639963786" dx="0em" dy="0.3em" fill="rgb(33, 33, 33)" stroke="none" stroke-width="1px">0.065</text><text style="text-anchor: end; visibility: inherit; font-family: Roboto, sans-serif; font-size: 12px; font-weight: 200;" x="0" y="44.397499799728394" dx="0em" dy="0.3em" fill="rgb(33, 33, 33)" stroke="none" stroke-width="1px">0.07</text><text style="text-anchor: end; visibility: hidden; font-family: Roboto, sans-serif; font-size: 12px; font-weight: 200;" x="0" y="29.598333199818963" dx="0em" dy="0.3em" fill="rgb(33, 33, 33)" stroke="none" stroke-width="1px">0.075</text><text style="text-anchor: end; visibility: inherit; font-family: Roboto, sans-serif; font-size: 12px; font-weight: 200;" x="0" y="14.799166599909471" dx="0em" dy="0.3em" fill="rgb(33, 33, 33)" stroke="none" stroke-width="1px">0.08</text><text style="text-anchor: end; visibility: hidden; font-family: Roboto, sans-serif; font-size: 12px; font-weight: 200;" x="0" y="0" dx="0em" dy="0.3em" fill="rgb(33, 33, 33)" stroke="none" stroke-width="1px">0.085</text></g><line x1="59.98000144958496" y1="0" x2="59.98000144958496" y2="177.58999919891357" fill="rgb(0, 0, 0)" stroke="rgb(204, 204, 204)" stroke-width="1px"></line></g></g><g transform="translate(59, 0)" clip-path="url(#clip_0)"><clipPath id="clip_0"><rect width="270" height="177"></rect></clipPath><g><g><g><line x1="0" y1="0" x2="0" y2="177.58999919891357" fill="rgb(0, 0, 0)" stroke="rgb(66, 66, 66)" stroke-width="1px" opacity="0.25"></line><line x1="19.287142753601074" y1="0" x2="19.287142753601074" y2="177.58999919891357" fill="rgb(0, 0, 0)" stroke="rgb(66, 66, 66)" stroke-width="1px" opacity="0.25"></line><line x1="38.57428550720215" y1="0" x2="38.57428550720215" y2="177.58999919891357" fill="rgb(0, 0, 0)" stroke="rgb(66, 66, 66)" stroke-width="1px" opacity="0.25"></line><line x1="57.86142826080322" y1="0" x2="57.86142826080322" y2="177.58999919891357" fill="rgb(0, 0, 0)" stroke="rgb(66, 66, 66)" stroke-width="1px" opacity="0.25"></line><line x1="77.1485710144043" y1="0" x2="77.1485710144043" y2="177.58999919891357" fill="rgb(0, 0, 0)" stroke="rgb(66, 66, 66)" stroke-width="1px" opacity="0.25"></line><line x1="96.43571376800537" y1="0" x2="96.43571376800537" y2="177.58999919891357" fill="rgb(0, 0, 0)" stroke="rgb(66, 66, 66)" stroke-width="1px" opacity="0.25"></line><line x1="115.72285652160645" y1="0" x2="115.72285652160645" y2="177.58999919891357" fill="rgb(0, 0, 0)" stroke="rgb(66, 66, 66)" stroke-width="1px" opacity="0.25"></line><line x1="135.00999927520752" y1="0" x2="135.00999927520752" y2="177.58999919891357" fill="rgb(0, 0, 0)" stroke="rgb(66, 66, 66)" stroke-width="1px" opacity="0.25"></line><line x1="154.2971420288086" y1="0" x2="154.2971420288086" y2="177.58999919891357" fill="rgb(0, 0, 0)" stroke="rgb(66, 66, 66)" stroke-width="1px" opacity="0.25"></line><line x1="173.58428478240967" y1="0" x2="173.58428478240967" y2="177.58999919891357" fill="rgb(0, 0, 0)" stroke="rgb(66, 66, 66)" stroke-width="1px" opacity="0.25"></line><line x1="192.87142753601074" y1="0" x2="192.87142753601074" y2="177.58999919891357" fill="rgb(0, 0, 0)" stroke="rgb(66, 66, 66)" stroke-width="1px" opacity="0.25"></line><line x1="212.15857028961182" y1="0" x2="212.15857028961182" y2="177.58999919891357" fill="rgb(0, 0, 0)" stroke="rgb(66, 66, 66)" stroke-width="1px" opacity="0.25"></line><line x1="231.4457130432129" y1="0" x2="231.4457130432129" y2="177.58999919891357" fill="rgb(0, 0, 0)" stroke="rgb(66, 66, 66)" stroke-width="1px" opacity="0.25"></line><line x1="250.73285579681396" y1="0" x2="250.73285579681396" y2="177.58999919891357" fill="rgb(0, 0, 0)" stroke="rgb(66, 66, 66)" stroke-width="1px" opacity="0.25"></line><line x1="270.01999855041504" y1="0" x2="270.01999855041504" y2="177.58999919891357" fill="rgb(0, 0, 0)" stroke="rgb(66, 66, 66)" stroke-width="1px" opacity="0.25"></line></g><g><line x1="0" y1="177.58999919891357" x2="270.01999855041504" y2="177.58999919891357" fill="rgb(0, 0, 0)" stroke="rgb(66, 66, 66)" stroke-width="1px" opacity="0.25"></line><line x1="0" y1="162.79083259900412" x2="270.01999855041504" y2="162.79083259900412" fill="rgb(0, 0, 0)" stroke="rgb(66, 66, 66)" stroke-width="1px" opacity="0.25"></line><line x1="0" y1="147.99166599909464" x2="270.01999855041504" y2="147.99166599909464" fill="rgb(0, 0, 0)" stroke="rgb(66, 66, 66)" stroke-width="1px" opacity="0.25"></line><line x1="0" y1="133.19249939918518" x2="270.01999855041504" y2="133.19249939918518" fill="rgb(0, 0, 0)" stroke="rgb(66, 66, 66)" stroke-width="1px" opacity="0.25"></line><line x1="0" y1="118.39333279927573" x2="270.01999855041504" y2="118.39333279927573" fill="rgb(0, 0, 0)" stroke="rgb(66, 66, 66)" stroke-width="1px" opacity="0.25"></line><line x1="0" y1="103.59416619936626" x2="270.01999855041504" y2="103.59416619936626" fill="rgb(0, 0, 0)" stroke="rgb(66, 66, 66)" stroke-width="1px" opacity="0.25"></line><line x1="0" y1="88.79499959945679" x2="270.01999855041504" y2="88.79499959945679" fill="rgb(0, 0, 0)" stroke="rgb(66, 66, 66)" stroke-width="1px" opacity="0.25"></line><line x1="0" y1="73.99583299954733" x2="270.01999855041504" y2="73.99583299954733" fill="rgb(0, 0, 0)" stroke="rgb(66, 66, 66)" stroke-width="1px" opacity="0.25"></line><line x1="0" y1="59.19666639963786" x2="270.01999855041504" y2="59.19666639963786" fill="rgb(0, 0, 0)" stroke="rgb(66, 66, 66)" stroke-width="1px" opacity="0.25"></line><line x1="0" y1="44.397499799728394" x2="270.01999855041504" y2="44.397499799728394" fill="rgb(0, 0, 0)" stroke="rgb(66, 66, 66)" stroke-width="1px" opacity="0.25"></line><line x1="0" y1="29.598333199818963" x2="270.01999855041504" y2="29.598333199818963" fill="rgb(0, 0, 0)" stroke="rgb(66, 66, 66)" stroke-width="1px" opacity="0.25"></line><line x1="0" y1="14.799166599909471" x2="270.01999855041504" y2="14.799166599909471" fill="rgb(0, 0, 0)" stroke="rgb(66, 66, 66)" stroke-width="1px" opacity="0.25"></line><line x1="0" y1="0" x2="270.01999855041504" y2="0" fill="rgb(0, 0, 0)" stroke="rgb(66, 66, 66)" stroke-width="1px" opacity="0.25"></line></g></g></g><g><g><line x1="0" y1="251.58583219846088" x2="270.01999855041504" y2="251.58583219846088" fill="rgb(0, 0, 0)" stroke="rgb(153, 153, 153)" stroke-width="1.5px"></line></g></g><g><g><line x1="19.287142753601074" y1="0" x2="19.287142753601074" y2="177.58999919891357" fill="rgb(0, 0, 0)" stroke="rgb(153, 153, 153)" stroke-width="1.5px"></line></g></g><g><g><g><g><g><path style="fill: none;" stroke="rgb(255, 112, 67)" stroke-width="2px" d="M21.21585702896118,164.76592606788526L23.14457130432129,159.83280770340056L25.073285579681396,154.2956396546108L27.001999855041504,148.2254784827295L28.93071413040161,141.70591788188463L30.85942840576172,134.82280844661733L32.788142681121826,127.65626812278951L34.716856956481934,120.27580643352023L36.64557123184204,112.73833229866096L38.57428550720215,105.08836039314609L40.502999782562256,97.35939750150017L42.43171405792236,89.57592153006533L44.36042833328247,81.75536894250328L46.28914260864258,73.90990779108331L48.217856884002686,66.04789118535071L50.14657115936279,58.17496544241141L52.0752854347229,50.29489703942112L54.00399971008301,42.410188895586515L55.93271398544312,34.52249279268369L57.86142826080322,26.632875975720623L59.79014253616333,21.900304938185094L61.71885681152344,19.06387204201308L63.647571086883545,17.367108307708833L65.57628536224365,16.356150753187872L67.50499963760376,15.758717858604903L69.43371391296387,15.41141778115587L71.36242818832397,15.21620786640904L73.29114246368408,15.114289442703921L75.21985673904419,15.070374650679524L77.1485710144043,15.063282012735476L79.0772852897644,15.080320305302493L81.00599956512451,15.11384833863184L82.93471384048462,15.159290222377845L84.86342811584473,15.213909244124059L86.79214239120483,15.276054555644897L88.72085666656494,15.344735648033309L90.64957094192503,15.419349394930848L92.57828521728516,15.499533920492002L94.50699949264526,15.58508974116491L96.43571376800537,15.67587070382747L98.36442804336548,15.771797937584108L100.29314231872559,15.872824119888664L102.2218565940857,15.978920857207713L104.1505708694458,16.090071113417462L106.07928514480591,16.20624702485988L108.00799942016602,16.32744069432925L109.93671369552612,16.45365620449194L111.86542797088624,16.584869541975003L113.79414224624634,16.721075119744977L115.72285652160645,16.862269585581526L117.65157079696655,17.008450928152488L119.58028507232666,17.159609119667415L121.50899934768677,17.315738143452286L123.43771362304688,17.47683438950259L125.36642789840698,17.642886870824714L127.29514217376709,17.81388899522282L129.2238564491272,17.98983680737905L131.1525707244873,18.170710292121566L133.0812849998474,18.356515082328528L135.00999927520752,18.547236915745472L136.93871355056763,18.7428760560104L138.86742782592773,18.94341501932471L140.79614210128784,19.1488433154093L142.72485637664795,19.35916347108741L144.65357065200806,19.574350539480882L146.58228492736816,19.794416015434873L148.51099920272827,20.019331511893764L150.43971347808838,20.249106459596298L152.3684277534485,20.48371123302284L154.2971420288086,20.723136877852365L156.22585630416873,20.967386842483005L158.1545705795288,21.216445553972154L160.08328485488892,21.470303668554358L162.01199913024902,21.728937937988977L163.94071340560913,21.992352055312935L165.86942768096924,22.260539415357684L167.79814195632935,22.533469592050064L169.72685623168945,22.811141971727604L171.65557050704956,23.093538544211427L173.58428478240967,23.380648503394163L175.51299905776978,23.672465365611465L177.44171333312988,23.968985240664693L179.37042760849,24.270170510471903L181.29914188385007,24.576025067156003L183.2278561592102,24.88653360400939L185.1565704345703,25.201686937007494L187.08528470993042,25.521461913754163L189.01399898529053,25.845844642811734L190.94271326065063,26.174826789317642L192.87142753601074,26.508394531363635L194.80014181137085,26.84653075481412L196.72885608673096,27.189234012178314L198.65757036209106,27.536468150999166L200.58628463745117,27.888229121783734L202.51499891281128,28.244496852854887L204.4437131881714,28.60526812219702L206.3724274635315,28.970514533628712L208.3011417388916,29.34022787043191L210.2298560142517,29.714385560594252L212.15857028961182,30.09297406090843L214.08728456497192,30.47598524545004L216.01599884033203,30.863396596683035L217.94471311569214,31.25518578309514L219.87342739105225,31.651348226769684L221.80214166641235,32.0518635389753L223.7308559417725,32.45671066548245L225.65957021713257,32.865868152762765L227.58828449249268,33.27932312869916L229.51699876785278,33.697050228040126L231.4457130432129,34.1190430526253L233.374427318573,34.54528894256796L235.3031415939331,34.97575383896392L237.2318558692932,35.4104261274613L239.16057014465332,35.84929001845836L241.08928442001343,36.29232721720341L243.01799869537354,36.739509104864034L244.94671297073364,37.190827331131466L246.87542724609375,37.646259243839026L248.80414152145383,38.10578243069614L250.73285579681396,38.569374623337644L252.66157007217407,39.037013639753894L254.59028434753418,39.50869499172969L256.5189986228943,39.98438952336391L258.4477128982544,40.464070920125216L260.3764271736145,40.947732214285416" fill="none"></path></g></g></g></g><g opacity="0.2"><g><g><g><path style="fill: none;" stroke="rgb(255, 112, 67)" stroke-width="2px" d="M21.21585702896118,164.76592606788526L23.14457130432129,156.87293668470977L25.073285579681396,148.9799583277726L27.001999855041504,141.08696894459706L28.93071413040161,133.19397956142157L30.85942840576172,125.30099017824605L32.788142681121826,117.40800079507052L34.716856956481934,109.51502243813336L36.64557123184204,101.6220220287195L38.57428550720215,93.72904367178234L40.502999782562256,85.83605428860683L42.43171405792236,77.9430649054313L44.36042833328247,70.0500755222558L46.28914260864258,62.157086139080285L48.217856884002686,54.26410778214312L50.14657115936279,46.37112942520596L52.0752854347229,38.478129015792085L54.00399971008301,30.58512860637821L55.93271398544312,22.692150249441045L57.86142826080322,14.7991718925039L59.79014253616333,14.801707927324845L61.71885681152344,14.80931603178772L63.647571086883545,14.821996205892525L65.57628536224365,14.83972639716253L67.50499963760376,14.862572763027845L69.43371391296387,14.8904691460584L71.36242818832397,14.923393493777445L73.29114246368408,14.96141196361511L75.21985673904419,15.004502503094704L77.1485710144043,15.052643059739498L79.0772852897644,15.105877738502933L81.00599956512451,15.164140381954857L82.93471384048462,15.227453042572L84.86342811584473,15.295837772831053L86.79214239120483,15.369272520255326L88.72085666656494,15.447757284844817L90.64957094192503,15.531270014122818L92.57828521728516,15.619810708089307L94.50699949264526,15.713423471697727L96.43571376800537,15.812042147517964L98.36442804336548,15.91568878802669L100.29314231872559,16.024363393223926L102.2218565940857,16.13806596310969L104.1505708694458,16.256796497683943L106.07928514480591,16.380510891993303L108.00799942016602,16.50923119851446L109.93671369552612,16.642979469724146L111.86542797088624,16.78168954819221L113.79414224624634,16.925383486395383L115.72285652160645,17.07406128433366L117.65157079696655,17.227722942007027L119.58028507232666,17.386346406938788L121.50899934768677,17.549931679128967L123.43771362304688,17.718478758577525L125.36642789840698,17.891965592807786L127.29514217376709,18.070392181819734L129.2238564491272,18.25375852561337L131.1525707244873,18.44202051923529L133.0812849998474,18.635222267638916L135.00999927520752,18.833319665870825L136.93871355056763,19.036334766407712L138.86742782592773,19.24422346429619L140.79614210128784,19.456985759536245L142.72485637664795,19.674643704604584L144.65357065200806,19.897131142071096L146.58228492736816,20.124514229365893L148.51099920272827,20.356704756582154L150.43971347808838,20.593768881150005L152.3684277534485,20.835618393162612L154.2971420288086,21.08227534509668L156.22585630416873,21.333761789428937L158.1545705795288,21.59003362120595L160.08328485488892,21.851090840427734L162.01199913024902,22.116889342140887L163.94071340560913,22.38747323129879L165.86942768096924,22.662820455424757L167.79814195632935,22.942864857088672L169.72685623168945,23.227650541243936L171.65557050704956,23.51713340293715L173.58428478240967,23.811313442168334L175.51299905776978,24.110190658937444L177.44171333312988,24.413765053244507L179.37042760849,24.721948415182712L181.29914188385007,25.034806902182158L183.2278561592102,25.35229640928944L185.1565704345703,25.67441693650456L187.08528470993042,26.001124378874117L189.01399898529053,26.332418736398086L190.94271326065063,26.668300009076493L192.87142753601074,27.008746144432624L194.80014181137085,27.353735089989772L196.72885608673096,27.703288898224663L198.65757036209106,28.057319359230437L200.58628463745117,28.415870577960554L202.51499891281128,28.778898449461554L204.4437131881714,29.146425026210185L206.3724274635315,29.51838415077632L208.3011417388916,29.894797875636645L210.2298560142517,30.275622095837782L212.15857028961182,30.66085681137971L214.08728456497192,31.050502022262425L216.01599884033203,31.444513623532533L217.94471311569214,31.842869562713336L219.87342739105225,32.24559189228153L221.80214166641235,32.652636507283695L223.7308559417725,33.06398135524313L225.65957021713257,33.47960438368316L227.58828449249268,33.89950559260375L229.51699876785278,34.32364087705151L231.4457130432129,34.75203228950314L233.374427318573,35.18465777748192L235.3031415939331,35.621451183557774L237.2318558692932,36.062434560207365L239.16057014465332,36.50758585495404L241.08928442001343,36.956883015321026L243.01799869537354,37.410281936354984L244.94671297073364,37.867804670532564L246.87542724609375,38.329407112900405L248.80414152145383,38.795067210981756L250.73285579681396,39.264762912299965L252.66157007217407,39.738472164378265L254.59028434753418,40.216217019693424L256.5189986228943,40.69793132081529L258.4477128982544,41.18359301526717L260.3764271736145,41.673224155525766" fill="none"></path></g></g></g></g></g></g><g transform="translate(59, 177)" clip-path="url(#clip_1)"><clipPath id="clip_1"><rect width="270" height="22"></rect></clipPath><g><g><line x1="0" y1="0" x2="0" y2="5" style="visibility: inherit;" fill="rgb(0, 0, 0)" stroke="rgb(204, 204, 204)" stroke-width="1px"></line><line x1="19.287142753601074" y1="0" x2="19.287142753601074" y2="5" style="visibility: inherit;" fill="rgb(0, 0, 0)" stroke="rgb(204, 204, 204)" stroke-width="1px"></line><line x1="38.57428550720215" y1="0" x2="38.57428550720215" y2="5" style="visibility: inherit;" fill="rgb(0, 0, 0)" stroke="rgb(204, 204, 204)" stroke-width="1px"></line><line x1="57.86142826080322" y1="0" x2="57.86142826080322" y2="5" style="visibility: inherit;" fill="rgb(0, 0, 0)" stroke="rgb(204, 204, 204)" stroke-width="1px"></line><line x1="77.1485710144043" y1="0" x2="77.1485710144043" y2="5" style="visibility: inherit;" fill="rgb(0, 0, 0)" stroke="rgb(204, 204, 204)" stroke-width="1px"></line><line x1="96.43571376800537" y1="0" x2="96.43571376800537" y2="5" style="visibility: inherit;" fill="rgb(0, 0, 0)" stroke="rgb(204, 204, 204)" stroke-width="1px"></line><line x1="115.72285652160645" y1="0" x2="115.72285652160645" y2="5" style="visibility: inherit;" fill="rgb(0, 0, 0)" stroke="rgb(204, 204, 204)" stroke-width="1px"></line><line x1="135.00999927520752" y1="0" x2="135.00999927520752" y2="5" style="visibility: inherit;" fill="rgb(0, 0, 0)" stroke="rgb(204, 204, 204)" stroke-width="1px"></line><line x1="154.2971420288086" y1="0" x2="154.2971420288086" y2="5" style="visibility: inherit;" fill="rgb(0, 0, 0)" stroke="rgb(204, 204, 204)" stroke-width="1px"></line><line x1="173.58428478240967" y1="0" x2="173.58428478240967" y2="5" style="visibility: inherit;" fill="rgb(0, 0, 0)" stroke="rgb(204, 204, 204)" stroke-width="1px"></line><line x1="192.87142753601074" y1="0" x2="192.87142753601074" y2="5" style="visibility: inherit;" fill="rgb(0, 0, 0)" stroke="rgb(204, 204, 204)" stroke-width="1px"></line><line x1="212.15857028961182" y1="0" x2="212.15857028961182" y2="5" style="visibility: inherit;" fill="rgb(0, 0, 0)" stroke="rgb(204, 204, 204)" stroke-width="1px"></line><line x1="231.4457130432129" y1="0" x2="231.4457130432129" y2="5" style="visibility: inherit;" fill="rgb(0, 0, 0)" stroke="rgb(204, 204, 204)" stroke-width="1px"></line><line x1="250.73285579681396" y1="0" x2="250.73285579681396" y2="5" style="visibility: inherit;" fill="rgb(0, 0, 0)" stroke="rgb(204, 204, 204)" stroke-width="1px"></line><line x1="270.01999855041504" y1="0" x2="270.01999855041504" y2="5" style="visibility: inherit;" fill="rgb(0, 0, 0)" stroke="rgb(204, 204, 204)" stroke-width="1px"></line></g><g transform="translate(0, 8)"><text style="text-anchor: middle; visibility: hidden; font-family: Roboto, sans-serif; font-size: 12px; font-weight: 200;" x="0" y="0" dx="0em" dy="0.95em" fill="rgb(33, 33, 33)" stroke="none" stroke-width="1px">-1k</text><text style="text-anchor: middle; visibility: inherit; font-family: Roboto, sans-serif; font-size: 12px; font-weight: 200;" x="19.287142753601074" y="0" dx="0em" dy="0.95em" fill="rgb(33, 33, 33)" stroke="none" stroke-width="1px">0</text><text style="text-anchor: middle; visibility: hidden; font-family: Roboto, sans-serif; font-size: 12px; font-weight: 200;" x="38.57428550720215" y="0" dx="0em" dy="0.95em" fill="rgb(33, 33, 33)" stroke="none" stroke-width="1px">1k</text><text style="text-anchor: middle; visibility: inherit; font-family: Roboto, sans-serif; font-size: 12px; font-weight: 200;" x="57.86142826080322" y="0" dx="0em" dy="0.95em" fill="rgb(33, 33, 33)" stroke="none" stroke-width="1px">2k</text><text style="text-anchor: middle; visibility: hidden; font-family: Roboto, sans-serif; font-size: 12px; font-weight: 200;" x="77.1485710144043" y="0" dx="0em" dy="0.95em" fill="rgb(33, 33, 33)" stroke="none" stroke-width="1px">3k</text><text style="text-anchor: middle; visibility: inherit; font-family: Roboto, sans-serif; font-size: 12px; font-weight: 200;" x="96.43571376800537" y="0" dx="0em" dy="0.95em" fill="rgb(33, 33, 33)" stroke="none" stroke-width="1px">4k</text><text style="text-anchor: middle; visibility: hidden; font-family: Roboto, sans-serif; font-size: 12px; font-weight: 200;" x="115.72285652160645" y="0" dx="0em" dy="0.95em" fill="rgb(33, 33, 33)" stroke="none" stroke-width="1px">5k</text><text style="text-anchor: middle; visibility: inherit; font-family: Roboto, sans-serif; font-size: 12px; font-weight: 200;" x="135.00999927520752" y="0" dx="0em" dy="0.95em" fill="rgb(33, 33, 33)" stroke="none" stroke-width="1px">6k</text><text style="text-anchor: middle; visibility: hidden; font-family: Roboto, sans-serif; font-size: 12px; font-weight: 200;" x="154.2971420288086" y="0" dx="0em" dy="0.95em" fill="rgb(33, 33, 33)" stroke="none" stroke-width="1px">7k</text><text style="text-anchor: middle; visibility: inherit; font-family: Roboto, sans-serif; font-size: 12px; font-weight: 200;" x="173.58428478240967" y="0" dx="0em" dy="0.95em" fill="rgb(33, 33, 33)" stroke="none" stroke-width="1px">8k</text><text style="text-anchor: middle; visibility: hidden; font-family: Roboto, sans-serif; font-size: 12px; font-weight: 200;" x="192.87142753601074" y="0" dx="0em" dy="0.95em" fill="rgb(33, 33, 33)" stroke="none" stroke-width="1px">9k</text><text style="text-anchor: middle; visibility: inherit; font-family: Roboto, sans-serif; font-size: 12px; font-weight: 200;" x="212.15857028961182" y="0" dx="0em" dy="0.95em" fill="rgb(33, 33, 33)" stroke="none" stroke-width="1px">10k</text><text style="text-anchor: middle; visibility: hidden; font-family: Roboto, sans-serif; font-size: 12px; font-weight: 200;" x="231.4457130432129" y="0" dx="0em" dy="0.95em" fill="rgb(33, 33, 33)" stroke="none" stroke-width="1px">11k</text><text style="text-anchor: middle; visibility: inherit; font-family: Roboto, sans-serif; font-size: 12px; font-weight: 200;" x="250.73285579681396" y="0" dx="0em" dy="0.95em" fill="rgb(33, 33, 33)" stroke="none" stroke-width="1px">12k</text><text style="text-anchor: middle; visibility: hidden; font-family: Roboto, sans-serif; font-size: 12px; font-weight: 200;" x="270.01999855041504" y="0" dx="0em" dy="0.95em" fill="rgb(33, 33, 33)" stroke="none" stroke-width="1px">13k</text></g><line x1="0" y1="0" x2="270.01999855041504" y2="0" fill="rgb(0, 0, 0)" stroke="rgb(204, 204, 204)" stroke-width="1px"></line></g></g></g></g></svg>