<svg viewBox="0 0 330 200" xmlns="http://www.w3.org/2000/svg"><g><g><g><g><g><line x1="49.98400115966797" y1="177.58999919891357" x2="44.98400115966797" y2="177.58999919891357" style="visibility: inherit;" fill="rgb(0, 0, 0)" stroke="rgb(204, 204, 204)" stroke-width="1px"></line><line x1="49.98400115966797" y1="163.9292300297664" x2="44.98400115966797" y2="163.9292300297664" style="visibility: inherit;" fill="rgb(0, 0, 0)" stroke="rgb(204, 204, 204)" stroke-width="1px"></line><line x1="49.98400115966797" y1="150.26846086061917" x2="44.98400115966797" y2="150.26846086061917" style="visibility: inherit;" fill="rgb(0, 0, 0)" stroke="rgb(204, 204, 204)" stroke-width="1px"></line><line x1="49.98400115966797" y1="136.60769169147196" x2="44.98400115966797" y2="136.60769169147196" style="visibility: inherit;" fill="rgb(0, 0, 0)" stroke="rgb(204, 204, 204)" stroke-width="1px"></line><line x1="49.98400115966797" y1="122.94692252232478" x2="44.98400115966797" y2="122.94692252232478" style="visibility: inherit;" fill="rgb(0, 0, 0)" stroke="rgb(204, 204, 204)" stroke-width="1px"></line><line x1="49.98400115966797" y1="109.2861533531776" x2="44.98400115966797" y2="109.2861533531776" style="visibility: inherit;" fill="rgb(0, 0, 0)" stroke="rgb(204, 204, 204)" stroke-width="1px"></line><line x1="49.98400115966797" y1="95.6253841840304" x2="44.98400115966797" y2="95.6253841840304" style="visibility: inherit;" fill="rgb(0, 0, 0)" stroke="rgb(204, 204, 204)" stroke-width="1px"></line><line x1="49.98400115966797" y1="81.9646150148832" x2="44.98400115966797" y2="81.9646150148832" style="visibility: inherit;" fill="rgb(0, 0, 0)" stroke="rgb(204, 204, 204)" stroke-width="1px"></line><line x1="49.98400115966797" y1="68.303845845736" x2="44.98400115966797" y2="68.303845845736" style="visibility: inherit;" fill="rgb(0, 0, 0)" stroke="rgb(204, 204, 204)" stroke-width="1px"></line><line x1="49.98400115966797" y1="54.6430766765888" x2="44.98400115966797" y2="54.6430766765888" style="visibility: inherit;" fill="rgb(0, 0, 0)" stroke="rgb(204, 204, 204)" stroke-width="1px"></line><line x1="49.98400115966797" y1="40.982307507441604" x2="44.98400115966797" y2="40.982307507441604" style="visibility: inherit;" fill="rgb(0, 0, 0)" stroke="rgb(204, 204, 204)" stroke-width="1px"></line><line x1="49.98400115966797" y1="27.3215383382944" x2="44.98400115966797" y2="27.3215383382944" style="visibility: inherit;" fill="rgb(0, 0, 0)" stroke="rgb(204, 204, 204)" stroke-width="1px"></line><line x1="49.98400115966797" y1="13.660769169147189" x2="44.98400115966797" y2="13.660769169147189" style="visibility: inherit;" fill="rgb(0, 0, 0)" stroke="rgb(204, 204, 204)" stroke-width="1px"></line><line x1="49.98400115966797" y1="0" x2="44.98400115966797" y2="0" style="visibility: inherit;" fill="rgb(0, 0, 0)" stroke="rgb(204, 204, 204)" stroke-width="1px"></line></g><g transform="translate(39.98400115966797, 0)"><text style="text-anchor: end; visibility: hidden; font-family: Roboto, sans-serif; font-size: 12px; font-weight: 200;" x="0" y="177.58999919891357" dx="0em" dy="0.3em" fill="rgb(33, 33, 33)" stroke="none" stroke-width="1px">-0.1</text><text style="text-anchor: end; visibility: inherit; font-family: Roboto, sans-serif; font-size: 12px; font-weight: 200;" x="0" y="163.9292300297664" dx="0em" dy="0.3em" fill="rgb(33, 33, 33)" stroke="none" stroke-width="1px">0</text><text style="text-anchor: end; visibility: hidden; font-family: Roboto, sans-serif; font-size: 12px; font-weight: 200;" x="0" y="150.26846086061917" dx="0em" dy="0.3em" fill="rgb(33, 33, 33)" stroke="none" stroke-width="1px">0.1</text><text style="text-anchor: end; visibility: inherit; font-family: Roboto, sans-serif; font-size: 12px; font-weight: 200;" x="0" y="136.60769169147196" dx="0em" dy="0.3em" fill="rgb(33, 33, 33)" stroke="none" stroke-width="1px">0.2</text><text style="text-anchor: end; visibility: hidden; font-family: Roboto, sans-serif; font-size: 12px; font-weight: 200;" x="0" y="122.94692252232478" dx="0em" dy="0.3em" fill="rgb(33, 33, 33)" stroke="none" stroke-width="1px">0.3</text><text style="text-anchor: end; visibility: inherit; font-family: Roboto, sans-serif; font-size: 12px; font-weight: 200;" x="0" y="109.2861533531776" dx="0em" dy="0.3em" fill="rgb(33, 33, 33)" stroke="none" stroke-width="1px">0.4</text><text style="text-anchor: end; visibility: hidden; font-family: Roboto, sans-serif; font-size: 12px; font-weight: 200;" x="0" y="95.6253841840304" dx="0em" dy="0.3em" fill="rgb(33, 33, 33)" stroke="none" stroke-width="1px">0.5</text><text style="text-anchor: end; visibility: inherit; font-family: Roboto, sans-serif; font-size: 12px; font-weight: 200;" x="0" y="81.9646150148832" dx="0em" dy="0.3em" fill="rgb(33, 33, 33)" stroke="none" stroke-width="1px">0.6</text><text style="text-anchor: end; visibility: hidden; font-family: Roboto, sans-serif; font-size: 12px; font-weight: 200;" x="0" y="68.303845845736" dx="0em" dy="0.3em" fill="rgb(33, 33, 33)" stroke="none" stroke-width="1px">0.7</text><text style="text-anchor: end; visibility: inherit; font-family: Roboto, sans-serif; font-size: 12px; font-weight: 200;" x="0" y="54.6430766765888" dx="0em" dy="0.3em" fill="rgb(33, 33, 33)" stroke="none" stroke-width="1px">0.8</text><text style="text-anchor: end; visibility: hidden; font-family: Roboto, sans-serif; font-size: 12px; font-weight: 200;" x="0" y="40.982307507441604" dx="0em" dy="0.3em" fill="rgb(33, 33, 33)" stroke="none" stroke-width="1px">0.9</text><text style="text-anchor: end; visibility: inherit; font-family: Roboto, sans-serif; font-size: 12px; font-weight: 200;" x="0" y="27.3215383382944" dx="0em" dy="0.3em" fill="rgb(33, 33, 33)" stroke="none" stroke-width="1px">1</text><text style="text-anchor: end; visibility: hidden; font-family: Roboto, sans-serif; font-size: 12px; font-weight: 200;" x="0" y="13.660769169147189" dx="0em" dy="0.3em" fill="rgb(33, 33, 33)" stroke="none" stroke-width="1px">1.1</text><text style="text-anchor: end; visibility: hidden; font-family: Roboto, sans-serif; font-size: 12px; font-weight: 200;" x="0" y="0" dx="0em" dy="0.3em" fill="rgb(33, 33, 33)" stroke="none" stroke-width="1px">1.2</text></g><line x1="49.98400115966797" y1="0" x2="49.98400115966797" y2="177.58999919891357" fill="rgb(0, 0, 0)" stroke="rgb(204, 204, 204)" stroke-width="1px"></line></g></g><g transform="translate(49, 0)" clip-path="url(#clip_0)"><clipPath id="clip_0"><rect width="280" height="177"></rect></clipPath><g><g><g><line x1="0" y1="0" x2="0" y2="177.58999919891357" fill="rgb(0, 0, 0)" stroke="rgb(66, 66, 66)" stroke-width="1px" opacity="0.25"></line><line x1="20.00114277430943" y1="0" x2="20.00114277430943" y2="177.58999919891357" fill="rgb(0, 0, 0)" stroke="rgb(66, 66, 66)" stroke-width="1px" opacity="0.25"></line><line x1="40.00228554861886" y1="0" x2="40.00228554861886" y2="177.58999919891357" fill="rgb(0, 0, 0)" stroke="rgb(66, 66, 66)" stroke-width="1px" opacity="0.25"></line><line x1="60.003428322928286" y1="0" x2="60.003428322928286" y2="177.58999919891357" fill="rgb(0, 0, 0)" stroke="rgb(66, 66, 66)" stroke-width="1px" opacity="0.25"></line><line x1="80.00457109723772" y1="0" x2="80.00457109723772" y2="177.58999919891357" fill="rgb(0, 0, 0)" stroke="rgb(66, 66, 66)" stroke-width="1px" opacity="0.25"></line><line x1="100.00571387154716" y1="0" x2="100.00571387154716" y2="177.58999919891357" fill="rgb(0, 0, 0)" stroke="rgb(66, 66, 66)" stroke-width="1px" opacity="0.25"></line><line x1="120.00685664585657" y1="0" x2="120.00685664585657" y2="177.58999919891357" fill="rgb(0, 0, 0)" stroke="rgb(66, 66, 66)" stroke-width="1px" opacity="0.25"></line><line x1="140.00799942016602" y1="0" x2="140.00799942016602" y2="177.58999919891357" fill="rgb(0, 0, 0)" stroke="rgb(66, 66, 66)" stroke-width="1px" opacity="0.25"></line><line x1="160.00914219447543" y1="0" x2="160.00914219447543" y2="177.58999919891357" fill="rgb(0, 0, 0)" stroke="rgb(66, 66, 66)" stroke-width="1px" opacity="0.25"></line><line x1="180.0102849687849" y1="0" x2="180.0102849687849" y2="177.58999919891357" fill="rgb(0, 0, 0)" stroke="rgb(66, 66, 66)" stroke-width="1px" opacity="0.25"></line><line x1="200.01142774309432" y1="0" x2="200.01142774309432" y2="177.58999919891357" fill="rgb(0, 0, 0)" stroke="rgb(66, 66, 66)" stroke-width="1px" opacity="0.25"></line><line x1="220.01257051740373" y1="0" x2="220.01257051740373" y2="177.58999919891357" fill="rgb(0, 0, 0)" stroke="rgb(66, 66, 66)" stroke-width="1px" opacity="0.25"></line><line x1="240.01371329171315" y1="0" x2="240.01371329171315" y2="177.58999919891357" fill="rgb(0, 0, 0)" stroke="rgb(66, 66, 66)" stroke-width="1px" opacity="0.25"></line><line x1="260.0148560660226" y1="0" x2="260.0148560660226" y2="177.58999919891357" fill="rgb(0, 0, 0)" stroke="rgb(66, 66, 66)" stroke-width="1px" opacity="0.25"></line><line x1="280.01599884033203" y1="0" x2="280.01599884033203" y2="177.58999919891357" fill="rgb(0, 0, 0)" stroke="rgb(66, 66, 66)" stroke-width="1px" opacity="0.25"></line></g><g><line x1="0" y1="177.58999919891357" x2="280.01599884033203" y2="177.58999919891357" fill="rgb(0, 0, 0)" stroke="rgb(66, 66, 66)" stroke-width="1px" opacity="0.25"></line><line x1="0" y1="163.9292300297664" x2="280.01599884033203" y2="163.9292300297664" fill="rgb(0, 0, 0)" stroke="rgb(66, 66, 66)" stroke-width="1px" opacity="0.25"></line><line x1="0" y1="150.26846086061917" x2="280.01599884033203" y2="150.26846086061917" fill="rgb(0, 0, 0)" stroke="rgb(66, 66, 66)" stroke-width="1px" opacity="0.25"></line><line x1="0" y1="136.60769169147196" x2="280.01599884033203" y2="136.60769169147196" fill="rgb(0, 0, 0)" stroke="rgb(66, 66, 66)" stroke-width="1px" opacity="0.25"></line><line x1="0" y1="122.94692252232478" x2="280.01599884033203" y2="122.94692252232478" fill="rgb(0, 0, 0)" stroke="rgb(66, 66, 66)" stroke-width="1px" opacity="0.25"></line><line x1="0" y1="109.2861533531776" x2="280.01599884033203" y2="109.2861533531776" fill="rgb(0, 0, 0)" stroke="rgb(66, 66, 66)" stroke-width="1px" opacity="0.25"></line><line x1="0" y1="95.6253841840304" x2="280.01599884033203" y2="95.6253841840304" fill="rgb(0, 0, 0)" stroke="rgb(66, 66, 66)" stroke-width="1px" opacity="0.25"></line><line x1="0" y1="81.9646150148832" x2="280.01599884033203" y2="81.9646150148832" fill="rgb(0, 0, 0)" stroke="rgb(66, 66, 66)" stroke-width="1px" opacity="0.25"></line><line x1="0" y1="68.303845845736" x2="280.01599884033203" y2="68.303845845736" fill="rgb(0, 0, 0)" stroke="rgb(66, 66, 66)" stroke-width="1px" opacity="0.25"></line><line x1="0" y1="54.6430766765888" x2="280.01599884033203" y2="54.6430766765888" fill="rgb(0, 0, 0)" stroke="rgb(66, 66, 66)" stroke-width="1px" opacity="0.25"></line><line x1="0" y1="40.982307507441604" x2="280.01599884033203" y2="40.982307507441604" fill="rgb(0, 0, 0)" stroke="rgb(66, 66, 66)" stroke-width="1px" opacity="0.25"></line><line x1="0" y1="27.3215383382944" x2="280.01599884033203" y2="27.3215383382944" fill="rgb(0, 0, 0)" stroke="rgb(66, 66, 66)" stroke-width="1px" opacity="0.25"></line><line x1="0" y1="13.660769169147189" x2="280.01599884033203" y2="13.660769169147189" fill="rgb(0, 0, 0)" stroke="rgb(66, 66, 66)" stroke-width="1px" opacity="0.25"></line><line x1="0" y1="0" x2="280.01599884033203" y2="0" fill="rgb(0, 0, 0)" stroke="rgb(66, 66, 66)" stroke-width="1px" opacity="0.25"></line></g></g></g><g><g><line x1="0" y1="163.9292300297664" x2="280.01599884033203" y2="163.9292300297664" fill="rgb(0, 0, 0)" stroke="rgb(153, 153, 153)" stroke-width="1.5px"></line></g></g><g><g><line x1="20.00114277430943" y1="0" x2="20.00114277430943" y2="177.58999919891357" fill="rgb(0, 0, 0)" stroke="rgb(153, 153, 153)" stroke-width="1.5px"></line></g></g><g><g><g><g><g><path style="fill: none;" stroke="rgb(255, 112, 67)" stroke-width="2px" d="M22.001257051740374,14.315093430171794L24.001371329171317,28.746044194691542L26.001485606602262,41.44570756523728L28.001599884033205,56.77828993979772L30.001714161464143,69.53350677682599L32.00182843889509,82.26836525246544L34.001942716326035,87.65015642080301L36.00205699375697,92.49879613537131L38.00217127118792,98.941492137886L40.00228554861886,107.43406239683472L42.0023998260498,111.10075489312577L44.00251410348075,114.7754079628462L46.00262838091169,121.75326250186511L48.00274265834263,124.92958499027857L50.00285693577358,127.4101089935783L52.002971213204525,129.05991285251363L54.00308549063546,133.35047470729182L56.00319976806641,135.11832349383084L58.003314045497355,135.809986069276L60.003428322928286,137.47610330496892L62.00354260035923,139.69904046919433L64.00365687779018,139.55997704123808L66.00377115522112,140.1521736664852L68.00388543265207,141.54547718236566L70.00399971008301,140.9232369377785L72.00411398751395,143.44070252114741L74.0042282649449,144.86625243749236L76.00434254237584,146.94236470135357L78.00445681980678,147.12190203258731L80.00457109723772,147.06450436362556L82.00468537466867,147.99316296682056L84.0047996520996,148.45646293926472L86.00491392953056,148.2635175970798L88.0050282069615,148.71079044919205L90.00514248439245,149.3477349115829L92.00525676182338,148.20588719967458L94.00537103925431,148.4494188293003L96.00548531668527,149.6792136145201L98.0055995941162,150.13346279045746L100.00571387154716,149.98929987402593L102.0058281489781,150.38310384592043L104.00594242640905,151.04568720242779L106.00605670383997,151.64488791302614L108.00617098127093,151.55478860198565L110.00628525870187,152.40489548815916L112.00639953613282,153.14563205454104L114.00651381356376,152.16969229030286L116.00662809099471,152.7432648259093L118.00674236842565,152.17552527191063L120.00685664585657,116.88846976336356L122.00697092328753,123.94394838419186L124.00708520071846,130.22653706851915L126.00719947814942,137.21594756817692L128.00731375558036,142.50055920334168L130.0074280330113,145.70915968488546L132.00754231044223,147.97440051302982L134.00765658787319,148.08349772165298L136.00777086530414,149.80894042079018L138.0078851427351,144.10401622112502L140.00799942016602,146.5368830149728L142.00811369759694,147.40347913502077L144.0082279750279,149.75554286515424L146.00834225245885,150.59594100504867L148.0084565298898,151.96989116495416L150.00857080732072,152.44021112229706L152.00868508475168,152.6238452178645L154.00879936218263,153.43993156133925L156.00891363961355,153.1510801851501L158.0090279170445,153.27033502166552L160.00914219447543,151.825737945128L162.0092564719064,152.15907507431376L164.00937074933734,152.18771698703318L166.0094850267683,152.4014031371447L168.0095993041992,152.9228814618918L170.00971358163014,153.73406418473004L172.00982785906112,154.53271851865162L174.00994213649204,154.2449404999477L176.010056413923,154.22897112426864L178.01017069135392,154.20339527855737L180.0102849687849,154.33396252775904L182.01039924621583,154.2073060394059L184.01051352364675,155.0349652374301L186.0106278010777,155.57446252652366L188.01074207850863,155.31076760209615L190.0108563559396,150.86471783173997L192.01097063337053,151.81381207883993L194.0110849108015,149.8628366458743L196.0111991882324,152.0628299573727L198.01131346566336,153.8879208240254L200.01142774309432,155.13792500203743L202.01154202052524,156.19766336514283L204.0116562979562,156.5552773412244L206.01177057538715,156.44002752821305L208.0118848528181,156.96150735977096L210.01199913024902,156.84796482033636L212.01211340767995,157.19650571260573L214.0122276851109,157.05173624090202L216.01234196254185,156.3909409382621L218.0124562399728,156.8755172660267L220.01257051740373,157.091805419611L222.01268479483468,157.1997946038583L224.01279907226564,156.77626444852842L226.01291334969656,157.09012458487015L228.0130276271275,156.76686439438384L230.01314190455844,156.50922981977672L232.01325618198942,157.348861713367L234.01337045942034,157.28503269446745L236.0134847368513,157.49829168470148L238.01359901428222,157.3016296684337L240.01371329171315,157.59297901297418L242.01382756914413,157.53379772828413L244.01394184657505,147.0739618290935L246.014056124006,147.6316082171187L248.01417040143693,149.21777411934858L250.0142846788679,151.17716735124594L252.01439895629883,153.3207844059189L254.01451323372976,154.4587251506723L256.0146275111607,155.16841322884406L258.01474178859166,156.09133483766027L260.0148560660226,156.45430483804506L262.01497034345357,157.29097819753915L264.01508462088447,147.21397982750258L266.0151988983154,148.59265809265352L268.01531317574637,149.76837628673414L270.0154274531773,152.58041529879836L272.0155417306083,154.221489318404" fill="none"></path></g></g></g></g><g opacity="0.2"><g><g><g><path style="fill: none;" stroke="rgb(255, 112, 67)" stroke-width="2px" d="M22.001257051740374,14.315093430171794L24.001371329171317,37.40461465340336L26.001485606602262,53.637384400961224L28.001599884033205,74.80940681228076L30.001714161464143,86.18671787925011L32.00182843889509,99.8852590733261L34.001942716326035,95.3462039001844L36.00205699375697,99.56815938615316L38.00217127118792,108.44321731232364L40.00228554861886,120.04453947326533L42.0023998260498,116.56753700648954L44.00251410348075,120.26739026769414L46.00262838091169,132.19726040463794L48.00274265834263,129.68784597648113L50.00285693577358,131.12797923567734L52.002971213204525,131.53345507141367L54.00308549063546,139.78450186747554L56.00319976806641,137.769647817024L58.003314045497355,136.84737456461187L60.003428322928286,139.97512686879352L62.00354260035923,143.03332430437536L64.00365687779018,139.35138647524508L66.00377115522112,141.04045691246654L68.00388543265207,143.63541595117795L70.00399971008301,139.9898809935151L72.00411398751395,147.21689016036004L74.0042282649449,147.00457366441827L76.00434254237584,150.05652990982398L78.00445681980678,147.3912078640587L80.00457109723772,146.97840789190568L82.00468537466867,149.3861505636598L84.0047996520996,149.1514128057498L86.00491392953056,147.97409960683623L88.0050282069615,149.3816996953232L90.00514248439245,150.30315157779532L92.00525676182338,146.4931156612558L94.00537103925431,148.81471626997111L96.00548531668527,151.52390578093363L98.0055995941162,150.8148365518334L100.00571387154716,149.77305549986042L102.0058281489781,150.9738098029726L104.00594242640905,152.03956223639167L106.00605670383997,152.5436889784911L108.00617098127093,151.41963963546397L110.00628525870187,153.68005581719845L112.00639953613282,154.25673690399836L114.00651381356376,150.70578264403684L116.00662809099471,153.60362362928683L118.00674236842565,151.32391594093167L120.00685664585657,63.95788650125599L122.00697092328753,134.5271663153488L124.00708520071846,139.65042009496435L126.00719947814942,147.7000633176331L128.00731375558036,150.42747665607496L130.0074280330113,150.5220604071961L132.00754231044223,151.37226175524427L134.00765658787319,148.24714353458768L136.00777086530414,152.39710446949533L138.0078851427351,135.5466299216285L140.00799942016602,150.18618320574416L142.00811369759694,148.70337331509268L144.0082279750279,153.28363846035438L146.00834225245885,151.85653821489026L148.0084565298898,154.03081640481236L150.00857080732072,153.1456910583114L152.00868508475168,152.89929636121568L154.00879936218263,154.66406107655138L156.00891363961355,152.71780312086636L158.0090279170445,153.4492172764386L160.00914219447543,149.65884233032173L162.0092564719064,152.6590807680924L164.00937074933734,152.23067985611235L166.0094850267683,152.72193236231197L168.0095993041992,153.70509894901238L170.00971358163014,154.95083826898747L172.00982785906112,155.73070001953397L174.00994213649204,153.81327347189176L176.010056413923,154.2050170607501L178.01017069135392,154.16503150999043L180.0102849687849,154.52981340156157L182.01039924621583,154.01732130687614L184.01051352364675,156.27645403446647L186.0106278010777,156.38370846016397L188.01074207850863,154.9152252154549L190.0108563559396,144.1956431762057L192.01097063337053,153.23745344948992L194.0110849108015,146.93637349642577L196.0111991882324,155.36281992462037L198.01131346566336,156.62555712400442L200.01142774309432,157.01293126905549L202.01154202052524,157.7872709098009L204.0116562979562,157.0916983053468L206.01177057538715,156.26715280869604L208.0118848528181,157.74372710710782L210.01199913024902,156.67765101118448L212.01211340767995,157.71931705100974L214.0122276851109,156.83458203334646L216.01234196254185,155.39974798430222L218.0124562399728,157.60238175767364L220.01257051740373,157.41623764998747L222.01268479483468,157.36177838022923L224.01279907226564,156.14096921553357L226.01291334969656,157.56091478938276L228.0130276271275,156.28197410865434L230.01314190455844,156.12277795786602L232.01325618198942,158.6083095537524L234.01337045942034,157.18928916611816L236.0134847368513,157.8181801700525L238.01359901428222,157.006636644032L240.01371329171315,158.03000302978498L242.01382756914413,157.44502580124902L244.01394184657505,131.38420798030756L246.014056124006,148.4680777991565L248.01417040143693,151.59702297269337L250.0142846788679,154.11625719909205L252.01439895629883,156.5362099879283L254.01451323372976,156.16563626780248L256.0146275111607,156.2329453461017L258.01474178859166,157.47571725088457L260.0148560660226,156.9987598386222L262.01497034345357,158.54598823678032L264.01508462088447,132.0984822724477L266.0151988983154,150.6606754903799L268.01531317574637,151.53195357785512L270.0154274531773,156.79847381689464L272.0155417306083,156.68310034781248" fill="none"></path></g></g></g></g></g></g><g transform="translate(49, 177)" clip-path="url(#clip_1)"><clipPath id="clip_1"><rect width="280" height="22"></rect></clipPath><g><g><line x1="0" y1="0" x2="0" y2="5" style="visibility: inherit;" fill="rgb(0, 0, 0)" stroke="rgb(204, 204, 204)" stroke-width="1px"></line><line x1="20.00114277430943" y1="0" x2="20.00114277430943" y2="5" style="visibility: inherit;" fill="rgb(0, 0, 0)" stroke="rgb(204, 204, 204)" stroke-width="1px"></line><line x1="40.00228554861886" y1="0" x2="40.00228554861886" y2="5" style="visibility: inherit;" fill="rgb(0, 0, 0)" stroke="rgb(204, 204, 204)" stroke-width="1px"></line><line x1="60.003428322928286" y1="0" x2="60.003428322928286" y2="5" style="visibility: inherit;" fill="rgb(0, 0, 0)" stroke="rgb(204, 204, 204)" stroke-width="1px"></line><line x1="80.00457109723772" y1="0" x2="80.00457109723772" y2="5" style="visibility: inherit;" fill="rgb(0, 0, 0)" stroke="rgb(204, 204, 204)" stroke-width="1px"></line><line x1="100.00571387154716" y1="0" x2="100.00571387154716" y2="5" style="visibility: inherit;" fill="rgb(0, 0, 0)" stroke="rgb(204, 204, 204)" stroke-width="1px"></line><line x1="120.00685664585657" y1="0" x2="120.00685664585657" y2="5" style="visibility: inherit;" fill="rgb(0, 0, 0)" stroke="rgb(204, 204, 204)" stroke-width="1px"></line><line x1="140.00799942016602" y1="0" x2="140.00799942016602" y2="5" style="visibility: inherit;" fill="rgb(0, 0, 0)" stroke="rgb(204, 204, 204)" stroke-width="1px"></line><line x1="160.00914219447543" y1="0" x2="160.00914219447543" y2="5" style="visibility: inherit;" fill="rgb(0, 0, 0)" stroke="rgb(204, 204, 204)" stroke-width="1px"></line><line x1="180.0102849687849" y1="0" x2="180.0102849687849" y2="5" style="visibility: inherit;" fill="rgb(0, 0, 0)" stroke="rgb(204, 204, 204)" stroke-width="1px"></line><line x1="200.01142774309432" y1="0" x2="200.01142774309432" y2="5" style="visibility: inherit;" fill="rgb(0, 0, 0)" stroke="rgb(204, 204, 204)" stroke-width="1px"></line><line x1="220.01257051740373" y1="0" x2="220.01257051740373" y2="5" style="visibility: inherit;" fill="rgb(0, 0, 0)" stroke="rgb(204, 204, 204)" stroke-width="1px"></line><line x1="240.01371329171315" y1="0" x2="240.01371329171315" y2="5" style="visibility: inherit;" fill="rgb(0, 0, 0)" stroke="rgb(204, 204, 204)" stroke-width="1px"></line><line x1="260.0148560660226" y1="0" x2="260.0148560660226" y2="5" style="visibility: inherit;" fill="rgb(0, 0, 0)" stroke="rgb(204, 204, 204)" stroke-width="1px"></line><line x1="280.01599884033203" y1="0" x2="280.01599884033203" y2="5" style="visibility: inherit;" fill="rgb(0, 0, 0)" stroke="rgb(204, 204, 204)" stroke-width="1px"></line></g><g transform="translate(0, 8)"><text style="text-anchor: middle; visibility: hidden; font-family: Roboto, sans-serif; font-size: 12px; font-weight: 200;" x="0" y="0" dx="0em" dy="0.95em" fill="rgb(33, 33, 33)" stroke="none" stroke-width="1px">-1k</text><text style="text-anchor: middle; visibility: inherit; font-family: Roboto, sans-serif; font-size: 12px; font-weight: 200;" x="20.00114277430943" y="0" dx="0em" dy="0.95em" fill="rgb(33, 33, 33)" stroke="none" stroke-width="1px">0</text><text style="text-anchor: middle; visibility: hidden; font-family: Roboto, sans-serif; font-size: 12px; font-weight: 200;" x="40.00228554861886" y="0" dx="0em" dy="0.95em" fill="rgb(33, 33, 33)" stroke="none" stroke-width="1px">1k</text><text style="text-anchor: middle; visibility: inherit; font-family: Roboto, sans-serif; font-size: 12px; font-weight: 200;" x="60.003428322928286" y="0" dx="0em" dy="0.95em" fill="rgb(33, 33, 33)" stroke="none" stroke-width="1px">2k</text><text style="text-anchor: middle; visibility: hidden; font-family: Roboto, sans-serif; font-size: 12px; font-weight: 200;" x="80.00457109723772" y="0" dx="0em" dy="0.95em" fill="rgb(33, 33, 33)" stroke="none" stroke-width="1px">3k</text><text style="text-anchor: middle; visibility: inherit; font-family: Roboto, sans-serif; font-size: 12px; font-weight: 200;" x="100.00571387154716" y="0" dx="0em" dy="0.95em" fill="rgb(33, 33, 33)" stroke="none" stroke-width="1px">4k</text><text style="text-anchor: middle; visibility: hidden; font-family: Roboto, sans-serif; font-size: 12px; font-weight: 200;" x="120.00685664585657" y="0" dx="0em" dy="0.95em" fill="rgb(33, 33, 33)" stroke="none" stroke-width="1px">5k</text><text style="text-anchor: middle; visibility: inherit; font-family: Roboto, sans-serif; font-size: 12px; font-weight: 200;" x="140.00799942016602" y="0" dx="0em" dy="0.95em" fill="rgb(33, 33, 33)" stroke="none" stroke-width="1px">6k</text><text style="text-anchor: middle; visibility: hidden; font-family: Roboto, sans-serif; font-size: 12px; font-weight: 200;" x="160.00914219447543" y="0" dx="0em" dy="0.95em" fill="rgb(33, 33, 33)" stroke="none" stroke-width="1px">7k</text><text style="text-anchor: middle; visibility: inherit; font-family: Roboto, sans-serif; font-size: 12px; font-weight: 200;" x="180.0102849687849" y="0" dx="0em" dy="0.95em" fill="rgb(33, 33, 33)" stroke="none" stroke-width="1px">8k</text><text style="text-anchor: middle; visibility: hidden; font-family: Roboto, sans-serif; font-size: 12px; font-weight: 200;" x="200.01142774309432" y="0" dx="0em" dy="0.95em" fill="rgb(33, 33, 33)" stroke="none" stroke-width="1px">9k</text><text style="text-anchor: middle; visibility: inherit; font-family: Roboto, sans-serif; font-size: 12px; font-weight: 200;" x="220.01257051740373" y="0" dx="0em" dy="0.95em" fill="rgb(33, 33, 33)" stroke="none" stroke-width="1px">10k</text><text style="text-anchor: middle; visibility: hidden; font-family: Roboto, sans-serif; font-size: 12px; font-weight: 200;" x="240.01371329171315" y="0" dx="0em" dy="0.95em" fill="rgb(33, 33, 33)" stroke="none" stroke-width="1px">11k</text><text style="text-anchor: middle; visibility: inherit; font-family: Roboto, sans-serif; font-size: 12px; font-weight: 200;" x="260.0148560660226" y="0" dx="0em" dy="0.95em" fill="rgb(33, 33, 33)" stroke="none" stroke-width="1px">12k</text><text style="text-anchor: middle; visibility: hidden; font-family: Roboto, sans-serif; font-size: 12px; font-weight: 200;" x="280.01599884033203" y="0" dx="0em" dy="0.95em" fill="rgb(33, 33, 33)" stroke="none" stroke-width="1px">13k</text></g><line x1="0" y1="0" x2="280.01599884033203" y2="0" fill="rgb(0, 0, 0)" stroke="rgb(204, 204, 204)" stroke-width="1px"></line></g></g></g></g></svg>