<svg viewBox="0 0 330 200" xmlns="http://www.w3.org/2000/svg"><g><g><g><g><g><line x1="69.97600173950195" y1="177.58999919891357" x2="64.97600173950195" y2="177.58999919891357" style="visibility: inherit;" fill="rgb(0, 0, 0)" stroke="rgb(204, 204, 204)" stroke-width="1px"></line><line x1="69.97600173950195" y1="159.8309992790222" x2="64.97600173950195" y2="159.8309992790222" style="visibility: inherit;" fill="rgb(0, 0, 0)" stroke="rgb(204, 204, 204)" stroke-width="1px"></line><line x1="69.97600173950195" y1="142.0719993591308" x2="64.97600173950195" y2="142.0719993591308" style="visibility: inherit;" fill="rgb(0, 0, 0)" stroke="rgb(204, 204, 204)" stroke-width="1px"></line><line x1="69.97600173950195" y1="124.31299943923959" x2="64.97600173950195" y2="124.31299943923959" style="visibility: inherit;" fill="rgb(0, 0, 0)" stroke="rgb(204, 204, 204)" stroke-width="1px"></line><line x1="69.97600173950195" y1="106.55399951934822" x2="64.97600173950195" y2="106.55399951934822" style="visibility: inherit;" fill="rgb(0, 0, 0)" stroke="rgb(204, 204, 204)" stroke-width="1px"></line><line x1="69.97600173950195" y1="88.79499959945684" x2="64.97600173950195" y2="88.79499959945684" style="visibility: inherit;" fill="rgb(0, 0, 0)" stroke="rgb(204, 204, 204)" stroke-width="1px"></line><line x1="69.97600173950195" y1="71.03599967956548" x2="64.97600173950195" y2="71.03599967956548" style="visibility: inherit;" fill="rgb(0, 0, 0)" stroke="rgb(204, 204, 204)" stroke-width="1px"></line><line x1="69.97600173950195" y1="53.2769997596741" x2="64.97600173950195" y2="53.2769997596741" style="visibility: inherit;" fill="rgb(0, 0, 0)" stroke="rgb(204, 204, 204)" stroke-width="1px"></line><line x1="69.97600173950195" y1="35.517999839782746" x2="64.97600173950195" y2="35.517999839782746" style="visibility: inherit;" fill="rgb(0, 0, 0)" stroke="rgb(204, 204, 204)" stroke-width="1px"></line><line x1="69.97600173950195" y1="17.758999919891373" x2="64.97600173950195" y2="17.758999919891373" style="visibility: inherit;" fill="rgb(0, 0, 0)" stroke="rgb(204, 204, 204)" stroke-width="1px"></line><line x1="69.97600173950195" y1="0" x2="64.97600173950195" y2="0" style="visibility: inherit;" fill="rgb(0, 0, 0)" stroke="rgb(204, 204, 204)" stroke-width="1px"></line></g><g transform="translate(59.97600173950195, 0)"><text style="text-anchor: end; visibility: hidden; font-family: Roboto, sans-serif; font-size: 12px; font-weight: 200;" x="0" y="177.58999919891357" dx="0em" dy="0.3em" fill="rgb(33, 33, 33)" stroke="none" stroke-width="1px">0.028</text><text style="text-anchor: end; visibility: inherit; font-family: Roboto, sans-serif; font-size: 12px; font-weight: 200;" x="0" y="159.8309992790222" dx="0em" dy="0.3em" fill="rgb(33, 33, 33)" stroke="none" stroke-width="1px">0.0285</text><text style="text-anchor: end; visibility: hidden; font-family: Roboto, sans-serif; font-size: 12px; font-weight: 200;" x="0" y="142.0719993591308" dx="0em" dy="0.3em" fill="rgb(33, 33, 33)" stroke="none" stroke-width="1px">0.029</text><text style="text-anchor: end; visibility: inherit; font-family: Roboto, sans-serif; font-size: 12px; font-weight: 200;" x="0" y="124.31299943923959" dx="0em" dy="0.3em" fill="rgb(33, 33, 33)" stroke="none" stroke-width="1px">0.0295</text><text style="text-anchor: end; visibility: hidden; font-family: Roboto, sans-serif; font-size: 12px; font-weight: 200;" x="0" y="106.55399951934822" dx="0em" dy="0.3em" fill="rgb(33, 33, 33)" stroke="none" stroke-width="1px">0.03</text><text style="text-anchor: end; visibility: inherit; font-family: Roboto, sans-serif; font-size: 12px; font-weight: 200;" x="0" y="88.79499959945684" dx="0em" dy="0.3em" fill="rgb(33, 33, 33)" stroke="none" stroke-width="1px">0.0305</text><text style="text-anchor: end; visibility: hidden; font-family: Roboto, sans-serif; font-size: 12px; font-weight: 200;" x="0" y="71.03599967956548" dx="0em" dy="0.3em" fill="rgb(33, 33, 33)" stroke="none" stroke-width="1px">0.031</text><text style="text-anchor: end; visibility: inherit; font-family: Roboto, sans-serif; font-size: 12px; font-weight: 200;" x="0" y="53.2769997596741" dx="0em" dy="0.3em" fill="rgb(33, 33, 33)" stroke="none" stroke-width="1px">0.0315</text><text style="text-anchor: end; visibility: hidden; font-family: Roboto, sans-serif; font-size: 12px; font-weight: 200;" x="0" y="35.517999839782746" dx="0em" dy="0.3em" fill="rgb(33, 33, 33)" stroke="none" stroke-width="1px">0.032</text><text style="text-anchor: end; visibility: inherit; font-family: Roboto, sans-serif; font-size: 12px; font-weight: 200;" x="0" y="17.758999919891373" dx="0em" dy="0.3em" fill="rgb(33, 33, 33)" stroke="none" stroke-width="1px">0.0325</text><text style="text-anchor: end; visibility: hidden; font-family: Roboto, sans-serif; font-size: 12px; font-weight: 200;" x="0" y="0" dx="0em" dy="0.3em" fill="rgb(33, 33, 33)" stroke="none" stroke-width="1px">0.033</text></g><line x1="69.97600173950195" y1="0" x2="69.97600173950195" y2="177.58999919891357" fill="rgb(0, 0, 0)" stroke="rgb(204, 204, 204)" stroke-width="1px"></line></g></g><g transform="translate(69, 0)" clip-path="url(#clip_0)"><clipPath id="clip_0"><rect width="260" height="177"></rect></clipPath><g><g><g><line x1="0" y1="0" x2="0" y2="177.58999919891357" fill="rgb(0, 0, 0)" stroke="rgb(66, 66, 66)" stroke-width="1px" opacity="0.25"></line><line x1="18.573142732892716" y1="0" x2="18.573142732892716" y2="177.58999919891357" fill="rgb(0, 0, 0)" stroke="rgb(66, 66, 66)" stroke-width="1px" opacity="0.25"></line><line x1="37.14628546578543" y1="0" x2="37.14628546578543" y2="177.58999919891357" fill="rgb(0, 0, 0)" stroke="rgb(66, 66, 66)" stroke-width="1px" opacity="0.25"></line><line x1="55.71942819867815" y1="0" x2="55.71942819867815" y2="177.58999919891357" fill="rgb(0, 0, 0)" stroke="rgb(66, 66, 66)" stroke-width="1px" opacity="0.25"></line><line x1="74.29257093157086" y1="0" x2="74.29257093157086" y2="177.58999919891357" fill="rgb(0, 0, 0)" stroke="rgb(66, 66, 66)" stroke-width="1px" opacity="0.25"></line><line x1="92.86571366446358" y1="0" x2="92.86571366446358" y2="177.58999919891357" fill="rgb(0, 0, 0)" stroke="rgb(66, 66, 66)" stroke-width="1px" opacity="0.25"></line><line x1="111.4388563973563" y1="0" x2="111.4388563973563" y2="177.58999919891357" fill="rgb(0, 0, 0)" stroke="rgb(66, 66, 66)" stroke-width="1px" opacity="0.25"></line><line x1="130.01199913024902" y1="0" x2="130.01199913024902" y2="177.58999919891357" fill="rgb(0, 0, 0)" stroke="rgb(66, 66, 66)" stroke-width="1px" opacity="0.25"></line><line x1="148.58514186314173" y1="0" x2="148.58514186314173" y2="177.58999919891357" fill="rgb(0, 0, 0)" stroke="rgb(66, 66, 66)" stroke-width="1px" opacity="0.25"></line><line x1="167.15828459603446" y1="0" x2="167.15828459603446" y2="177.58999919891357" fill="rgb(0, 0, 0)" stroke="rgb(66, 66, 66)" stroke-width="1px" opacity="0.25"></line><line x1="185.73142732892717" y1="0" x2="185.73142732892717" y2="177.58999919891357" fill="rgb(0, 0, 0)" stroke="rgb(66, 66, 66)" stroke-width="1px" opacity="0.25"></line><line x1="204.3045700618199" y1="0" x2="204.3045700618199" y2="177.58999919891357" fill="rgb(0, 0, 0)" stroke="rgb(66, 66, 66)" stroke-width="1px" opacity="0.25"></line><line x1="222.8777127947126" y1="0" x2="222.8777127947126" y2="177.58999919891357" fill="rgb(0, 0, 0)" stroke="rgb(66, 66, 66)" stroke-width="1px" opacity="0.25"></line><line x1="241.45085552760534" y1="0" x2="241.45085552760534" y2="177.58999919891357" fill="rgb(0, 0, 0)" stroke="rgb(66, 66, 66)" stroke-width="1px" opacity="0.25"></line><line x1="260.02399826049805" y1="0" x2="260.02399826049805" y2="177.58999919891357" fill="rgb(0, 0, 0)" stroke="rgb(66, 66, 66)" stroke-width="1px" opacity="0.25"></line></g><g><line x1="0" y1="177.58999919891357" x2="260.02399826049805" y2="177.58999919891357" fill="rgb(0, 0, 0)" stroke="rgb(66, 66, 66)" stroke-width="1px" opacity="0.25"></line><line x1="0" y1="159.8309992790222" x2="260.02399826049805" y2="159.8309992790222" fill="rgb(0, 0, 0)" stroke="rgb(66, 66, 66)" stroke-width="1px" opacity="0.25"></line><line x1="0" y1="142.0719993591308" x2="260.02399826049805" y2="142.0719993591308" fill="rgb(0, 0, 0)" stroke="rgb(66, 66, 66)" stroke-width="1px" opacity="0.25"></line><line x1="0" y1="124.31299943923959" x2="260.02399826049805" y2="124.31299943923959" fill="rgb(0, 0, 0)" stroke="rgb(66, 66, 66)" stroke-width="1px" opacity="0.25"></line><line x1="0" y1="106.55399951934822" x2="260.02399826049805" y2="106.55399951934822" fill="rgb(0, 0, 0)" stroke="rgb(66, 66, 66)" stroke-width="1px" opacity="0.25"></line><line x1="0" y1="88.79499959945684" x2="260.02399826049805" y2="88.79499959945684" fill="rgb(0, 0, 0)" stroke="rgb(66, 66, 66)" stroke-width="1px" opacity="0.25"></line><line x1="0" y1="71.03599967956548" x2="260.02399826049805" y2="71.03599967956548" fill="rgb(0, 0, 0)" stroke="rgb(66, 66, 66)" stroke-width="1px" opacity="0.25"></line><line x1="0" y1="53.2769997596741" x2="260.02399826049805" y2="53.2769997596741" fill="rgb(0, 0, 0)" stroke="rgb(66, 66, 66)" stroke-width="1px" opacity="0.25"></line><line x1="0" y1="35.517999839782746" x2="260.02399826049805" y2="35.517999839782746" fill="rgb(0, 0, 0)" stroke="rgb(66, 66, 66)" stroke-width="1px" opacity="0.25"></line><line x1="0" y1="17.758999919891373" x2="260.02399826049805" y2="17.758999919891373" fill="rgb(0, 0, 0)" stroke="rgb(66, 66, 66)" stroke-width="1px" opacity="0.25"></line><line x1="0" y1="0" x2="260.02399826049805" y2="0" fill="rgb(0, 0, 0)" stroke="rgb(66, 66, 66)" stroke-width="1px" opacity="0.25"></line></g></g></g><g><g><line x1="0" y1="1172.0939947128293" x2="260.02399826049805" y2="1172.0939947128293" fill="rgb(0, 0, 0)" stroke="rgb(153, 153, 153)" stroke-width="1.5px"></line></g></g><g><g><line x1="18.573142732892716" y1="0" x2="18.573142732892716" y2="177.58999919891357" fill="rgb(0, 0, 0)" stroke="rgb(153, 153, 153)" stroke-width="1.5px"></line></g></g><g><g><g><g><g><path style="fill: none;" stroke="rgb(255, 112, 67)" stroke-width="2px" d="M20.43045700618199,162.28629945350787L22.28777127947126,161.42823758495578L24.145085552760534,160.41197844933808L26.002399826049807,159.2430722619087L27.859714099339076,157.73033451398047L29.71702837262835,156.06097934645823L31.57434264591762,154.01551882652888L33.43165691920689,151.02481780662737L35.28897119249616,147.83825153515062L37.14628546578543,143.58738784783222L39.00359973907471,139.41870612465038L40.86091401236398,134.6621173705263L42.718228285653254,130.54821507077602L44.57554255894252,126.58926222760394L46.43285683223179,122.41869898041524L48.29017110552107,118.0656120755452L50.14748537881034,112.76045053819003L52.004799652099614,109.1374868736012L53.86211392538888,105.46120566348559L55.71942819867815,102.4458102259592L57.57674247196742,100.16262836976452L59.4340567452567,97.78868001045934L61.291371018545966,95.25933440548047L63.14868529183524,91.82827264017864L65.00599956512451,89.44224516499361L66.86331383841377,88.12918733835153L68.72062811170305,87.68923666241812L70.57794238499233,87.5679285149423L72.4352566582816,87.88287928339723L74.29257093157086,88.18786336529297L76.14988520486014,88.81101244368445L78.00719947814942,89.21348184990173L79.8645137514387,89.98602242148576L81.72182802472796,90.69681675869766L83.57914229801723,91.49414544460176L85.43645657130651,91.72813063504542L87.29377084459577,91.61487415914786L89.15108511788505,91.81385227406507L91.00839939117431,91.98738238346675L92.86571366446358,92.1520741919518L94.72302793775286,92.58469320654251L96.58034221104214,92.03605898546623L98.4376564843314,91.69295892968982L100.29497075762067,91.6393139115153L102.15228503090995,91.88813720078937L104.00959930419923,92.36123210029749L105.86691357748849,92.75329613267851L107.72422785077777,93.26464920241922L109.58154212406703,93.87295368476656L111.4388563973563,88.35040142765472L113.29617067064558,64.39974778716432L115.15348494393484,48.895364324878045L117.01079921722412,39.532610375049295L118.8681134905134,34.18715613561568L120.72542776380267,31.497975658651907L122.58274203709193,30.03715872117314L124.44005631038121,29.682412515521587L126.29737058367049,29.783151010861292L128.15468485695976,28.498375387140328L130.01199913024902,25.263966093370986L131.86931340353829,23.871051112491887L133.72662767682755,23.834378027829203L135.58394195011684,24.587315850391096L137.4412562234061,25.822911775894557L139.2985704966954,26.91278667302619L141.15588476998465,27.837639519099696L143.01319904327394,28.962616570532713L144.8705133165632,30.28324639334074L146.72782758985247,31.45134556411782L148.58514186314173,31.81294976496961L150.44245613643102,30.19803950865293L152.29977040972028,29.517645602039135L154.15708468300954,29.83206009866979L156.01439895629883,30.794380247349515L157.8717132295881,32.05472871908885L159.7290275028774,33.636159122377066L161.58634177616665,35.236059402595735L163.4436560494559,36.74568842604127L165.30097032274517,38.104141439906684L167.15828459603446,39.02136032031881L169.01559886932372,39.46705705710096L170.87291314261302,40.15820020755122L172.73022741590228,41.06986071282253L174.58754168919154,42.21386166531573L176.44485596248083,40.40025234179667L178.3021702357701,36.32362331466811L180.15948450905935,34.383459146054946L182.01679878234862,33.6832565448321L183.8741130556379,34.11386660939387L185.73142732892717,35.37724340044779L187.58874160221646,37.23141870311914L189.44605587550572,39.21233277534355L191.303370148795,41.25134821425336L193.16068442208427,43.43250536184405L195.01799869537354,45.66343422615909L196.8753129686628,48.04674968107624L198.73262724195206,50.315721019734326L200.58994151524135,51.56209574642259L202.4472557885306,53.04887261381416L204.3045700618199,54.96516160427034L206.16188433510916,56.89268174694011L208.01919860839845,58.75707833473998L209.87651288168772,60.60537981561058L211.73382715497698,62.15944143095427L213.59114142826624,63.77155337415862L215.44845570155553,65.39467883923903L217.3057699748448,67.0945657563359L219.16308424813406,68.87742539064514L221.02039852142335,70.82939019623173L222.8777127947126,72.69450759551404L224.7350270680019,74.6214396456665L226.59234134129116,75.48589753490845L228.44965561458042,59.01613810486414L230.30696988786968,49.19308317072126L232.16428416115897,44.17697406701682L234.02159843444824,42.09779962783277L235.87891270773753,41.79661084464384L237.7362269810268,42.60270180228047L239.59354125431605,44.04897344796351L241.45085552760534,45.92227644713091L243.3081698008946,48.02993984348001L245.16548407418387,48.6732931495662L247.02279834747313,40.46794248104688L248.88011262076242,35.54208578273068L250.73742689405168,33.3058353439183L252.59474116734097,32.89235321401776" fill="none"></path></g></g></g></g><g opacity="0.2"><g><g><g><path style="fill: none;" stroke="rgb(255, 112, 67)" stroke-width="2px" d="M20.43045700618199,162.28629945350787L22.28777127947126,160.91340046382453L24.145085552760534,159.43636967914497L26.002399826049807,157.8684385854916L27.859714099339076,155.75530411028555L29.71702837262835,153.75166018191481L31.57434264591762,151.09047755566135L33.43165691920689,146.66434700888107L35.28897119249616,143.13868524335464L37.14628546578543,137.27535068482223L39.00359973907471,133.2034931762915L40.86091401236398,127.55311938528945L42.718228285653254,124.39079422593791L44.57554255894252,120.65858896360196L46.43285683223179,116.16775645017219L48.29017110552107,111.53905185238911L50.14748537881034,104.8049531987231L52.004799652099614,103.7039612467999L53.86211392538888,99.94734389275264L55.71942819867815,97.92299268875686L57.57674247196742,96.73798080059149L59.4340567452567,94.22783558728361L61.291371018545966,91.46536593552872L63.14868529183524,86.68172063642344L65.00599956512451,85.8632209110783L66.86331383841377,86.15960619797987L68.72062811170305,87.02931177423166L70.57794238499233,87.38596647996522L72.4352566582816,88.35530514596562L74.29257093157086,88.64533931957644L76.14988520486014,89.74573585462862L78.00719947814942,89.81718587914953L79.8645137514387,91.14483318663629L81.72182802472796,91.76300821360242L83.57914229801723,92.69013843919139L85.43645657130651,92.07910841467735L87.29377084459577,91.44498944705424L89.15108511788505,92.11231944459355L91.00839939117431,92.24767754660262L92.86571366446358,92.39911190412889L94.72302793775286,93.23362172756111L96.58034221104214,91.21310765451183L98.4376564843314,91.17830884627294L100.29497075762067,91.55884638427692L102.15228503090995,92.26137213463579L104.00959930419923,93.0708744494857L105.86691357748849,93.3413921812135L107.72422785077777,94.03167880700165L109.58154212406703,94.78541040826718L111.4388563973563,80.06657304209872L113.29617067064558,28.473767326719045L115.15348494393484,25.638789131561456L117.01079921722412,25.48847945034709L118.8681134905134,26.16897477647868L120.72542776380267,27.46420494321058L122.58274203709193,27.84593331495657L124.44005631038121,29.15029320704392L126.29737058367049,29.934258753870612L128.15468485695976,26.57121195155938L130.01199913024902,20.41235215271684L131.86931340353829,21.78167864117413L133.72662767682755,23.779368400834787L135.58394195011684,25.71672258423334L137.4412562234061,27.676305664149513L139.2985704966954,28.54759901872399L141.15588476998465,29.224918788210207L143.01319904327394,30.65008214768199L144.8705133165632,32.264191127553524L146.72782758985247,33.20349432028309L148.58514186314173,32.3553560662478L150.44245613643102,27.775674124177673L152.29977040972028,28.497054742118454L154.15708468300954,30.30368184361578L156.01439895629883,32.237860470368965L157.8717132295881,33.945251426698356L159.7290275028774,36.00830472730963L161.58634177616665,37.635909822924L163.4436560494559,39.010131961209574L165.30097032274517,40.14182096070471L167.15828459603446,40.39718864093687L169.01559886932372,40.13560216227419L170.87291314261302,41.19491493322685L172.73022741590228,42.4373514707294L174.58754168919154,43.92986309405516L176.44485596248083,37.67983835651834L178.3021702357701,30.20867977397501L180.15948450905935,31.47321289313496L182.01679878234862,32.63295264299757L183.8741130556379,34.75978170623677L185.73142732892717,37.27230858702868L187.58874160221646,40.01268165712617L189.44605587550572,42.18370388368016L191.303370148795,44.30987137261824L193.16068442208427,46.704241083230194L195.01799869537354,49.0098275226319L196.8753129686628,51.62172286345195L198.73262724195206,53.71917802772144L200.58994151524135,53.431657836454875L202.4472557885306,55.27903791490117L204.3045700618199,57.83959508995436L206.16188433510916,59.78396196094478L208.01919860839845,61.553673216439634L209.87651288168772,63.37783203691663L211.73382715497698,64.49053385396964L213.59114142826624,66.18972128896515L215.44845570155553,67.82936703685989L217.3057699748448,69.64439613198144L219.16308424813406,71.55171484210916L221.02039852142335,73.7573374046117L222.8777127947126,75.49218369443756L224.7350270680019,77.51183772089539L226.59234134129116,76.78258436877128L228.44965561458042,34.31149895979815L230.30696988786968,34.45850076950692L232.16428416115897,36.652810411460315L234.02159843444824,38.979037969056954L235.87891270773753,41.34482766986054L237.7362269810268,43.811838238735426L239.59354125431605,46.21838091648798L241.45085552760534,48.73223094588213L243.3081698008946,51.19143493800378L245.16548407418387,49.638323108695495L247.02279834747313,28.15991647826792L248.88011262076242,28.153300735256725L250.73742689405168,29.95145968569972L252.59474116734097,32.27213001916696" fill="none"></path></g></g></g></g></g></g><g transform="translate(69, 177)" clip-path="url(#clip_1)"><clipPath id="clip_1"><rect width="260" height="22"></rect></clipPath><g><g><line x1="0" y1="0" x2="0" y2="5" style="visibility: inherit;" fill="rgb(0, 0, 0)" stroke="rgb(204, 204, 204)" stroke-width="1px"></line><line x1="18.573142732892716" y1="0" x2="18.573142732892716" y2="5" style="visibility: inherit;" fill="rgb(0, 0, 0)" stroke="rgb(204, 204, 204)" stroke-width="1px"></line><line x1="37.14628546578543" y1="0" x2="37.14628546578543" y2="5" style="visibility: inherit;" fill="rgb(0, 0, 0)" stroke="rgb(204, 204, 204)" stroke-width="1px"></line><line x1="55.71942819867815" y1="0" x2="55.71942819867815" y2="5" style="visibility: inherit;" fill="rgb(0, 0, 0)" stroke="rgb(204, 204, 204)" stroke-width="1px"></line><line x1="74.29257093157086" y1="0" x2="74.29257093157086" y2="5" style="visibility: inherit;" fill="rgb(0, 0, 0)" stroke="rgb(204, 204, 204)" stroke-width="1px"></line><line x1="92.86571366446358" y1="0" x2="92.86571366446358" y2="5" style="visibility: inherit;" fill="rgb(0, 0, 0)" stroke="rgb(204, 204, 204)" stroke-width="1px"></line><line x1="111.4388563973563" y1="0" x2="111.4388563973563" y2="5" style="visibility: inherit;" fill="rgb(0, 0, 0)" stroke="rgb(204, 204, 204)" stroke-width="1px"></line><line x1="130.01199913024902" y1="0" x2="130.01199913024902" y2="5" style="visibility: inherit;" fill="rgb(0, 0, 0)" stroke="rgb(204, 204, 204)" stroke-width="1px"></line><line x1="148.58514186314173" y1="0" x2="148.58514186314173" y2="5" style="visibility: inherit;" fill="rgb(0, 0, 0)" stroke="rgb(204, 204, 204)" stroke-width="1px"></line><line x1="167.15828459603446" y1="0" x2="167.15828459603446" y2="5" style="visibility: inherit;" fill="rgb(0, 0, 0)" stroke="rgb(204, 204, 204)" stroke-width="1px"></line><line x1="185.73142732892717" y1="0" x2="185.73142732892717" y2="5" style="visibility: inherit;" fill="rgb(0, 0, 0)" stroke="rgb(204, 204, 204)" stroke-width="1px"></line><line x1="204.3045700618199" y1="0" x2="204.3045700618199" y2="5" style="visibility: inherit;" fill="rgb(0, 0, 0)" stroke="rgb(204, 204, 204)" stroke-width="1px"></line><line x1="222.8777127947126" y1="0" x2="222.8777127947126" y2="5" style="visibility: inherit;" fill="rgb(0, 0, 0)" stroke="rgb(204, 204, 204)" stroke-width="1px"></line><line x1="241.45085552760534" y1="0" x2="241.45085552760534" y2="5" style="visibility: inherit;" fill="rgb(0, 0, 0)" stroke="rgb(204, 204, 204)" stroke-width="1px"></line><line x1="260.02399826049805" y1="0" x2="260.02399826049805" y2="5" style="visibility: inherit;" fill="rgb(0, 0, 0)" stroke="rgb(204, 204, 204)" stroke-width="1px"></line></g><g transform="translate(0, 8)"><text style="text-anchor: middle; visibility: hidden; font-family: Roboto, sans-serif; font-size: 12px; font-weight: 200;" x="0" y="0" dx="0em" dy="0.95em" fill="rgb(33, 33, 33)" stroke="none" stroke-width="1px">-1k</text><text style="text-anchor: middle; visibility: inherit; font-family: Roboto, sans-serif; font-size: 12px; font-weight: 200;" x="18.573142732892716" y="0" dx="0em" dy="0.95em" fill="rgb(33, 33, 33)" stroke="none" stroke-width="1px">0</text><text style="text-anchor: middle; visibility: hidden; font-family: Roboto, sans-serif; font-size: 12px; font-weight: 200;" x="37.14628546578543" y="0" dx="0em" dy="0.95em" fill="rgb(33, 33, 33)" stroke="none" stroke-width="1px">1k</text><text style="text-anchor: middle; visibility: inherit; font-family: Roboto, sans-serif; font-size: 12px; font-weight: 200;" x="55.71942819867815" y="0" dx="0em" dy="0.95em" fill="rgb(33, 33, 33)" stroke="none" stroke-width="1px">2k</text><text style="text-anchor: middle; visibility: hidden; font-family: Roboto, sans-serif; font-size: 12px; font-weight: 200;" x="74.29257093157086" y="0" dx="0em" dy="0.95em" fill="rgb(33, 33, 33)" stroke="none" stroke-width="1px">3k</text><text style="text-anchor: middle; visibility: inherit; font-family: Roboto, sans-serif; font-size: 12px; font-weight: 200;" x="92.86571366446358" y="0" dx="0em" dy="0.95em" fill="rgb(33, 33, 33)" stroke="none" stroke-width="1px">4k</text><text style="text-anchor: middle; visibility: hidden; font-family: Roboto, sans-serif; font-size: 12px; font-weight: 200;" x="111.4388563973563" y="0" dx="0em" dy="0.95em" fill="rgb(33, 33, 33)" stroke="none" stroke-width="1px">5k</text><text style="text-anchor: middle; visibility: inherit; font-family: Roboto, sans-serif; font-size: 12px; font-weight: 200;" x="130.01199913024902" y="0" dx="0em" dy="0.95em" fill="rgb(33, 33, 33)" stroke="none" stroke-width="1px">6k</text><text style="text-anchor: middle; visibility: hidden; font-family: Roboto, sans-serif; font-size: 12px; font-weight: 200;" x="148.58514186314173" y="0" dx="0em" dy="0.95em" fill="rgb(33, 33, 33)" stroke="none" stroke-width="1px">7k</text><text style="text-anchor: middle; visibility: inherit; font-family: Roboto, sans-serif; font-size: 12px; font-weight: 200;" x="167.15828459603446" y="0" dx="0em" dy="0.95em" fill="rgb(33, 33, 33)" stroke="none" stroke-width="1px">8k</text><text style="text-anchor: middle; visibility: hidden; font-family: Roboto, sans-serif; font-size: 12px; font-weight: 200;" x="185.73142732892717" y="0" dx="0em" dy="0.95em" fill="rgb(33, 33, 33)" stroke="none" stroke-width="1px">9k</text><text style="text-anchor: middle; visibility: inherit; font-family: Roboto, sans-serif; font-size: 12px; font-weight: 200;" x="204.3045700618199" y="0" dx="0em" dy="0.95em" fill="rgb(33, 33, 33)" stroke="none" stroke-width="1px">10k</text><text style="text-anchor: middle; visibility: hidden; font-family: Roboto, sans-serif; font-size: 12px; font-weight: 200;" x="222.8777127947126" y="0" dx="0em" dy="0.95em" fill="rgb(33, 33, 33)" stroke="none" stroke-width="1px">11k</text><text style="text-anchor: middle; visibility: inherit; font-family: Roboto, sans-serif; font-size: 12px; font-weight: 200;" x="241.45085552760534" y="0" dx="0em" dy="0.95em" fill="rgb(33, 33, 33)" stroke="none" stroke-width="1px">12k</text><text style="text-anchor: middle; visibility: hidden; font-family: Roboto, sans-serif; font-size: 12px; font-weight: 200;" x="260.02399826049805" y="0" dx="0em" dy="0.95em" fill="rgb(33, 33, 33)" stroke="none" stroke-width="1px">13k</text></g><line x1="0" y1="0" x2="260.02399826049805" y2="0" fill="rgb(0, 0, 0)" stroke="rgb(204, 204, 204)" stroke-width="1px"></line></g></g></g></g></svg>