<svg viewBox="0 0 330 200" xmlns="http://www.w3.org/2000/svg"><g><g><g><g><g><line x1="49.98400115966797" y1="177.58999919891357" x2="44.98400115966797" y2="177.58999919891357" style="visibility: inherit;" fill="rgb(0, 0, 0)" stroke="rgb(204, 204, 204)" stroke-width="1px"></line><line x1="49.98400115966797" y1="162.7908325990041" x2="44.98400115966797" y2="162.7908325990041" style="visibility: inherit;" fill="rgb(0, 0, 0)" stroke="rgb(204, 204, 204)" stroke-width="1px"></line><line x1="49.98400115966797" y1="147.99166599909466" x2="44.98400115966797" y2="147.99166599909466" style="visibility: inherit;" fill="rgb(0, 0, 0)" stroke="rgb(204, 204, 204)" stroke-width="1px"></line><line x1="49.98400115966797" y1="133.19249939918518" x2="44.98400115966797" y2="133.19249939918518" style="visibility: inherit;" fill="rgb(0, 0, 0)" stroke="rgb(204, 204, 204)" stroke-width="1px"></line><line x1="49.98400115966797" y1="118.39333279927573" x2="44.98400115966797" y2="118.39333279927573" style="visibility: inherit;" fill="rgb(0, 0, 0)" stroke="rgb(204, 204, 204)" stroke-width="1px"></line><line x1="49.98400115966797" y1="103.59416619936626" x2="44.98400115966797" y2="103.59416619936626" style="visibility: inherit;" fill="rgb(0, 0, 0)" stroke="rgb(204, 204, 204)" stroke-width="1px"></line><line x1="49.98400115966797" y1="88.7949995994568" x2="44.98400115966797" y2="88.7949995994568" style="visibility: inherit;" fill="rgb(0, 0, 0)" stroke="rgb(204, 204, 204)" stroke-width="1px"></line><line x1="49.98400115966797" y1="73.99583299954733" x2="44.98400115966797" y2="73.99583299954733" style="visibility: inherit;" fill="rgb(0, 0, 0)" stroke="rgb(204, 204, 204)" stroke-width="1px"></line><line x1="49.98400115966797" y1="59.196666399637884" x2="44.98400115966797" y2="59.196666399637884" style="visibility: inherit;" fill="rgb(0, 0, 0)" stroke="rgb(204, 204, 204)" stroke-width="1px"></line><line x1="49.98400115966797" y1="44.397499799728415" x2="44.98400115966797" y2="44.397499799728415" style="visibility: inherit;" fill="rgb(0, 0, 0)" stroke="rgb(204, 204, 204)" stroke-width="1px"></line><line x1="49.98400115966797" y1="29.598333199818942" x2="44.98400115966797" y2="29.598333199818942" style="visibility: inherit;" fill="rgb(0, 0, 0)" stroke="rgb(204, 204, 204)" stroke-width="1px"></line><line x1="49.98400115966797" y1="14.799166599909471" x2="44.98400115966797" y2="14.799166599909471" style="visibility: inherit;" fill="rgb(0, 0, 0)" stroke="rgb(204, 204, 204)" stroke-width="1px"></line><line x1="49.98400115966797" y1="0" x2="44.98400115966797" y2="0" style="visibility: inherit;" fill="rgb(0, 0, 0)" stroke="rgb(204, 204, 204)" stroke-width="1px"></line></g><g transform="translate(39.98400115966797, 0)"><text style="text-anchor: end; visibility: hidden; font-family: Roboto, sans-serif; font-size: 12px; font-weight: 200;" x="0" y="177.58999919891357" dx="0em" dy="0.3em" fill="rgb(33, 33, 33)" stroke="none" stroke-width="1px">-0.1</text><text style="text-anchor: end; visibility: inherit; font-family: Roboto, sans-serif; font-size: 12px; font-weight: 200;" x="0" y="162.7908325990041" dx="0em" dy="0.3em" fill="rgb(33, 33, 33)" stroke="none" stroke-width="1px">0</text><text style="text-anchor: end; visibility: hidden; font-family: Roboto, sans-serif; font-size: 12px; font-weight: 200;" x="0" y="147.99166599909466" dx="0em" dy="0.3em" fill="rgb(33, 33, 33)" stroke="none" stroke-width="1px">0.1</text><text style="text-anchor: end; visibility: inherit; font-family: Roboto, sans-serif; font-size: 12px; font-weight: 200;" x="0" y="133.19249939918518" dx="0em" dy="0.3em" fill="rgb(33, 33, 33)" stroke="none" stroke-width="1px">0.2</text><text style="text-anchor: end; visibility: hidden; font-family: Roboto, sans-serif; font-size: 12px; font-weight: 200;" x="0" y="118.39333279927573" dx="0em" dy="0.3em" fill="rgb(33, 33, 33)" stroke="none" stroke-width="1px">0.3</text><text style="text-anchor: end; visibility: inherit; font-family: Roboto, sans-serif; font-size: 12px; font-weight: 200;" x="0" y="103.59416619936626" dx="0em" dy="0.3em" fill="rgb(33, 33, 33)" stroke="none" stroke-width="1px">0.4</text><text style="text-anchor: end; visibility: hidden; font-family: Roboto, sans-serif; font-size: 12px; font-weight: 200;" x="0" y="88.7949995994568" dx="0em" dy="0.3em" fill="rgb(33, 33, 33)" stroke="none" stroke-width="1px">0.5</text><text style="text-anchor: end; visibility: inherit; font-family: Roboto, sans-serif; font-size: 12px; font-weight: 200;" x="0" y="73.99583299954733" dx="0em" dy="0.3em" fill="rgb(33, 33, 33)" stroke="none" stroke-width="1px">0.6</text><text style="text-anchor: end; visibility: hidden; font-family: Roboto, sans-serif; font-size: 12px; font-weight: 200;" x="0" y="59.196666399637884" dx="0em" dy="0.3em" fill="rgb(33, 33, 33)" stroke="none" stroke-width="1px">0.7</text><text style="text-anchor: end; visibility: inherit; font-family: Roboto, sans-serif; font-size: 12px; font-weight: 200;" x="0" y="44.397499799728415" dx="0em" dy="0.3em" fill="rgb(33, 33, 33)" stroke="none" stroke-width="1px">0.8</text><text style="text-anchor: end; visibility: hidden; font-family: Roboto, sans-serif; font-size: 12px; font-weight: 200;" x="0" y="29.598333199818942" dx="0em" dy="0.3em" fill="rgb(33, 33, 33)" stroke="none" stroke-width="1px">0.9</text><text style="text-anchor: end; visibility: inherit; font-family: Roboto, sans-serif; font-size: 12px; font-weight: 200;" x="0" y="14.799166599909471" dx="0em" dy="0.3em" fill="rgb(33, 33, 33)" stroke="none" stroke-width="1px">1</text><text style="text-anchor: end; visibility: hidden; font-family: Roboto, sans-serif; font-size: 12px; font-weight: 200;" x="0" y="0" dx="0em" dy="0.3em" fill="rgb(33, 33, 33)" stroke="none" stroke-width="1px">1.1</text></g><line x1="49.98400115966797" y1="0" x2="49.98400115966797" y2="177.58999919891357" fill="rgb(0, 0, 0)" stroke="rgb(204, 204, 204)" stroke-width="1px"></line></g></g><g transform="translate(49, 0)" clip-path="url(#clip_0)"><clipPath id="clip_0"><rect width="280" height="177"></rect></clipPath><g><g><g><line x1="0" y1="0" x2="0" y2="177.58999919891357" fill="rgb(0, 0, 0)" stroke="rgb(66, 66, 66)" stroke-width="1px" opacity="0.25"></line><line x1="20.00114277430943" y1="0" x2="20.00114277430943" y2="177.58999919891357" fill="rgb(0, 0, 0)" stroke="rgb(66, 66, 66)" stroke-width="1px" opacity="0.25"></line><line x1="40.00228554861886" y1="0" x2="40.00228554861886" y2="177.58999919891357" fill="rgb(0, 0, 0)" stroke="rgb(66, 66, 66)" stroke-width="1px" opacity="0.25"></line><line x1="60.003428322928286" y1="0" x2="60.003428322928286" y2="177.58999919891357" fill="rgb(0, 0, 0)" stroke="rgb(66, 66, 66)" stroke-width="1px" opacity="0.25"></line><line x1="80.00457109723772" y1="0" x2="80.00457109723772" y2="177.58999919891357" fill="rgb(0, 0, 0)" stroke="rgb(66, 66, 66)" stroke-width="1px" opacity="0.25"></line><line x1="100.00571387154716" y1="0" x2="100.00571387154716" y2="177.58999919891357" fill="rgb(0, 0, 0)" stroke="rgb(66, 66, 66)" stroke-width="1px" opacity="0.25"></line><line x1="120.00685664585657" y1="0" x2="120.00685664585657" y2="177.58999919891357" fill="rgb(0, 0, 0)" stroke="rgb(66, 66, 66)" stroke-width="1px" opacity="0.25"></line><line x1="140.00799942016602" y1="0" x2="140.00799942016602" y2="177.58999919891357" fill="rgb(0, 0, 0)" stroke="rgb(66, 66, 66)" stroke-width="1px" opacity="0.25"></line><line x1="160.00914219447543" y1="0" x2="160.00914219447543" y2="177.58999919891357" fill="rgb(0, 0, 0)" stroke="rgb(66, 66, 66)" stroke-width="1px" opacity="0.25"></line><line x1="180.0102849687849" y1="0" x2="180.0102849687849" y2="177.58999919891357" fill="rgb(0, 0, 0)" stroke="rgb(66, 66, 66)" stroke-width="1px" opacity="0.25"></line><line x1="200.01142774309432" y1="0" x2="200.01142774309432" y2="177.58999919891357" fill="rgb(0, 0, 0)" stroke="rgb(66, 66, 66)" stroke-width="1px" opacity="0.25"></line><line x1="220.01257051740373" y1="0" x2="220.01257051740373" y2="177.58999919891357" fill="rgb(0, 0, 0)" stroke="rgb(66, 66, 66)" stroke-width="1px" opacity="0.25"></line><line x1="240.01371329171315" y1="0" x2="240.01371329171315" y2="177.58999919891357" fill="rgb(0, 0, 0)" stroke="rgb(66, 66, 66)" stroke-width="1px" opacity="0.25"></line><line x1="260.0148560660226" y1="0" x2="260.0148560660226" y2="177.58999919891357" fill="rgb(0, 0, 0)" stroke="rgb(66, 66, 66)" stroke-width="1px" opacity="0.25"></line><line x1="280.01599884033203" y1="0" x2="280.01599884033203" y2="177.58999919891357" fill="rgb(0, 0, 0)" stroke="rgb(66, 66, 66)" stroke-width="1px" opacity="0.25"></line></g><g><line x1="0" y1="177.58999919891357" x2="280.01599884033203" y2="177.58999919891357" fill="rgb(0, 0, 0)" stroke="rgb(66, 66, 66)" stroke-width="1px" opacity="0.25"></line><line x1="0" y1="162.7908325990041" x2="280.01599884033203" y2="162.7908325990041" fill="rgb(0, 0, 0)" stroke="rgb(66, 66, 66)" stroke-width="1px" opacity="0.25"></line><line x1="0" y1="147.99166599909466" x2="280.01599884033203" y2="147.99166599909466" fill="rgb(0, 0, 0)" stroke="rgb(66, 66, 66)" stroke-width="1px" opacity="0.25"></line><line x1="0" y1="133.19249939918518" x2="280.01599884033203" y2="133.19249939918518" fill="rgb(0, 0, 0)" stroke="rgb(66, 66, 66)" stroke-width="1px" opacity="0.25"></line><line x1="0" y1="118.39333279927573" x2="280.01599884033203" y2="118.39333279927573" fill="rgb(0, 0, 0)" stroke="rgb(66, 66, 66)" stroke-width="1px" opacity="0.25"></line><line x1="0" y1="103.59416619936626" x2="280.01599884033203" y2="103.59416619936626" fill="rgb(0, 0, 0)" stroke="rgb(66, 66, 66)" stroke-width="1px" opacity="0.25"></line><line x1="0" y1="88.7949995994568" x2="280.01599884033203" y2="88.7949995994568" fill="rgb(0, 0, 0)" stroke="rgb(66, 66, 66)" stroke-width="1px" opacity="0.25"></line><line x1="0" y1="73.99583299954733" x2="280.01599884033203" y2="73.99583299954733" fill="rgb(0, 0, 0)" stroke="rgb(66, 66, 66)" stroke-width="1px" opacity="0.25"></line><line x1="0" y1="59.196666399637884" x2="280.01599884033203" y2="59.196666399637884" fill="rgb(0, 0, 0)" stroke="rgb(66, 66, 66)" stroke-width="1px" opacity="0.25"></line><line x1="0" y1="44.397499799728415" x2="280.01599884033203" y2="44.397499799728415" fill="rgb(0, 0, 0)" stroke="rgb(66, 66, 66)" stroke-width="1px" opacity="0.25"></line><line x1="0" y1="29.598333199818942" x2="280.01599884033203" y2="29.598333199818942" fill="rgb(0, 0, 0)" stroke="rgb(66, 66, 66)" stroke-width="1px" opacity="0.25"></line><line x1="0" y1="14.799166599909471" x2="280.01599884033203" y2="14.799166599909471" fill="rgb(0, 0, 0)" stroke="rgb(66, 66, 66)" stroke-width="1px" opacity="0.25"></line><line x1="0" y1="0" x2="280.01599884033203" y2="0" fill="rgb(0, 0, 0)" stroke="rgb(66, 66, 66)" stroke-width="1px" opacity="0.25"></line></g></g></g><g><g><line x1="0" y1="162.7908325990041" x2="280.01599884033203" y2="162.7908325990041" fill="rgb(0, 0, 0)" stroke="rgb(153, 153, 153)" stroke-width="1.5px"></line></g></g><g><g><line x1="20.00114277430943" y1="0" x2="20.00114277430943" y2="177.58999919891357" fill="rgb(0, 0, 0)" stroke="rgb(153, 153, 153)" stroke-width="1.5px"></line></g></g><g><g><g><g><g><path style="fill: none;" stroke="rgb(255, 112, 67)" stroke-width="2px" d="M22.001257051740374,20.10431327860596L24.001371329171317,29.1919018641939L26.001485606602262,41.922800603347156L28.001599884033205,56.73271465197434L30.001714161464143,69.01354699774426L32.00182843889509,82.48742814229418L34.001942716326035,88.11828440260663L36.00205699375697,93.23639111767582L38.00217127118792,99.67924377493011L40.00228554861886,109.39461073040377L42.0023998260498,113.203540648226L44.00251410348075,118.11836780721562L46.00262838091169,125.51671364884358L48.00274265834263,128.1204786421457L50.00285693577358,130.39053293035968L52.002971213204525,131.56476531862265L54.00308549063546,136.07035611769186L56.00319976806641,137.8441569319125L58.003314045497355,138.94437217651796L60.003428322928286,140.88555744181198L62.00354260035923,142.98232286723004L64.00365687779018,142.7971927095961L66.00377115522112,143.37389866009087L68.00388543265207,145.28778947568665L70.00399971008301,144.6484921248336L72.00411398751395,147.0876958114461L74.0042282649449,148.2785057744977L76.00434254237584,150.18233778461513L78.00445681980678,150.2222395826157L80.00457109723772,149.996719010936L82.00468537466867,150.92955295254123L84.0047996520996,151.42387293227756L86.00491392953056,151.42911593875658L88.0050282069615,151.83756290029007L90.00514248439245,152.6160370469805L92.00525676182338,151.3978485252777L94.00537103925431,151.79555648621832L96.00548531668527,153.04602321298998L98.0055995941162,153.31609667172185L100.00571387154716,153.3827633436541L102.0058281489781,153.62926957504595L104.00594242640905,154.29716012949592L106.00605670383997,154.819133024745L108.00617098127093,154.71565859002934L110.00628525870187,155.8105467549422L112.00639953613282,156.60242537452024L114.00651381356376,155.68442085017358L116.00662809099471,156.13361591892246L118.00674236842565,155.56961726237168L120.00685664585657,119.61995534936248L122.00697092328753,127.14940239523558L124.00708520071846,133.3368347612189L126.00719947814942,140.5728843366684L128.00731375558036,145.93222948660178L130.0074280330113,149.0897073505903L132.00754231044223,151.5188801833453L134.00765658787319,151.48869513632678L136.00777086530414,153.2505515294763L138.0078851427351,148.01149890767215L140.00799942016602,150.27838712623284L142.00811369759694,151.14801828533035L144.0082279750279,153.400347227628L146.00834225245885,154.53530151887983L148.0084565298898,155.8550247429362L150.00857080732072,156.19521623610552L152.00868508475168,156.4279691398292L154.00879936218263,157.26748269323645L156.00891363961355,156.83293622781852L158.0090279170445,157.0698498304643L160.00914219447543,155.78733456222685L162.0092564719064,156.1683882334914L164.00937074933734,155.9571934914789L166.0094850267683,156.04047620722997L168.0095993041992,156.50421755970135L170.00971358163014,157.2750096206997L172.00982785906112,158.19146816896532L174.00994213649204,157.85235624892917L176.010056413923,157.93507224651148L178.01017069135392,157.81674819776038L180.0102849687849,157.8421248559043L182.01039924621583,157.707558300155L184.01051352364675,158.58329834380208L186.0106278010777,159.02484460446908L188.01074207850863,159.06611007770638L190.0108563559396,154.49465401621936L192.01097063337053,155.48099929526782L194.0110849108015,153.30498555694507L196.0111991882324,155.65530063359583L198.01131346566336,157.53066197688295L200.01142774309432,158.74172708994092L202.01154202052524,159.73699035359132L204.0116562979562,160.15623278891724L206.01177057538715,159.98618495465468L208.0118848528181,160.5702338890504L210.01199913024902,160.4370578935574L212.01211340767995,160.7262909090573L214.0122276851109,160.62810787390876L216.01234196254185,160.05514792945075L218.0124562399728,160.4382782146733L220.01257051740373,160.5510438965795L222.01268479483468,160.62752639139006L224.01279907226564,160.1889563845921L226.01291334969656,160.49098473604803L228.0130276271275,160.23185866393308L230.01314190455844,160.08729491692438L232.01325618198942,160.85780728178452L234.01337045942034,160.70888118695777L236.0134847368513,160.94783028845012L238.01359901428222,160.83523141477917L240.01371329171315,161.10883625457421L242.01382756914413,160.99336636626498L244.01394184657505,149.72052740870427L246.014056124006,150.52295645918173L248.01417040143693,152.54117226362715L250.0142846788679,154.68922328750364L252.01439895629883,156.87422421432427L254.01451323372976,158.03647276589425L256.0146275111607,158.71479347626266L258.01474178859166,159.68729636234042L260.0148560660226,160.00786762713165L262.01497034345357,160.8144386812168L264.01508462088447,150.0348935411717L266.0151988983154,151.71937917557923L268.01531317574637,153.0324044987162L270.0154274531773,155.98588107232803L272.0155417306083,157.74277263952132" fill="none"></path></g></g></g></g><g opacity="0.2"><g><g><g><path style="fill: none;" stroke="rgb(255, 112, 67)" stroke-width="2px" d="M22.001257051740374,20.10431327860596L24.001371329171317,34.64445501554669L26.001485606602262,54.14446339293425L28.001599884033205,74.1491735731599L30.001714161464143,85.04740170838149L32.00182843889509,101.1266563624188L34.001942716326035,96.17049894855357L36.00205699375697,100.69863984207113L38.00217127118792,109.18119998468003L40.00228554861886,123.82079839155574L42.0023998260498,118.8823888109419L44.00251410348075,125.4638622733396L46.00262838091169,136.59007552846998L48.00274265834263,132.02102508541887L50.00285693577358,133.79294599907945L52.002971213204525,133.32528574136103L54.00308549063546,142.82683570126937L56.00319976806641,140.5044077854088L58.003314045497355,140.59452743670732L60.003428322928286,143.79715790773076L62.00354260035923,146.12735601375795L64.00365687779018,142.51950356493194L66.00377115522112,144.23894619978006L68.00388543265207,148.15860302721904L70.00399971008301,143.68955064240598L72.00411398751395,150.74649093927533L74.0042282649449,150.06471767211875L76.00434254237584,153.0380828769607L78.00445681980678,150.28209224286144L80.00457109723772,149.6584382780582L82.00468537466867,152.32880355561122L84.0047996520996,152.16535280352895L86.00491392953056,151.43698044784918L88.0050282069615,152.45023331333405L90.00514248439245,153.78374823355983L92.00525676182338,149.57056577413582L94.00537103925431,152.39211842147606L96.00548531668527,154.92172329153942L98.0055995941162,153.72120685831538L100.00571387154716,153.48276335132974L102.0058281489781,153.99902892163948L104.00594242640905,155.2989959603674L106.00605670383997,155.60209236724188L108.00617098127093,154.5604469380006L110.00628525870187,157.45287900202703L112.00639953613282,157.7902433037638L114.00651381356376,154.30741406373951L116.00662809099471,156.80740852202055L118.00674236842565,154.7236192775645L120.00685664585657,65.69546248057515L122.00697092328753,138.44357296395395L124.00708520071846,142.61798331014893L126.00719947814942,151.42695869981105L128.00731375558036,153.9712472114878L130.0074280330113,153.8259241465681L132.00754231044223,155.16263943247554L134.00765658787319,151.44341756579908L136.00777086530414,155.89333611919992L138.0078851427351,140.152919974967L140.00799942016602,153.67871945407367L142.00811369759694,152.4524650239765L144.0082279750279,156.77884064107437L146.00834225245885,156.23773295575756L148.0084565298898,157.83460957902068L150.00857080732072,156.70550347585953L152.00868508475168,156.77709849541475L154.00879936218263,158.5267530233473L156.00891363961355,156.1811165296916L158.0090279170445,157.42522023443297L160.00914219447543,153.86356165987073L162.0092564719064,156.73996874038824L164.00937074933734,155.64040137846013L166.0094850267683,156.16540028085657L168.0095993041992,157.1998295884084L170.00971358163014,158.43119771219725L172.00982785906112,159.56615599136376L174.00994213649204,157.34368836887492L176.010056413923,158.0591462428849L178.01017069135392,157.63926212463377L180.0102849687849,157.88018984312018L182.01039924621583,157.50570846653102L184.01051352364675,159.89690840927273L186.0106278010777,159.6871639954696L188.01074207850863,159.12800828756232L190.0108563559396,147.63746992398882L192.01097063337053,156.96051721384057L194.0110849108015,150.04096494946089L196.0111991882324,159.18077324857197L198.01131346566336,160.3437039918136L200.01142774309432,160.55832475952792L202.01154202052524,161.2298852490669L204.0116562979562,160.78509644190606L206.01177057538715,159.73111320326086L208.0118848528181,161.44630729064397L210.01199913024902,160.23729390031792L212.01211340767995,161.16014043230714L214.0122276851109,160.48083332118597L216.01234196254185,159.19570801276376L218.0124562399728,161.01297364250703L220.01257051740373,160.7201924194388L222.01268479483468,160.74225013360598L224.01279907226564,159.5311013743951L226.01291334969656,160.9440272632319L228.0130276271275,159.84316955576065L230.01314190455844,159.87044929641135L232.01325618198942,162.0135758290747L234.01337045942034,160.48549204471766L236.0134847368513,161.3062539406887L238.01359901428222,160.66633310427272L240.01371329171315,161.51924351426675L242.01382756914413,160.82016153380115L244.01394184657505,132.81126897236317L246.014056124006,151.72660003489796L248.01417040143693,155.5684959702953L250.0142846788679,157.9112998233184L252.01439895629883,160.15172560455517L254.01451323372976,159.7798455932492L256.0146275111607,159.7322745418153L258.01474178859166,161.14605069145702L260.0148560660226,160.4887245243185L262.01497034345357,162.02429526234457L264.01508462088447,133.86557583110402L266.0151988983154,154.24610762719053L268.01531317574637,155.0019424834217L270.0154274531773,160.41609593274575L272.0155417306083,160.3781099903112" fill="none"></path></g></g></g></g></g></g><g transform="translate(49, 177)" clip-path="url(#clip_1)"><clipPath id="clip_1"><rect width="280" height="22"></rect></clipPath><g><g><line x1="0" y1="0" x2="0" y2="5" style="visibility: inherit;" fill="rgb(0, 0, 0)" stroke="rgb(204, 204, 204)" stroke-width="1px"></line><line x1="20.00114277430943" y1="0" x2="20.00114277430943" y2="5" style="visibility: inherit;" fill="rgb(0, 0, 0)" stroke="rgb(204, 204, 204)" stroke-width="1px"></line><line x1="40.00228554861886" y1="0" x2="40.00228554861886" y2="5" style="visibility: inherit;" fill="rgb(0, 0, 0)" stroke="rgb(204, 204, 204)" stroke-width="1px"></line><line x1="60.003428322928286" y1="0" x2="60.003428322928286" y2="5" style="visibility: inherit;" fill="rgb(0, 0, 0)" stroke="rgb(204, 204, 204)" stroke-width="1px"></line><line x1="80.00457109723772" y1="0" x2="80.00457109723772" y2="5" style="visibility: inherit;" fill="rgb(0, 0, 0)" stroke="rgb(204, 204, 204)" stroke-width="1px"></line><line x1="100.00571387154716" y1="0" x2="100.00571387154716" y2="5" style="visibility: inherit;" fill="rgb(0, 0, 0)" stroke="rgb(204, 204, 204)" stroke-width="1px"></line><line x1="120.00685664585657" y1="0" x2="120.00685664585657" y2="5" style="visibility: inherit;" fill="rgb(0, 0, 0)" stroke="rgb(204, 204, 204)" stroke-width="1px"></line><line x1="140.00799942016602" y1="0" x2="140.00799942016602" y2="5" style="visibility: inherit;" fill="rgb(0, 0, 0)" stroke="rgb(204, 204, 204)" stroke-width="1px"></line><line x1="160.00914219447543" y1="0" x2="160.00914219447543" y2="5" style="visibility: inherit;" fill="rgb(0, 0, 0)" stroke="rgb(204, 204, 204)" stroke-width="1px"></line><line x1="180.0102849687849" y1="0" x2="180.0102849687849" y2="5" style="visibility: inherit;" fill="rgb(0, 0, 0)" stroke="rgb(204, 204, 204)" stroke-width="1px"></line><line x1="200.01142774309432" y1="0" x2="200.01142774309432" y2="5" style="visibility: inherit;" fill="rgb(0, 0, 0)" stroke="rgb(204, 204, 204)" stroke-width="1px"></line><line x1="220.01257051740373" y1="0" x2="220.01257051740373" y2="5" style="visibility: inherit;" fill="rgb(0, 0, 0)" stroke="rgb(204, 204, 204)" stroke-width="1px"></line><line x1="240.01371329171315" y1="0" x2="240.01371329171315" y2="5" style="visibility: inherit;" fill="rgb(0, 0, 0)" stroke="rgb(204, 204, 204)" stroke-width="1px"></line><line x1="260.0148560660226" y1="0" x2="260.0148560660226" y2="5" style="visibility: inherit;" fill="rgb(0, 0, 0)" stroke="rgb(204, 204, 204)" stroke-width="1px"></line><line x1="280.01599884033203" y1="0" x2="280.01599884033203" y2="5" style="visibility: inherit;" fill="rgb(0, 0, 0)" stroke="rgb(204, 204, 204)" stroke-width="1px"></line></g><g transform="translate(0, 8)"><text style="text-anchor: middle; visibility: hidden; font-family: Roboto, sans-serif; font-size: 12px; font-weight: 200;" x="0" y="0" dx="0em" dy="0.95em" fill="rgb(33, 33, 33)" stroke="none" stroke-width="1px">-1k</text><text style="text-anchor: middle; visibility: inherit; font-family: Roboto, sans-serif; font-size: 12px; font-weight: 200;" x="20.00114277430943" y="0" dx="0em" dy="0.95em" fill="rgb(33, 33, 33)" stroke="none" stroke-width="1px">0</text><text style="text-anchor: middle; visibility: hidden; font-family: Roboto, sans-serif; font-size: 12px; font-weight: 200;" x="40.00228554861886" y="0" dx="0em" dy="0.95em" fill="rgb(33, 33, 33)" stroke="none" stroke-width="1px">1k</text><text style="text-anchor: middle; visibility: inherit; font-family: Roboto, sans-serif; font-size: 12px; font-weight: 200;" x="60.003428322928286" y="0" dx="0em" dy="0.95em" fill="rgb(33, 33, 33)" stroke="none" stroke-width="1px">2k</text><text style="text-anchor: middle; visibility: hidden; font-family: Roboto, sans-serif; font-size: 12px; font-weight: 200;" x="80.00457109723772" y="0" dx="0em" dy="0.95em" fill="rgb(33, 33, 33)" stroke="none" stroke-width="1px">3k</text><text style="text-anchor: middle; visibility: inherit; font-family: Roboto, sans-serif; font-size: 12px; font-weight: 200;" x="100.00571387154716" y="0" dx="0em" dy="0.95em" fill="rgb(33, 33, 33)" stroke="none" stroke-width="1px">4k</text><text style="text-anchor: middle; visibility: hidden; font-family: Roboto, sans-serif; font-size: 12px; font-weight: 200;" x="120.00685664585657" y="0" dx="0em" dy="0.95em" fill="rgb(33, 33, 33)" stroke="none" stroke-width="1px">5k</text><text style="text-anchor: middle; visibility: inherit; font-family: Roboto, sans-serif; font-size: 12px; font-weight: 200;" x="140.00799942016602" y="0" dx="0em" dy="0.95em" fill="rgb(33, 33, 33)" stroke="none" stroke-width="1px">6k</text><text style="text-anchor: middle; visibility: hidden; font-family: Roboto, sans-serif; font-size: 12px; font-weight: 200;" x="160.00914219447543" y="0" dx="0em" dy="0.95em" fill="rgb(33, 33, 33)" stroke="none" stroke-width="1px">7k</text><text style="text-anchor: middle; visibility: inherit; font-family: Roboto, sans-serif; font-size: 12px; font-weight: 200;" x="180.0102849687849" y="0" dx="0em" dy="0.95em" fill="rgb(33, 33, 33)" stroke="none" stroke-width="1px">8k</text><text style="text-anchor: middle; visibility: hidden; font-family: Roboto, sans-serif; font-size: 12px; font-weight: 200;" x="200.01142774309432" y="0" dx="0em" dy="0.95em" fill="rgb(33, 33, 33)" stroke="none" stroke-width="1px">9k</text><text style="text-anchor: middle; visibility: inherit; font-family: Roboto, sans-serif; font-size: 12px; font-weight: 200;" x="220.01257051740373" y="0" dx="0em" dy="0.95em" fill="rgb(33, 33, 33)" stroke="none" stroke-width="1px">10k</text><text style="text-anchor: middle; visibility: hidden; font-family: Roboto, sans-serif; font-size: 12px; font-weight: 200;" x="240.01371329171315" y="0" dx="0em" dy="0.95em" fill="rgb(33, 33, 33)" stroke="none" stroke-width="1px">11k</text><text style="text-anchor: middle; visibility: inherit; font-family: Roboto, sans-serif; font-size: 12px; font-weight: 200;" x="260.0148560660226" y="0" dx="0em" dy="0.95em" fill="rgb(33, 33, 33)" stroke="none" stroke-width="1px">12k</text><text style="text-anchor: middle; visibility: hidden; font-family: Roboto, sans-serif; font-size: 12px; font-weight: 200;" x="280.01599884033203" y="0" dx="0em" dy="0.95em" fill="rgb(33, 33, 33)" stroke="none" stroke-width="1px">13k</text></g><line x1="0" y1="0" x2="280.01599884033203" y2="0" fill="rgb(0, 0, 0)" stroke="rgb(204, 204, 204)" stroke-width="1px"></line></g></g></g></g></svg>