<svg viewBox="0 0 330 200" xmlns="http://www.w3.org/2000/svg"><g><g><g><g><g><line x1="59.98000144958496" y1="177.58999919891357" x2="54.98000144958496" y2="177.58999919891357" style="visibility: inherit;" fill="rgb(0, 0, 0)" stroke="rgb(204, 204, 204)" stroke-width="1px"></line><line x1="59.98000144958496" y1="162.7908325990041" x2="54.98000144958496" y2="162.7908325990041" style="visibility: inherit;" fill="rgb(0, 0, 0)" stroke="rgb(204, 204, 204)" stroke-width="1px"></line><line x1="59.98000144958496" y1="147.99166599909464" x2="54.98000144958496" y2="147.99166599909464" style="visibility: inherit;" fill="rgb(0, 0, 0)" stroke="rgb(204, 204, 204)" stroke-width="1px"></line><line x1="59.98000144958496" y1="133.19249939918518" x2="54.98000144958496" y2="133.19249939918518" style="visibility: inherit;" fill="rgb(0, 0, 0)" stroke="rgb(204, 204, 204)" stroke-width="1px"></line><line x1="59.98000144958496" y1="118.39333279927571" x2="54.98000144958496" y2="118.39333279927571" style="visibility: inherit;" fill="rgb(0, 0, 0)" stroke="rgb(204, 204, 204)" stroke-width="1px"></line><line x1="59.98000144958496" y1="103.59416619936624" x2="54.98000144958496" y2="103.59416619936624" style="visibility: inherit;" fill="rgb(0, 0, 0)" stroke="rgb(204, 204, 204)" stroke-width="1px"></line><line x1="59.98000144958496" y1="88.79499959945677" x2="54.98000144958496" y2="88.79499959945677" style="visibility: inherit;" fill="rgb(0, 0, 0)" stroke="rgb(204, 204, 204)" stroke-width="1px"></line><line x1="59.98000144958496" y1="73.99583299954733" x2="54.98000144958496" y2="73.99583299954733" style="visibility: inherit;" fill="rgb(0, 0, 0)" stroke="rgb(204, 204, 204)" stroke-width="1px"></line><line x1="59.98000144958496" y1="59.19666639963784" x2="54.98000144958496" y2="59.19666639963784" style="visibility: inherit;" fill="rgb(0, 0, 0)" stroke="rgb(204, 204, 204)" stroke-width="1px"></line><line x1="59.98000144958496" y1="44.397499799728394" x2="54.98000144958496" y2="44.397499799728394" style="visibility: inherit;" fill="rgb(0, 0, 0)" stroke="rgb(204, 204, 204)" stroke-width="1px"></line><line x1="59.98000144958496" y1="29.598333199818942" x2="54.98000144958496" y2="29.598333199818942" style="visibility: inherit;" fill="rgb(0, 0, 0)" stroke="rgb(204, 204, 204)" stroke-width="1px"></line><line x1="59.98000144958496" y1="14.799166599909451" x2="54.98000144958496" y2="14.799166599909451" style="visibility: inherit;" fill="rgb(0, 0, 0)" stroke="rgb(204, 204, 204)" stroke-width="1px"></line><line x1="59.98000144958496" y1="0" x2="54.98000144958496" y2="0" style="visibility: inherit;" fill="rgb(0, 0, 0)" stroke="rgb(204, 204, 204)" stroke-width="1px"></line></g><g transform="translate(49.98000144958496, 0)"><text style="text-anchor: end; visibility: hidden; font-family: Roboto, sans-serif; font-size: 12px; font-weight: 200;" x="0" y="177.58999919891357" dx="0em" dy="0.3em" fill="rgb(33, 33, 33)" stroke="none" stroke-width="1px">-0.01</text><text style="text-anchor: end; visibility: inherit; font-family: Roboto, sans-serif; font-size: 12px; font-weight: 200;" x="0" y="162.7908325990041" dx="0em" dy="0.3em" fill="rgb(33, 33, 33)" stroke="none" stroke-width="1px">0</text><text style="text-anchor: end; visibility: hidden; font-family: Roboto, sans-serif; font-size: 12px; font-weight: 200;" x="0" y="147.99166599909464" dx="0em" dy="0.3em" fill="rgb(33, 33, 33)" stroke="none" stroke-width="1px">0.01</text><text style="text-anchor: end; visibility: inherit; font-family: Roboto, sans-serif; font-size: 12px; font-weight: 200;" x="0" y="133.19249939918518" dx="0em" dy="0.3em" fill="rgb(33, 33, 33)" stroke="none" stroke-width="1px">0.02</text><text style="text-anchor: end; visibility: hidden; font-family: Roboto, sans-serif; font-size: 12px; font-weight: 200;" x="0" y="118.39333279927571" dx="0em" dy="0.3em" fill="rgb(33, 33, 33)" stroke="none" stroke-width="1px">0.03</text><text style="text-anchor: end; visibility: inherit; font-family: Roboto, sans-serif; font-size: 12px; font-weight: 200;" x="0" y="103.59416619936624" dx="0em" dy="0.3em" fill="rgb(33, 33, 33)" stroke="none" stroke-width="1px">0.04</text><text style="text-anchor: end; visibility: hidden; font-family: Roboto, sans-serif; font-size: 12px; font-weight: 200;" x="0" y="88.79499959945677" dx="0em" dy="0.3em" fill="rgb(33, 33, 33)" stroke="none" stroke-width="1px">0.05</text><text style="text-anchor: end; visibility: inherit; font-family: Roboto, sans-serif; font-size: 12px; font-weight: 200;" x="0" y="73.99583299954733" dx="0em" dy="0.3em" fill="rgb(33, 33, 33)" stroke="none" stroke-width="1px">0.06</text><text style="text-anchor: end; visibility: hidden; font-family: Roboto, sans-serif; font-size: 12px; font-weight: 200;" x="0" y="59.19666639963784" dx="0em" dy="0.3em" fill="rgb(33, 33, 33)" stroke="none" stroke-width="1px">0.07</text><text style="text-anchor: end; visibility: inherit; font-family: Roboto, sans-serif; font-size: 12px; font-weight: 200;" x="0" y="44.397499799728394" dx="0em" dy="0.3em" fill="rgb(33, 33, 33)" stroke="none" stroke-width="1px">0.08</text><text style="text-anchor: end; visibility: hidden; font-family: Roboto, sans-serif; font-size: 12px; font-weight: 200;" x="0" y="29.598333199818942" dx="0em" dy="0.3em" fill="rgb(33, 33, 33)" stroke="none" stroke-width="1px">0.09</text><text style="text-anchor: end; visibility: inherit; font-family: Roboto, sans-serif; font-size: 12px; font-weight: 200;" x="0" y="14.799166599909451" dx="0em" dy="0.3em" fill="rgb(33, 33, 33)" stroke="none" stroke-width="1px">0.1</text><text style="text-anchor: end; visibility: hidden; font-family: Roboto, sans-serif; font-size: 12px; font-weight: 200;" x="0" y="0" dx="0em" dy="0.3em" fill="rgb(33, 33, 33)" stroke="none" stroke-width="1px">0.11</text></g><line x1="59.98000144958496" y1="0" x2="59.98000144958496" y2="177.58999919891357" fill="rgb(0, 0, 0)" stroke="rgb(204, 204, 204)" stroke-width="1px"></line></g></g><g transform="translate(59, 0)" clip-path="url(#clip_0)"><clipPath id="clip_0"><rect width="270" height="177"></rect></clipPath><g><g><g><line x1="0" y1="0" x2="0" y2="177.58999919891357" fill="rgb(0, 0, 0)" stroke="rgb(66, 66, 66)" stroke-width="1px" opacity="0.25"></line><line x1="19.287142753601074" y1="0" x2="19.287142753601074" y2="177.58999919891357" fill="rgb(0, 0, 0)" stroke="rgb(66, 66, 66)" stroke-width="1px" opacity="0.25"></line><line x1="38.57428550720215" y1="0" x2="38.57428550720215" y2="177.58999919891357" fill="rgb(0, 0, 0)" stroke="rgb(66, 66, 66)" stroke-width="1px" opacity="0.25"></line><line x1="57.86142826080322" y1="0" x2="57.86142826080322" y2="177.58999919891357" fill="rgb(0, 0, 0)" stroke="rgb(66, 66, 66)" stroke-width="1px" opacity="0.25"></line><line x1="77.1485710144043" y1="0" x2="77.1485710144043" y2="177.58999919891357" fill="rgb(0, 0, 0)" stroke="rgb(66, 66, 66)" stroke-width="1px" opacity="0.25"></line><line x1="96.43571376800537" y1="0" x2="96.43571376800537" y2="177.58999919891357" fill="rgb(0, 0, 0)" stroke="rgb(66, 66, 66)" stroke-width="1px" opacity="0.25"></line><line x1="115.72285652160645" y1="0" x2="115.72285652160645" y2="177.58999919891357" fill="rgb(0, 0, 0)" stroke="rgb(66, 66, 66)" stroke-width="1px" opacity="0.25"></line><line x1="135.00999927520752" y1="0" x2="135.00999927520752" y2="177.58999919891357" fill="rgb(0, 0, 0)" stroke="rgb(66, 66, 66)" stroke-width="1px" opacity="0.25"></line><line x1="154.2971420288086" y1="0" x2="154.2971420288086" y2="177.58999919891357" fill="rgb(0, 0, 0)" stroke="rgb(66, 66, 66)" stroke-width="1px" opacity="0.25"></line><line x1="173.58428478240967" y1="0" x2="173.58428478240967" y2="177.58999919891357" fill="rgb(0, 0, 0)" stroke="rgb(66, 66, 66)" stroke-width="1px" opacity="0.25"></line><line x1="192.87142753601074" y1="0" x2="192.87142753601074" y2="177.58999919891357" fill="rgb(0, 0, 0)" stroke="rgb(66, 66, 66)" stroke-width="1px" opacity="0.25"></line><line x1="212.15857028961182" y1="0" x2="212.15857028961182" y2="177.58999919891357" fill="rgb(0, 0, 0)" stroke="rgb(66, 66, 66)" stroke-width="1px" opacity="0.25"></line><line x1="231.4457130432129" y1="0" x2="231.4457130432129" y2="177.58999919891357" fill="rgb(0, 0, 0)" stroke="rgb(66, 66, 66)" stroke-width="1px" opacity="0.25"></line><line x1="250.73285579681396" y1="0" x2="250.73285579681396" y2="177.58999919891357" fill="rgb(0, 0, 0)" stroke="rgb(66, 66, 66)" stroke-width="1px" opacity="0.25"></line><line x1="270.01999855041504" y1="0" x2="270.01999855041504" y2="177.58999919891357" fill="rgb(0, 0, 0)" stroke="rgb(66, 66, 66)" stroke-width="1px" opacity="0.25"></line></g><g><line x1="0" y1="177.58999919891357" x2="270.01999855041504" y2="177.58999919891357" fill="rgb(0, 0, 0)" stroke="rgb(66, 66, 66)" stroke-width="1px" opacity="0.25"></line><line x1="0" y1="162.7908325990041" x2="270.01999855041504" y2="162.7908325990041" fill="rgb(0, 0, 0)" stroke="rgb(66, 66, 66)" stroke-width="1px" opacity="0.25"></line><line x1="0" y1="147.99166599909464" x2="270.01999855041504" y2="147.99166599909464" fill="rgb(0, 0, 0)" stroke="rgb(66, 66, 66)" stroke-width="1px" opacity="0.25"></line><line x1="0" y1="133.19249939918518" x2="270.01999855041504" y2="133.19249939918518" fill="rgb(0, 0, 0)" stroke="rgb(66, 66, 66)" stroke-width="1px" opacity="0.25"></line><line x1="0" y1="118.39333279927571" x2="270.01999855041504" y2="118.39333279927571" fill="rgb(0, 0, 0)" stroke="rgb(66, 66, 66)" stroke-width="1px" opacity="0.25"></line><line x1="0" y1="103.59416619936624" x2="270.01999855041504" y2="103.59416619936624" fill="rgb(0, 0, 0)" stroke="rgb(66, 66, 66)" stroke-width="1px" opacity="0.25"></line><line x1="0" y1="88.79499959945677" x2="270.01999855041504" y2="88.79499959945677" fill="rgb(0, 0, 0)" stroke="rgb(66, 66, 66)" stroke-width="1px" opacity="0.25"></line><line x1="0" y1="73.99583299954733" x2="270.01999855041504" y2="73.99583299954733" fill="rgb(0, 0, 0)" stroke="rgb(66, 66, 66)" stroke-width="1px" opacity="0.25"></line><line x1="0" y1="59.19666639963784" x2="270.01999855041504" y2="59.19666639963784" fill="rgb(0, 0, 0)" stroke="rgb(66, 66, 66)" stroke-width="1px" opacity="0.25"></line><line x1="0" y1="44.397499799728394" x2="270.01999855041504" y2="44.397499799728394" fill="rgb(0, 0, 0)" stroke="rgb(66, 66, 66)" stroke-width="1px" opacity="0.25"></line><line x1="0" y1="29.598333199818942" x2="270.01999855041504" y2="29.598333199818942" fill="rgb(0, 0, 0)" stroke="rgb(66, 66, 66)" stroke-width="1px" opacity="0.25"></line><line x1="0" y1="14.799166599909451" x2="270.01999855041504" y2="14.799166599909451" fill="rgb(0, 0, 0)" stroke="rgb(66, 66, 66)" stroke-width="1px" opacity="0.25"></line><line x1="0" y1="0" x2="270.01999855041504" y2="0" fill="rgb(0, 0, 0)" stroke="rgb(66, 66, 66)" stroke-width="1px" opacity="0.25"></line></g></g></g><g><g><line x1="0" y1="162.7908325990041" x2="270.01999855041504" y2="162.7908325990041" fill="rgb(0, 0, 0)" stroke="rgb(153, 153, 153)" stroke-width="1.5px"></line></g></g><g><g><line x1="19.287142753601074" y1="0" x2="19.287142753601074" y2="177.58999919891357" fill="rgb(0, 0, 0)" stroke="rgb(153, 153, 153)" stroke-width="1.5px"></line></g></g><g><g><g><g><g><path style="fill: none;" stroke="rgb(255, 112, 67)" stroke-width="2px" d="M21.21585702896118,10.911500197801088L23.14457130432129,76.40667376014069L25.073285579681396,86.71974162564402L27.001999855041504,104.77231241537011L28.93071413040161,120.20852859214469L30.85942840576172,123.50024131106548L32.788142681121826,125.57963984986218L34.716856956481934,127.05011313434034L36.64557123184204,132.55023547497734L38.57428550720215,127.57652089057646L40.502999782562256,129.3834224215318L42.43171405792236,120.24208908162126L44.36042833328247,122.02346628794076L46.28914260864258,130.56092405176753L48.217856884002686,134.90649373732293L50.14657115936279,141.21842601667754L52.0752854347229,142.86465572733806L54.00399971008301,144.42929780983232L55.93271398544312,141.07333832310294L57.86142826080322,139.83673253821866L59.79014253616333,143.0460230734726L61.71885681152344,143.48971169855062L63.647571086883545,144.24350910576666L65.57628536224365,140.34168186258L67.50499963760376,140.09313579854702L69.43371391296387,143.0283537570558L71.36242818832397,146.58204354030258L73.29114246368408,150.03999097868947L75.21985673904419,151.57283839088825L77.1485710144043,153.1935281573898L79.0772852897644,153.89969089952547L81.00599956512451,153.9588069873584L82.93471384048462,151.78394714350043L84.86342811584473,152.515317917694L86.79214239120483,151.59758720284066L88.72085666656494,151.3997106799475L90.64957094192503,150.06560771403335L92.57828521728516,150.8754252373841L94.50699949264526,153.08849219174627L96.43571376800537,150.8531943363519L98.36442804336548,152.63631487433642L100.29314231872559,153.1582556473713L102.2218565940857,154.44416836586714L104.1505708694458,154.50506942169875L106.07928514480591,152.75530954825393L108.00799942016602,152.84145526134486L109.93671369552612,151.43248724669425L111.86542797088624,153.132930629018L113.79414224624634,152.5970570240071L115.72285652160645,130.0473329258158L117.65157079696655,132.1851634906801L119.58028507232666,139.01823866499603L121.50899934768677,142.7664724652609L123.43771362304688,146.6457140319647L125.36642789840698,149.942821194968L127.29514217376709,150.25206915377507L129.2238564491272,151.75058903764383L131.1525707244873,152.82012471318095L133.0812849998474,143.4608398129959L135.00999927520752,147.28277678651003L136.93871355056763,148.032628915893L138.86742782592773,150.99155880092712L140.79614210128784,148.71495689749082L142.72485637664795,150.3507019763631L144.65357065200806,151.9985054043793L146.58228492736816,151.62181305221304L148.51099920272827,152.02073781642025L150.43971347808838,153.18195456384896L152.3684277534485,152.0560755296296L154.2971420288086,149.21636104769837L156.22585630416873,149.0842647478649L158.1545705795288,151.53485028043252L160.08328485488892,153.00385474495843L162.01199913024902,153.97569297670125L163.94071340560913,155.00307117585655L165.86942768096924,154.4246808490739L167.79814195632935,154.63154477480938L169.72685623168945,153.56847962444186L171.65557050704956,154.41804397697462L173.58428478240967,155.5405373923425L175.51299905776978,155.49552185084164L177.44171333312988,155.67563159239262L179.37042760849,157.066737959729L181.29914188385007,153.74972105950266L183.2278561592102,151.37430487204466L185.1565704345703,151.9625661929858L187.08528470993042,152.66797669447195L189.01399898529053,153.02726557545887L190.94271326065063,154.0275283234255L192.87142753601074,155.40594847290058L194.80014181137085,156.85655749649135L196.72885608673096,156.45574538025497L198.65757036209106,156.8227259708996L200.58628463745117,156.54072030253343L202.51499891281128,156.549479837203L204.4437131881714,157.33370442709423L206.3724274635315,156.65265815840695L208.3011417388916,155.17171052416998L210.2298560142517,156.5280348675049L212.15857028961182,157.66365642712486L214.08728456497192,157.98839960402753L216.01599884033203,157.70817203675074L217.94471311569214,158.01102664288123L219.87342739105225,157.03555043911166L221.80214166641235,155.6229745986346L223.7308559417725,156.94623217441514L225.65957021713257,157.67318288815L227.58828449249268,157.51971295382793L229.51699876785278,156.43386424747737L231.4457130432129,156.7763872261127L233.374427318573,157.20966684888745L235.3031415939331,156.58714729297492L237.2318558692932,155.29026665939625L239.16057014465332,152.70087106099726L241.08928442001343,152.6561253536674L243.01799869537354,154.11526560301832L244.94671297073364,154.83302079128342L246.87542724609375,155.7045135263096L248.80414152145383,155.91754030702697L250.73285579681396,156.56594767690063L252.66157007217407,157.47637880553717L254.59028434753418,156.07753612642645L256.5189986228943,154.51025565917283L258.4477128982544,154.32219218484343L260.3764271736145,155.344361170517L262.3051414489746,155.57097762037998" fill="none"></path></g></g></g></g><g opacity="0.2"><g><g><g><path style="fill: none;" stroke="rgb(255, 112, 67)" stroke-width="2px" d="M21.21585702896118,10.911500197801088L23.14457130432129,115.70377789754441L25.073285579681396,96.62028677652722L27.001999855041504,126.00213566408799L28.93071413040161,140.36205243254156L30.85942840576172,128.0538650179118L32.788142681121826,128.55321303071807L34.716856956481934,129.194077299653L36.64557123184204,140.6618475836535L38.57428550720215,120.19113438933373L40.502999782562256,132.07738625406697L42.43171405792236,106.57983580410993L44.36042833328247,124.68971559176535L46.28914260864258,143.35038492897846L48.217856884002686,141.4197402116171L50.14657115936279,150.6818727720373L52.0752854347229,145.33330366408683L54.00399971008301,146.77586367111846L55.93271398544312,136.03991033965895L57.86142826080322,137.98193689155914L59.79014253616333,147.8597828712334L61.71885681152344,144.15523003640445L63.647571086883545,145.3741903341758L65.57628536224365,134.4889872186635L67.50499963760376,139.72031846905662L69.43371391296387,147.43116817745513L71.36242818832397,151.91256912225455L73.29114246368408,155.22690682750599L75.21985673904419,153.87210809721734L77.1485710144043,155.62456191141155L79.0772852897644,154.9589347785577L81.00599956512451,154.04748110734567L82.93471384048462,148.52165763734806L84.86342811584473,153.6123740265978L86.79214239120483,150.22099117000172L88.72085666656494,151.10289590071022L90.64957094192503,148.06445328580287L92.57828521728516,152.09015151489268L94.50699949264526,156.40809261096322L96.43571376800537,147.50024756073037L98.36442804336548,155.31099567773785L100.29314231872559,153.94116680629566L102.2218565940857,156.37303744268266L104.1505708694458,154.59642100541984L106.07928514480591,150.13066973854137L108.00799942016602,152.9706738309678L109.93671369552612,149.31903522485015L111.86542797088624,155.6835957024082L113.79414224624634,151.7932466165088L115.72285652160645,96.22274677898447L117.65157079696655,135.39190933795066L119.58028507232666,149.2678514264202L121.50899934768677,148.3888231656418L123.43771362304688,152.46457638201028L125.36642789840698,154.88848193946774L127.29514217376709,150.71594109198537L129.2238564491272,153.9983688634461L131.1525707244873,154.42442822648627L133.0812849998474,129.42191246272023L135.00999927520752,153.01568224678073L136.93871355056763,149.15740710996747L138.86742782592773,155.42995362847813L140.79614210128784,145.3000540423364L142.72485637664795,152.80431959467148L144.65357065200806,154.47021054640356L146.58228492736816,151.0567745239636L148.51099920272827,152.6191249627311L150.43971347808838,154.92377968499207L152.3684277534485,150.3672569783005L154.2971420288086,144.95678932480152L156.22585630416873,148.88612029811463L158.1545705795288,155.21072857928402L160.08328485488892,155.20736144174728L162.01199913024902,155.43345032431552L163.94071340560913,156.5441384745895L165.86942768096924,153.55709535889986L167.79814195632935,154.94184066341262L169.72685623168945,151.97388189889062L171.65557050704956,155.69239050577372L173.58428478240967,157.22427751539433L175.51299905776978,155.42799853859034L177.44171333312988,155.9457962047191L179.37042760849,159.15339751073358L181.29914188385007,148.77419570916314L183.2278561592102,147.8111805908576L185.1565704345703,152.84495817439753L187.08528470993042,153.72609244670116L189.01399898529053,153.56619889693923L190.94271326065063,155.52792244537548L192.87142753601074,157.4735786971132L194.80014181137085,159.03247103187755L196.72885608673096,155.85452720590038L198.65757036209106,157.3731968568665L200.58628463745117,156.11771179998422L202.51499891281128,156.56261913920733L204.4437131881714,158.5100413119311L206.3724274635315,155.63108875537603L208.3011417388916,152.95028907281454L210.2298560142517,158.5625213825073L212.15857028961182,159.3670887665548L214.08728456497192,158.47551436938159L216.01599884033203,157.28783068583553L217.94471311569214,158.46530855207698L219.87342739105225,155.57233613345733L221.80214166641235,153.50411083791906L223.7308559417725,158.9311185380859L225.65957021713257,158.7636089587523L227.58828449249268,157.28950805234484L229.51699876785278,154.80509118795152L231.4457130432129,157.29017169406563L233.374427318573,157.85958628304962L235.3031415939331,155.6533679591061L237.2318558692932,153.34494570902825L239.16057014465332,148.81677766339874L241.08928442001343,152.58900679267265L243.01799869537354,156.30397597704473L244.94671297073364,155.90965357368106L246.87542724609375,157.0117526288488L248.80414152145383,156.23708047810308L250.73285579681396,157.53855873171113L252.66157007217407,158.84202549849198L254.59028434753418,153.97927210776035L256.5189986228943,152.1593349582924L258.4477128982544,154.04009697334934L260.3764271736145,156.87761464902738L262.3051414489746,155.91090229517442" fill="none"></path></g></g></g></g></g></g><g transform="translate(59, 177)" clip-path="url(#clip_1)"><clipPath id="clip_1"><rect width="270" height="22"></rect></clipPath><g><g><line x1="0" y1="0" x2="0" y2="5" style="visibility: inherit;" fill="rgb(0, 0, 0)" stroke="rgb(204, 204, 204)" stroke-width="1px"></line><line x1="19.287142753601074" y1="0" x2="19.287142753601074" y2="5" style="visibility: inherit;" fill="rgb(0, 0, 0)" stroke="rgb(204, 204, 204)" stroke-width="1px"></line><line x1="38.57428550720215" y1="0" x2="38.57428550720215" y2="5" style="visibility: inherit;" fill="rgb(0, 0, 0)" stroke="rgb(204, 204, 204)" stroke-width="1px"></line><line x1="57.86142826080322" y1="0" x2="57.86142826080322" y2="5" style="visibility: inherit;" fill="rgb(0, 0, 0)" stroke="rgb(204, 204, 204)" stroke-width="1px"></line><line x1="77.1485710144043" y1="0" x2="77.1485710144043" y2="5" style="visibility: inherit;" fill="rgb(0, 0, 0)" stroke="rgb(204, 204, 204)" stroke-width="1px"></line><line x1="96.43571376800537" y1="0" x2="96.43571376800537" y2="5" style="visibility: inherit;" fill="rgb(0, 0, 0)" stroke="rgb(204, 204, 204)" stroke-width="1px"></line><line x1="115.72285652160645" y1="0" x2="115.72285652160645" y2="5" style="visibility: inherit;" fill="rgb(0, 0, 0)" stroke="rgb(204, 204, 204)" stroke-width="1px"></line><line x1="135.00999927520752" y1="0" x2="135.00999927520752" y2="5" style="visibility: inherit;" fill="rgb(0, 0, 0)" stroke="rgb(204, 204, 204)" stroke-width="1px"></line><line x1="154.2971420288086" y1="0" x2="154.2971420288086" y2="5" style="visibility: inherit;" fill="rgb(0, 0, 0)" stroke="rgb(204, 204, 204)" stroke-width="1px"></line><line x1="173.58428478240967" y1="0" x2="173.58428478240967" y2="5" style="visibility: inherit;" fill="rgb(0, 0, 0)" stroke="rgb(204, 204, 204)" stroke-width="1px"></line><line x1="192.87142753601074" y1="0" x2="192.87142753601074" y2="5" style="visibility: inherit;" fill="rgb(0, 0, 0)" stroke="rgb(204, 204, 204)" stroke-width="1px"></line><line x1="212.15857028961182" y1="0" x2="212.15857028961182" y2="5" style="visibility: inherit;" fill="rgb(0, 0, 0)" stroke="rgb(204, 204, 204)" stroke-width="1px"></line><line x1="231.4457130432129" y1="0" x2="231.4457130432129" y2="5" style="visibility: inherit;" fill="rgb(0, 0, 0)" stroke="rgb(204, 204, 204)" stroke-width="1px"></line><line x1="250.73285579681396" y1="0" x2="250.73285579681396" y2="5" style="visibility: inherit;" fill="rgb(0, 0, 0)" stroke="rgb(204, 204, 204)" stroke-width="1px"></line><line x1="270.01999855041504" y1="0" x2="270.01999855041504" y2="5" style="visibility: inherit;" fill="rgb(0, 0, 0)" stroke="rgb(204, 204, 204)" stroke-width="1px"></line></g><g transform="translate(0, 8)"><text style="text-anchor: middle; visibility: hidden; font-family: Roboto, sans-serif; font-size: 12px; font-weight: 200;" x="0" y="0" dx="0em" dy="0.95em" fill="rgb(33, 33, 33)" stroke="none" stroke-width="1px">-1k</text><text style="text-anchor: middle; visibility: inherit; font-family: Roboto, sans-serif; font-size: 12px; font-weight: 200;" x="19.287142753601074" y="0" dx="0em" dy="0.95em" fill="rgb(33, 33, 33)" stroke="none" stroke-width="1px">0</text><text style="text-anchor: middle; visibility: hidden; font-family: Roboto, sans-serif; font-size: 12px; font-weight: 200;" x="38.57428550720215" y="0" dx="0em" dy="0.95em" fill="rgb(33, 33, 33)" stroke="none" stroke-width="1px">1k</text><text style="text-anchor: middle; visibility: inherit; font-family: Roboto, sans-serif; font-size: 12px; font-weight: 200;" x="57.86142826080322" y="0" dx="0em" dy="0.95em" fill="rgb(33, 33, 33)" stroke="none" stroke-width="1px">2k</text><text style="text-anchor: middle; visibility: hidden; font-family: Roboto, sans-serif; font-size: 12px; font-weight: 200;" x="77.1485710144043" y="0" dx="0em" dy="0.95em" fill="rgb(33, 33, 33)" stroke="none" stroke-width="1px">3k</text><text style="text-anchor: middle; visibility: inherit; font-family: Roboto, sans-serif; font-size: 12px; font-weight: 200;" x="96.43571376800537" y="0" dx="0em" dy="0.95em" fill="rgb(33, 33, 33)" stroke="none" stroke-width="1px">4k</text><text style="text-anchor: middle; visibility: hidden; font-family: Roboto, sans-serif; font-size: 12px; font-weight: 200;" x="115.72285652160645" y="0" dx="0em" dy="0.95em" fill="rgb(33, 33, 33)" stroke="none" stroke-width="1px">5k</text><text style="text-anchor: middle; visibility: inherit; font-family: Roboto, sans-serif; font-size: 12px; font-weight: 200;" x="135.00999927520752" y="0" dx="0em" dy="0.95em" fill="rgb(33, 33, 33)" stroke="none" stroke-width="1px">6k</text><text style="text-anchor: middle; visibility: hidden; font-family: Roboto, sans-serif; font-size: 12px; font-weight: 200;" x="154.2971420288086" y="0" dx="0em" dy="0.95em" fill="rgb(33, 33, 33)" stroke="none" stroke-width="1px">7k</text><text style="text-anchor: middle; visibility: inherit; font-family: Roboto, sans-serif; font-size: 12px; font-weight: 200;" x="173.58428478240967" y="0" dx="0em" dy="0.95em" fill="rgb(33, 33, 33)" stroke="none" stroke-width="1px">8k</text><text style="text-anchor: middle; visibility: hidden; font-family: Roboto, sans-serif; font-size: 12px; font-weight: 200;" x="192.87142753601074" y="0" dx="0em" dy="0.95em" fill="rgb(33, 33, 33)" stroke="none" stroke-width="1px">9k</text><text style="text-anchor: middle; visibility: inherit; font-family: Roboto, sans-serif; font-size: 12px; font-weight: 200;" x="212.15857028961182" y="0" dx="0em" dy="0.95em" fill="rgb(33, 33, 33)" stroke="none" stroke-width="1px">10k</text><text style="text-anchor: middle; visibility: hidden; font-family: Roboto, sans-serif; font-size: 12px; font-weight: 200;" x="231.4457130432129" y="0" dx="0em" dy="0.95em" fill="rgb(33, 33, 33)" stroke="none" stroke-width="1px">11k</text><text style="text-anchor: middle; visibility: inherit; font-family: Roboto, sans-serif; font-size: 12px; font-weight: 200;" x="250.73285579681396" y="0" dx="0em" dy="0.95em" fill="rgb(33, 33, 33)" stroke="none" stroke-width="1px">12k</text><text style="text-anchor: middle; visibility: hidden; font-family: Roboto, sans-serif; font-size: 12px; font-weight: 200;" x="270.01999855041504" y="0" dx="0em" dy="0.95em" fill="rgb(33, 33, 33)" stroke="none" stroke-width="1px">13k</text></g><line x1="0" y1="0" x2="270.01999855041504" y2="0" fill="rgb(0, 0, 0)" stroke="rgb(204, 204, 204)" stroke-width="1px"></line></g></g></g></g></svg>