<svg viewBox="0 0 330 200" xmlns="http://www.w3.org/2000/svg"><g><g><g><g><g><line x1="41.149001121520996" y1="176.5999994277954" x2="36.149001121520996" y2="176.5999994277954" style="visibility: inherit;" fill="rgb(0, 0, 0)" stroke="rgb(204, 204, 204)" stroke-width="1px"></line><line x1="41.149001121520996" y1="158.93999948501587" x2="36.149001121520996" y2="158.93999948501587" style="visibility: inherit;" fill="rgb(0, 0, 0)" stroke="rgb(204, 204, 204)" stroke-width="1px"></line><line x1="41.149001121520996" y1="141.27999954223634" x2="36.149001121520996" y2="141.27999954223634" style="visibility: inherit;" fill="rgb(0, 0, 0)" stroke="rgb(204, 204, 204)" stroke-width="1px"></line><line x1="41.149001121520996" y1="123.61999959945678" x2="36.149001121520996" y2="123.61999959945678" style="visibility: inherit;" fill="rgb(0, 0, 0)" stroke="rgb(204, 204, 204)" stroke-width="1px"></line><line x1="41.149001121520996" y1="105.95999965667724" x2="36.149001121520996" y2="105.95999965667724" style="visibility: inherit;" fill="rgb(0, 0, 0)" stroke="rgb(204, 204, 204)" stroke-width="1px"></line><line x1="41.149001121520996" y1="88.2999997138977" x2="36.149001121520996" y2="88.2999997138977" style="visibility: inherit;" fill="rgb(0, 0, 0)" stroke="rgb(204, 204, 204)" stroke-width="1px"></line><line x1="41.149001121520996" y1="70.63999977111814" x2="36.149001121520996" y2="70.63999977111814" style="visibility: inherit;" fill="rgb(0, 0, 0)" stroke="rgb(204, 204, 204)" stroke-width="1px"></line><line x1="41.149001121520996" y1="52.979999828338634" x2="36.149001121520996" y2="52.979999828338634" style="visibility: inherit;" fill="rgb(0, 0, 0)" stroke="rgb(204, 204, 204)" stroke-width="1px"></line><line x1="41.149001121520996" y1="35.31999988555907" x2="36.149001121520996" y2="35.31999988555907" style="visibility: inherit;" fill="rgb(0, 0, 0)" stroke="rgb(204, 204, 204)" stroke-width="1px"></line><line x1="41.149001121520996" y1="17.659999942779557" x2="36.149001121520996" y2="17.659999942779557" style="visibility: inherit;" fill="rgb(0, 0, 0)" stroke="rgb(204, 204, 204)" stroke-width="1px"></line><line x1="41.149001121520996" y1="0" x2="36.149001121520996" y2="0" style="visibility: inherit;" fill="rgb(0, 0, 0)" stroke="rgb(204, 204, 204)" stroke-width="1px"></line></g><g transform="translate(31.149001121520996, 0)"><text style="text-anchor: end; visibility: hidden; font-family: Roboto, sans-serif; font-size: 12px; font-weight: 200;" x="0" y="176.5999994277954" dx="0em" dy="0.3em" fill="rgb(33, 33, 33)" stroke="none" stroke-width="1px">0.5</text><text style="text-anchor: end; visibility: inherit; font-family: Roboto, sans-serif; font-size: 12px; font-weight: 200;" x="0" y="158.93999948501587" dx="0em" dy="0.3em" fill="rgb(33, 33, 33)" stroke="none" stroke-width="1px">0.6</text><text style="text-anchor: end; visibility: hidden; font-family: Roboto, sans-serif; font-size: 12px; font-weight: 200;" x="0" y="141.27999954223634" dx="0em" dy="0.3em" fill="rgb(33, 33, 33)" stroke="none" stroke-width="1px">0.7</text><text style="text-anchor: end; visibility: inherit; font-family: Roboto, sans-serif; font-size: 12px; font-weight: 200;" x="0" y="123.61999959945678" dx="0em" dy="0.3em" fill="rgb(33, 33, 33)" stroke="none" stroke-width="1px">0.8</text><text style="text-anchor: end; visibility: hidden; font-family: Roboto, sans-serif; font-size: 12px; font-weight: 200;" x="0" y="105.95999965667724" dx="0em" dy="0.3em" fill="rgb(33, 33, 33)" stroke="none" stroke-width="1px">0.9</text><text style="text-anchor: end; visibility: inherit; font-family: Roboto, sans-serif; font-size: 12px; font-weight: 200;" x="0" y="88.2999997138977" dx="0em" dy="0.3em" fill="rgb(33, 33, 33)" stroke="none" stroke-width="1px">1</text><text style="text-anchor: end; visibility: hidden; font-family: Roboto, sans-serif; font-size: 12px; font-weight: 200;" x="0" y="70.63999977111814" dx="0em" dy="0.3em" fill="rgb(33, 33, 33)" stroke="none" stroke-width="1px">1.1</text><text style="text-anchor: end; visibility: inherit; font-family: Roboto, sans-serif; font-size: 12px; font-weight: 200;" x="0" y="52.979999828338634" dx="0em" dy="0.3em" fill="rgb(33, 33, 33)" stroke="none" stroke-width="1px">1.2</text><text style="text-anchor: end; visibility: hidden; font-family: Roboto, sans-serif; font-size: 12px; font-weight: 200;" x="0" y="35.31999988555907" dx="0em" dy="0.3em" fill="rgb(33, 33, 33)" stroke="none" stroke-width="1px">1.3</text><text style="text-anchor: end; visibility: inherit; font-family: Roboto, sans-serif; font-size: 12px; font-weight: 200;" x="0" y="17.659999942779557" dx="0em" dy="0.3em" fill="rgb(33, 33, 33)" stroke="none" stroke-width="1px">1.4</text><text style="text-anchor: end; visibility: hidden; font-family: Roboto, sans-serif; font-size: 12px; font-weight: 200;" x="0" y="0" dx="0em" dy="0.3em" fill="rgb(33, 33, 33)" stroke="none" stroke-width="1px">1.5</text></g><line x1="41.149001121520996" y1="0" x2="41.149001121520996" y2="176.5999994277954" fill="rgb(0, 0, 0)" stroke="rgb(204, 204, 204)" stroke-width="1px"></line></g></g><g transform="translate(41, 0)" clip-path="url(#clip_0)"><clipPath id="clip_0"><rect width="288" height="176"></rect></clipPath><g><g><g><line x1="0" y1="0" x2="0" y2="176.5999994277954" fill="rgb(0, 0, 0)" stroke="rgb(66, 66, 66)" stroke-width="1px" opacity="0.25"></line><line x1="20.632214205605642" y1="0" x2="20.632214205605642" y2="176.5999994277954" fill="rgb(0, 0, 0)" stroke="rgb(66, 66, 66)" stroke-width="1px" opacity="0.25"></line><line x1="41.264428411211284" y1="0" x2="41.264428411211284" y2="176.5999994277954" fill="rgb(0, 0, 0)" stroke="rgb(66, 66, 66)" stroke-width="1px" opacity="0.25"></line><line x1="61.896642616816926" y1="0" x2="61.896642616816926" y2="176.5999994277954" fill="rgb(0, 0, 0)" stroke="rgb(66, 66, 66)" stroke-width="1px" opacity="0.25"></line><line x1="82.52885682242257" y1="0" x2="82.52885682242257" y2="176.5999994277954" fill="rgb(0, 0, 0)" stroke="rgb(66, 66, 66)" stroke-width="1px" opacity="0.25"></line><line x1="103.16107102802822" y1="0" x2="103.16107102802822" y2="176.5999994277954" fill="rgb(0, 0, 0)" stroke="rgb(66, 66, 66)" stroke-width="1px" opacity="0.25"></line><line x1="123.79328523363385" y1="0" x2="123.79328523363385" y2="176.5999994277954" fill="rgb(0, 0, 0)" stroke="rgb(66, 66, 66)" stroke-width="1px" opacity="0.25"></line><line x1="144.4254994392395" y1="0" x2="144.4254994392395" y2="176.5999994277954" fill="rgb(0, 0, 0)" stroke="rgb(66, 66, 66)" stroke-width="1px" opacity="0.25"></line><line x1="165.05771364484514" y1="0" x2="165.05771364484514" y2="176.5999994277954" fill="rgb(0, 0, 0)" stroke="rgb(66, 66, 66)" stroke-width="1px" opacity="0.25"></line><line x1="185.6899278504508" y1="0" x2="185.6899278504508" y2="176.5999994277954" fill="rgb(0, 0, 0)" stroke="rgb(66, 66, 66)" stroke-width="1px" opacity="0.25"></line><line x1="206.32214205605644" y1="0" x2="206.32214205605644" y2="176.5999994277954" fill="rgb(0, 0, 0)" stroke="rgb(66, 66, 66)" stroke-width="1px" opacity="0.25"></line><line x1="226.95435626166207" y1="0" x2="226.95435626166207" y2="176.5999994277954" fill="rgb(0, 0, 0)" stroke="rgb(66, 66, 66)" stroke-width="1px" opacity="0.25"></line><line x1="247.5865704672677" y1="0" x2="247.5865704672677" y2="176.5999994277954" fill="rgb(0, 0, 0)" stroke="rgb(66, 66, 66)" stroke-width="1px" opacity="0.25"></line><line x1="268.21878467287337" y1="0" x2="268.21878467287337" y2="176.5999994277954" fill="rgb(0, 0, 0)" stroke="rgb(66, 66, 66)" stroke-width="1px" opacity="0.25"></line><line x1="288.850998878479" y1="0" x2="288.850998878479" y2="176.5999994277954" fill="rgb(0, 0, 0)" stroke="rgb(66, 66, 66)" stroke-width="1px" opacity="0.25"></line></g><g><line x1="0" y1="176.5999994277954" x2="288.850998878479" y2="176.5999994277954" fill="rgb(0, 0, 0)" stroke="rgb(66, 66, 66)" stroke-width="1px" opacity="0.25"></line><line x1="0" y1="158.93999948501587" x2="288.850998878479" y2="158.93999948501587" fill="rgb(0, 0, 0)" stroke="rgb(66, 66, 66)" stroke-width="1px" opacity="0.25"></line><line x1="0" y1="141.27999954223634" x2="288.850998878479" y2="141.27999954223634" fill="rgb(0, 0, 0)" stroke="rgb(66, 66, 66)" stroke-width="1px" opacity="0.25"></line><line x1="0" y1="123.61999959945678" x2="288.850998878479" y2="123.61999959945678" fill="rgb(0, 0, 0)" stroke="rgb(66, 66, 66)" stroke-width="1px" opacity="0.25"></line><line x1="0" y1="105.95999965667724" x2="288.850998878479" y2="105.95999965667724" fill="rgb(0, 0, 0)" stroke="rgb(66, 66, 66)" stroke-width="1px" opacity="0.25"></line><line x1="0" y1="88.2999997138977" x2="288.850998878479" y2="88.2999997138977" fill="rgb(0, 0, 0)" stroke="rgb(66, 66, 66)" stroke-width="1px" opacity="0.25"></line><line x1="0" y1="70.63999977111814" x2="288.850998878479" y2="70.63999977111814" fill="rgb(0, 0, 0)" stroke="rgb(66, 66, 66)" stroke-width="1px" opacity="0.25"></line><line x1="0" y1="52.979999828338634" x2="288.850998878479" y2="52.979999828338634" fill="rgb(0, 0, 0)" stroke="rgb(66, 66, 66)" stroke-width="1px" opacity="0.25"></line><line x1="0" y1="35.31999988555907" x2="288.850998878479" y2="35.31999988555907" fill="rgb(0, 0, 0)" stroke="rgb(66, 66, 66)" stroke-width="1px" opacity="0.25"></line><line x1="0" y1="17.659999942779557" x2="288.850998878479" y2="17.659999942779557" fill="rgb(0, 0, 0)" stroke="rgb(66, 66, 66)" stroke-width="1px" opacity="0.25"></line><line x1="0" y1="0" x2="288.850998878479" y2="0" fill="rgb(0, 0, 0)" stroke="rgb(66, 66, 66)" stroke-width="1px" opacity="0.25"></line></g></g></g><g><g><line x1="0" y1="264.8999991416931" x2="288.850998878479" y2="264.8999991416931" fill="rgb(0, 0, 0)" stroke="rgb(153, 153, 153)" stroke-width="1.5px"></line></g></g><g><g><line x1="20.632214205605642" y1="0" x2="20.632214205605642" y2="176.5999994277954" fill="rgb(0, 0, 0)" stroke="rgb(153, 153, 153)" stroke-width="1.5px"></line></g></g><g><g><g><g><g><path style="fill: none;" stroke="rgb(255, 112, 67)" stroke-width="2px" d="M22.69543562616621,155.22142210973158L24.75865704672677,64.76117258397184L26.821878467287338,37.767574853313874L28.8850998878479,26.066439664447753L30.948321308408463,19.884739175981576L33.011542728969026,16.471262775515275L35.07476414952959,15.271588854045254L37.13798557009015,13.914181014254613L39.20120699065072,13.878086273672562L41.264428411211284,13.09053358937584L43.32764983177185,13.094021118999754L45.39087125233242,12.797480369411463L47.454092672892976,12.888965872180307L49.51731409345354,13.134942722112342L51.58053551401411,12.570484048722028L53.643756934574675,11.959096857765793L55.70697835513524,12.213491032657503L57.7701997756958,12.415822280387237L59.83342119625637,12.05016131227832L61.896642616816926,12.261610248813883L63.95986403737749,12.586489088281462L66.02308545793805,12.473462269473574L68.08630687849862,12.750335939867332L70.14952829905918,12.301735325231382L72.21274971961975,11.621313075446256L74.2759711401803,11.676668415709456L76.33919256074088,12.576894439320268L78.40241398130144,13.057493351847969L80.46563540186202,12.428609247935817L82.52885682242257,12.166056428524511L84.59207824298313,13.477887099100837L86.6552996635437,12.485117643264134L88.71852108410427,12.081546187342031L90.78174250466483,11.833887607522202L92.8449639252254,11.630312118632208L94.90818534578595,11.324371297825888L96.97140676634652,11.815796013758595L99.03462818690709,11.238678909501793L101.09784960746765,10.878034096560752L103.16107102802822,10.145039124661253L105.22429244858877,12.47690329299918L107.28751386914935,12.18402673941333L109.3507352897099,12.251059786432856L111.41395671027048,12.24290971121613L113.47717813083104,12.575968998218062L115.5403995513916,12.396070513223622L117.60362097195217,12.384391235234547L119.66684239251273,12.524354407333101L121.7300638130733,12.101770413039526L123.79328523363385,12.160712834289445L125.85650665419442,14.545765922488364L127.91972807475499,13.760540000592416L129.98294949531555,12.873005599317429L132.0461709158761,12.469215932333858L134.10939233643668,12.668814336446777L136.17261375699724,12.585123367366535L138.23583517755782,12.697331957389315L140.29905659811837,12.779848494715514L142.36227801867895,11.828242888433476L144.4254994392395,12.184122325616402L146.48872085980005,12.944438735849307L148.5519422803606,12.162042427249716L150.61516370092122,12.40393021847476L152.67838512148177,12.49081522227122L154.74160654204232,12.279960137602153L156.80482796260287,11.944203465652436L158.86804938316345,12.069195784819703L160.93127080372403,11.627675722747647L162.99449222428458,11.381870807863816L165.05771364484514,11.94572185626247L167.12093506540572,13.244020122572081L169.18415648596627,11.038052259372547L171.24737790652685,11.636375212212299L173.3105993270874,11.370265455057806L175.37382074764795,11.803711962658674L177.43704216820854,11.615701427051102L179.5002635887691,12.130407024582317L181.56348500932967,11.901047840136583L183.62670642989022,11.785764673451952L185.6899278504508,11.896912451308477L187.75314927101135,13.017221233703356L189.8163706915719,12.494583995338692L191.87959211213249,12.557476804069413L193.94281353269304,12.800161428920887L196.00603495325362,12.559714017597912L198.06925637381417,12.762733730002962L200.13247779437472,13.105367976850756L202.1956992149353,13.131119261854959L204.25892063549588,13.02235268516122L206.32214205605644,13.020435081316434L208.385363476617,14.278030414131548L210.44858489717754,13.184678779628598L212.51180631773815,12.391296936411111L214.5750277382987,12.489820431386923L216.63824915885925,11.968605159754095L218.7014705794198,12.130808827953432L220.76469199998036,11.95144406573449L222.82791342054097,12.11624275283911L224.89113484110152,12.138440847338833L226.95435626166207,12.17939724285906L229.01757768222262,13.078738762273364L231.0807991027832,12.99712220033358L233.14402052334378,12.596013640119388L235.20724194390434,12.149237474080067L237.2704633644649,12.986437540833805L239.33368478502547,12.254718736007524L241.39690620558602,12.231943145198683L243.4601276261466,12.25127105003644L245.52334904670715,12.403758610124779L247.5865704672677,12.42203945741962L249.6497918878283,14.64721945116069L251.71301330838884,13.796688225666289L253.77623472894942,13.230168108868341L255.83945614950997,12.76682183890268L257.9026775700706,12.796220644454488L259.9658989906311,12.512086971915224L262.0291204111917,12.336259468833163L264.0923418317522,12.65350278609453L266.1555632523128,12.395105081692586L268.21878467287337,11.538711280583538L270.28200609343395,14.041922462142644L272.3452275139945,13.848199428723715L274.40844893455505,13.333587581093521L276.47167035511563,12.63867807683964L278.5348917756762,12.53513465407933L280.59811319623674,12.349464928261803" fill="none"></path></g></g></g></g><g opacity="0.2"><g><g><g><path style="fill: none;" stroke="rgb(255, 112, 67)" stroke-width="2px" d="M22.69543562616621,155.22142210973158L24.75865704672677,10.485022868516012L26.821878467287338,11.853721031882174L28.8850998878479,12.305904682341179L30.948321308408463,11.813911018240105L33.011542728969026,11.74919606216622L35.07476414952959,13.556035951560261L37.13798557009015,11.935067352724559L39.20120699065072,13.824853542356436L41.264428411211284,11.921109637735299L43.32764983177185,13.099220781798635L45.39087125233242,12.354283006693095L47.454092672892976,13.02589541029397L49.51731409345354,13.503426102754588L51.58053551401411,11.724459538618135L53.643756934574675,11.04244726894683L55.70697835513524,12.594974643906085L57.7701997756958,12.71926778010004L59.83342119625637,11.501725564883031L61.896642616816926,12.578764326346914L63.95986403737749,13.073789530355157L66.02308545793805,12.303925760457332L68.08630687849862,13.165640979070304L70.14952829905918,11.628839717379492L72.21274971961975,10.60068453691872L74.2759711401803,11.759701190038982L76.33919256074088,13.927231171304811L78.40241398130144,13.778390982806968L80.46563540186202,11.48528367135873L82.52885682242257,11.772227344516523L84.59207824298313,15.44563266994794L86.6552996635437,10.995963657036896L88.71852108410427,11.47618905163722L90.78174250466483,11.462399755531692L92.8449639252254,11.324948894046202L94.90818534578595,10.865460074505336L96.97140676634652,12.552933080054572L99.03462818690709,10.373003258474L101.09784960746765,10.33706687915776L103.16107102802822,9.045546669261626L105.22429244858877,15.974699540830443L107.28751386914935,11.744711909386865L109.3507352897099,12.351609356913855L111.41395671027048,12.230684598394532L113.47717813083104,13.075557928634339L115.5403995513916,12.126222785759978L117.60362097195217,12.366872318252035L119.66684239251273,12.73429916547309L121.7300638130733,11.467894421613437L123.79328523363385,12.249126466163148L125.85650665419442,18.12334555475786L127.91972807475499,12.58270111775414L129.98294949531555,11.541703997408831L132.0461709158761,11.863531431859542L134.10939233643668,12.96821194261588L136.17261375699724,12.459586913746307L138.23583517755782,12.865644842423308L140.29905659811837,12.903623300704794L142.36227801867895,10.400834479010655L144.4254994392395,12.717941481390653L146.48872085980005,14.084913351198566L148.5519422803606,10.988447964350371L150.61516370092122,12.766761905312364L152.67838512148177,12.62114272796589L154.74160654204232,11.963677510598473L156.80482796260287,11.440568457727977L158.86804938316345,12.256684263570605L160.93127080372403,10.965395629639602L162.99449222428458,11.01316343553799L165.05771364484514,12.79149842886045L167.12093506540572,15.191467522036419L169.18415648596627,7.729100464573207L171.24737790652685,12.533859641471963L173.3105993270874,10.971100819326011L175.37382074764795,12.453881724059897L177.43704216820854,11.33368562363978L179.5002635887691,12.902465420879139L181.56348500932967,11.557009063467945L183.62670642989022,11.612839923424985L185.6899278504508,12.063634118093205L187.75314927101135,14.697684407295696L189.8163706915719,11.710628137791673L191.87959211213249,12.651816017165515L193.94281353269304,13.164188366198118L196.00603495325362,12.199042900613449L198.06925637381417,13.067263298610555L200.13247779437472,13.619319347122428L202.1956992149353,13.169746189361263L204.25892063549588,12.859202820120572L206.32214205605644,13.017558675549253L208.385363476617,16.164423413354143L210.44858489717754,11.544651327874135L212.51180631773815,11.20122417158484L214.5750277382987,12.637605673850658L216.63824915885925,11.186782252304852L218.7014705794198,12.374114330252496L220.76469199998036,11.682396922406156L222.82791342054097,12.363440783496003L224.89113484110152,12.171737989088456L226.95435626166207,12.240831836139364L229.01757768222262,14.4277510413948L231.0807991027832,12.874697357423884L233.14402052334378,11.994350799798099L235.20724194390434,11.479073225021125L237.2704633644649,14.24223764096439L239.33368478502547,11.157140528768082L241.39690620558602,12.197779758985462L243.4601276261466,12.280262907293036L245.52334904670715,12.632489950257309L247.5865704672677,12.449460728361942L249.6497918878283,17.984989441772314L251.71301330838884,12.520891387424626L253.77623472894942,12.3803879336715L255.83945614950997,12.07180243395419L257.9026775700706,12.840318852782161L259.9658989906311,12.085886463106249L262.0291204111917,12.07251821421005L264.0923418317522,13.1293677619866L266.1555632523128,12.007508525089634L268.21878467287337,10.254120578919924L270.28200609343395,17.796739234481265L272.3452275139945,13.557614878595246L274.40844893455505,12.561669809648151L276.47167035511563,11.596313820458818L278.5348917756762,12.379819519938906L280.59811319623674,12.070960339535532" fill="none"></path></g></g></g></g></g></g><g transform="translate(41, 176)" clip-path="url(#clip_1)"><clipPath id="clip_1"><rect width="288" height="23"></rect></clipPath><g><g><line x1="0" y1="0" x2="0" y2="5" style="visibility: inherit;" fill="rgb(0, 0, 0)" stroke="rgb(204, 204, 204)" stroke-width="1px"></line><line x1="20.632214205605642" y1="0" x2="20.632214205605642" y2="5" style="visibility: inherit;" fill="rgb(0, 0, 0)" stroke="rgb(204, 204, 204)" stroke-width="1px"></line><line x1="41.264428411211284" y1="0" x2="41.264428411211284" y2="5" style="visibility: inherit;" fill="rgb(0, 0, 0)" stroke="rgb(204, 204, 204)" stroke-width="1px"></line><line x1="61.896642616816926" y1="0" x2="61.896642616816926" y2="5" style="visibility: inherit;" fill="rgb(0, 0, 0)" stroke="rgb(204, 204, 204)" stroke-width="1px"></line><line x1="82.52885682242257" y1="0" x2="82.52885682242257" y2="5" style="visibility: inherit;" fill="rgb(0, 0, 0)" stroke="rgb(204, 204, 204)" stroke-width="1px"></line><line x1="103.16107102802822" y1="0" x2="103.16107102802822" y2="5" style="visibility: inherit;" fill="rgb(0, 0, 0)" stroke="rgb(204, 204, 204)" stroke-width="1px"></line><line x1="123.79328523363385" y1="0" x2="123.79328523363385" y2="5" style="visibility: inherit;" fill="rgb(0, 0, 0)" stroke="rgb(204, 204, 204)" stroke-width="1px"></line><line x1="144.4254994392395" y1="0" x2="144.4254994392395" y2="5" style="visibility: inherit;" fill="rgb(0, 0, 0)" stroke="rgb(204, 204, 204)" stroke-width="1px"></line><line x1="165.05771364484514" y1="0" x2="165.05771364484514" y2="5" style="visibility: inherit;" fill="rgb(0, 0, 0)" stroke="rgb(204, 204, 204)" stroke-width="1px"></line><line x1="185.6899278504508" y1="0" x2="185.6899278504508" y2="5" style="visibility: inherit;" fill="rgb(0, 0, 0)" stroke="rgb(204, 204, 204)" stroke-width="1px"></line><line x1="206.32214205605644" y1="0" x2="206.32214205605644" y2="5" style="visibility: inherit;" fill="rgb(0, 0, 0)" stroke="rgb(204, 204, 204)" stroke-width="1px"></line><line x1="226.95435626166207" y1="0" x2="226.95435626166207" y2="5" style="visibility: inherit;" fill="rgb(0, 0, 0)" stroke="rgb(204, 204, 204)" stroke-width="1px"></line><line x1="247.5865704672677" y1="0" x2="247.5865704672677" y2="5" style="visibility: inherit;" fill="rgb(0, 0, 0)" stroke="rgb(204, 204, 204)" stroke-width="1px"></line><line x1="268.21878467287337" y1="0" x2="268.21878467287337" y2="5" style="visibility: inherit;" fill="rgb(0, 0, 0)" stroke="rgb(204, 204, 204)" stroke-width="1px"></line><line x1="288.850998878479" y1="0" x2="288.850998878479" y2="5" style="visibility: inherit;" fill="rgb(0, 0, 0)" stroke="rgb(204, 204, 204)" stroke-width="1px"></line></g><g transform="translate(0, 8)"><text style="text-anchor: middle; visibility: hidden; font-family: Roboto, sans-serif; font-size: 12px; font-weight: 200;" x="0" y="0" dx="0em" dy="0.95em" fill="rgb(33, 33, 33)" stroke="none" stroke-width="1px">-1k</text><text style="text-anchor: middle; visibility: inherit; font-family: Roboto, sans-serif; font-size: 12px; font-weight: 200;" x="20.632214205605642" y="0" dx="0em" dy="0.95em" fill="rgb(33, 33, 33)" stroke="none" stroke-width="1px">0</text><text style="text-anchor: middle; visibility: hidden; font-family: Roboto, sans-serif; font-size: 12px; font-weight: 200;" x="41.264428411211284" y="0" dx="0em" dy="0.95em" fill="rgb(33, 33, 33)" stroke="none" stroke-width="1px">1k</text><text style="text-anchor: middle; visibility: inherit; font-family: Roboto, sans-serif; font-size: 12px; font-weight: 200;" x="61.896642616816926" y="0" dx="0em" dy="0.95em" fill="rgb(33, 33, 33)" stroke="none" stroke-width="1px">2k</text><text style="text-anchor: middle; visibility: hidden; font-family: Roboto, sans-serif; font-size: 12px; font-weight: 200;" x="82.52885682242257" y="0" dx="0em" dy="0.95em" fill="rgb(33, 33, 33)" stroke="none" stroke-width="1px">3k</text><text style="text-anchor: middle; visibility: inherit; font-family: Roboto, sans-serif; font-size: 12px; font-weight: 200;" x="103.16107102802822" y="0" dx="0em" dy="0.95em" fill="rgb(33, 33, 33)" stroke="none" stroke-width="1px">4k</text><text style="text-anchor: middle; visibility: hidden; font-family: Roboto, sans-serif; font-size: 12px; font-weight: 200;" x="123.79328523363385" y="0" dx="0em" dy="0.95em" fill="rgb(33, 33, 33)" stroke="none" stroke-width="1px">5k</text><text style="text-anchor: middle; visibility: inherit; font-family: Roboto, sans-serif; font-size: 12px; font-weight: 200;" x="144.4254994392395" y="0" dx="0em" dy="0.95em" fill="rgb(33, 33, 33)" stroke="none" stroke-width="1px">6k</text><text style="text-anchor: middle; visibility: hidden; font-family: Roboto, sans-serif; font-size: 12px; font-weight: 200;" x="165.05771364484514" y="0" dx="0em" dy="0.95em" fill="rgb(33, 33, 33)" stroke="none" stroke-width="1px">7k</text><text style="text-anchor: middle; visibility: inherit; font-family: Roboto, sans-serif; font-size: 12px; font-weight: 200;" x="185.6899278504508" y="0" dx="0em" dy="0.95em" fill="rgb(33, 33, 33)" stroke="none" stroke-width="1px">8k</text><text style="text-anchor: middle; visibility: hidden; font-family: Roboto, sans-serif; font-size: 12px; font-weight: 200;" x="206.32214205605644" y="0" dx="0em" dy="0.95em" fill="rgb(33, 33, 33)" stroke="none" stroke-width="1px">9k</text><text style="text-anchor: middle; visibility: inherit; font-family: Roboto, sans-serif; font-size: 12px; font-weight: 200;" x="226.95435626166207" y="0" dx="0em" dy="0.95em" fill="rgb(33, 33, 33)" stroke="none" stroke-width="1px">10k</text><text style="text-anchor: middle; visibility: hidden; font-family: Roboto, sans-serif; font-size: 12px; font-weight: 200;" x="247.5865704672677" y="0" dx="0em" dy="0.95em" fill="rgb(33, 33, 33)" stroke="none" stroke-width="1px">11k</text><text style="text-anchor: middle; visibility: inherit; font-family: Roboto, sans-serif; font-size: 12px; font-weight: 200;" x="268.21878467287337" y="0" dx="0em" dy="0.95em" fill="rgb(33, 33, 33)" stroke="none" stroke-width="1px">12k</text><text style="text-anchor: middle; visibility: hidden; font-family: Roboto, sans-serif; font-size: 12px; font-weight: 200;" x="288.850998878479" y="0" dx="0em" dy="0.95em" fill="rgb(33, 33, 33)" stroke="none" stroke-width="1px">13k</text></g><line x1="0" y1="0" x2="288.850998878479" y2="0" fill="rgb(0, 0, 0)" stroke="rgb(204, 204, 204)" stroke-width="1px"></line></g></g></g></g></svg>