<svg viewBox="0 0 330 200" xmlns="http://www.w3.org/2000/svg"><g><g><g><g><g><line x1="60" y1="177" x2="55" y2="177" style="visibility: inherit;" fill="rgb(0, 0, 0)" stroke="rgb(204, 204, 204)" stroke-width="1px"></line><line x1="60" y1="159.3" x2="55" y2="159.3" style="visibility: inherit;" fill="rgb(0, 0, 0)" stroke="rgb(204, 204, 204)" stroke-width="1px"></line><line x1="60" y1="141.6" x2="55" y2="141.6" style="visibility: inherit;" fill="rgb(0, 0, 0)" stroke="rgb(204, 204, 204)" stroke-width="1px"></line><line x1="60" y1="123.89999999999999" x2="55" y2="123.89999999999999" style="visibility: inherit;" fill="rgb(0, 0, 0)" stroke="rgb(204, 204, 204)" stroke-width="1px"></line><line x1="60" y1="106.2" x2="55" y2="106.2" style="visibility: inherit;" fill="rgb(0, 0, 0)" stroke="rgb(204, 204, 204)" stroke-width="1px"></line><line x1="60" y1="88.5" x2="55" y2="88.5" style="visibility: inherit;" fill="rgb(0, 0, 0)" stroke="rgb(204, 204, 204)" stroke-width="1px"></line><line x1="60" y1="70.8" x2="55" y2="70.8" style="visibility: inherit;" fill="rgb(0, 0, 0)" stroke="rgb(204, 204, 204)" stroke-width="1px"></line><line x1="60" y1="53.10000000000001" x2="55" y2="53.10000000000001" style="visibility: inherit;" fill="rgb(0, 0, 0)" stroke="rgb(204, 204, 204)" stroke-width="1px"></line><line x1="60" y1="35.40000000000001" x2="55" y2="35.40000000000001" style="visibility: inherit;" fill="rgb(0, 0, 0)" stroke="rgb(204, 204, 204)" stroke-width="1px"></line><line x1="60" y1="17.699999999999996" x2="55" y2="17.699999999999996" style="visibility: inherit;" fill="rgb(0, 0, 0)" stroke="rgb(204, 204, 204)" stroke-width="1px"></line><line x1="60" y1="0" x2="55" y2="0" style="visibility: inherit;" fill="rgb(0, 0, 0)" stroke="rgb(204, 204, 204)" stroke-width="1px"></line></g><g transform="translate(50, 0)"><text x="0" y="177" dx="0em" dy="0.3em" style="text-anchor: end; visibility: hidden; font-family: Roboto, sans-serif; font-size: 12px; font-weight: 200;" fill="rgb(33, 33, 33)" stroke="none" stroke-width="1px">-0.05</text><text x="0" y="159.3" dx="0em" dy="0.3em" style="text-anchor: end; visibility: inherit; font-family: Roboto, sans-serif; font-size: 12px; font-weight: 200;" fill="rgb(33, 33, 33)" stroke="none" stroke-width="1px">0</text><text x="0" y="141.6" dx="0em" dy="0.3em" style="text-anchor: end; visibility: hidden; font-family: Roboto, sans-serif; font-size: 12px; font-weight: 200;" fill="rgb(33, 33, 33)" stroke="none" stroke-width="1px">0.05</text><text x="0" y="123.89999999999999" dx="0em" dy="0.3em" style="text-anchor: end; visibility: inherit; font-family: Roboto, sans-serif; font-size: 12px; font-weight: 200;" fill="rgb(33, 33, 33)" stroke="none" stroke-width="1px">0.1</text><text x="0" y="106.2" dx="0em" dy="0.3em" style="text-anchor: end; visibility: hidden; font-family: Roboto, sans-serif; font-size: 12px; font-weight: 200;" fill="rgb(33, 33, 33)" stroke="none" stroke-width="1px">0.15</text><text x="0" y="88.5" dx="0em" dy="0.3em" style="text-anchor: end; visibility: inherit; font-family: Roboto, sans-serif; font-size: 12px; font-weight: 200;" fill="rgb(33, 33, 33)" stroke="none" stroke-width="1px">0.2</text><text x="0" y="70.8" dx="0em" dy="0.3em" style="text-anchor: end; visibility: hidden; font-family: Roboto, sans-serif; font-size: 12px; font-weight: 200;" fill="rgb(33, 33, 33)" stroke="none" stroke-width="1px">0.25</text><text x="0" y="53.10000000000001" dx="0em" dy="0.3em" style="text-anchor: end; visibility: inherit; font-family: Roboto, sans-serif; font-size: 12px; font-weight: 200;" fill="rgb(33, 33, 33)" stroke="none" stroke-width="1px">0.3</text><text x="0" y="35.40000000000001" dx="0em" dy="0.3em" style="text-anchor: end; visibility: hidden; font-family: Roboto, sans-serif; font-size: 12px; font-weight: 200;" fill="rgb(33, 33, 33)" stroke="none" stroke-width="1px">0.35</text><text x="0" y="17.699999999999996" dx="0em" dy="0.3em" style="text-anchor: end; visibility: inherit; font-family: Roboto, sans-serif; font-size: 12px; font-weight: 200;" fill="rgb(33, 33, 33)" stroke="none" stroke-width="1px">0.4</text><text x="0" y="0" dx="0em" dy="0.3em" style="text-anchor: end; visibility: hidden; font-family: Roboto, sans-serif; font-size: 12px; font-weight: 200;" fill="rgb(33, 33, 33)" stroke="none" stroke-width="1px">0.45</text></g><line x1="60" y1="0" x2="60" y2="177" fill="rgb(0, 0, 0)" stroke="rgb(204, 204, 204)" stroke-width="1px"></line></g></g><g transform="translate(60, 0)" clip-path="url(#clip_0)"><clipPath id="clip_0"><rect width="270" height="176"></rect></clipPath><g><g><g><line x1="0" y1="0" x2="0" y2="177" fill="rgb(0, 0, 0)" stroke="rgb(66, 66, 66)" stroke-width="1px" opacity="0.25"></line><line x1="19.285714285714285" y1="0" x2="19.285714285714285" y2="177" fill="rgb(0, 0, 0)" stroke="rgb(66, 66, 66)" stroke-width="1px" opacity="0.25"></line><line x1="38.57142857142857" y1="0" x2="38.57142857142857" y2="177" fill="rgb(0, 0, 0)" stroke="rgb(66, 66, 66)" stroke-width="1px" opacity="0.25"></line><line x1="57.857142857142854" y1="0" x2="57.857142857142854" y2="177" fill="rgb(0, 0, 0)" stroke="rgb(66, 66, 66)" stroke-width="1px" opacity="0.25"></line><line x1="77.14285714285714" y1="0" x2="77.14285714285714" y2="177" fill="rgb(0, 0, 0)" stroke="rgb(66, 66, 66)" stroke-width="1px" opacity="0.25"></line><line x1="96.42857142857143" y1="0" x2="96.42857142857143" y2="177" fill="rgb(0, 0, 0)" stroke="rgb(66, 66, 66)" stroke-width="1px" opacity="0.25"></line><line x1="115.71428571428571" y1="0" x2="115.71428571428571" y2="177" fill="rgb(0, 0, 0)" stroke="rgb(66, 66, 66)" stroke-width="1px" opacity="0.25"></line><line x1="135" y1="0" x2="135" y2="177" fill="rgb(0, 0, 0)" stroke="rgb(66, 66, 66)" stroke-width="1px" opacity="0.25"></line><line x1="154.28571428571428" y1="0" x2="154.28571428571428" y2="177" fill="rgb(0, 0, 0)" stroke="rgb(66, 66, 66)" stroke-width="1px" opacity="0.25"></line><line x1="173.57142857142858" y1="0" x2="173.57142857142858" y2="177" fill="rgb(0, 0, 0)" stroke="rgb(66, 66, 66)" stroke-width="1px" opacity="0.25"></line><line x1="192.85714285714286" y1="0" x2="192.85714285714286" y2="177" fill="rgb(0, 0, 0)" stroke="rgb(66, 66, 66)" stroke-width="1px" opacity="0.25"></line><line x1="212.14285714285714" y1="0" x2="212.14285714285714" y2="177" fill="rgb(0, 0, 0)" stroke="rgb(66, 66, 66)" stroke-width="1px" opacity="0.25"></line><line x1="231.42857142857142" y1="0" x2="231.42857142857142" y2="177" fill="rgb(0, 0, 0)" stroke="rgb(66, 66, 66)" stroke-width="1px" opacity="0.25"></line><line x1="250.71428571428572" y1="0" x2="250.71428571428572" y2="177" fill="rgb(0, 0, 0)" stroke="rgb(66, 66, 66)" stroke-width="1px" opacity="0.25"></line><line x1="270" y1="0" x2="270" y2="177" fill="rgb(0, 0, 0)" stroke="rgb(66, 66, 66)" stroke-width="1px" opacity="0.25"></line></g><g><line x1="0" y1="177" x2="270" y2="177" fill="rgb(0, 0, 0)" stroke="rgb(66, 66, 66)" stroke-width="1px" opacity="0.25"></line><line x1="0" y1="159.3" x2="270" y2="159.3" fill="rgb(0, 0, 0)" stroke="rgb(66, 66, 66)" stroke-width="1px" opacity="0.25"></line><line x1="0" y1="141.6" x2="270" y2="141.6" fill="rgb(0, 0, 0)" stroke="rgb(66, 66, 66)" stroke-width="1px" opacity="0.25"></line><line x1="0" y1="123.89999999999999" x2="270" y2="123.89999999999999" fill="rgb(0, 0, 0)" stroke="rgb(66, 66, 66)" stroke-width="1px" opacity="0.25"></line><line x1="0" y1="106.2" x2="270" y2="106.2" fill="rgb(0, 0, 0)" stroke="rgb(66, 66, 66)" stroke-width="1px" opacity="0.25"></line><line x1="0" y1="88.5" x2="270" y2="88.5" fill="rgb(0, 0, 0)" stroke="rgb(66, 66, 66)" stroke-width="1px" opacity="0.25"></line><line x1="0" y1="70.8" x2="270" y2="70.8" fill="rgb(0, 0, 0)" stroke="rgb(66, 66, 66)" stroke-width="1px" opacity="0.25"></line><line x1="0" y1="53.10000000000001" x2="270" y2="53.10000000000001" fill="rgb(0, 0, 0)" stroke="rgb(66, 66, 66)" stroke-width="1px" opacity="0.25"></line><line x1="0" y1="35.40000000000001" x2="270" y2="35.40000000000001" fill="rgb(0, 0, 0)" stroke="rgb(66, 66, 66)" stroke-width="1px" opacity="0.25"></line><line x1="0" y1="17.699999999999996" x2="270" y2="17.699999999999996" fill="rgb(0, 0, 0)" stroke="rgb(66, 66, 66)" stroke-width="1px" opacity="0.25"></line><line x1="0" y1="0" x2="270" y2="0" fill="rgb(0, 0, 0)" stroke="rgb(66, 66, 66)" stroke-width="1px" opacity="0.25"></line></g></g></g><g><g><line x1="0" y1="159.3" x2="270" y2="159.3" fill="rgb(0, 0, 0)" stroke="rgb(153, 153, 153)" stroke-width="1.5px"></line></g></g><g><g><line x1="19.285714285714285" y1="0" x2="19.285714285714285" y2="177" fill="rgb(0, 0, 0)" stroke="rgb(153, 153, 153)" stroke-width="1.5px"></line></g></g><g><g><g><g><g><path stroke="rgb(255, 112, 67)" stroke-width="2px" d="M20.25,10.725304412841801L21.214285714285715,26.915071646869205L22.178571428571427,39.16931595267082L23.142857142857142,57.54660029371874L24.107142857142858,90.87096347710188L25.071428571428573,101.94189558610857L26.03571428571429,107.32660768895249L27,110.17226573998586L27.964285714285715,110.92353533850026L28.928571428571427,116.83001943425256L29.892857142857142,107.95292458570634L30.857142857142858,112.84259025291657L31.82142857142857,121.75355294917821L32.785714285714285,120.19780057044133L33.75,131.90410278549987L34.71428571428571,137.03321315171732L35.67857142857143,130.55307543356315L36.64285714285714,135.84884770864048L37.60714285714286,133.6241012452235L38.57142857142857,141.17122526026532L39.535714285714285,108.2487609273387L40.5,119.7496343065307L41.464285714285715,128.95936981264148L42.42857142857143,136.57959547914595L43.392857142857146,144.4342975386788L44.357142857142854,135.67095363091548L45.32142857142857,143.02245036214634L46.285714285714285,147.36894159516675L47.25,149.0553611990807L48.214285714285715,151.65406060058393L49.17857142857142,153.66287097255972L50.142857142857146,155.6744888185295L51.107142857142854,156.9064605540713L52.07142857142858,157.5666942946789L53.035714285714285,158.15559741325822L54,158.48491845156082L54.964285714285715,158.571359459084L55.92857142857143,158.70131171723085L56.892857142857146,158.84314614729072L57.857142857142854,158.84284823325825L58.82142857142857,158.91692247753414L59.785714285714285,158.95689954301073L60.75,158.9757725080048L61.714285714285715,159.00683084518488L62.67857142857143,159.03335468422986L63.64285714285714,159.06992026034072L64.60714285714286,159.10574267271917L65.57142857142857,159.09554661069794L66.53571428571429,159.08234326542214L67.5,159.10604250164266L68.46428571428571,159.0876005348387L69.42857142857142,159.12018202437716L70.39285714285715,159.14183117611807L71.35714285714286,159.10611590894592L72.32142857142857,159.09206566489877L73.28571428571428,159.03404330970133L74.25,159.06441381820684L75.21428571428572,159.10613838287196L76.17857142857143,159.13006310686265L77.14285714285714,159.0783249992306L78.10714285714286,159.08649347606413L79.07142857142857,159.11739943121273L80.03571428571429,159.13439204390082L81,159.1438751058788L81.96428571428571,159.10963848736017L82.92857142857143,159.101786758722L83.89285714285714,159.1171047778209L84.85714285714286,159.12839018902454L85.82142857142857,159.14955972268075L86.78571428571429,159.15420895303774L87.75,159.14229600102374L88.71428571428571,159.15234331525141L89.67857142857143,159.16713982717636L90.64285714285714,159.15805403445123L91.60714285714286,159.14416786145915L92.57142857142857,159.16510168413652L93.53571428571428,159.17536040387313L94.5,159.16618937954985L95.46428571428572,159.1709532469943L96.42857142857143,159.13569605190105L97.39285714285714,159.15186003551045L98.35714285714285,159.16611722623279L99.32142857142858,159.17112543920598L100.28571428571429,159.1754362000995L101.25,159.17168206449068L102.21428571428571,159.18573400767016L103.17857142857142,159.18956783659266L104.14285714285715,159.1921985103617L105.10714285714286,159.1892835489302L106.07142857142857,159.20018672113437L107.03571428571428,159.18781434079617L108,159.18125294418624L108.96428571428572,159.17728507844035L109.92857142857143,159.19349106858766L110.89285714285714,159.18489429580777L111.85714285714286,159.18973963948588L112.82142857142857,159.20127133217827L113.78571428571429,159.18934781870732L114.75,159.19987274741757L115.71428571428571,159.205100918429L116.67857142857143,159.19542534254475L117.64285714285714,159.20652563270264L118.60714285714286,159.20829698011886L119.57142857142857,159.2097407638793L120.53571428571429,159.20698178278278L121.5,159.2039571537338L122.46428571428571,159.21160939126582L123.42857142857143,159.21263699400654L124.39285714285714,159.2093536760953L125.35714285714286,159.21096728884058L126.32142857142857,159.17490941616185L127.28571428571428,159.17799411558698L128.25,159.17956519893278L129.21428571428572,159.19647992718257L130.17857142857144,159.18591017324053L131.14285714285714,159.2028132876514L132.10714285714286,159.19843140240158L133.07142857142858,159.1985305481843L134.03571428571428,159.20940028891087L135,159.21103928638786L135.96428571428572,159.2047754666871L136.92857142857142,159.20094125179725L137.89285714285714,159.20487597551008L138.85714285714283,159.19526524218992L139.82142857142858,159.20430953318038L140.7857142857143,159.20104513554423L141.75,159.20749571972513L142.71428571428572,159.19493263251792L143.67857142857142,159.2014673310734L144.64285714285714,159.20303997491104L145.60714285714286,159.21488644654957L146.57142857142856,159.22114366600067L147.53571428571428,159.2240227187947L148.5,159.20189046151717L149.46428571428572,159.18462033874223L150.42857142857144,159.180775936871L151.39285714285714,159.19776142062125L152.35714285714286,159.19318611277436L153.32142857142856,159.2104015575639L154.28571428571428,159.20935123264292L155.25,159.21557172958674L156.21428571428572,159.21858095973272L157.17857142857144,159.22136157949413L158.14285714285714,159.22715403742177L159.10714285714286,159.22213729041363L160.07142857142858,159.21733581136192L161.03571428571428,159.21053288314712L162,159.2197703622467L162.9642857142857,159.22302713589926L163.92857142857142,159.21767650488874L164.89285714285717,159.21953009775208L165.85714285714286,159.20916475046417L166.82142857142858,159.21897347981619L167.78571428571428,159.22338395208845L168.75,159.22597300570288L169.71428571428572,159.22280623021854L170.67857142857142,159.22898268285212L171.64285714285714,159.222262816513L172.60714285714283,159.2236589861205L173.57142857142858,159.2279084393467L174.5357142857143,159.23395909903473L175.5,159.23449212374248L176.46428571428572,159.2343731462504L177.42857142857142,159.23203131257176L178.39285714285714,159.21238993453005L179.35714285714286,159.22343727395724L180.32142857142856,159.22669909549464L181.28571428571428,159.22847032669915L182.25,159.2176982051431L183.21428571428572,159.2026671067608L184.17857142857144,159.21501751342498L185.14285714285714,159.22614632701885L186.10714285714286,159.22054782372757L187.07142857142856,159.2169098714805L188.03571428571428,159.21729724830553L189,159.21309981695606L189.96428571428572,159.21636938876145L190.92857142857144,159.22458122664167L191.89285714285714,159.22913358516595L192.85714285714286,159.23113306364783L193.82142857142858,159.23567262811238L194.78571428571428,159.23061034125345L195.75,159.23020786807217L196.7142857142857,159.231321077063L197.67857142857142,159.2355898403997L198.64285714285717,159.23664906784938L199.60714285714286,159.2288455612597L200.57142857142858,159.22798522960792L201.53571428571428,159.234997367743L202.5,159.24044065165364L203.46428571428572,159.23347300781376L204.42857142857142,159.23502975638382L205.39285714285714,159.24015515416934L206.35714285714283,159.23891311155023L207.32142857142858,159.24213806535965L208.2857142857143,159.2317531318571L209.25,159.22140722010823L210.21428571428572,159.23313678770742L211.17857142857142,159.23815354377467L212.14285714285714,159.23961942653014L213.10714285714286,159.2397206633305L214.07142857142856,159.23314277308015L215.03571428571428,159.23445300780625L216,159.24013260950008L216.96428571428572,159.24647104509026L217.92857142857144,159.24950286067653L218.89285714285714,159.24548089112818L219.85714285714286,159.2446594666534L220.82142857142856,159.24774623241504L221.78571428571428,159.23609038971549L222.75,159.22616955997813L223.71428571428572,159.21654324359122L224.67857142857144,159.23014100955484L225.64285714285714,159.23709165657027L226.60714285714286,159.2440567641855L227.57142857142858,159.23597485473067L228.53571428571428,159.23917980406387L229.5,159.24509797225724L230.4642857142857,159.24716097388102L231.42857142857142,159.24581381131892L232.39285714285717,159.24255120361502L233.35714285714286,159.24784357916778L234.32142857142858,159.24074131100195L235.28571428571428,159.24225878241697L236.25,159.2414477406791L237.21428571428572,159.24345473287764L238.17857142857142,159.24632465923892L239.14285714285714,159.24197055853384L240.10714285714283,159.24787084914712L241.07142857142858,159.24615790786947L242.0357142857143,159.24368263473517L243,159.24550259085242L243.96428571428572,159.24777874268977L244.92857142857142,159.24229497410542L245.89285714285714,159.24630194896153L246.85714285714286,159.25070746379984L247.82142857142856,159.25077338890407L248.78571428571428,159.24923574656714L249.75,159.25268803177053L250.71428571428572,159.2477560911204L251.67857142857144,159.24397166155237L252.64285714285714,159.24370234094815L253.60714285714286,159.2428636844313L254.57142857142856,159.24671589406933L255.53571428571428,159.24732789770437L256.5,159.2517492292128L257.4642857142857,159.24207257476573L258.42857142857144,159.24786722364286L259.39285714285717,159.24725540958994L260.3571428571429,159.2528470962573" style="fill: none;" fill="none"></path></g></g></g></g><g opacity="0.2"><g><g><g><path stroke="rgb(255, 112, 67)" stroke-width="2px" d="M20.25,10.725304412841801L21.214285714285715,36.62893198728562L22.178571428571427,50.93339048624039L23.142857142857142,79.15828667879104L24.107142857142858,134.3792520493269L25.071428571428573,117.25698022842407L26.03571428571429,115.02683215141296L27,114.32126249670982L27.964285714285715,112.03151206970215L28.928571428571427,125.60045995116234L29.892857142857142,94.71779690980911L30.857142857142858,120.15047940909862L31.82142857142857,135.09090115427972L32.785714285714285,117.8672198832035L33.75,149.4497957892716L34.71428571428571,144.72326125502588L35.67857142857143,120.83561103343963L36.64285714285714,143.7911615252495L37.60714285714286,130.28732046782972L38.57142857142857,152.49122144579889L39.535714285714285,58.86686997413636L40.5,137.00056593418122L41.464285714285715,142.77379124164582L42.42857142857143,148.0098437100649L43.392857142857146,156.21629480011762L44.357142857142854,122.52597514092922L45.32142857142857,154.0496766485274L46.285714285714285,153.88867177180947L47.25,151.58498905152084L48.214285714285715,155.55210826657714L49.17857142857142,156.67608586438L50.142857142857146,158.69191518723966L51.107142857142854,158.7544180103112L52.07142857142858,158.5570448582992L53.035714285714285,159.03895206581802L54,158.97890000052286L54.964285714285715,158.7010209690314L55.92857142857143,158.8962401032448L56.892857142857146,159.05589779159055L57.857142857142854,158.84240136221052L58.82142857142857,159.0280338437995L59.785714285714285,159.01686514117756L60.75,159.00408195548226L61.714285714285715,159.0534183509415L62.67857142857143,159.07314044279047L63.64285714285714,159.1247686245013L64.60714285714286,159.1594762912835L65.57142857142857,159.08025251766668L66.53571428571429,159.06253824750894L67.5,159.14159135597293L68.46428571428571,159.05993758463302L69.42857142857142,159.16905425868464L70.39285714285715,159.17430490372936L71.35714285714286,159.0525430081878L72.32142857142857,159.07099029882812L73.28571428571428,158.9470097769052L74.25,159.10996958096513L75.21428571428572,159.1687252298696L76.17857142857143,159.1659501928487L77.14285714285714,159.0007178377826L78.10714285714286,159.09874619131443L79.07142857142857,159.16375836393564L80.03571428571429,159.15988096293296L81,159.15809969884577L81.96428571428571,159.0582835595822L82.92857142857143,159.0900091657648L83.89285714285714,159.14008180646925L84.85714285714286,159.14531830583002L85.82142857142857,159.18131402316504L86.78571428571429,159.1611827985733L87.75,159.12442657300272L88.71428571428571,159.167414286593L89.67857142857143,159.1893345950637L90.64285714285714,159.14442534536357L91.60714285714286,159.12333860197106L92.57142857142857,159.19650241815253L93.53571428571428,159.1907484834781L94.5,159.1524328430649L95.46428571428572,159.17809904816096L96.42857142857143,159.08281025926118L97.39285714285714,159.17610601092457L98.35714285714285,159.1875030123163L99.32142857142858,159.17863775866573L100.28571428571429,159.18190234143987L101.25,159.1660508610774L102.21428571428571,159.20681192243939L103.17857142857142,159.19531857997646L104.14285714285715,159.19614452101524L105.10714285714286,159.18491110678298L106.07142857142857,159.21654147944065L107.03571428571428,159.16925577028888L108,159.17141084927135L108.96428571428572,159.17133327982157L109.92857142857143,159.21780005380862L110.89285714285714,159.1719991366379L111.85714285714286,159.19700765500312L112.82142857142857,159.21856887121686L113.78571428571429,159.17146254850087L114.75,159.21566014048295L115.71428571428571,159.21294317494613L116.67857142857143,159.18091197871837L117.64285714285714,159.2231760679395L118.60714285714286,159.21095400124324L119.57142857142857,159.21190643951996L120.53571428571429,159.202843311138L121.5,159.19942021016033L122.46428571428571,159.22308774756385L123.42857142857143,159.21417839811767L124.39285714285714,159.20442869922846L125.35714285714286,159.21338770795847L126.32142857142857,159.1208226071438L127.28571428571428,159.1826211647247L128.25,159.18192182395143L129.21428571428572,159.22185201955728L130.17857142857144,159.17005554232747L131.14285714285714,159.22816795926775L132.10714285714286,159.19185857452686L133.07142857142858,159.1986792668584L134.03571428571428,159.22570490000072L135,159.21349778260338L135.96428571428572,159.19537973713597L136.92857142857142,159.19518992946252L137.89285714285714,159.21077806107934L138.85714285714283,159.18084914220964L139.82142857142858,159.21787596966607L140.7857142857143,159.19614853909007L141.75,159.2171715959965L142.71428571428572,159.17608800170711L143.67857142857142,159.2112693789066L144.64285714285714,159.20539894066752L145.60714285714286,159.23265615400743L146.57142857142856,159.23052949517734L147.53571428571428,159.22834129798576L148.5,159.16869207560086L149.46428571428572,159.15871515457985L150.42857142857144,159.1750093340641L151.39285714285714,159.22323964624667L152.35714285714286,159.18632315100405L153.32142857142856,159.23622472474818L154.28571428571428,159.20777574526147L155.25,159.22490247500247L156.21428571428572,159.2230948049517L157.17857142857144,159.22553250913626L158.14285714285714,159.23584272431327L159.10714285714286,159.2146121699014L160.07142857142858,159.21013359278442L161.03571428571428,159.20032849082492L162,159.2336265808961L162.9642857142857,159.22791229637807L163.92857142857142,159.20965055837297L164.89285714285717,159.22231048704708L165.85714285714286,159.19361672953238L166.82142857142858,159.23368657384418L167.78571428571428,159.22999966049684L168.75,159.22985658612453L169.71428571428572,159.218056066992L170.67857142857142,159.2382473618025L171.64285714285714,159.2121830170043L172.60714285714283,159.2257532405318L173.57142857142858,159.234282619186L174.5357142857143,159.24303508856684L175.5,159.23529166080408L176.46428571428572,159.2341946800123L177.42857142857142,159.2285185620538L178.39285714285714,159.18292786746753L179.35714285714286,159.240008283098L180.32142857142856,159.23159182780074L181.28571428571428,159.23112717350597L182.25,159.20154002280907L183.21428571428572,159.18012045918732L184.17857142857144,159.23354312342127L185.14285714285714,159.2428395474097L186.10714285714286,159.21215006879066L187.07142857142856,159.21145294310992L188.03571428571428,159.21787831354305L189,159.20680366993184L189.96428571428572,159.22127374646954L190.92857142857144,159.23689898346203L191.89285714285714,159.23596212295234L192.85714285714286,159.2341322813707L193.82142857142858,159.2424819748092L194.78571428571428,159.2230169109651L195.75,159.22960415830022L196.7142857142857,159.23299089054927L197.67857142857142,159.2419929854048L198.64285714285717,159.2382379090239L199.60714285714286,159.2171403013752L200.57142857142858,159.22669473213028L201.53571428571428,159.2455155749456L202.5,159.24860557751964L203.46428571428572,159.2230215420539L204.42857142857142,159.2373648792389L205.39285714285714,159.24784325084767L206.35714285714283,159.2370500476216L207.32142857142858,159.24697549607373L208.2857142857143,159.2161757316033L209.25,159.20588835248492L210.21428571428572,159.25073113910622L211.17857142857142,159.24567867787556L212.14285714285714,159.24181825066336L213.10714285714286,159.23987251853106L214.07142857142856,159.2232759377046L215.03571428571428,159.23641835989548L216,159.24865201204085L216.96428571428572,159.25597869847553L217.92857142857144,159.25405058405596L218.89285714285714,159.23944793680567L219.85714285714286,159.2434273299412L220.82142857142856,159.25237638105756L221.78571428571428,159.21860662566615L222.75,159.2112883153721L223.71428571428572,159.20210376901088L224.67857142857144,159.25053765850026L225.64285714285714,159.2475176270935L226.60714285714286,159.25450442560833L227.57142857142858,159.22385199054844L228.53571428571428,159.24398722806365L229.5,159.25397522454733L230.4642857142857,159.25025547631668L231.42857142857142,159.2437930674758L232.39285714285717,159.23765729205917L233.35714285714286,159.2557821424969L234.32142857142858,159.2300879087532L235.28571428571428,159.24453498953955L236.25,159.2402311780723L237.21428571428572,159.24646522117547L238.17857142857142,159.25062954878086L239.14285714285714,159.23543940747624L240.10714285714283,159.25672128506704L241.07142857142858,159.24358849595302L242.0357142857143,159.23996972503375L243,159.2482325250283L243.96428571428572,159.25119297044586L244.92857142857142,159.2340693212289L245.89285714285714,159.25231241124567L246.85714285714286,159.25731573605736L247.82142857142856,159.25087227656041L248.78571428571428,159.24692928306177L249.75,159.2578664595756L250.71428571428572,159.24035818014528L251.67857142857144,159.2382950172003L252.64285714285714,159.24329836004182L253.60714285714286,159.24160569965608L254.57142857142856,159.25249420852634L255.53571428571428,159.24824590315694L256.5,159.25838122647548L257.4642857142857,159.22755759309513L258.42857142857144,159.25655919695856L259.39285714285717,159.24633768851055L260.3571428571429,159.26123462625839" style="fill: none;" fill="none"></path></g></g></g></g></g></g><g transform="translate(60, 177)" clip-path="url(#clip_1)"><clipPath id="clip_1"><rect width="270" height="22"></rect></clipPath><g><g><line x1="0" y1="0" x2="0" y2="5" style="visibility: inherit;" fill="rgb(0, 0, 0)" stroke="rgb(204, 204, 204)" stroke-width="1px"></line><line x1="19.285714285714285" y1="0" x2="19.285714285714285" y2="5" style="visibility: inherit;" fill="rgb(0, 0, 0)" stroke="rgb(204, 204, 204)" stroke-width="1px"></line><line x1="38.57142857142857" y1="0" x2="38.57142857142857" y2="5" style="visibility: inherit;" fill="rgb(0, 0, 0)" stroke="rgb(204, 204, 204)" stroke-width="1px"></line><line x1="57.857142857142854" y1="0" x2="57.857142857142854" y2="5" style="visibility: inherit;" fill="rgb(0, 0, 0)" stroke="rgb(204, 204, 204)" stroke-width="1px"></line><line x1="77.14285714285714" y1="0" x2="77.14285714285714" y2="5" style="visibility: inherit;" fill="rgb(0, 0, 0)" stroke="rgb(204, 204, 204)" stroke-width="1px"></line><line x1="96.42857142857143" y1="0" x2="96.42857142857143" y2="5" style="visibility: inherit;" fill="rgb(0, 0, 0)" stroke="rgb(204, 204, 204)" stroke-width="1px"></line><line x1="115.71428571428571" y1="0" x2="115.71428571428571" y2="5" style="visibility: inherit;" fill="rgb(0, 0, 0)" stroke="rgb(204, 204, 204)" stroke-width="1px"></line><line x1="135" y1="0" x2="135" y2="5" style="visibility: inherit;" fill="rgb(0, 0, 0)" stroke="rgb(204, 204, 204)" stroke-width="1px"></line><line x1="154.28571428571428" y1="0" x2="154.28571428571428" y2="5" style="visibility: inherit;" fill="rgb(0, 0, 0)" stroke="rgb(204, 204, 204)" stroke-width="1px"></line><line x1="173.57142857142858" y1="0" x2="173.57142857142858" y2="5" style="visibility: inherit;" fill="rgb(0, 0, 0)" stroke="rgb(204, 204, 204)" stroke-width="1px"></line><line x1="192.85714285714286" y1="0" x2="192.85714285714286" y2="5" style="visibility: inherit;" fill="rgb(0, 0, 0)" stroke="rgb(204, 204, 204)" stroke-width="1px"></line><line x1="212.14285714285714" y1="0" x2="212.14285714285714" y2="5" style="visibility: inherit;" fill="rgb(0, 0, 0)" stroke="rgb(204, 204, 204)" stroke-width="1px"></line><line x1="231.42857142857142" y1="0" x2="231.42857142857142" y2="5" style="visibility: inherit;" fill="rgb(0, 0, 0)" stroke="rgb(204, 204, 204)" stroke-width="1px"></line><line x1="250.71428571428572" y1="0" x2="250.71428571428572" y2="5" style="visibility: inherit;" fill="rgb(0, 0, 0)" stroke="rgb(204, 204, 204)" stroke-width="1px"></line><line x1="270" y1="0" x2="270" y2="5" style="visibility: inherit;" fill="rgb(0, 0, 0)" stroke="rgb(204, 204, 204)" stroke-width="1px"></line></g><g transform="translate(0, 8)"><text x="0" y="0" dx="0em" dy="0.95em" style="text-anchor: middle; visibility: hidden; font-family: Roboto, sans-serif; font-size: 12px; font-weight: 200;" fill="rgb(33, 33, 33)" stroke="none" stroke-width="1px">-2k</text><text x="19.285714285714285" y="0" dx="0em" dy="0.95em" style="text-anchor: middle; visibility: inherit; font-family: Roboto, sans-serif; font-size: 12px; font-weight: 200;" fill="rgb(33, 33, 33)" stroke="none" stroke-width="1px">0</text><text x="38.57142857142857" y="0" dx="0em" dy="0.95em" style="text-anchor: middle; visibility: hidden; font-family: Roboto, sans-serif; font-size: 12px; font-weight: 200;" fill="rgb(33, 33, 33)" stroke="none" stroke-width="1px">2k</text><text x="57.857142857142854" y="0" dx="0em" dy="0.95em" style="text-anchor: middle; visibility: inherit; font-family: Roboto, sans-serif; font-size: 12px; font-weight: 200;" fill="rgb(33, 33, 33)" stroke="none" stroke-width="1px">4k</text><text x="77.14285714285714" y="0" dx="0em" dy="0.95em" style="text-anchor: middle; visibility: hidden; font-family: Roboto, sans-serif; font-size: 12px; font-weight: 200;" fill="rgb(33, 33, 33)" stroke="none" stroke-width="1px">6k</text><text x="96.42857142857143" y="0" dx="0em" dy="0.95em" style="text-anchor: middle; visibility: inherit; font-family: Roboto, sans-serif; font-size: 12px; font-weight: 200;" fill="rgb(33, 33, 33)" stroke="none" stroke-width="1px">8k</text><text x="115.71428571428571" y="0" dx="0em" dy="0.95em" style="text-anchor: middle; visibility: hidden; font-family: Roboto, sans-serif; font-size: 12px; font-weight: 200;" fill="rgb(33, 33, 33)" stroke="none" stroke-width="1px">10k</text><text x="135" y="0" dx="0em" dy="0.95em" style="text-anchor: middle; visibility: inherit; font-family: Roboto, sans-serif; font-size: 12px; font-weight: 200;" fill="rgb(33, 33, 33)" stroke="none" stroke-width="1px">12k</text><text x="154.28571428571428" y="0" dx="0em" dy="0.95em" style="text-anchor: middle; visibility: hidden; font-family: Roboto, sans-serif; font-size: 12px; font-weight: 200;" fill="rgb(33, 33, 33)" stroke="none" stroke-width="1px">14k</text><text x="173.57142857142858" y="0" dx="0em" dy="0.95em" style="text-anchor: middle; visibility: inherit; font-family: Roboto, sans-serif; font-size: 12px; font-weight: 200;" fill="rgb(33, 33, 33)" stroke="none" stroke-width="1px">16k</text><text x="192.85714285714286" y="0" dx="0em" dy="0.95em" style="text-anchor: middle; visibility: hidden; font-family: Roboto, sans-serif; font-size: 12px; font-weight: 200;" fill="rgb(33, 33, 33)" stroke="none" stroke-width="1px">18k</text><text x="212.14285714285714" y="0" dx="0em" dy="0.95em" style="text-anchor: middle; visibility: inherit; font-family: Roboto, sans-serif; font-size: 12px; font-weight: 200;" fill="rgb(33, 33, 33)" stroke="none" stroke-width="1px">20k</text><text x="231.42857142857142" y="0" dx="0em" dy="0.95em" style="text-anchor: middle; visibility: hidden; font-family: Roboto, sans-serif; font-size: 12px; font-weight: 200;" fill="rgb(33, 33, 33)" stroke="none" stroke-width="1px">22k</text><text x="250.71428571428572" y="0" dx="0em" dy="0.95em" style="text-anchor: middle; visibility: inherit; font-family: Roboto, sans-serif; font-size: 12px; font-weight: 200;" fill="rgb(33, 33, 33)" stroke="none" stroke-width="1px">24k</text><text x="270" y="0" dx="0em" dy="0.95em" style="text-anchor: middle; visibility: hidden; font-family: Roboto, sans-serif; font-size: 12px; font-weight: 200;" fill="rgb(33, 33, 33)" stroke="none" stroke-width="1px">26k</text></g><line x1="0" y1="0" x2="270" y2="0" fill="rgb(0, 0, 0)" stroke="rgb(204, 204, 204)" stroke-width="1px"></line></g></g></g></g></svg>