<svg viewBox="0 0 330 200" xmlns="http://www.w3.org/2000/svg"><g><g><g><g><g><line x1="50" y1="177" x2="45" y2="177" style="visibility: inherit;" fill="rgb(0, 0, 0)" stroke="rgb(204, 204, 204)" stroke-width="1px"></line><line x1="50" y1="154.875" x2="45" y2="154.875" style="visibility: inherit;" fill="rgb(0, 0, 0)" stroke="rgb(204, 204, 204)" stroke-width="1px"></line><line x1="50" y1="132.75" x2="45" y2="132.75" style="visibility: inherit;" fill="rgb(0, 0, 0)" stroke="rgb(204, 204, 204)" stroke-width="1px"></line><line x1="50" y1="110.625" x2="45" y2="110.625" style="visibility: inherit;" fill="rgb(0, 0, 0)" stroke="rgb(204, 204, 204)" stroke-width="1px"></line><line x1="50" y1="88.49999999999999" x2="45" y2="88.49999999999999" style="visibility: inherit;" fill="rgb(0, 0, 0)" stroke="rgb(204, 204, 204)" stroke-width="1px"></line><line x1="50" y1="66.375" x2="45" y2="66.375" style="visibility: inherit;" fill="rgb(0, 0, 0)" stroke="rgb(204, 204, 204)" stroke-width="1px"></line><line x1="50" y1="44.25" x2="45" y2="44.25" style="visibility: inherit;" fill="rgb(0, 0, 0)" stroke="rgb(204, 204, 204)" stroke-width="1px"></line><line x1="50" y1="22.12499999999998" x2="45" y2="22.12499999999998" style="visibility: inherit;" fill="rgb(0, 0, 0)" stroke="rgb(204, 204, 204)" stroke-width="1px"></line><line x1="50" y1="0" x2="45" y2="0" style="visibility: inherit;" fill="rgb(0, 0, 0)" stroke="rgb(204, 204, 204)" stroke-width="1px"></line></g><g transform="translate(40, 0)"><text x="0" y="177" dx="0em" dy="0.3em" style="text-anchor: end; visibility: hidden; font-family: Roboto, sans-serif; font-size: 12px; font-weight: 200;" fill="rgb(33, 33, 33)" stroke="none" stroke-width="1px">0.03</text><text x="0" y="154.875" dx="0em" dy="0.3em" style="text-anchor: end; visibility: inherit; font-family: Roboto, sans-serif; font-size: 12px; font-weight: 200;" fill="rgb(33, 33, 33)" stroke="none" stroke-width="1px">0.04</text><text x="0" y="132.75" dx="0em" dy="0.3em" style="text-anchor: end; visibility: hidden; font-family: Roboto, sans-serif; font-size: 12px; font-weight: 200;" fill="rgb(33, 33, 33)" stroke="none" stroke-width="1px">0.05</text><text x="0" y="110.625" dx="0em" dy="0.3em" style="text-anchor: end; visibility: inherit; font-family: Roboto, sans-serif; font-size: 12px; font-weight: 200;" fill="rgb(33, 33, 33)" stroke="none" stroke-width="1px">0.06</text><text x="0" y="88.49999999999999" dx="0em" dy="0.3em" style="text-anchor: end; visibility: hidden; font-family: Roboto, sans-serif; font-size: 12px; font-weight: 200;" fill="rgb(33, 33, 33)" stroke="none" stroke-width="1px">0.07</text><text x="0" y="66.375" dx="0em" dy="0.3em" style="text-anchor: end; visibility: inherit; font-family: Roboto, sans-serif; font-size: 12px; font-weight: 200;" fill="rgb(33, 33, 33)" stroke="none" stroke-width="1px">0.08</text><text x="0" y="44.25" dx="0em" dy="0.3em" style="text-anchor: end; visibility: hidden; font-family: Roboto, sans-serif; font-size: 12px; font-weight: 200;" fill="rgb(33, 33, 33)" stroke="none" stroke-width="1px">0.09</text><text x="0" y="22.12499999999998" dx="0em" dy="0.3em" style="text-anchor: end; visibility: inherit; font-family: Roboto, sans-serif; font-size: 12px; font-weight: 200;" fill="rgb(33, 33, 33)" stroke="none" stroke-width="1px">0.1</text><text x="0" y="0" dx="0em" dy="0.3em" style="text-anchor: end; visibility: hidden; font-family: Roboto, sans-serif; font-size: 12px; font-weight: 200;" fill="rgb(33, 33, 33)" stroke="none" stroke-width="1px">0.11</text></g><line x1="50" y1="0" x2="50" y2="177" fill="rgb(0, 0, 0)" stroke="rgb(204, 204, 204)" stroke-width="1px"></line></g></g><g transform="translate(50, 0)" clip-path="url(#clip_0)"><clipPath id="clip_0"><rect width="280" height="176"></rect></clipPath><g><g><g><line x1="0" y1="0" x2="0" y2="177" fill="rgb(0, 0, 0)" stroke="rgb(66, 66, 66)" stroke-width="1px" opacity="0.25"></line><line x1="20" y1="0" x2="20" y2="177" fill="rgb(0, 0, 0)" stroke="rgb(66, 66, 66)" stroke-width="1px" opacity="0.25"></line><line x1="40" y1="0" x2="40" y2="177" fill="rgb(0, 0, 0)" stroke="rgb(66, 66, 66)" stroke-width="1px" opacity="0.25"></line><line x1="60" y1="0" x2="60" y2="177" fill="rgb(0, 0, 0)" stroke="rgb(66, 66, 66)" stroke-width="1px" opacity="0.25"></line><line x1="80" y1="0" x2="80" y2="177" fill="rgb(0, 0, 0)" stroke="rgb(66, 66, 66)" stroke-width="1px" opacity="0.25"></line><line x1="100" y1="0" x2="100" y2="177" fill="rgb(0, 0, 0)" stroke="rgb(66, 66, 66)" stroke-width="1px" opacity="0.25"></line><line x1="120" y1="0" x2="120" y2="177" fill="rgb(0, 0, 0)" stroke="rgb(66, 66, 66)" stroke-width="1px" opacity="0.25"></line><line x1="140" y1="0" x2="140" y2="177" fill="rgb(0, 0, 0)" stroke="rgb(66, 66, 66)" stroke-width="1px" opacity="0.25"></line><line x1="160" y1="0" x2="160" y2="177" fill="rgb(0, 0, 0)" stroke="rgb(66, 66, 66)" stroke-width="1px" opacity="0.25"></line><line x1="180" y1="0" x2="180" y2="177" fill="rgb(0, 0, 0)" stroke="rgb(66, 66, 66)" stroke-width="1px" opacity="0.25"></line><line x1="200" y1="0" x2="200" y2="177" fill="rgb(0, 0, 0)" stroke="rgb(66, 66, 66)" stroke-width="1px" opacity="0.25"></line><line x1="220" y1="0" x2="220" y2="177" fill="rgb(0, 0, 0)" stroke="rgb(66, 66, 66)" stroke-width="1px" opacity="0.25"></line><line x1="240" y1="0" x2="240" y2="177" fill="rgb(0, 0, 0)" stroke="rgb(66, 66, 66)" stroke-width="1px" opacity="0.25"></line><line x1="260" y1="0" x2="260" y2="177" fill="rgb(0, 0, 0)" stroke="rgb(66, 66, 66)" stroke-width="1px" opacity="0.25"></line><line x1="280" y1="0" x2="280" y2="177" fill="rgb(0, 0, 0)" stroke="rgb(66, 66, 66)" stroke-width="1px" opacity="0.25"></line></g><g><line x1="0" y1="177" x2="280" y2="177" fill="rgb(0, 0, 0)" stroke="rgb(66, 66, 66)" stroke-width="1px" opacity="0.25"></line><line x1="0" y1="154.875" x2="280" y2="154.875" fill="rgb(0, 0, 0)" stroke="rgb(66, 66, 66)" stroke-width="1px" opacity="0.25"></line><line x1="0" y1="132.75" x2="280" y2="132.75" fill="rgb(0, 0, 0)" stroke="rgb(66, 66, 66)" stroke-width="1px" opacity="0.25"></line><line x1="0" y1="110.625" x2="280" y2="110.625" fill="rgb(0, 0, 0)" stroke="rgb(66, 66, 66)" stroke-width="1px" opacity="0.25"></line><line x1="0" y1="88.49999999999999" x2="280" y2="88.49999999999999" fill="rgb(0, 0, 0)" stroke="rgb(66, 66, 66)" stroke-width="1px" opacity="0.25"></line><line x1="0" y1="66.375" x2="280" y2="66.375" fill="rgb(0, 0, 0)" stroke="rgb(66, 66, 66)" stroke-width="1px" opacity="0.25"></line><line x1="0" y1="44.25" x2="280" y2="44.25" fill="rgb(0, 0, 0)" stroke="rgb(66, 66, 66)" stroke-width="1px" opacity="0.25"></line><line x1="0" y1="22.12499999999998" x2="280" y2="22.12499999999998" fill="rgb(0, 0, 0)" stroke="rgb(66, 66, 66)" stroke-width="1px" opacity="0.25"></line><line x1="0" y1="0" x2="280" y2="0" fill="rgb(0, 0, 0)" stroke="rgb(66, 66, 66)" stroke-width="1px" opacity="0.25"></line></g></g></g><g><g><line x1="0" y1="243.375" x2="280" y2="243.375" fill="rgb(0, 0, 0)" stroke="rgb(153, 153, 153)" stroke-width="1.5px"></line></g></g><g><g><line x1="20" y1="0" x2="20" y2="177" fill="rgb(0, 0, 0)" stroke="rgb(153, 153, 153)" stroke-width="1.5px"></line></g></g><g><g><g><g><g><path stroke="rgb(255, 112, 67)" stroke-width="2px" d="M21,50.02202458307147L22,48.9879781762138L23,48.120198065909214L24,47.3043048239094L25,46.38466456776781L26,45.37654620549611L27,44.27083912129305L28,42.988637047739985L29.000000000000004,41.521536402964664L30,40.00387362291623L31,38.41309930914452L32,36.98954981901697L33,35.71169721401819L34,34.66976381508135L35,33.473059594101564L36,31.80356291115586L37,29.849430430185606L38,27.705314604214628L39,25.94939416271693L40,24.46061373900965L41,23.259339293656385L42,21.850140736848275L43,19.620565140631868L44,17.56562396183766L45,16.30725304827708L46,15.557033058054278L46.99999999999999,14.639772800201293L48,14.142253108328536L49,14.168959228107253L50,14.54786417242583L51,15.066572360098597L52,15.836703446347341L53,16.80314567194271L54,17.89466728420673L55,19.07975841504075L56,20.31956700734613L57,21.59010266853268L58.00000000000001,22.87804594573525L59,24.18193958654713L60,25.492014251640523L61,26.793810069109668L62,28.094832212088157L63,29.391440486005397L64,30.683692653755585L65,31.969605681302827L66,33.24840515532287L67,34.521492462969896L68,35.78745996306229L69,37.04874017150842L70,38.30142527409398L71,39.54891375058303L72,40.790363214039935L73,42.025294607357786L74,43.250123614358195L75,44.46802740650688L76,45.67915834550495L77,46.88034393527794L78,48.07376221799082L79,49.26073980023409L80,50.44072092437718L81.00000000000001,51.60698937245598L82,52.761159675528965L83,53.90891509336852L84,55.047289412216095L85,56.181294480559686L86,57.30992180532065L87,58.43053541139275L88,59.547072694036416L89,60.65655514170709L90,61.76028152894963L91,62.85632767732137L92,63.94702058705801L93,65.02947710557649L93.99999999999999,66.10325971903723L95,67.1683301071067L96,68.22583237378235L97,69.2769672950413L98,70.32075414540208L99,71.35875405658385L100,72.38823098116579L101,73.40780704124843L102,74.41873913946198L103,75.42458376701146L104,76.42368999818245L105,77.416465155478L106,78.39991609436015L107,79.37725818861568L108,80.34665562337067L109,81.3080619119133L110,82.26218107000146L111,83.20778706613274L112,84.14442121948655L113,85.0737007317892L114,85.99804655211875L115,86.91265376804893L116.00000000000001,87.81599774747268L117,88.7121288152884L118,89.60203313215672L119,90.48640130093156L120,91.36785000044384L121,92.24473148124383L122,93.11730990878917L123,93.98009292675364L124,94.83672835465256L125,95.68756522408715L126,96.53197554601188L127,97.37038037242264L128,98.20037504769428L129,99.01317132554689L130,99.81942019785785L131,100.62173403307999L132,101.42179234627011L133,102.21787302823736L134,103.00989890922236L135,103.79766543703751L136,104.5804762229173L137,105.35729691668445L138,106.12861466055567L139,106.89573717949068L140,107.65801826171442L141,108.4146514761589L142,109.1657134341086L143,109.91046544443876L144,110.64874123055525L145,111.38072126146427L146,112.1081919314639L147,112.83030958874085L148,113.54716477783357L149,114.25878874729179L150,114.96391775918067L151,115.66323430813587L152,116.35421696291708L152.99999999999997,117.03779915116037L154,117.71164626712682L155,118.38328880047847L156,119.04927977830798L157,119.71103911793607L158,120.36783626643644L159,121.02186050693885L160,121.66992186862645L161,122.31439231549749L162.00000000000003,122.95311461219221L163,123.58545709075945L164,124.21011762349258L165,124.83088770898253L166,125.44661019231123L167,126.05773479855203L168,126.66568527141897L169,127.26943333756738L170,127.86790376640445L171,128.46064263872557L172,129.05049645329865L173,129.63631800964686L174,130.21515732649092L175,130.78930617358165L176,131.3587021722548L177,131.92230234632808L178,132.48047327154828L179,133.03381403478355L180,133.58405888791305L181,134.13158241191758L182,134.6727355191365L183,135.2098355945501L184,135.74264440948087L185,136.27135530867764L186,136.79548096959942L187,137.31513121831512L187.99999999999997,137.8303224972373L189,138.34015143552338L190,138.844221073472L191,139.34288337712496L192,139.83886175012594L193,140.33246488813165L194,140.82217681746843L195,141.30988041291332L196,141.7934381893557L197.00000000000003,142.2739348169435L198,142.75126940868907L199,143.2243297270692L200,143.69352980683786L201,144.1589268496963L202,144.62063430183127L203,145.07882902805804L204,145.5331193180966L205,145.98288441059518L206,146.42870794449763L207,146.87044227400133L208,147.3082098120672L209,147.74227852250473L210,148.1718201190253L211,148.59929163605094L212,149.02344077289175L213,149.44337438321156L214,149.859156611717L215,150.27000172475354L216,150.67879780479893L217,151.0838324597396L218,151.4854398665379L219,151.88437111065093L220,152.27979105940642L221,152.67198329109655L222,153.06022779457993L222.99999999999997,153.44500250257985L224,153.82658098720273L225,154.2053383921549L226,154.58054370790515L227,154.95231220489617L228,155.3207097485118L229,155.68577585798218L230,156.04833868403267L231,156.4085522413792L232.00000000000003,156.7650253419901L233,157.11835741667898L234,157.4676816838619L235,157.8138792494021L236,158.15839530998957L237,158.4994265092879L238,158.83776346242246L239,159.17343875629197L240,159.50664667777713L241,159.8372169702798L242,160.16464526024757L243,160.48890915851175L244,160.81036448234545L245,161.129284065987L246,161.44571621911248L247,161.75891845715952L248,162.06905191566295L249,162.37693529308288L250,162.68206085327535L251,162.9840777982072L252,163.28341524414992L253,163.580037238376L254,163.8736782399873L255,164.1652042547202L256,164.45380294572328L257,164.7396495841504L258,165.02308341130976L259,165.30417279982782L260,165.58270821025502L261,165.85893316969592L262,166.1320871518869L263,166.402669936825L264,166.67110337713905L265,166.9373471619162L266,167.20075729080872L267,167.4616495994558L268,167.72039162086426L269,167.97675879577983L270,168.23055704477542" style="fill: none;" fill="none"></path></g></g></g></g><g opacity="0.2"><g><g><g><path stroke="rgb(255, 112, 67)" stroke-width="2px" d="M21,50.02202458307147L22,48.3675503320992L23,47.287129160016775L24,46.344814371317625L25,45.183982249349356L26,43.98195558786392L27,42.68966029956937L28,41.11917411535978L29.000000000000004,39.357847921550274L30,37.75032126903534L31,36.041366044431925L32,34.861972477287054L33,33.79909071698785L34,33.10890497267246L35,31.679409943521023L36,29.300495345145464L37,26.91905863210559L38,24.489685256034136L39,23.315780997276306L40,22.227579183876514L41,21.457493506371975L42,19.73638927191496L43,16.276245765388012L44,14.483236536383629L45,14.419705621898174L46,14.43170627206564L46.99999999999999,13.263884760439396L48,13.395974334329367L49,14.209018383175135L50,15.116221379488707L51,15.844634469598532L52,16.99189992249012L53,18.252808894962072L54,19.531949624419212L55,20.85739506036043L56,22.17927986383438L57,23.49590614065528L58.00000000000001,24.80996084958315L59,26.137780040502548L60,27.45712624490261L61,28.74650379270315L62,30.046365424990654L63,31.33635289594531L64,32.62207090482116L65,33.89847522228956L66,35.16660436615348L67,36.43112342432141L68,37.68641121312976L69,38.94066048413515L70,40.180452927947044L71,41.420146465301514L72,42.652537409216166L73,43.87769169732928L74,45.08736712485552L75,46.29488309472799L76,47.4958547540009L77,48.68212231993675L78,49.8638896420598L79,51.041206173598766L80,52.21069261059165L81.00000000000001,53.35639204457402L82,54.4924151301384L83,55.63054822012782L84,56.75485089048743L85,57.88230208307505L86,59.00286279246211L87,60.11145582050085L88,61.22187861800194L89,62.32077881321311L90,63.41587110981345L91,64.50039689987898L92,65.58305995166302L93,66.65316188335419L93.99999999999999,67.71393363922834L95,68.76593568921089L96,69.81208577379584L97,70.85366967692971L98,71.88643442094326L99,72.91575392335653L100,73.93244636803865L101,74.93717113137245L102,75.93513728678226L103,76.93335070833564L104,77.922349344939L105,78.90562789142132L106,79.8750925026834L107,80.84327132999897L108,81.80075177550316L109,82.75017134472728L110,83.69335980713367L111,84.62619606032968L112,85.54937244951725L113,86.46762000024319L114,87.38456528261304L115,88.28456459194422L116.00000000000001,89.17101371660829L117,90.05632541701198L118,90.9368896074593L119,91.81295355409384L120,92.69002304971218L121,93.56005370244384L122,94.42617755010724L123,95.2742674537003L124,96.12168149650097L125,96.96382052823901L126,97.79859102889895L127,98.62798761203885L128,99.44536706060171L129,100.23236574232578L130,101.02879350632429L131,101.82520478591323L132,102.6218798160553L133,103.41199405118823L134,104.19793773069978L135,104.97931522876024L136,105.75469240173697L137,106.52252795733511L138,107.28559127636254L139,108.04642095789313L140,108.80143988505006L141,109.54960129782557L142,110.29230637103319L143,111.027593459934L144,111.75615490972996L145,112.47869130782783L146,113.19939793646336L147,113.91348607465625L148,114.62244756147265L149,115.32622470147908L150,116.02161127701402L151,116.71220913156867L152,117.39069094508886L152.99999999999997,118.06317243352532L154,118.72241694107652L155,119.39075260050595L156,120.04826624505222L157,120.70367812737823L158,121.353031989187L159,122.00289686769247L160,122.64201391115785L161,123.28109798580408L162.00000000000003,123.91119805723429L163,124.53397080861032L164,125.14710842259228L165,125.76204283721745L166,126.37019391730428L167,126.97442170791328L168,127.57761098071933L169,128.17505543679L170,128.7656094096601L171,129.3497509472072L172,129.93527717515826L173,130.51505034416914L174,131.0834163017571L175,131.65052944421768L176,132.21279617026448L177,132.76770260743797L178,133.31772965937853L179,133.86382517963648L180,134.4094261676073L181,134.95286769792438L182,135.4844651799649L183,136.01548570767045L184,136.54185763187706L185,137.06442165747285L186,137.58166946098208L187,138.09460659138858L187.99999999999997,138.60310941562057L189,139.1048948429525L190,139.6003255303949L191,140.0908768326044L192,140.5828293096274L193,141.07286959514022L194,141.55674471147358L195,142.0414358060807L196,142.51877485401928L197.00000000000003,142.99467975832522L198,143.46727129630744L199,143.93392020463943L200,144.39732992649078L201,144.85702241398394L202,145.31319548003376L203,145.76612111739814L204,146.21455475315452L205,146.657532049343L206,147.09744324535131L207,147.5330437682569L208,147.96486111916602L209,148.393381588161L210,148.81613251380622L211,149.24049891158938L212,149.659664478153L213,150.07327479869127L214,150.48282995447516L215,150.88626939430833L216,151.29199192486703L217,151.6913844421506L218,152.08785097673535L219,152.48276797682047L220,152.87292098253965L221,153.26027163863182L222,153.64259454980493L222.99999999999997,154.02216456457973L224,154.39894871413708L225,154.77347449958324L226,155.14335168153048L227,155.5099649503827L228,155.87330606393516L229,156.23337502218783L230,156.59218292310834L231,156.94887257739902L232.00000000000003,157.29973499290645L233,157.64835552871227L234,157.99166808463633L235,158.3331755977124L236,158.6751694008708L237,159.0109733082354L238,159.3452688921243L239,159.67695169709623L240,160.00645856000483L241,160.33307240903378L242,160.65578769519925L243,160.975305005908L244,161.29254746809602L245,161.6076634414494L246,161.92036444880068L247,162.22872181423008L248,162.5342521034181L249,162.83876035921276L250,163.13974919356406L251,163.43710321560502L252,163.732421413064L253,164.0249702297151L254,164.31413974240422L255,164.6024932768196L256,164.88670098222792L257,165.16841954179108L258,165.44823415204883L259,165.72580688260496L260,166.0005113258958L261,166.27327060885727L262,166.54181812517345L263,166.80854411423206L264,167.07375353761017L265,167.33671283908188L266,167.59587248414755L267,167.85298806242645L268,168.108504652977L269,168.36130955815315L270,168.6112544182688" style="fill: none;" fill="none"></path></g></g></g></g></g><g><g><span fill="rgb(0, 0, 0)" stroke="none" stroke-width="1px">Alt + Scroll to Zoom</span></g></g></g><g transform="translate(50, 177)" clip-path="url(#clip_1)"><clipPath id="clip_1"><rect width="280" height="22"></rect></clipPath><g><g><line x1="0" y1="0" x2="0" y2="5" style="visibility: inherit;" fill="rgb(0, 0, 0)" stroke="rgb(204, 204, 204)" stroke-width="1px"></line><line x1="20" y1="0" x2="20" y2="5" style="visibility: inherit;" fill="rgb(0, 0, 0)" stroke="rgb(204, 204, 204)" stroke-width="1px"></line><line x1="40" y1="0" x2="40" y2="5" style="visibility: inherit;" fill="rgb(0, 0, 0)" stroke="rgb(204, 204, 204)" stroke-width="1px"></line><line x1="60" y1="0" x2="60" y2="5" style="visibility: inherit;" fill="rgb(0, 0, 0)" stroke="rgb(204, 204, 204)" stroke-width="1px"></line><line x1="80" y1="0" x2="80" y2="5" style="visibility: inherit;" fill="rgb(0, 0, 0)" stroke="rgb(204, 204, 204)" stroke-width="1px"></line><line x1="100" y1="0" x2="100" y2="5" style="visibility: inherit;" fill="rgb(0, 0, 0)" stroke="rgb(204, 204, 204)" stroke-width="1px"></line><line x1="120" y1="0" x2="120" y2="5" style="visibility: inherit;" fill="rgb(0, 0, 0)" stroke="rgb(204, 204, 204)" stroke-width="1px"></line><line x1="140" y1="0" x2="140" y2="5" style="visibility: inherit;" fill="rgb(0, 0, 0)" stroke="rgb(204, 204, 204)" stroke-width="1px"></line><line x1="160" y1="0" x2="160" y2="5" style="visibility: inherit;" fill="rgb(0, 0, 0)" stroke="rgb(204, 204, 204)" stroke-width="1px"></line><line x1="180" y1="0" x2="180" y2="5" style="visibility: inherit;" fill="rgb(0, 0, 0)" stroke="rgb(204, 204, 204)" stroke-width="1px"></line><line x1="200" y1="0" x2="200" y2="5" style="visibility: inherit;" fill="rgb(0, 0, 0)" stroke="rgb(204, 204, 204)" stroke-width="1px"></line><line x1="220" y1="0" x2="220" y2="5" style="visibility: inherit;" fill="rgb(0, 0, 0)" stroke="rgb(204, 204, 204)" stroke-width="1px"></line><line x1="240" y1="0" x2="240" y2="5" style="visibility: inherit;" fill="rgb(0, 0, 0)" stroke="rgb(204, 204, 204)" stroke-width="1px"></line><line x1="260" y1="0" x2="260" y2="5" style="visibility: inherit;" fill="rgb(0, 0, 0)" stroke="rgb(204, 204, 204)" stroke-width="1px"></line><line x1="280" y1="0" x2="280" y2="5" style="visibility: inherit;" fill="rgb(0, 0, 0)" stroke="rgb(204, 204, 204)" stroke-width="1px"></line></g><g transform="translate(0, 8)"><text x="0" y="0" dx="0em" dy="0.95em" style="text-anchor: middle; visibility: hidden; font-family: Roboto, sans-serif; font-size: 12px; font-weight: 200;" fill="rgb(33, 33, 33)" stroke="none" stroke-width="1px">-2k</text><text x="20" y="0" dx="0em" dy="0.95em" style="text-anchor: middle; visibility: inherit; font-family: Roboto, sans-serif; font-size: 12px; font-weight: 200;" fill="rgb(33, 33, 33)" stroke="none" stroke-width="1px">0</text><text x="40" y="0" dx="0em" dy="0.95em" style="text-anchor: middle; visibility: hidden; font-family: Roboto, sans-serif; font-size: 12px; font-weight: 200;" fill="rgb(33, 33, 33)" stroke="none" stroke-width="1px">2k</text><text x="60" y="0" dx="0em" dy="0.95em" style="text-anchor: middle; visibility: inherit; font-family: Roboto, sans-serif; font-size: 12px; font-weight: 200;" fill="rgb(33, 33, 33)" stroke="none" stroke-width="1px">4k</text><text x="80" y="0" dx="0em" dy="0.95em" style="text-anchor: middle; visibility: hidden; font-family: Roboto, sans-serif; font-size: 12px; font-weight: 200;" fill="rgb(33, 33, 33)" stroke="none" stroke-width="1px">6k</text><text x="100" y="0" dx="0em" dy="0.95em" style="text-anchor: middle; visibility: inherit; font-family: Roboto, sans-serif; font-size: 12px; font-weight: 200;" fill="rgb(33, 33, 33)" stroke="none" stroke-width="1px">8k</text><text x="120" y="0" dx="0em" dy="0.95em" style="text-anchor: middle; visibility: hidden; font-family: Roboto, sans-serif; font-size: 12px; font-weight: 200;" fill="rgb(33, 33, 33)" stroke="none" stroke-width="1px">10k</text><text x="140" y="0" dx="0em" dy="0.95em" style="text-anchor: middle; visibility: inherit; font-family: Roboto, sans-serif; font-size: 12px; font-weight: 200;" fill="rgb(33, 33, 33)" stroke="none" stroke-width="1px">12k</text><text x="160" y="0" dx="0em" dy="0.95em" style="text-anchor: middle; visibility: hidden; font-family: Roboto, sans-serif; font-size: 12px; font-weight: 200;" fill="rgb(33, 33, 33)" stroke="none" stroke-width="1px">14k</text><text x="180" y="0" dx="0em" dy="0.95em" style="text-anchor: middle; visibility: inherit; font-family: Roboto, sans-serif; font-size: 12px; font-weight: 200;" fill="rgb(33, 33, 33)" stroke="none" stroke-width="1px">16k</text><text x="200" y="0" dx="0em" dy="0.95em" style="text-anchor: middle; visibility: hidden; font-family: Roboto, sans-serif; font-size: 12px; font-weight: 200;" fill="rgb(33, 33, 33)" stroke="none" stroke-width="1px">18k</text><text x="220" y="0" dx="0em" dy="0.95em" style="text-anchor: middle; visibility: inherit; font-family: Roboto, sans-serif; font-size: 12px; font-weight: 200;" fill="rgb(33, 33, 33)" stroke="none" stroke-width="1px">20k</text><text x="240" y="0" dx="0em" dy="0.95em" style="text-anchor: middle; visibility: hidden; font-family: Roboto, sans-serif; font-size: 12px; font-weight: 200;" fill="rgb(33, 33, 33)" stroke="none" stroke-width="1px">22k</text><text x="260" y="0" dx="0em" dy="0.95em" style="text-anchor: middle; visibility: inherit; font-family: Roboto, sans-serif; font-size: 12px; font-weight: 200;" fill="rgb(33, 33, 33)" stroke="none" stroke-width="1px">24k</text><text x="280" y="0" dx="0em" dy="0.95em" style="text-anchor: middle; visibility: hidden; font-family: Roboto, sans-serif; font-size: 12px; font-weight: 200;" fill="rgb(33, 33, 33)" stroke="none" stroke-width="1px">26k</text></g><line x1="0" y1="0" x2="280" y2="0" fill="rgb(0, 0, 0)" stroke="rgb(204, 204, 204)" stroke-width="1px"></line></g></g></g></g></svg>