<svg viewBox="0 0 330 200" xmlns="http://www.w3.org/2000/svg"><g><g><g><g><g><line x1="61.953125" y1="177" x2="56.953125" y2="177" style="visibility: inherit;" fill="rgb(0, 0, 0)" stroke="rgb(204, 204, 204)" stroke-width="1px"></line><line x1="61.953125" y1="163.3846153846154" x2="56.953125" y2="163.3846153846154" style="visibility: inherit;" fill="rgb(0, 0, 0)" stroke="rgb(204, 204, 204)" stroke-width="1px"></line><line x1="61.953125" y1="149.76923076923077" x2="56.953125" y2="149.76923076923077" style="visibility: inherit;" fill="rgb(0, 0, 0)" stroke="rgb(204, 204, 204)" stroke-width="1px"></line><line x1="61.953125" y1="136.15384615384613" x2="56.953125" y2="136.15384615384613" style="visibility: inherit;" fill="rgb(0, 0, 0)" stroke="rgb(204, 204, 204)" stroke-width="1px"></line><line x1="61.953125" y1="122.53846153846153" x2="56.953125" y2="122.53846153846153" style="visibility: inherit;" fill="rgb(0, 0, 0)" stroke="rgb(204, 204, 204)" stroke-width="1px"></line><line x1="61.953125" y1="108.92307692307693" x2="56.953125" y2="108.92307692307693" style="visibility: inherit;" fill="rgb(0, 0, 0)" stroke="rgb(204, 204, 204)" stroke-width="1px"></line><line x1="61.953125" y1="95.30769230769232" x2="56.953125" y2="95.30769230769232" style="visibility: inherit;" fill="rgb(0, 0, 0)" stroke="rgb(204, 204, 204)" stroke-width="1px"></line><line x1="61.953125" y1="81.6923076923077" x2="56.953125" y2="81.6923076923077" style="visibility: inherit;" fill="rgb(0, 0, 0)" stroke="rgb(204, 204, 204)" stroke-width="1px"></line><line x1="61.953125" y1="68.0769230769231" x2="56.953125" y2="68.0769230769231" style="visibility: inherit;" fill="rgb(0, 0, 0)" stroke="rgb(204, 204, 204)" stroke-width="1px"></line><line x1="61.953125" y1="54.46153846153847" x2="56.953125" y2="54.46153846153847" style="visibility: inherit;" fill="rgb(0, 0, 0)" stroke="rgb(204, 204, 204)" stroke-width="1px"></line><line x1="61.953125" y1="40.84615384615386" x2="56.953125" y2="40.84615384615386" style="visibility: inherit;" fill="rgb(0, 0, 0)" stroke="rgb(204, 204, 204)" stroke-width="1px"></line><line x1="61.953125" y1="27.230769230769234" x2="56.953125" y2="27.230769230769234" style="visibility: inherit;" fill="rgb(0, 0, 0)" stroke="rgb(204, 204, 204)" stroke-width="1px"></line><line x1="61.953125" y1="13.615384615384606" x2="56.953125" y2="13.615384615384606" style="visibility: inherit;" fill="rgb(0, 0, 0)" stroke="rgb(204, 204, 204)" stroke-width="1px"></line><line x1="61.953125" y1="0" x2="56.953125" y2="0" style="visibility: inherit;" fill="rgb(0, 0, 0)" stroke="rgb(204, 204, 204)" stroke-width="1px"></line></g><g transform="translate(51.953125, 0)"><text x="0" y="177" dx="0em" dy="0.3em" style="text-anchor: end; visibility: hidden; font-family: Roboto, sans-serif; font-size: 12px; font-weight: 200;" fill="rgb(33, 33, 33)" stroke="none" stroke-width="1px">-0.05</text><text x="0" y="163.3846153846154" dx="0em" dy="0.3em" style="text-anchor: end; visibility: inherit; font-family: Roboto, sans-serif; font-size: 12px; font-weight: 200;" fill="rgb(33, 33, 33)" stroke="none" stroke-width="1px">0</text><text x="0" y="149.76923076923077" dx="0em" dy="0.3em" style="text-anchor: end; visibility: hidden; font-family: Roboto, sans-serif; font-size: 12px; font-weight: 200;" fill="rgb(33, 33, 33)" stroke="none" stroke-width="1px">0.05</text><text x="0" y="136.15384615384613" dx="0em" dy="0.3em" style="text-anchor: end; visibility: inherit; font-family: Roboto, sans-serif; font-size: 12px; font-weight: 200;" fill="rgb(33, 33, 33)" stroke="none" stroke-width="1px">0.1</text><text x="0" y="122.53846153846153" dx="0em" dy="0.3em" style="text-anchor: end; visibility: hidden; font-family: Roboto, sans-serif; font-size: 12px; font-weight: 200;" fill="rgb(33, 33, 33)" stroke="none" stroke-width="1px">0.15</text><text x="0" y="108.92307692307693" dx="0em" dy="0.3em" style="text-anchor: end; visibility: inherit; font-family: Roboto, sans-serif; font-size: 12px; font-weight: 200;" fill="rgb(33, 33, 33)" stroke="none" stroke-width="1px">0.2</text><text x="0" y="95.30769230769232" dx="0em" dy="0.3em" style="text-anchor: end; visibility: hidden; font-family: Roboto, sans-serif; font-size: 12px; font-weight: 200;" fill="rgb(33, 33, 33)" stroke="none" stroke-width="1px">0.25</text><text x="0" y="81.6923076923077" dx="0em" dy="0.3em" style="text-anchor: end; visibility: inherit; font-family: Roboto, sans-serif; font-size: 12px; font-weight: 200;" fill="rgb(33, 33, 33)" stroke="none" stroke-width="1px">0.3</text><text x="0" y="68.0769230769231" dx="0em" dy="0.3em" style="text-anchor: end; visibility: hidden; font-family: Roboto, sans-serif; font-size: 12px; font-weight: 200;" fill="rgb(33, 33, 33)" stroke="none" stroke-width="1px">0.35</text><text x="0" y="54.46153846153847" dx="0em" dy="0.3em" style="text-anchor: end; visibility: inherit; font-family: Roboto, sans-serif; font-size: 12px; font-weight: 200;" fill="rgb(33, 33, 33)" stroke="none" stroke-width="1px">0.4</text><text x="0" y="40.84615384615386" dx="0em" dy="0.3em" style="text-anchor: end; visibility: hidden; font-family: Roboto, sans-serif; font-size: 12px; font-weight: 200;" fill="rgb(33, 33, 33)" stroke="none" stroke-width="1px">0.45</text><text x="0" y="27.230769230769234" dx="0em" dy="0.3em" style="text-anchor: end; visibility: inherit; font-family: Roboto, sans-serif; font-size: 12px; font-weight: 200;" fill="rgb(33, 33, 33)" stroke="none" stroke-width="1px">0.5</text><text x="0" y="13.615384615384606" dx="0em" dy="0.3em" style="text-anchor: end; visibility: hidden; font-family: Roboto, sans-serif; font-size: 12px; font-weight: 200;" fill="rgb(33, 33, 33)" stroke="none" stroke-width="1px">0.55</text><text x="0" y="0" dx="0em" dy="0.3em" style="text-anchor: end; visibility: hidden; font-family: Roboto, sans-serif; font-size: 12px; font-weight: 200;" fill="rgb(33, 33, 33)" stroke="none" stroke-width="1px">0.6</text></g><line x1="61.953125" y1="0" x2="61.953125" y2="177" fill="rgb(0, 0, 0)" stroke="rgb(204, 204, 204)" stroke-width="1px"></line></g></g><g transform="translate(61, 0)" clip-path="url(#clip_0)"><clipPath id="clip_0"><rect width="268" height="176"></rect></clipPath><g><g><g><line x1="0" y1="0" x2="0" y2="177" fill="rgb(0, 0, 0)" stroke="rgb(66, 66, 66)" stroke-width="1px" opacity="0.25"></line><line x1="19.146205357142858" y1="0" x2="19.146205357142858" y2="177" fill="rgb(0, 0, 0)" stroke="rgb(66, 66, 66)" stroke-width="1px" opacity="0.25"></line><line x1="38.292410714285715" y1="0" x2="38.292410714285715" y2="177" fill="rgb(0, 0, 0)" stroke="rgb(66, 66, 66)" stroke-width="1px" opacity="0.25"></line><line x1="57.43861607142857" y1="0" x2="57.43861607142857" y2="177" fill="rgb(0, 0, 0)" stroke="rgb(66, 66, 66)" stroke-width="1px" opacity="0.25"></line><line x1="76.58482142857143" y1="0" x2="76.58482142857143" y2="177" fill="rgb(0, 0, 0)" stroke="rgb(66, 66, 66)" stroke-width="1px" opacity="0.25"></line><line x1="95.73102678571429" y1="0" x2="95.73102678571429" y2="177" fill="rgb(0, 0, 0)" stroke="rgb(66, 66, 66)" stroke-width="1px" opacity="0.25"></line><line x1="114.87723214285714" y1="0" x2="114.87723214285714" y2="177" fill="rgb(0, 0, 0)" stroke="rgb(66, 66, 66)" stroke-width="1px" opacity="0.25"></line><line x1="134.0234375" y1="0" x2="134.0234375" y2="177" fill="rgb(0, 0, 0)" stroke="rgb(66, 66, 66)" stroke-width="1px" opacity="0.25"></line><line x1="153.16964285714286" y1="0" x2="153.16964285714286" y2="177" fill="rgb(0, 0, 0)" stroke="rgb(66, 66, 66)" stroke-width="1px" opacity="0.25"></line><line x1="172.31584821428572" y1="0" x2="172.31584821428572" y2="177" fill="rgb(0, 0, 0)" stroke="rgb(66, 66, 66)" stroke-width="1px" opacity="0.25"></line><line x1="191.46205357142858" y1="0" x2="191.46205357142858" y2="177" fill="rgb(0, 0, 0)" stroke="rgb(66, 66, 66)" stroke-width="1px" opacity="0.25"></line><line x1="210.60825892857142" y1="0" x2="210.60825892857142" y2="177" fill="rgb(0, 0, 0)" stroke="rgb(66, 66, 66)" stroke-width="1px" opacity="0.25"></line><line x1="229.75446428571428" y1="0" x2="229.75446428571428" y2="177" fill="rgb(0, 0, 0)" stroke="rgb(66, 66, 66)" stroke-width="1px" opacity="0.25"></line><line x1="248.90066964285714" y1="0" x2="248.90066964285714" y2="177" fill="rgb(0, 0, 0)" stroke="rgb(66, 66, 66)" stroke-width="1px" opacity="0.25"></line><line x1="268.046875" y1="0" x2="268.046875" y2="177" fill="rgb(0, 0, 0)" stroke="rgb(66, 66, 66)" stroke-width="1px" opacity="0.25"></line></g><g><line x1="0" y1="177" x2="268.046875" y2="177" fill="rgb(0, 0, 0)" stroke="rgb(66, 66, 66)" stroke-width="1px" opacity="0.25"></line><line x1="0" y1="163.3846153846154" x2="268.046875" y2="163.3846153846154" fill="rgb(0, 0, 0)" stroke="rgb(66, 66, 66)" stroke-width="1px" opacity="0.25"></line><line x1="0" y1="149.76923076923077" x2="268.046875" y2="149.76923076923077" fill="rgb(0, 0, 0)" stroke="rgb(66, 66, 66)" stroke-width="1px" opacity="0.25"></line><line x1="0" y1="136.15384615384613" x2="268.046875" y2="136.15384615384613" fill="rgb(0, 0, 0)" stroke="rgb(66, 66, 66)" stroke-width="1px" opacity="0.25"></line><line x1="0" y1="122.53846153846153" x2="268.046875" y2="122.53846153846153" fill="rgb(0, 0, 0)" stroke="rgb(66, 66, 66)" stroke-width="1px" opacity="0.25"></line><line x1="0" y1="108.92307692307693" x2="268.046875" y2="108.92307692307693" fill="rgb(0, 0, 0)" stroke="rgb(66, 66, 66)" stroke-width="1px" opacity="0.25"></line><line x1="0" y1="95.30769230769232" x2="268.046875" y2="95.30769230769232" fill="rgb(0, 0, 0)" stroke="rgb(66, 66, 66)" stroke-width="1px" opacity="0.25"></line><line x1="0" y1="81.6923076923077" x2="268.046875" y2="81.6923076923077" fill="rgb(0, 0, 0)" stroke="rgb(66, 66, 66)" stroke-width="1px" opacity="0.25"></line><line x1="0" y1="68.0769230769231" x2="268.046875" y2="68.0769230769231" fill="rgb(0, 0, 0)" stroke="rgb(66, 66, 66)" stroke-width="1px" opacity="0.25"></line><line x1="0" y1="54.46153846153847" x2="268.046875" y2="54.46153846153847" fill="rgb(0, 0, 0)" stroke="rgb(66, 66, 66)" stroke-width="1px" opacity="0.25"></line><line x1="0" y1="40.84615384615386" x2="268.046875" y2="40.84615384615386" fill="rgb(0, 0, 0)" stroke="rgb(66, 66, 66)" stroke-width="1px" opacity="0.25"></line><line x1="0" y1="27.230769230769234" x2="268.046875" y2="27.230769230769234" fill="rgb(0, 0, 0)" stroke="rgb(66, 66, 66)" stroke-width="1px" opacity="0.25"></line><line x1="0" y1="13.615384615384606" x2="268.046875" y2="13.615384615384606" fill="rgb(0, 0, 0)" stroke="rgb(66, 66, 66)" stroke-width="1px" opacity="0.25"></line><line x1="0" y1="0" x2="268.046875" y2="0" fill="rgb(0, 0, 0)" stroke="rgb(66, 66, 66)" stroke-width="1px" opacity="0.25"></line></g></g></g><g><g><line x1="0" y1="163.3846153846154" x2="268.046875" y2="163.3846153846154" fill="rgb(0, 0, 0)" stroke="rgb(153, 153, 153)" stroke-width="1.5px"></line></g></g><g><g><line x1="19.146205357142858" y1="0" x2="19.146205357142858" y2="177" fill="rgb(0, 0, 0)" stroke="rgb(153, 153, 153)" stroke-width="1.5px"></line></g></g><g><g><g><g><g><path style="fill: none;" stroke="rgb(255, 112, 67)" stroke-width="2px" d="M20.103515625,13.366157385019152L21.060825892857142,29.361756026744864L22.018136160714285,54.264182692232836L22.975446428571427,73.16140809156238L23.932756696428573,89.30289581224427L24.890066964285715,102.6240263820645L25.847377232142858,113.77990949479609L26.8046875,121.44683556462155L27.761997767857146,127.87263917476132L28.719308035714285,129.29610785676752L29.676618303571427,133.8920547626086L30.63392857142857,134.88567714991086L31.591238839285715,135.93914148313945L32.548549107142854,139.78639416922243L33.505859375,140.5155368699089L34.46316964285714,141.2651011696115L35.420479910714285,141.27698373260534L36.37779017857142,143.867945374849L37.33510044642857,144.8037339577718L38.292410714285715,146.9965221522522L39.24972098214286,147.3158480108815L40.20703125,147.14728008161256L41.164341517857146,148.71236069124382L42.121651785714285,150.3846563165319L43.07896205357143,150.76227135013576L44.03627232142857,150.3892232836466L44.99358258928571,150.67603145800518L45.950892857142854,151.36254611950864L46.908203125,153.52614951851405L47.865513392857146,152.14617090546466L48.822823660714285,153.12326536558209L49.78013392857143,154.63380500718696L50.73744419642857,155.2134162230893L51.694754464285715,154.76950499137035L52.652064732142854,142.7025156153727L53.609375,144.98239965330734L54.566685267857146,147.6049354537558L55.52399553571429,151.43717893242192L56.48130580357143,153.43151940672325L57.43861607142857,154.91463875510027L58.395926339285715,155.9166307230836L59.353236607142854,157.16628240494433L60.310546875,157.5830465459333L61.26785714285714,158.39796863439622L62.225167410714285,159.35142597119366L63.18247767857143,159.5790653811352L64.13978794642857,159.86518696810774L65.09709821428571,160.056469165255L66.05440848214286,160.14376784900645L67.01171875,160.21860673760864L67.96902901785714,160.5208335301347L68.92633928571428,160.0176810254434L69.88364955357143,159.77074783404075L70.84095982142857,159.86370583448155L71.79827008928571,159.62147710160713L72.75558035714285,159.89971827952775L73.712890625,159.68964201915867L74.67020089285714,159.87264719087892L75.62751116071429,160.37309428142916L76.58482142857143,161.10914935785368L77.54213169642858,161.25033471448234L78.49944196428572,161.57957885547057L79.45675223214286,162.05083899425728L80.4140625,162.38405006381097L81.37137276785714,162.61576417581284L82.32868303571429,162.67012175396593L83.28599330357143,162.7846043330662L84.24330357142857,162.87942445936523L85.20061383928571,162.94577885252485L86.15792410714286,163.02851654223403L87.115234375,162.97358589753838L88.07254464285714,162.99623584044235L89.02985491071428,163.0350788311399L89.98716517857142,163.07582575855986L90.94447544642857,163.1017953245727L91.90178571428571,163.12548882022463L92.85909598214286,163.1465603080444L93.81640625,163.16375934571798L94.77371651785715,163.1744972694402L95.73102678571429,163.17298339860366L96.68833705357143,163.1839219457484L97.64564732142857,163.1917756891818L98.60295758928572,163.19960104769004L99.56026785714286,163.208768140743L100.517578125,163.23462734932215L101.47488839285714,163.23800383451376L102.43219866071428,163.24430910054383L103.38950892857143,163.2417217047494L104.34681919642857,163.25070311565614L105.30412946428571,163.25012951321753L106.26143973214285,163.26380329105328L107.21875,163.27195720105357L108.17606026785714,163.24978593795285L109.13337053571429,163.18401508601318L110.09068080357143,163.11798108877576L111.04799107142858,136.546055357458L112.00530133928572,135.59327378687598L112.96261160714286,134.95702410139734L113.919921875,137.50639505256837L114.87723214285714,142.20201028214288L115.83454241071429,146.29147268384378L116.79185267857143,149.21147124705215L117.74916294642857,150.60258212620823L118.70647321428571,152.17699713393014L119.66378348214286,152.3534320755608L120.62109375,153.7534644575279L121.57840401785714,154.8785933654019L122.53571428571428,155.07995929743976L123.49302455357142,155.9418629291148L124.45033482142857,155.79182373776976L125.40764508928571,156.78300118369978L126.36495535714286,157.2844541797274L127.322265625,157.96464350168537L128.27957589285714,157.32368642939065L129.23688616071428,158.35589859764767L130.19419642857142,159.0377037382827L131.15150669642856,159.31782193200942L132.10881696428572,160.08230294565652L133.06612723214286,159.93256498123307L134.0234375,160.2299826762705L134.98074776785714,160.31245953913458L135.93805803571428,159.28662978249653L136.89536830357142,159.63784171596959L137.85267857142856,160.01532952529897L138.80998883928572,160.36963714913918L139.76729910714286,160.32314513444126L140.724609375,160.84927967117378L141.68191964285714,161.1180867970746L142.63922991071428,161.38499287272828L143.59654017857142,161.6858617416113L144.55385044642856,161.94452050841963L145.5111607142857,162.16820273340778L146.46847098214283,162.27810780997848L147.42578125,162.4775048063501L148.38309151785714,162.6135344670344L149.34040178571428,162.66020693823543L150.29771205357142,162.76725351989637L151.25502232142858,162.83901516107463L152.21233258928572,162.8365366652496L153.16964285714286,162.893398988501L154.126953125,162.9560361735729L155.08426339285717,162.93197088856343L156.0415736607143,162.95088592951456L156.99888392857144,163.0011831377496L157.95619419642858,163.00721891632628L158.91350446428572,163.07397632516427L159.87081473214286,163.10075404313426L160.828125,163.0855612373261L161.78543526785714,163.11663656054463L162.74274553571428,163.14200858553022L163.70005580357144,163.10588944579237L164.65736607142858,163.13194222970407L165.61467633928572,163.13167811070522L166.57198660714286,163.13484924911322L167.529296875,163.16256642878352L168.48660714285714,163.18638003996162L169.44391741071428,163.20026879576477L170.40122767857142,163.1924038090261L171.35853794642856,163.14354039237304L172.31584821428572,163.18022826416058L173.27315848214286,163.19688120826433L174.23046875,163.2083200649609L175.18777901785714,163.2032821298011L176.14508928571428,163.21657395081638L177.10239955357142,163.2410928697825L178.05970982142856,163.22726208415588L179.0170200892857,163.24344802994833L179.97433035714283,143.96514749265222L180.931640625,143.4903809018202L181.88895089285714,145.85585652284658L182.84626116071428,147.663857460667L183.80357142857142,150.41605452979715L184.76088169642858,151.27404640945403L185.71819196428572,153.5775592404255L186.67550223214286,155.55985079962213L187.6328125,157.27233184420447L188.59012276785717,157.57764761748862L189.5474330357143,158.60269648688958L190.50474330357144,159.36458860883485L191.46205357142858,159.70817297944282L192.41936383928572,160.18538562459904L193.37667410714286,160.72692407984735L194.333984375,161.08136266585709L195.29129464285714,161.4322122897161L196.24860491071428,161.69709870403037L197.20591517857144,161.88135172158724L198.16322544642858,162.0751867255308L199.12053571428572,162.2772664073091L200.07784598214286,162.4285491910233L201.03515625,162.53797294881025L201.99246651785714,162.4649190630679L202.94977678571428,162.51368285562046L203.90708705357142,162.59369071919338L204.86439732142856,162.68114765084457L205.82170758928572,162.79852191937965L206.77901785714286,162.86477392138954L207.736328125,162.91666679054669L208.69363839285714,162.96273651217027L209.65094866071428,162.98881498910134L210.60825892857142,163.04662187205992L211.56556919642856,163.05416231020442L212.5228794642857,163.06457381512521L213.48018973214283,163.0738837623019L214.4375,163.08252443118485L215.39481026785714,163.06658516483716L216.35212053571428,163.08080446157604L217.30943080357142,163.06121900066503L218.26674107142858,163.0943887356033L219.22405133928572,163.1144786890401L220.18136160714286,163.14177862868263L221.138671875,163.14365362445852L222.09598214285717,163.16937882621932L223.0532924107143,163.16250470818173L224.01060267857144,163.18697796803676L224.96791294642858,163.1981108460999L225.92522321428572,163.18621592121306L226.88253348214286,163.20306735805514L227.83984375,163.2047170960758L228.79715401785714,163.21475921926063L229.75446428571428,163.22072590377581L230.71177455357144,163.21561579025058L231.66908482142858,163.2210950942333L232.62639508928572,163.24143625481514L233.58370535714286,163.25830359811212L234.541015625,163.23381683752262L235.49832589285714,163.21918118955043L236.45563616071428,163.2050319824786L237.41294642857142,163.2245577883828L238.37025669642856,163.237385392617L239.32756696428572,162.1467962797147L240.28487723214286,152.42588952763083L241.2421875,154.19900899601976L242.19949776785714,154.4432689351068L243.15680803571428,156.9315254604768L244.11411830357142,158.73400718492894L245.07142857142856,160.11890334219618L246.0287388392857,160.95306168441658L246.98604910714283,161.68314845225257L247.943359375,162.077927847324L248.90066964285714,162.44330573500514L249.85797991071428,162.6134745477236L250.81529017857142,162.76500978998786L251.77260044642858,162.8704778054571L252.72991071428572,162.92675512457035L253.68722098214286,162.98923988089314L254.64453125,163.01735199326313L255.60184151785717,163.0609435825961L256.5591517857143,163.08966650287942L257.51646205357144,163.10046396805384" fill="none"></path></g></g></g></g><g opacity="0.2"><g><g><g><path style="fill: none;" stroke="rgb(255, 112, 67)" stroke-width="2px" d="M20.103515625,13.366157385019152L21.060825892857142,38.95911521178025L22.018136160714285,78.1705122911013L22.975446428571427,95.38454516117389L23.932756696428573,110.37722218036652L24.890066964285715,121.05194556713104L25.847377232142858,129.73300084013206L26.8046875,132.62528737691733L27.761997767857146,137.34945135162428L28.719308035714285,131.40979295281264L29.676618303571427,140.74429022119597L30.63392857142857,136.37070348171088L31.591238839285715,137.5158982391541L32.548549107142854,145.54973602982668L33.505859375,141.6083938410649L34.46316964285714,142.3889189683474L35.420479910714285,141.29480254879365L36.37779017857142,147.7537299933342L37.33510044642857,146.20727427418416L38.292410714285715,150.2855040144462L39.24972098214286,147.79481928623642L40.20703125,146.89443373450865L41.164341517857146,151.05995070590424L42.121651785714285,152.89307994452807L43.07896205357143,151.32869121661554L44.03627232142857,149.82965277479244L44.99358258928571,151.10624298567956L45.950892857142854,152.39231705780213L46.908203125,156.77155262403764L47.865513392857146,150.0762037485838L48.822823660714285,154.5889067317431L49.78013392857143,156.89961416904742L50.73744419642857,156.08283297774884L51.694754464285715,154.10363817558837L52.652064732142854,124.6020320699765L53.609375,148.40222565142008L54.566685267857146,151.53873911385352L55.52399553571429,157.18554411484646L56.48130580357143,156.42303010706718L57.43861607142857,157.1393177727094L58.395926339285715,157.41961867304948L59.353236607142854,159.040759926232L60.310546875,158.2081927571159L61.26785714285714,159.6203517667376L62.225167410714285,160.7816119761421L63.18247767857143,159.920524496012L64.13978794642857,160.29436934853976L65.09709821428571,160.3433924609652L66.05440848214286,160.2747158746307L67.01171875,160.33086507051038L67.96902901785714,160.97417371892013L68.92633928571428,159.2629522684102L69.88364955357143,159.4003480469378L70.84095982142857,160.0031428351425L71.79827008928571,159.25813400229583L72.75558035714285,160.31708004640845L73.712890625,159.3745276286052L74.67020089285714,160.14715494845922L75.62751116071429,161.12376491725445L76.58482142857143,162.21323197249038L77.54213169642858,161.46211274942527L78.49944196428572,162.07344506695293L79.45675223214286,162.75772920243728L80.4140625,162.8838666681415L81.37137276785714,162.96333534381566L82.32868303571429,162.75165812119556L83.28599330357143,162.95632820171662L84.24330357142857,163.02165464881378L85.20061383928571,163.04531044226425L86.15792410714286,163.15262307679782L87.115234375,162.89118993049487L88.07254464285714,163.0302107547983L89.02985491071428,163.0933433171863L89.98716517857142,163.1369461496898L90.94447544642857,163.14074967359193L91.90178571428571,163.1610290637025L92.85909598214286,163.17816753977408L93.81640625,163.18955790222836L94.77371651785715,163.19060415502352L95.73102678571429,163.17071259234888L96.68833705357143,163.2003297664655L97.64564732142857,163.20355630433187L98.60295758928572,163.2113390854524L99.56026785714286,163.22251878032247L100.517578125,163.2734161621909L101.47488839285714,163.24306856230115L102.43219866071428,163.25376699958892L103.38950892857143,163.23784061105778L104.34681919642857,163.26417523201627L105.30412946428571,163.2492691095596L106.26143973214285,163.2843139578069L107.21875,163.28418806605399L108.17606026785714,163.2165290433018L109.13337053571429,163.08535880810368L110.09068080357143,163.01893009291962L111.04799107142858,96.68816676048132L112.00530133928572,134.164101431003L112.96261160714286,134.00264957317938L113.919921875,141.33045147932495L114.87723214285714,149.2454331265046L115.83454241071429,152.42566628639514L116.79185267857143,153.59146909186472L117.74916294642857,152.68924844494234L118.70647321428571,154.53861964551302L119.66378348214286,152.61808448800673L120.62109375,155.85351303047858L121.57840401785714,156.56628672721294L122.53571428571428,155.38200819549652L123.49302455357142,157.23471837662734L124.45033482142857,155.56676495075226L125.40764508928571,158.26976735259478L126.36495535714286,158.03663367376876L127.322265625,158.98492748462238L128.27957589285714,156.36225082094853L129.23688616071428,159.90421685003318L130.19419642857142,160.0604114492352L131.15150669642856,159.73799922259954L132.10881696428572,161.22902446612716L133.06612723214286,159.7079580345979L134.0234375,160.67610921882667L134.98074776785714,160.4361748334307L135.93805803571428,157.74788514753948L136.89536830357142,160.1646596161792L137.85267857142856,160.581561239293L138.80998883928572,160.90109858489953L139.76729910714286,160.2534071123944L140.724609375,161.63848147627252L141.68191964285714,161.52129748592583L142.63922991071428,161.78535198620878L143.59654017857142,162.13716504493584L144.55385044642856,162.33250865863207L145.5111607142857,162.50372607089005L146.46847098214283,162.44296542483454L147.42578125,162.77660030090752L148.38309151785714,162.81757895806086L149.34040178571428,162.73021564503702L150.29771205357142,162.92782339238775L151.25502232142858,162.94665762284197L152.21233258928572,162.83281892151214L153.16964285714286,162.97869247337803L154.126953125,163.04999195118077L155.08426339285717,162.89587296104918L156.0415736607143,162.97925849094128L156.99888392857144,163.0766289501021L157.95619419642858,163.0162725841913L158.91350446428572,163.17411243842128L159.87081473214286,163.14092062008925L160.828125,163.06277202861384L161.78543526785714,163.16324954537245L162.74274553571428,163.1800666230086L163.70005580357144,163.05171073618558L164.65736607142858,163.17102140557165L165.61467633928572,163.13128193220697L166.57198660714286,163.1396059567252L167.529296875,163.20414219828896L168.48660714285714,163.2221004567288L169.44391741071428,163.22110192946946L170.40122767857142,163.1806063289181L171.35853794642856,163.0702452673935L172.31584821428572,163.23526007184185L173.27315848214286,163.22186062441995L174.23046875,163.22547835000577L175.18777901785714,163.1957252270614L176.14508928571428,163.23651168233928L177.10239955357142,163.2778712482317L178.05970982142856,163.20651590571595L179.0170200892857,163.267726948637L179.97433035714283,115.04769668670801L180.931640625,142.7782310155722L181.88895089285714,149.4040699543861L182.84626116071428,150.37585886739765L183.80357142857142,154.5443501334924L184.76088169642858,152.5610342289393L185.71819196428572,157.03282848688272L186.67550223214286,158.5332881384171L187.6328125,159.84105341107798L188.59012276785717,158.03562127741483L189.5474330357143,160.140269790991L190.50474330357144,160.50742679175275L191.46205357142858,160.22354953535475L192.41936383928572,160.9012045923334L193.37667410714286,161.53923176271985L194.333984375,161.6130205448717L195.29129464285714,161.95848672550457L196.24860491071428,162.09442832550178L197.20591517857144,162.15773124792256L198.16322544642858,162.36593923144616L199.12053571428572,162.58038592997653L200.07784598214286,162.65547336659466L201.03515625,162.70210858549063L201.99246651785714,162.3553382344544L202.94977678571428,162.58682854444933L203.90708705357142,162.71370251455272L204.86439732142856,162.8123330483213L205.82170758928572,162.9745833221823L206.77901785714286,162.96415192440438L207.736328125,162.99450609428234L208.69363839285714,163.03184109460562L209.65094866071428,163.027932704498L210.60825892857142,163.13333219649772L211.56556919642856,163.06547296742121L212.5228794642857,163.0801910725064L213.48018973214283,163.08784868306694L214.4375,163.09548543450924L215.39481026785714,163.04267626531566L216.35212053571428,163.10213340668437L217.30943080357142,163.03184080929853L218.26674107142858,163.1441433380107L219.22405133928572,163.1446136191953L220.18136160714286,163.1827285381464L221.138671875,163.1464661181224L222.09598214285717,163.20796662886053L223.0532924107143,163.15219353112536L224.01060267857144,163.2236878578193L224.96791294642858,163.21481016319458L225.92522321428572,163.16837353388277L226.88253348214286,163.2283445133183L227.83984375,163.2071917031068L228.79715401785714,163.2298224040379L229.75446428571428,163.2296759305486L230.71177455357144,163.2079506199628L231.66908482142858,163.22931405020734L232.62639508928572,163.2719479956879L233.58370535714286,163.28360461305755L234.541015625,163.19708669663837L235.49832589285714,163.19722771759217L236.45563616071428,163.1838081718709L237.41294642857142,163.25384649723912L238.37025669642856,163.25662679896834L239.32756696428572,160.5109126103612L240.28487723214286,137.84452939950503L241.2421875,156.85868819860312L242.19949776785714,154.80965884373737L243.15680803571428,160.66391024853175L244.11411830357142,161.4377297716072L245.07142857142856,162.1962475780971L246.0287388392857,162.20429919774716L246.98604910714283,162.77827860400654L247.943359375,162.6700969399311L248.90066964285714,162.9913725665269L249.85797991071428,162.86872776680124L250.81529017857142,162.99231265338423L251.77260044642858,163.02867982866098L252.72991071428572,163.0111711032402L253.68722098214286,163.0829670153773L254.64453125,163.05952016181814L255.60184151785717,163.12633096659556L256.5591517857143,163.13275088330445L257.51646205357144,163.1166601658154" fill="none"></path></g></g></g></g></g></g><g transform="translate(61, 177)" clip-path="url(#clip_1)"><clipPath id="clip_1"><rect width="268" height="22"></rect></clipPath><g><g><line x1="0" y1="0" x2="0" y2="5" style="visibility: inherit;" fill="rgb(0, 0, 0)" stroke="rgb(204, 204, 204)" stroke-width="1px"></line><line x1="19.146205357142858" y1="0" x2="19.146205357142858" y2="5" style="visibility: inherit;" fill="rgb(0, 0, 0)" stroke="rgb(204, 204, 204)" stroke-width="1px"></line><line x1="38.292410714285715" y1="0" x2="38.292410714285715" y2="5" style="visibility: inherit;" fill="rgb(0, 0, 0)" stroke="rgb(204, 204, 204)" stroke-width="1px"></line><line x1="57.43861607142857" y1="0" x2="57.43861607142857" y2="5" style="visibility: inherit;" fill="rgb(0, 0, 0)" stroke="rgb(204, 204, 204)" stroke-width="1px"></line><line x1="76.58482142857143" y1="0" x2="76.58482142857143" y2="5" style="visibility: inherit;" fill="rgb(0, 0, 0)" stroke="rgb(204, 204, 204)" stroke-width="1px"></line><line x1="95.73102678571429" y1="0" x2="95.73102678571429" y2="5" style="visibility: inherit;" fill="rgb(0, 0, 0)" stroke="rgb(204, 204, 204)" stroke-width="1px"></line><line x1="114.87723214285714" y1="0" x2="114.87723214285714" y2="5" style="visibility: inherit;" fill="rgb(0, 0, 0)" stroke="rgb(204, 204, 204)" stroke-width="1px"></line><line x1="134.0234375" y1="0" x2="134.0234375" y2="5" style="visibility: inherit;" fill="rgb(0, 0, 0)" stroke="rgb(204, 204, 204)" stroke-width="1px"></line><line x1="153.16964285714286" y1="0" x2="153.16964285714286" y2="5" style="visibility: inherit;" fill="rgb(0, 0, 0)" stroke="rgb(204, 204, 204)" stroke-width="1px"></line><line x1="172.31584821428572" y1="0" x2="172.31584821428572" y2="5" style="visibility: inherit;" fill="rgb(0, 0, 0)" stroke="rgb(204, 204, 204)" stroke-width="1px"></line><line x1="191.46205357142858" y1="0" x2="191.46205357142858" y2="5" style="visibility: inherit;" fill="rgb(0, 0, 0)" stroke="rgb(204, 204, 204)" stroke-width="1px"></line><line x1="210.60825892857142" y1="0" x2="210.60825892857142" y2="5" style="visibility: inherit;" fill="rgb(0, 0, 0)" stroke="rgb(204, 204, 204)" stroke-width="1px"></line><line x1="229.75446428571428" y1="0" x2="229.75446428571428" y2="5" style="visibility: inherit;" fill="rgb(0, 0, 0)" stroke="rgb(204, 204, 204)" stroke-width="1px"></line><line x1="248.90066964285714" y1="0" x2="248.90066964285714" y2="5" style="visibility: inherit;" fill="rgb(0, 0, 0)" stroke="rgb(204, 204, 204)" stroke-width="1px"></line><line x1="268.046875" y1="0" x2="268.046875" y2="5" style="visibility: inherit;" fill="rgb(0, 0, 0)" stroke="rgb(204, 204, 204)" stroke-width="1px"></line></g><g transform="translate(0, 8)"><text x="0" y="0" dx="0em" dy="0.95em" style="text-anchor: middle; visibility: hidden; font-family: Roboto, sans-serif; font-size: 12px; font-weight: 200;" fill="rgb(33, 33, 33)" stroke="none" stroke-width="1px">-2k</text><text x="19.146205357142858" y="0" dx="0em" dy="0.95em" style="text-anchor: middle; visibility: inherit; font-family: Roboto, sans-serif; font-size: 12px; font-weight: 200;" fill="rgb(33, 33, 33)" stroke="none" stroke-width="1px">0</text><text x="38.292410714285715" y="0" dx="0em" dy="0.95em" style="text-anchor: middle; visibility: hidden; font-family: Roboto, sans-serif; font-size: 12px; font-weight: 200;" fill="rgb(33, 33, 33)" stroke="none" stroke-width="1px">2k</text><text x="57.43861607142857" y="0" dx="0em" dy="0.95em" style="text-anchor: middle; visibility: inherit; font-family: Roboto, sans-serif; font-size: 12px; font-weight: 200;" fill="rgb(33, 33, 33)" stroke="none" stroke-width="1px">4k</text><text x="76.58482142857143" y="0" dx="0em" dy="0.95em" style="text-anchor: middle; visibility: hidden; font-family: Roboto, sans-serif; font-size: 12px; font-weight: 200;" fill="rgb(33, 33, 33)" stroke="none" stroke-width="1px">6k</text><text x="95.73102678571429" y="0" dx="0em" dy="0.95em" style="text-anchor: middle; visibility: inherit; font-family: Roboto, sans-serif; font-size: 12px; font-weight: 200;" fill="rgb(33, 33, 33)" stroke="none" stroke-width="1px">8k</text><text x="114.87723214285714" y="0" dx="0em" dy="0.95em" style="text-anchor: middle; visibility: hidden; font-family: Roboto, sans-serif; font-size: 12px; font-weight: 200;" fill="rgb(33, 33, 33)" stroke="none" stroke-width="1px">10k</text><text x="134.0234375" y="0" dx="0em" dy="0.95em" style="text-anchor: middle; visibility: inherit; font-family: Roboto, sans-serif; font-size: 12px; font-weight: 200;" fill="rgb(33, 33, 33)" stroke="none" stroke-width="1px">12k</text><text x="153.16964285714286" y="0" dx="0em" dy="0.95em" style="text-anchor: middle; visibility: hidden; font-family: Roboto, sans-serif; font-size: 12px; font-weight: 200;" fill="rgb(33, 33, 33)" stroke="none" stroke-width="1px">14k</text><text x="172.31584821428572" y="0" dx="0em" dy="0.95em" style="text-anchor: middle; visibility: inherit; font-family: Roboto, sans-serif; font-size: 12px; font-weight: 200;" fill="rgb(33, 33, 33)" stroke="none" stroke-width="1px">16k</text><text x="191.46205357142858" y="0" dx="0em" dy="0.95em" style="text-anchor: middle; visibility: hidden; font-family: Roboto, sans-serif; font-size: 12px; font-weight: 200;" fill="rgb(33, 33, 33)" stroke="none" stroke-width="1px">18k</text><text x="210.60825892857142" y="0" dx="0em" dy="0.95em" style="text-anchor: middle; visibility: inherit; font-family: Roboto, sans-serif; font-size: 12px; font-weight: 200;" fill="rgb(33, 33, 33)" stroke="none" stroke-width="1px">20k</text><text x="229.75446428571428" y="0" dx="0em" dy="0.95em" style="text-anchor: middle; visibility: hidden; font-family: Roboto, sans-serif; font-size: 12px; font-weight: 200;" fill="rgb(33, 33, 33)" stroke="none" stroke-width="1px">22k</text><text x="248.90066964285714" y="0" dx="0em" dy="0.95em" style="text-anchor: middle; visibility: inherit; font-family: Roboto, sans-serif; font-size: 12px; font-weight: 200;" fill="rgb(33, 33, 33)" stroke="none" stroke-width="1px">24k</text><text x="268.046875" y="0" dx="0em" dy="0.95em" style="text-anchor: middle; visibility: hidden; font-family: Roboto, sans-serif; font-size: 12px; font-weight: 200;" fill="rgb(33, 33, 33)" stroke="none" stroke-width="1px">26k</text></g><line x1="0" y1="0" x2="268.046875" y2="0" fill="rgb(0, 0, 0)" stroke="rgb(204, 204, 204)" stroke-width="1px"></line></g></g></g></g></svg>