<svg viewBox="0 0 330 200" xmlns="http://www.w3.org/2000/svg"><g><g><g><g><g><line x1="51.5625" y1="177" x2="46.5625" y2="177" style="visibility: inherit;" fill="rgb(0, 0, 0)" stroke="rgb(204, 204, 204)" stroke-width="1px"></line><line x1="51.5625" y1="162.25" x2="46.5625" y2="162.25" style="visibility: inherit;" fill="rgb(0, 0, 0)" stroke="rgb(204, 204, 204)" stroke-width="1px"></line><line x1="51.5625" y1="147.5" x2="46.5625" y2="147.5" style="visibility: inherit;" fill="rgb(0, 0, 0)" stroke="rgb(204, 204, 204)" stroke-width="1px"></line><line x1="51.5625" y1="132.75" x2="46.5625" y2="132.75" style="visibility: inherit;" fill="rgb(0, 0, 0)" stroke="rgb(204, 204, 204)" stroke-width="1px"></line><line x1="51.5625" y1="118" x2="46.5625" y2="118" style="visibility: inherit;" fill="rgb(0, 0, 0)" stroke="rgb(204, 204, 204)" stroke-width="1px"></line><line x1="51.5625" y1="103.25" x2="46.5625" y2="103.25" style="visibility: inherit;" fill="rgb(0, 0, 0)" stroke="rgb(204, 204, 204)" stroke-width="1px"></line><line x1="51.5625" y1="88.49999999999999" x2="46.5625" y2="88.49999999999999" style="visibility: inherit;" fill="rgb(0, 0, 0)" stroke="rgb(204, 204, 204)" stroke-width="1px"></line><line x1="51.5625" y1="73.75" x2="46.5625" y2="73.75" style="visibility: inherit;" fill="rgb(0, 0, 0)" stroke="rgb(204, 204, 204)" stroke-width="1px"></line><line x1="51.5625" y1="59.00000000000001" x2="46.5625" y2="59.00000000000001" style="visibility: inherit;" fill="rgb(0, 0, 0)" stroke="rgb(204, 204, 204)" stroke-width="1px"></line><line x1="51.5625" y1="44.25" x2="46.5625" y2="44.25" style="visibility: inherit;" fill="rgb(0, 0, 0)" stroke="rgb(204, 204, 204)" stroke-width="1px"></line><line x1="51.5625" y1="29.499999999999993" x2="46.5625" y2="29.499999999999993" style="visibility: inherit;" fill="rgb(0, 0, 0)" stroke="rgb(204, 204, 204)" stroke-width="1px"></line><line x1="51.5625" y1="14.750000000000007" x2="46.5625" y2="14.750000000000007" style="visibility: inherit;" fill="rgb(0, 0, 0)" stroke="rgb(204, 204, 204)" stroke-width="1px"></line><line x1="51.5625" y1="0" x2="46.5625" y2="0" style="visibility: inherit;" fill="rgb(0, 0, 0)" stroke="rgb(204, 204, 204)" stroke-width="1px"></line></g><g transform="translate(41.5625, 0)"><text x="0" y="177" dx="0em" dy="0.3em" style="text-anchor: end; visibility: hidden; font-family: Roboto, sans-serif; font-size: 12px; font-weight: 200;" fill="rgb(33, 33, 33)" stroke="none" stroke-width="1px">0.04</text><text x="0" y="162.25" dx="0em" dy="0.3em" style="text-anchor: end; visibility: inherit; font-family: Roboto, sans-serif; font-size: 12px; font-weight: 200;" fill="rgb(33, 33, 33)" stroke="none" stroke-width="1px">0.05</text><text x="0" y="147.5" dx="0em" dy="0.3em" style="text-anchor: end; visibility: hidden; font-family: Roboto, sans-serif; font-size: 12px; font-weight: 200;" fill="rgb(33, 33, 33)" stroke="none" stroke-width="1px">0.06</text><text x="0" y="132.75" dx="0em" dy="0.3em" style="text-anchor: end; visibility: inherit; font-family: Roboto, sans-serif; font-size: 12px; font-weight: 200;" fill="rgb(33, 33, 33)" stroke="none" stroke-width="1px">0.07</text><text x="0" y="118" dx="0em" dy="0.3em" style="text-anchor: end; visibility: hidden; font-family: Roboto, sans-serif; font-size: 12px; font-weight: 200;" fill="rgb(33, 33, 33)" stroke="none" stroke-width="1px">0.08</text><text x="0" y="103.25" dx="0em" dy="0.3em" style="text-anchor: end; visibility: inherit; font-family: Roboto, sans-serif; font-size: 12px; font-weight: 200;" fill="rgb(33, 33, 33)" stroke="none" stroke-width="1px">0.09</text><text x="0" y="88.49999999999999" dx="0em" dy="0.3em" style="text-anchor: end; visibility: hidden; font-family: Roboto, sans-serif; font-size: 12px; font-weight: 200;" fill="rgb(33, 33, 33)" stroke="none" stroke-width="1px">0.1</text><text x="0" y="73.75" dx="0em" dy="0.3em" style="text-anchor: end; visibility: inherit; font-family: Roboto, sans-serif; font-size: 12px; font-weight: 200;" fill="rgb(33, 33, 33)" stroke="none" stroke-width="1px">0.11</text><text x="0" y="59.00000000000001" dx="0em" dy="0.3em" style="text-anchor: end; visibility: hidden; font-family: Roboto, sans-serif; font-size: 12px; font-weight: 200;" fill="rgb(33, 33, 33)" stroke="none" stroke-width="1px">0.12</text><text x="0" y="44.25" dx="0em" dy="0.3em" style="text-anchor: end; visibility: inherit; font-family: Roboto, sans-serif; font-size: 12px; font-weight: 200;" fill="rgb(33, 33, 33)" stroke="none" stroke-width="1px">0.13</text><text x="0" y="29.499999999999993" dx="0em" dy="0.3em" style="text-anchor: end; visibility: hidden; font-family: Roboto, sans-serif; font-size: 12px; font-weight: 200;" fill="rgb(33, 33, 33)" stroke="none" stroke-width="1px">0.14</text><text x="0" y="14.750000000000007" dx="0em" dy="0.3em" style="text-anchor: end; visibility: inherit; font-family: Roboto, sans-serif; font-size: 12px; font-weight: 200;" fill="rgb(33, 33, 33)" stroke="none" stroke-width="1px">0.15</text><text x="0" y="0" dx="0em" dy="0.3em" style="text-anchor: end; visibility: hidden; font-family: Roboto, sans-serif; font-size: 12px; font-weight: 200;" fill="rgb(33, 33, 33)" stroke="none" stroke-width="1px">0.16</text></g><line x1="51.5625" y1="0" x2="51.5625" y2="177" fill="rgb(0, 0, 0)" stroke="rgb(204, 204, 204)" stroke-width="1px"></line></g></g><g transform="translate(51, 0)" clip-path="url(#clip_0)"><clipPath id="clip_0"><rect width="278" height="176"></rect></clipPath><g><g><g><line x1="0" y1="0" x2="0" y2="177" fill="rgb(0, 0, 0)" stroke="rgb(66, 66, 66)" stroke-width="1px" opacity="0.25"></line><line x1="19.888392857142858" y1="0" x2="19.888392857142858" y2="177" fill="rgb(0, 0, 0)" stroke="rgb(66, 66, 66)" stroke-width="1px" opacity="0.25"></line><line x1="39.776785714285715" y1="0" x2="39.776785714285715" y2="177" fill="rgb(0, 0, 0)" stroke="rgb(66, 66, 66)" stroke-width="1px" opacity="0.25"></line><line x1="59.66517857142857" y1="0" x2="59.66517857142857" y2="177" fill="rgb(0, 0, 0)" stroke="rgb(66, 66, 66)" stroke-width="1px" opacity="0.25"></line><line x1="79.55357142857143" y1="0" x2="79.55357142857143" y2="177" fill="rgb(0, 0, 0)" stroke="rgb(66, 66, 66)" stroke-width="1px" opacity="0.25"></line><line x1="99.44196428571429" y1="0" x2="99.44196428571429" y2="177" fill="rgb(0, 0, 0)" stroke="rgb(66, 66, 66)" stroke-width="1px" opacity="0.25"></line><line x1="119.33035714285714" y1="0" x2="119.33035714285714" y2="177" fill="rgb(0, 0, 0)" stroke="rgb(66, 66, 66)" stroke-width="1px" opacity="0.25"></line><line x1="139.21875" y1="0" x2="139.21875" y2="177" fill="rgb(0, 0, 0)" stroke="rgb(66, 66, 66)" stroke-width="1px" opacity="0.25"></line><line x1="159.10714285714286" y1="0" x2="159.10714285714286" y2="177" fill="rgb(0, 0, 0)" stroke="rgb(66, 66, 66)" stroke-width="1px" opacity="0.25"></line><line x1="178.99553571428572" y1="0" x2="178.99553571428572" y2="177" fill="rgb(0, 0, 0)" stroke="rgb(66, 66, 66)" stroke-width="1px" opacity="0.25"></line><line x1="198.88392857142858" y1="0" x2="198.88392857142858" y2="177" fill="rgb(0, 0, 0)" stroke="rgb(66, 66, 66)" stroke-width="1px" opacity="0.25"></line><line x1="218.77232142857142" y1="0" x2="218.77232142857142" y2="177" fill="rgb(0, 0, 0)" stroke="rgb(66, 66, 66)" stroke-width="1px" opacity="0.25"></line><line x1="238.66071428571428" y1="0" x2="238.66071428571428" y2="177" fill="rgb(0, 0, 0)" stroke="rgb(66, 66, 66)" stroke-width="1px" opacity="0.25"></line><line x1="258.54910714285717" y1="0" x2="258.54910714285717" y2="177" fill="rgb(0, 0, 0)" stroke="rgb(66, 66, 66)" stroke-width="1px" opacity="0.25"></line><line x1="278.4375" y1="0" x2="278.4375" y2="177" fill="rgb(0, 0, 0)" stroke="rgb(66, 66, 66)" stroke-width="1px" opacity="0.25"></line></g><g><line x1="0" y1="177" x2="278.4375" y2="177" fill="rgb(0, 0, 0)" stroke="rgb(66, 66, 66)" stroke-width="1px" opacity="0.25"></line><line x1="0" y1="162.25" x2="278.4375" y2="162.25" fill="rgb(0, 0, 0)" stroke="rgb(66, 66, 66)" stroke-width="1px" opacity="0.25"></line><line x1="0" y1="147.5" x2="278.4375" y2="147.5" fill="rgb(0, 0, 0)" stroke="rgb(66, 66, 66)" stroke-width="1px" opacity="0.25"></line><line x1="0" y1="132.75" x2="278.4375" y2="132.75" fill="rgb(0, 0, 0)" stroke="rgb(66, 66, 66)" stroke-width="1px" opacity="0.25"></line><line x1="0" y1="118" x2="278.4375" y2="118" fill="rgb(0, 0, 0)" stroke="rgb(66, 66, 66)" stroke-width="1px" opacity="0.25"></line><line x1="0" y1="103.25" x2="278.4375" y2="103.25" fill="rgb(0, 0, 0)" stroke="rgb(66, 66, 66)" stroke-width="1px" opacity="0.25"></line><line x1="0" y1="88.49999999999999" x2="278.4375" y2="88.49999999999999" fill="rgb(0, 0, 0)" stroke="rgb(66, 66, 66)" stroke-width="1px" opacity="0.25"></line><line x1="0" y1="73.75" x2="278.4375" y2="73.75" fill="rgb(0, 0, 0)" stroke="rgb(66, 66, 66)" stroke-width="1px" opacity="0.25"></line><line x1="0" y1="59.00000000000001" x2="278.4375" y2="59.00000000000001" fill="rgb(0, 0, 0)" stroke="rgb(66, 66, 66)" stroke-width="1px" opacity="0.25"></line><line x1="0" y1="44.25" x2="278.4375" y2="44.25" fill="rgb(0, 0, 0)" stroke="rgb(66, 66, 66)" stroke-width="1px" opacity="0.25"></line><line x1="0" y1="29.499999999999993" x2="278.4375" y2="29.499999999999993" fill="rgb(0, 0, 0)" stroke="rgb(66, 66, 66)" stroke-width="1px" opacity="0.25"></line><line x1="0" y1="14.750000000000007" x2="278.4375" y2="14.750000000000007" fill="rgb(0, 0, 0)" stroke="rgb(66, 66, 66)" stroke-width="1px" opacity="0.25"></line><line x1="0" y1="0" x2="278.4375" y2="0" fill="rgb(0, 0, 0)" stroke="rgb(66, 66, 66)" stroke-width="1px" opacity="0.25"></line></g></g></g><g><g><line x1="0" y1="236.00000000000003" x2="278.4375" y2="236.00000000000003" fill="rgb(0, 0, 0)" stroke="rgb(153, 153, 153)" stroke-width="1.5px"></line></g></g><g><g><line x1="19.888392857142858" y1="0" x2="19.888392857142858" y2="177" fill="rgb(0, 0, 0)" stroke="rgb(153, 153, 153)" stroke-width="1.5px"></line></g></g><g><g><g><g><g><path stroke="rgb(255, 112, 67)" stroke-width="2px" d="M20.8828125,9.953401669859899L21.877232142857142,10.243898177519453L22.871651785714285,10.587392061948789L23.866071428571427,10.963947692338193L24.860491071428573,11.356407118424798L25.854910714285715,11.80933101374206L26.849330357142858,12.324769915896287L27.84375,12.905076008968948L28.838169642857146,13.50822489433415L29.832589285714285,14.15587083728402L30.827008928571427,14.861219654255795L31.82142857142857,15.601247505663748L32.815848214285715,16.36648121021066L33.810267857142854,17.17292993054814L34.8046875,18.0193364660576L35.79910714285714,18.87797113599306L36.793526785714285,19.751644051667977L37.78794642857142,20.680449137136907L38.78236607142857,21.69198345055567L39.776785714285715,22.77821357764811L40.77120535714286,23.902586387815965L41.765625,25.052496624032802L42.760044642857146,26.20372764780899L43.754464285714285,27.37716140960229L44.74888392857143,28.542774096666406L45.74330357142857,29.705216015765362L46.73772321428571,30.866784638140107L47.732142857142854,32.026880098101884L48.7265625,33.19513849907918L49.720982142857146,34.35857116964804L50.715401785714285,35.5155478390142L51.70982142857143,36.64725198645495L52.70424107142857,37.77831651187279L53.698660714285715,38.851209530673L54.693080357142854,39.68917123294441L55.6875,40.2822300603559L56.681919642857146,41.04885684193177L57.67633928571429,41.952751465464296L58.67075892857143,42.950699735614556L59.66517857142857,44.00553736168061L60.659598214285715,45.09420089259388L61.654017857142854,46.195950784823864L62.6484375,47.308093290972884L63.64285714285714,48.42416794405733L64.63727678571429,49.54005229667316L65.63169642857143,50.654068527860304L66.62611607142857,51.75774580437673L67.62053571428571,52.850186468379775L68.61495535714286,53.91983154788091L69.609375,54.98572508916807L70.60379464285714,56.05700768188493L71.59821428571428,57.10735975895149L72.59263392857143,58.11055384990042L73.58705357142857,59.11983303378012L74.58147321428571,60.115966759026584L75.57589285714285,61.10937392824956L76.5703125,62.083438710058374L77.56473214285714,63.06554307978442L78.55915178571429,64.06223876441184L79.55357142857143,65.06996188857957L80.54799107142858,66.0855586874414L81.54241071428572,67.10700942265561L82.53683035714286,68.13222308270677L83.53125,69.1589647877964L84.52566964285714,70.18501883737758L85.52008928571429,71.20845358069248L86.51450892857143,72.22788144347375L87.50892857142857,73.24203469274823L88.50334821428571,74.25066260646808L89.49776785714286,75.25313120872396L90.4921875,76.24888428026806L91.48660714285714,77.23781667336446L92.48102678571428,78.2199664037503L93.47544642857142,79.19546178108914L94.46986607142857,80.16410724894085L95.46428571428571,81.12556128547119L96.45870535714286,82.08017724958377L97.453125,83.02775834326336L98.44754464285715,83.9684414465689L99.44196428571429,84.90197460350176L100.43638392857143,85.82873853741157L101.43080357142857,86.74880343197624L102.42522321428572,87.6621498556068L103.41964285714286,88.56870460755412L104.4140625,89.46848530916442L105.40848214285714,90.36154209582847L106.40290178571428,91.24797538226153L107.39732142857143,92.12666733148875L108.39174107142857,92.99885943283549L109.38616071428571,93.86388991028018L110.38058035714285,94.72235076278417L111.375,95.574197168052L112.36941964285714,96.41936267012345L113.36383928571429,97.25055425521128L114.35825892857143,98.06472805533643L115.35267857142858,96.18924052353998L116.34709821428572,95.13445292315662L117.34151785714286,94.76258351446259L118.3359375,94.75331521356742L119.33035714285714,95.00888486400034L120.32477678571429,95.4604669880556L121.31919642857143,96.0335205418877L122.31361607142857,96.67516221541239L123.30803571428571,97.36111297570511L124.30245535714286,98.06318708278444L125.296875,98.77480771850173L126.29129464285714,99.49398494190349L127.28571428571428,100.22367006794437L128.28013392857142,100.95622238669289L129.27455357142858,101.68523319753105L130.26897321428572,102.40982447381074L131.26339285714286,103.13216405102764L132.2578125,103.85259873264522L133.25223214285714,104.56559123452601L134.24665178571428,105.27287880096493L135.24107142857142,105.9781368882278L136.23549107142856,106.68157505755539L137.22991071428572,107.38416744330475L138.22433035714286,108.08211147522302L139.21875,108.77390807113274L140.21316964285714,109.45363333369029L141.20758928571428,110.12313981082875L142.20200892857142,110.76018391982815L143.19642857142856,111.39550541601243L144.19084821428572,112.03254953778783L145.18526785714286,112.67917714868184L146.1796875,113.33176585348964L147.17410714285714,113.98945217616867L148.16852678571428,114.6455638515205L149.16294642857142,115.30138571901624L150.15736607142856,115.9571479937047L151.1517857142857,116.61258438710034L152.14620535714283,117.26624714424408L153.140625,117.91726321631788L154.13504464285714,118.56470875235867L155.12946428571428,119.20801625426097L156.12388392857142,119.84752657875705L157.11830357142858,120.48225736239725L158.11272321428572,121.11244560551154L159.10714285714286,121.73796536190216L160.1015625,122.35896085597815L161.09598214285717,122.97507024644459L162.0904017857143,123.58592696987776L163.08482142857144,124.19212431909556L164.07924107142858,124.79351274789519L165.07366071428572,125.3904421128103L166.06808035714286,125.98272230608875L167.0625,126.57027442981966L168.05691964285714,127.15274343627792L169.05133928571428,127.73038225613892L170.04575892857144,128.30334704365052L171.04017857142858,128.8718853458507L172.03459821428572,129.43569291917936L173.02901785714286,129.9949125098494L174.0234375,130.5493264524524L175.01785714285714,131.09925252368356L176.01227678571428,131.64455170136873L177.00669642857142,132.18509661377777L178.00111607142856,132.7190437091667L178.99553571428572,133.24941894848817L179.98995535714286,133.77592790388866L180.984375,134.2987104193199L181.97879464285714,134.8175910464423L182.97321428571428,135.33218318232875L183.96763392857142,135.84275159543142L184.96205357142856,136.34906831267708L185.9564732142857,136.8511196338131L186.95089285714283,137.27127555090152L187.9453125,136.47265723096112L188.93973214285714,136.09209817497003L189.93415178571428,136.00831562786144L190.92857142857142,136.0923127145102L191.92299107142858,136.31337955358808L192.91741071428572,136.61567720033636L193.91183035714286,136.96895521138853L194.90625,137.35559521767348L195.90066964285717,137.76074025126007L196.8950892857143,138.18023682887383L197.88950892857144,138.60945208522693L198.88392857142858,139.04203248115192L199.87834821428572,139.4754670625437L200.87276785714286,139.91054388675144L201.8671875,140.34528290804062L202.86160714285714,140.7785664324512L203.85602678571428,141.21139426377712L204.85044642857144,141.64390472082673L205.84486607142858,142.07595660691487L206.83928571428572,142.50606293025626L207.83370535714286,142.9339908721627L208.828125,143.35861827061063L209.82254464285714,143.78046310171774L210.81696428571428,144.19959218189294L211.81138392857142,144.61546754768594L212.80580357142856,145.0283950265116L213.80022321428572,145.43833172892727L214.79464285714286,145.84517719194412L215.7890625,146.24902719017933L216.78348214285714,146.6488116547887L217.77790178571428,147.0460073405757L218.77232142857142,147.43984086985915L219.76674107142856,147.83047462359386L220.7611607142857,148.21779502991032L221.75558035714283,148.60176911242718L222.75,148.98260127328584L223.74441964285714,149.36017458035198L224.73883928571428,149.734640864394L225.73325892857142,150.1057153793346L226.72767857142858,150.47333937151262L227.72209821428572,150.83777211018221L228.71651785714286,151.19914278184066L229.7109375,151.5570145848077L230.70535714285717,151.91209911720048L231.6997767857143,152.2642298991447L232.69419642857144,152.6134872722605L233.68861607142858,152.95975459742422L234.68303571428572,153.30301683919356L235.67745535714286,153.64319903866485L236.671875,153.9803705124023L237.66629464285714,154.3145552669741L238.66071428571428,154.64577649800643L239.65513392857144,154.9740547166387L240.64955357142858,155.29943739629505L241.64397321428572,155.6218299374385L242.63839285714286,155.94128987225312L243.6328125,156.25774402190694L244.62723214285714,156.57145399015815L245.62165178571428,156.8822712282042L246.61607142857142,157.18993297098282L247.61049107142856,157.49491016494156L248.60491071428572,157.79285215989898L249.59933035714286,157.91259657684654L250.59375,157.85219650175387L251.58816964285714,157.89287271175513L252.58258928571428,158.0181124721392L253.57700892857142,158.19834773626468L254.57142857142856,158.41651903174247L255.5658482142857,158.65703434098916L256.56026785714283,158.91176489352677L257.5546875,159.1750861338347L258.54910714285717,159.44294636884746L259.5435267857143,159.71288820767055L260.53794642857144,159.9830437878588L261.53236607142856,160.25241547553654L262.5267857142857,160.52036952363798L263.52120535714283,160.78654766313642L264.515625,161.0506184427882L265.51004464285717,161.31264454447893L266.5044642857143,161.5724569727401L267.49888392857144,161.83003785129904" style="fill: none;" fill="none"></path></g></g></g></g><g opacity="0.2"><g><g><g><path stroke="rgb(255, 112, 67)" stroke-width="2px" d="M20.8828125,9.953401669859899L21.877232142857142,10.418196082115186L22.871651785714285,10.91714619100095L23.866071428571427,11.406777113676078L24.860491071428573,11.868802145123489L25.854910714285715,12.435887813568128L26.849330357142858,13.061855792999268L27.84375,13.751167863607407L28.838169642857146,14.397752344608307L29.832589285714285,15.117549583315856L30.827008928571427,15.912845417857183L31.82142857142857,16.707262083888068L32.815848214285715,17.5118331462145L33.810267857142854,18.38102309405805L34.8046875,19.287951350212097L35.79910714285714,20.165317565202713L36.793526785714285,21.061783716082587L37.78794642857142,22.07342094182968L38.78236607142857,23.209130823612213L39.776785714285715,24.407459482550635L40.77120535714286,25.589083939790726L41.765625,26.777324140071883L42.760044642857146,27.930551454424865L43.754464285714285,29.137298151850715L44.74888392857143,30.291184842586524L45.74330357142857,31.44887393712999L46.73772321428571,32.60913459956646L47.732142857142854,33.76702150702477L48.7265625,34.94752502441408L49.720982142857146,36.103719532489784L50.715401785714285,37.251012459397316L51.70982142857143,38.34480798244477L52.70424107142857,39.474913164973266L53.698660714285715,40.4605489820242L54.693080357142854,40.94611375033856L55.6875,41.1718182861805L56.681919642857146,42.19879700243474L57.67633928571429,43.30859339237214L58.67075892857143,44.44762213528158L59.66517857142857,45.58779379725457L60.659598214285715,46.72719618678094L61.654017857142854,47.84857562184334L62.6484375,48.976307049393654L63.64285714285714,50.09827992320062L64.63727678571429,51.21387882530691L65.63169642857143,52.32509287446739L66.62611607142857,53.41326171904804L67.62053571428571,54.48884746432305L68.61495535714286,55.52429916709662L69.609375,56.584565401077285L70.60379464285714,57.663931570947184L71.59821428571428,58.68288787454367L72.59263392857143,59.61534498631954L73.58705357142857,60.633751809597015L74.58147321428571,61.610167346894755L75.57589285714285,62.59948468208313L76.5703125,63.544535882771015L77.56473214285714,64.53869963437319L78.55915178571429,65.55728229135275L79.55357142857143,66.58154657483101L80.54799107142858,67.60895388573408L81.54241071428572,68.63918552547695L82.53683035714286,69.67004357278347L83.53125,70.69907734543087L84.52566964285714,71.72409991174936L85.52008928571429,72.7436056956649L86.51450892857143,73.75702323764563L87.50892857142857,74.76326456665993L88.50334821428571,75.76360447704792L89.49776785714286,76.75683411210777L90.4921875,77.74251388758421L91.48660714285714,78.72121526300909L92.48102678571428,79.69319099932909L93.47544642857142,80.6587048470974L94.46986607142857,81.6170754507184L95.46428571428571,82.5677423402667L96.45870535714286,83.51210119575262L97.453125,84.44912998378277L98.44754464285715,85.37946610152721L99.44196428571429,86.30227433890104L100.43638392857143,87.21888443827629L101.43080357142857,88.12890077382326L102.42522321428572,89.03216949105263L103.41964285714286,89.92853673547506L104.4140625,90.8181563615799L105.40848214285714,91.70112727582455L106.40290178571428,92.57762531191109L107.39732142857143,93.4447052553296L108.39174107142857,94.30714758485556L109.38616071428571,95.1614356264472L110.38058035714285,96.01004204154013L111.375,96.85196677595376L112.36941964285714,97.68711092323065L113.36383928571429,98.497341632843L114.35825892857143,99.28598875552414L115.35267857142858,93.37600922584534L116.34709821428572,93.55227152258158L117.34151785714286,94.20477940142155L118.3359375,94.73941276222467L119.33035714285714,95.39223933964966L120.32477678571429,96.13784017413855L121.31919642857143,96.89310087263584L122.31361607142857,97.63762472569942L123.30803571428571,98.39003911614418L124.30245535714286,99.11629824340342L125.296875,99.84223867207764L126.29129464285714,100.57275077700616L127.28571428571428,101.31819775700569L128.28013392857142,102.05505086481571L129.27455357142858,102.77874941378832L130.26897321428572,103.49671138823032L131.26339285714286,104.21567341685297L132.2578125,104.93325075507163L133.25223214285714,105.63507998734714L134.24665178571428,106.33381015062332L135.24107142857142,107.03602401912214L136.23549107142856,107.7367323115468L137.22991071428572,108.4380560219288L138.22433035714286,109.12902752310036L139.21875,109.8116029649973L140.21316964285714,110.47322122752668L141.20758928571428,111.12739952653645L142.20200892857142,111.71575008332731L143.19642857142856,112.34848766028882L144.19084821428572,112.98811572045089L145.18526785714286,113.64911856502293L146.1796875,114.31064891070127L147.17410714285714,114.97598166018723L148.16852678571428,115.6297313645482L149.16294642857142,116.28511852025986L150.15736607142856,116.94079140573739L151.1517857142857,117.59573897719385L152.14620535714283,118.24674127995969L153.140625,118.89378732442857L154.13504464285714,119.53587705641985L155.12946428571428,120.17297750711442L156.12388392857142,120.80679206550121L157.11830357142858,121.43435353785753L158.11272321428572,122.0577279701829L159.10714285714286,122.67624499648808L160.1015625,123.29045409709214L161.09598214285717,123.89923433214426L162.0904017857143,124.5022120550275L163.08482142857144,125.10142034292222L164.07924107142858,125.69559539109467L165.07366071428572,126.28583616018294L166.06808035714286,126.8711425960064L167.0625,127.45160261541606L168.05691964285714,128.0264469459653L169.05133928571428,128.59684048593044L170.04575892857144,129.1627942249179L171.04017857142858,129.72469279915094L172.03459821428572,130.28140427917242L173.02901785714286,130.83374189585447L174.0234375,131.38094736635685L175.01785714285714,131.92414163053036L176.01227678571428,132.46250046789646L177.00669642857142,132.99591398239136L178.00111607142856,133.5199643522501L178.99553571428572,134.04498180747032L179.98995535714286,134.5656913369894L180.984375,135.08288419246674L181.97879464285714,135.59591198712587L182.97321428571428,136.10407138615847L183.96763392857142,136.6086042150855L184.96205357142856,137.1085433885455L185.9564732142857,137.60419661551714L186.95089285714283,137.90150942653418L187.9453125,135.27472975105047L188.93973214285714,135.5212595909834L189.93415178571428,135.88264180719852L190.92857142857142,136.21830834448338L191.92299107142858,136.64497981220484L192.91741071428572,137.0691236704588L193.91183035714286,137.49887222796679L194.90625,137.93555522710085L195.90066964285717,138.36845780164003L196.8950892857143,138.80948169529438L197.88950892857144,139.2532749697566L198.88392857142858,139.6909030750394L199.87834821428572,140.12561893463135L200.87276785714286,140.5631591230631L201.8671875,140.9973914399743L202.86160714285714,141.4284917190671L203.85602678571428,141.86063601076603L204.85044642857144,142.29267040640116L205.84486607142858,142.72403443604708L206.83928571428572,143.15122241526842L207.83370535714286,143.57588278502226L208.828125,143.99555936828256L209.82254464285714,144.41323034837842L210.81696428571428,144.82828580215573L211.81138392857142,145.23928059637547L212.80580357142856,145.64778624475002L213.80022321428572,146.0532367825508L214.79464285714286,146.45544538646936L215.7890625,146.8548021875322L216.78348214285714,147.2484883517027L217.77790178571428,147.64180086925626L218.77232142857142,148.03059116378427L219.76674107142856,148.41642525419593L220.7611607142857,148.79877563938498L221.75558035714283,149.17773023620248L222.75,149.5538495145738L223.74441964285714,149.92653454095125L224.73883928571428,150.296340290457L225.73325892857142,150.66232715174556L226.72767857142858,151.0247753597796L227.72209821428572,151.38442121818662L228.71651785714286,151.74119878932834L229.7109375,152.09382228925824L230.70535714285717,152.4447259157896L231.6997767857143,152.79242607206106L232.69419642857144,153.1373733319342L233.68861607142858,153.4791555851698L234.68303571428572,153.81791020184755L235.67745535714286,154.1534723378718L236.671875,154.4861277230084L237.66629464285714,154.81583239883184L238.66071428571428,155.1426083445549L239.65513392857144,155.46647204458714L240.64955357142858,155.7875114157796L241.64397321428572,156.1054187491536L242.63839285714286,156.4204797744751L243.6328125,156.73242524638772L244.62723214285714,157.04201894253492L245.62165178571428,157.34849708527327L246.61607142857142,157.65142558515072L247.61049107142856,157.9523759558797L248.60491071428572,158.23976515233517L249.59933035714286,158.09221320226789L250.59375,157.76159638911486L251.58816964285714,157.953887026757L252.58258928571428,158.20597211271524L253.57700892857142,158.46870063245296L254.57142857142856,158.74377597495914L255.5658482142857,159.01780730485916L256.56026785714283,159.2938607223332L257.5546875,159.57006799429655L258.54910714285717,159.84473672136664L259.5435267857143,160.1178009659052L260.53794642857144,160.38827715814114L261.53236607142856,160.65647300705314L262.5267857142857,160.92230059579015L263.52120535714283,161.18581487238407L264.515625,161.44672461226583L265.51004464285717,161.70568369701505L266.5044642857143,161.96217561513186L267.49888392857144,162.21640916913748" style="fill: none;" fill="none"></path></g></g></g></g></g></g><g transform="translate(51, 177)" clip-path="url(#clip_1)"><clipPath id="clip_1"><rect width="278" height="22"></rect></clipPath><g><g><line x1="0" y1="0" x2="0" y2="5" style="visibility: inherit;" fill="rgb(0, 0, 0)" stroke="rgb(204, 204, 204)" stroke-width="1px"></line><line x1="19.888392857142858" y1="0" x2="19.888392857142858" y2="5" style="visibility: inherit;" fill="rgb(0, 0, 0)" stroke="rgb(204, 204, 204)" stroke-width="1px"></line><line x1="39.776785714285715" y1="0" x2="39.776785714285715" y2="5" style="visibility: inherit;" fill="rgb(0, 0, 0)" stroke="rgb(204, 204, 204)" stroke-width="1px"></line><line x1="59.66517857142857" y1="0" x2="59.66517857142857" y2="5" style="visibility: inherit;" fill="rgb(0, 0, 0)" stroke="rgb(204, 204, 204)" stroke-width="1px"></line><line x1="79.55357142857143" y1="0" x2="79.55357142857143" y2="5" style="visibility: inherit;" fill="rgb(0, 0, 0)" stroke="rgb(204, 204, 204)" stroke-width="1px"></line><line x1="99.44196428571429" y1="0" x2="99.44196428571429" y2="5" style="visibility: inherit;" fill="rgb(0, 0, 0)" stroke="rgb(204, 204, 204)" stroke-width="1px"></line><line x1="119.33035714285714" y1="0" x2="119.33035714285714" y2="5" style="visibility: inherit;" fill="rgb(0, 0, 0)" stroke="rgb(204, 204, 204)" stroke-width="1px"></line><line x1="139.21875" y1="0" x2="139.21875" y2="5" style="visibility: inherit;" fill="rgb(0, 0, 0)" stroke="rgb(204, 204, 204)" stroke-width="1px"></line><line x1="159.10714285714286" y1="0" x2="159.10714285714286" y2="5" style="visibility: inherit;" fill="rgb(0, 0, 0)" stroke="rgb(204, 204, 204)" stroke-width="1px"></line><line x1="178.99553571428572" y1="0" x2="178.99553571428572" y2="5" style="visibility: inherit;" fill="rgb(0, 0, 0)" stroke="rgb(204, 204, 204)" stroke-width="1px"></line><line x1="198.88392857142858" y1="0" x2="198.88392857142858" y2="5" style="visibility: inherit;" fill="rgb(0, 0, 0)" stroke="rgb(204, 204, 204)" stroke-width="1px"></line><line x1="218.77232142857142" y1="0" x2="218.77232142857142" y2="5" style="visibility: inherit;" fill="rgb(0, 0, 0)" stroke="rgb(204, 204, 204)" stroke-width="1px"></line><line x1="238.66071428571428" y1="0" x2="238.66071428571428" y2="5" style="visibility: inherit;" fill="rgb(0, 0, 0)" stroke="rgb(204, 204, 204)" stroke-width="1px"></line><line x1="258.54910714285717" y1="0" x2="258.54910714285717" y2="5" style="visibility: inherit;" fill="rgb(0, 0, 0)" stroke="rgb(204, 204, 204)" stroke-width="1px"></line><line x1="278.4375" y1="0" x2="278.4375" y2="5" style="visibility: inherit;" fill="rgb(0, 0, 0)" stroke="rgb(204, 204, 204)" stroke-width="1px"></line></g><g transform="translate(0, 8)"><text x="0" y="0" dx="0em" dy="0.95em" style="text-anchor: middle; visibility: hidden; font-family: Roboto, sans-serif; font-size: 12px; font-weight: 200;" fill="rgb(33, 33, 33)" stroke="none" stroke-width="1px">-2k</text><text x="19.888392857142858" y="0" dx="0em" dy="0.95em" style="text-anchor: middle; visibility: inherit; font-family: Roboto, sans-serif; font-size: 12px; font-weight: 200;" fill="rgb(33, 33, 33)" stroke="none" stroke-width="1px">0</text><text x="39.776785714285715" y="0" dx="0em" dy="0.95em" style="text-anchor: middle; visibility: hidden; font-family: Roboto, sans-serif; font-size: 12px; font-weight: 200;" fill="rgb(33, 33, 33)" stroke="none" stroke-width="1px">2k</text><text x="59.66517857142857" y="0" dx="0em" dy="0.95em" style="text-anchor: middle; visibility: inherit; font-family: Roboto, sans-serif; font-size: 12px; font-weight: 200;" fill="rgb(33, 33, 33)" stroke="none" stroke-width="1px">4k</text><text x="79.55357142857143" y="0" dx="0em" dy="0.95em" style="text-anchor: middle; visibility: hidden; font-family: Roboto, sans-serif; font-size: 12px; font-weight: 200;" fill="rgb(33, 33, 33)" stroke="none" stroke-width="1px">6k</text><text x="99.44196428571429" y="0" dx="0em" dy="0.95em" style="text-anchor: middle; visibility: inherit; font-family: Roboto, sans-serif; font-size: 12px; font-weight: 200;" fill="rgb(33, 33, 33)" stroke="none" stroke-width="1px">8k</text><text x="119.33035714285714" y="0" dx="0em" dy="0.95em" style="text-anchor: middle; visibility: hidden; font-family: Roboto, sans-serif; font-size: 12px; font-weight: 200;" fill="rgb(33, 33, 33)" stroke="none" stroke-width="1px">10k</text><text x="139.21875" y="0" dx="0em" dy="0.95em" style="text-anchor: middle; visibility: inherit; font-family: Roboto, sans-serif; font-size: 12px; font-weight: 200;" fill="rgb(33, 33, 33)" stroke="none" stroke-width="1px">12k</text><text x="159.10714285714286" y="0" dx="0em" dy="0.95em" style="text-anchor: middle; visibility: hidden; font-family: Roboto, sans-serif; font-size: 12px; font-weight: 200;" fill="rgb(33, 33, 33)" stroke="none" stroke-width="1px">14k</text><text x="178.99553571428572" y="0" dx="0em" dy="0.95em" style="text-anchor: middle; visibility: inherit; font-family: Roboto, sans-serif; font-size: 12px; font-weight: 200;" fill="rgb(33, 33, 33)" stroke="none" stroke-width="1px">16k</text><text x="198.88392857142858" y="0" dx="0em" dy="0.95em" style="text-anchor: middle; visibility: hidden; font-family: Roboto, sans-serif; font-size: 12px; font-weight: 200;" fill="rgb(33, 33, 33)" stroke="none" stroke-width="1px">18k</text><text x="218.77232142857142" y="0" dx="0em" dy="0.95em" style="text-anchor: middle; visibility: inherit; font-family: Roboto, sans-serif; font-size: 12px; font-weight: 200;" fill="rgb(33, 33, 33)" stroke="none" stroke-width="1px">20k</text><text x="238.66071428571428" y="0" dx="0em" dy="0.95em" style="text-anchor: middle; visibility: hidden; font-family: Roboto, sans-serif; font-size: 12px; font-weight: 200;" fill="rgb(33, 33, 33)" stroke="none" stroke-width="1px">22k</text><text x="258.54910714285717" y="0" dx="0em" dy="0.95em" style="text-anchor: middle; visibility: inherit; font-family: Roboto, sans-serif; font-size: 12px; font-weight: 200;" fill="rgb(33, 33, 33)" stroke="none" stroke-width="1px">24k</text><text x="278.4375" y="0" dx="0em" dy="0.95em" style="text-anchor: middle; visibility: hidden; font-family: Roboto, sans-serif; font-size: 12px; font-weight: 200;" fill="rgb(33, 33, 33)" stroke="none" stroke-width="1px">26k</text></g><line x1="0" y1="0" x2="278.4375" y2="0" fill="rgb(0, 0, 0)" stroke="rgb(204, 204, 204)" stroke-width="1px"></line></g></g></g></g></svg>