<svg viewBox="0 0 330 200" xmlns="http://www.w3.org/2000/svg"><g><g><g><g><g><line x1="61.953125" y1="177" x2="56.953125" y2="177" style="visibility: inherit;" fill="rgb(0, 0, 0)" stroke="rgb(204, 204, 204)" stroke-width="1px"></line><line x1="61.953125" y1="157.33333333333331" x2="56.953125" y2="157.33333333333331" style="visibility: inherit;" fill="rgb(0, 0, 0)" stroke="rgb(204, 204, 204)" stroke-width="1px"></line><line x1="61.953125" y1="137.66666666666666" x2="56.953125" y2="137.66666666666666" style="visibility: inherit;" fill="rgb(0, 0, 0)" stroke="rgb(204, 204, 204)" stroke-width="1px"></line><line x1="61.953125" y1="118.00000000000001" x2="56.953125" y2="118.00000000000001" style="visibility: inherit;" fill="rgb(0, 0, 0)" stroke="rgb(204, 204, 204)" stroke-width="1px"></line><line x1="61.953125" y1="98.33333333333334" x2="56.953125" y2="98.33333333333334" style="visibility: inherit;" fill="rgb(0, 0, 0)" stroke="rgb(204, 204, 204)" stroke-width="1px"></line><line x1="61.953125" y1="78.66666666666666" x2="56.953125" y2="78.66666666666666" style="visibility: inherit;" fill="rgb(0, 0, 0)" stroke="rgb(204, 204, 204)" stroke-width="1px"></line><line x1="61.953125" y1="58.999999999999986" x2="56.953125" y2="58.999999999999986" style="visibility: inherit;" fill="rgb(0, 0, 0)" stroke="rgb(204, 204, 204)" stroke-width="1px"></line><line x1="61.953125" y1="39.33333333333335" x2="56.953125" y2="39.33333333333335" style="visibility: inherit;" fill="rgb(0, 0, 0)" stroke="rgb(204, 204, 204)" stroke-width="1px"></line><line x1="61.953125" y1="19.666666666666657" x2="56.953125" y2="19.666666666666657" style="visibility: inherit;" fill="rgb(0, 0, 0)" stroke="rgb(204, 204, 204)" stroke-width="1px"></line><line x1="61.953125" y1="0" x2="56.953125" y2="0" style="visibility: inherit;" fill="rgb(0, 0, 0)" stroke="rgb(204, 204, 204)" stroke-width="1px"></line></g><g transform="translate(51.953125, 0)"><text x="0" y="177" dx="0em" dy="0.3em" style="text-anchor: end; visibility: hidden; font-family: Roboto, sans-serif; font-size: 12px; font-weight: 200;" fill="rgb(33, 33, 33)" stroke="none" stroke-width="1px">-5e-3</text><text x="0" y="157.33333333333331" dx="0em" dy="0.3em" style="text-anchor: end; visibility: inherit; font-family: Roboto, sans-serif; font-size: 12px; font-weight: 200;" fill="rgb(33, 33, 33)" stroke="none" stroke-width="1px">0</text><text x="0" y="137.66666666666666" dx="0em" dy="0.3em" style="text-anchor: end; visibility: hidden; font-family: Roboto, sans-serif; font-size: 12px; font-weight: 200;" fill="rgb(33, 33, 33)" stroke="none" stroke-width="1px">5e-3</text><text x="0" y="118.00000000000001" dx="0em" dy="0.3em" style="text-anchor: end; visibility: inherit; font-family: Roboto, sans-serif; font-size: 12px; font-weight: 200;" fill="rgb(33, 33, 33)" stroke="none" stroke-width="1px">0.01</text><text x="0" y="98.33333333333334" dx="0em" dy="0.3em" style="text-anchor: end; visibility: hidden; font-family: Roboto, sans-serif; font-size: 12px; font-weight: 200;" fill="rgb(33, 33, 33)" stroke="none" stroke-width="1px">0.015</text><text x="0" y="78.66666666666666" dx="0em" dy="0.3em" style="text-anchor: end; visibility: inherit; font-family: Roboto, sans-serif; font-size: 12px; font-weight: 200;" fill="rgb(33, 33, 33)" stroke="none" stroke-width="1px">0.02</text><text x="0" y="58.999999999999986" dx="0em" dy="0.3em" style="text-anchor: end; visibility: hidden; font-family: Roboto, sans-serif; font-size: 12px; font-weight: 200;" fill="rgb(33, 33, 33)" stroke="none" stroke-width="1px">0.025</text><text x="0" y="39.33333333333335" dx="0em" dy="0.3em" style="text-anchor: end; visibility: inherit; font-family: Roboto, sans-serif; font-size: 12px; font-weight: 200;" fill="rgb(33, 33, 33)" stroke="none" stroke-width="1px">0.03</text><text x="0" y="19.666666666666657" dx="0em" dy="0.3em" style="text-anchor: end; visibility: hidden; font-family: Roboto, sans-serif; font-size: 12px; font-weight: 200;" fill="rgb(33, 33, 33)" stroke="none" stroke-width="1px">0.035</text><text x="0" y="0" dx="0em" dy="0.3em" style="text-anchor: end; visibility: hidden; font-family: Roboto, sans-serif; font-size: 12px; font-weight: 200;" fill="rgb(33, 33, 33)" stroke="none" stroke-width="1px">0.04</text></g><line x1="61.953125" y1="0" x2="61.953125" y2="177" fill="rgb(0, 0, 0)" stroke="rgb(204, 204, 204)" stroke-width="1px"></line></g></g><g transform="translate(61, 0)" clip-path="url(#clip_0)"><clipPath id="clip_0"><rect width="268" height="176"></rect></clipPath><g><g><g><line x1="0" y1="0" x2="0" y2="177" fill="rgb(0, 0, 0)" stroke="rgb(66, 66, 66)" stroke-width="1px" opacity="0.25"></line><line x1="19.146205357142858" y1="0" x2="19.146205357142858" y2="177" fill="rgb(0, 0, 0)" stroke="rgb(66, 66, 66)" stroke-width="1px" opacity="0.25"></line><line x1="38.292410714285715" y1="0" x2="38.292410714285715" y2="177" fill="rgb(0, 0, 0)" stroke="rgb(66, 66, 66)" stroke-width="1px" opacity="0.25"></line><line x1="57.43861607142857" y1="0" x2="57.43861607142857" y2="177" fill="rgb(0, 0, 0)" stroke="rgb(66, 66, 66)" stroke-width="1px" opacity="0.25"></line><line x1="76.58482142857143" y1="0" x2="76.58482142857143" y2="177" fill="rgb(0, 0, 0)" stroke="rgb(66, 66, 66)" stroke-width="1px" opacity="0.25"></line><line x1="95.73102678571429" y1="0" x2="95.73102678571429" y2="177" fill="rgb(0, 0, 0)" stroke="rgb(66, 66, 66)" stroke-width="1px" opacity="0.25"></line><line x1="114.87723214285714" y1="0" x2="114.87723214285714" y2="177" fill="rgb(0, 0, 0)" stroke="rgb(66, 66, 66)" stroke-width="1px" opacity="0.25"></line><line x1="134.0234375" y1="0" x2="134.0234375" y2="177" fill="rgb(0, 0, 0)" stroke="rgb(66, 66, 66)" stroke-width="1px" opacity="0.25"></line><line x1="153.16964285714286" y1="0" x2="153.16964285714286" y2="177" fill="rgb(0, 0, 0)" stroke="rgb(66, 66, 66)" stroke-width="1px" opacity="0.25"></line><line x1="172.31584821428572" y1="0" x2="172.31584821428572" y2="177" fill="rgb(0, 0, 0)" stroke="rgb(66, 66, 66)" stroke-width="1px" opacity="0.25"></line><line x1="191.46205357142858" y1="0" x2="191.46205357142858" y2="177" fill="rgb(0, 0, 0)" stroke="rgb(66, 66, 66)" stroke-width="1px" opacity="0.25"></line><line x1="210.60825892857142" y1="0" x2="210.60825892857142" y2="177" fill="rgb(0, 0, 0)" stroke="rgb(66, 66, 66)" stroke-width="1px" opacity="0.25"></line><line x1="229.75446428571428" y1="0" x2="229.75446428571428" y2="177" fill="rgb(0, 0, 0)" stroke="rgb(66, 66, 66)" stroke-width="1px" opacity="0.25"></line><line x1="248.90066964285714" y1="0" x2="248.90066964285714" y2="177" fill="rgb(0, 0, 0)" stroke="rgb(66, 66, 66)" stroke-width="1px" opacity="0.25"></line><line x1="268.046875" y1="0" x2="268.046875" y2="177" fill="rgb(0, 0, 0)" stroke="rgb(66, 66, 66)" stroke-width="1px" opacity="0.25"></line></g><g><line x1="0" y1="177" x2="268.046875" y2="177" fill="rgb(0, 0, 0)" stroke="rgb(66, 66, 66)" stroke-width="1px" opacity="0.25"></line><line x1="0" y1="157.33333333333331" x2="268.046875" y2="157.33333333333331" fill="rgb(0, 0, 0)" stroke="rgb(66, 66, 66)" stroke-width="1px" opacity="0.25"></line><line x1="0" y1="137.66666666666666" x2="268.046875" y2="137.66666666666666" fill="rgb(0, 0, 0)" stroke="rgb(66, 66, 66)" stroke-width="1px" opacity="0.25"></line><line x1="0" y1="118.00000000000001" x2="268.046875" y2="118.00000000000001" fill="rgb(0, 0, 0)" stroke="rgb(66, 66, 66)" stroke-width="1px" opacity="0.25"></line><line x1="0" y1="98.33333333333334" x2="268.046875" y2="98.33333333333334" fill="rgb(0, 0, 0)" stroke="rgb(66, 66, 66)" stroke-width="1px" opacity="0.25"></line><line x1="0" y1="78.66666666666666" x2="268.046875" y2="78.66666666666666" fill="rgb(0, 0, 0)" stroke="rgb(66, 66, 66)" stroke-width="1px" opacity="0.25"></line><line x1="0" y1="58.999999999999986" x2="268.046875" y2="58.999999999999986" fill="rgb(0, 0, 0)" stroke="rgb(66, 66, 66)" stroke-width="1px" opacity="0.25"></line><line x1="0" y1="39.33333333333335" x2="268.046875" y2="39.33333333333335" fill="rgb(0, 0, 0)" stroke="rgb(66, 66, 66)" stroke-width="1px" opacity="0.25"></line><line x1="0" y1="19.666666666666657" x2="268.046875" y2="19.666666666666657" fill="rgb(0, 0, 0)" stroke="rgb(66, 66, 66)" stroke-width="1px" opacity="0.25"></line><line x1="0" y1="0" x2="268.046875" y2="0" fill="rgb(0, 0, 0)" stroke="rgb(66, 66, 66)" stroke-width="1px" opacity="0.25"></line></g></g></g><g><g><line x1="0" y1="157.33333333333331" x2="268.046875" y2="157.33333333333331" fill="rgb(0, 0, 0)" stroke="rgb(153, 153, 153)" stroke-width="1.5px"></line></g></g><g><g><line x1="19.146205357142858" y1="0" x2="19.146205357142858" y2="177" fill="rgb(0, 0, 0)" stroke="rgb(153, 153, 153)" stroke-width="1.5px"></line></g></g><g><g><g><g><g><path stroke="rgb(255, 112, 67)" stroke-width="2px" d="M20.103515625,13.61893916130066L21.060825892857142,26.865746586273122L22.018136160714285,11.294680772184527L22.975446428571427,26.711822738524035L23.932756696428573,52.039917269760004L24.890066964285715,53.6218699188933L25.847377232142858,66.00959461572191L26.8046875,77.21306550971153L27.761997767857146,87.07348937848609L28.719308035714285,90.6658089270448L29.676618303571427,94.96090842805329L30.63392857142857,88.08114094257473L31.591238839285715,90.89042469759463L32.548549107142854,103.36650372982169L33.505859375,101.88654133474758L34.46316964285714,101.6305506795452L35.420479910714285,87.7768205328277L36.37779017857142,100.35758301222916L37.33510044642857,101.82434106350038L38.292410714285715,114.4833877088106L39.24972098214286,113.80077953777972L40.20703125,110.14012910242761L41.164341517857146,108.84569819229611L42.121651785714285,116.34040163414107L43.07896205357143,116.46619495724119L44.03627232142857,115.22807057383059L44.99358258928571,116.12851584732967L45.950892857142854,115.8287349287349L46.908203125,118.81023454016481L47.865513392857146,116.7524129918496L48.822823660714285,123.5392922719213L49.78013392857143,116.41438903290576L50.73744419642857,124.26677978756578L51.694754464285715,117.41175186001055L52.652064732142854,113.98933529352422L53.609375,114.20875287577492L54.566685267857146,105.9556443430339L55.52399553571429,118.11074203270165L56.48130580357143,125.94813780206621L57.43861607142857,127.18745868650747L58.395926339285715,128.6147153622293L59.353236607142854,132.0367805336324L60.310546875,131.47982400785145L61.26785714285714,133.35164799700974L62.225167410714285,128.96038649182051L63.18247767857143,130.61413665593366L64.13978794642857,130.15682836708126L65.09709821428571,135.1917368999461L66.05440848214286,131.0079371043281L67.01171875,133.82608876627395L67.96902901785714,134.19203838409192L68.92633928571428,131.31302782664577L69.88364955357143,127.11004488032252L70.84095982142857,124.35375596102499L71.79827008928571,126.79351281235621L72.75558035714285,127.82458596692526L73.712890625,132.24485560317564L74.67020089285714,135.0916484424062L75.62751116071429,137.63740469437386L76.58482142857143,136.94993771367197L77.54213169642858,138.81553112915913L78.49944196428572,141.90523678457797L79.45675223214286,144.44629997499425L80.4140625,144.488330458776L81.37137276785714,145.41138676912138L82.32868303571429,147.06208181223602L83.28599330357143,148.4373378196587L84.24330357142857,148.86943697914856L85.20061383928571,147.37249107128608L86.15792410714286,148.51865076700585L87.115234375,148.80851880394263L88.07254464285714,147.60464666545099L89.02985491071428,147.25248592774892L89.98716517857142,148.7113440728038L90.94447544642857,149.52582507791715L91.90178571428571,150.00442375704702L92.85909598214286,150.22096979820762L93.81640625,150.48587469903052L94.77371651785715,150.9535089058275L95.73102678571429,150.3605298314052L96.68833705357143,151.21542519486292L97.64564732142857,151.86857312278255L98.60295758928572,150.60224475178902L99.56026785714286,150.7310762759623L100.517578125,151.68014476524752L101.47488839285714,152.64170179139748L102.43219866071428,151.1835308780045L103.38950892857143,150.67560498847192L104.34681919642857,150.45784958946382L105.30412946428571,151.31057215455775L106.26143973214285,150.81203173395656L107.21875,152.13097985197354L108.17606026785714,151.88294415017515L109.13337053571429,151.47645309149553L110.09068080357143,151.1679820639153L111.04799107142858,65.53434586657642L112.00530133928572,66.5598927466088L112.96261160714286,74.5706750230797L113.919921875,91.09132042786328L114.87723214285714,101.91868031875798L115.83454241071429,115.08619394167168L116.79185267857143,121.25967961160681L117.74916294642857,122.03434856797264L118.70647321428571,125.6496539621453L119.66378348214286,122.33482067340019L120.62109375,129.19329233797433L121.57840401785714,132.10541785557294L122.53571428571428,134.39227624564901L123.49302455357142,131.02239737309733L124.45033482142857,129.43881321190432L125.40764508928571,134.27497107578495L126.36495535714286,136.97819789872474L127.322265625,138.92883238668782L128.27957589285714,136.66199242656754L129.23688616071428,134.71811689636306L130.19419642857142,136.74864902566588L131.15150669642856,132.7698530359311L132.10881696428572,137.22207016591685L133.06612723214286,138.87529730008717L134.0234375,138.13219525788233L134.98074776785714,140.0501126460672L135.93805803571428,140.31165006830935L136.89536830357142,137.75271915589556L137.85267857142856,139.1963586337057L138.80998883928572,140.38244536628446L139.76729910714286,128.32531111703392L140.724609375,132.26230393310036L141.68191964285714,136.96216290196563L142.63922991071428,139.82050454095474L143.59654017857142,139.75013477489634L144.55385044642856,142.88835408867567L145.5111607142857,144.4639719577998L146.46847098214283,146.10581447843933L147.42578125,146.12592851567797L148.38309151785714,147.30957982559124L149.34040178571428,148.24869931473307L150.29771205357142,147.6446412706413L151.25502232142858,148.70754447156418L152.21233258928572,149.2968987889045L153.16964285714286,149.34986798491798L154.126953125,150.44104133015904L155.08426339285717,143.34543899674833L156.0415736607143,145.78517046633135L156.99888392857144,147.97914762323265L157.95619419642858,148.96032308243312L158.91350446428572,149.56459531855145L159.87081473214286,149.822118353997L160.828125,148.59608613505225L161.78543526785714,149.03786117826954L162.74274553571428,149.0267660043839L163.70005580357144,149.17762402726433L164.65736607142858,150.35539060292078L165.61467633928572,150.98581839625496L166.57198660714286,150.5303227586267L167.529296875,151.29807115479116L168.48660714285714,150.18514830996875L169.44391741071428,150.5537401271678L170.40122767857142,151.2186000256181L171.35853794642856,150.28399188593667L172.31584821428572,150.939269990751L173.27315848214286,150.5863125475668L174.23046875,151.8295174585237L175.18777901785714,151.73833479624216L176.14508928571428,152.33744267247354L177.10239955357142,152.0136610408459L178.05970982142856,151.71632017730676L179.0170200892857,152.44468319234403L179.97433035714283,121.77095862518044L180.931640625,111.0473422008174L181.88895089285714,114.25426171108587L182.84626116071428,113.00017822415334L183.80357142857142,121.06467614351135L184.76088169642858,117.03971959121083L185.71819196428572,123.90494367758664L186.67550223214286,126.22465316820282L187.6328125,126.69919986248894L188.59012276785717,133.2247037187967L189.5474330357143,137.8780855804634L190.50474330357144,137.47241361458808L191.46205357142858,138.23278716168628L192.41936383928572,138.0174298502713L193.37667410714286,139.68451021841423L194.333984375,140.24512766141447L195.29129464285714,140.93517662935707L196.24860491071428,142.86518228140426L197.20591517857144,144.17331431907587L198.16322544642858,144.22451240059038L199.12053571428572,146.58867067351224L200.07784598214286,146.51083053998718L201.03515625,146.85915885082423L201.99246651785714,147.6291539964768L202.94977678571428,148.06234109810148L203.90708705357142,148.01958567919027L204.86439732142856,148.8312900650056L205.82170758928572,149.72290879239947L206.77901785714286,149.3846187981485L207.736328125,149.51783371150603L208.69363839285714,149.17643580370213L209.65094866071428,149.65618286624394L210.60825892857142,149.22448039856457L211.56556919642856,150.10270935939394L212.5228794642857,149.74763613008446L213.48018973214283,149.41172179940136L214.4375,150.08732053965505L215.39481026785714,150.23154988547768L216.35212053571428,151.16965304274225L217.30943080357142,151.40058889550784L218.26674107142858,151.85222377901465L219.22405133928572,152.03739163505648L220.18136160714286,150.7483833438314L221.138671875,151.45414861700874L222.09598214285717,151.3360277067588L223.0532924107143,151.9437563945184L224.01060267857144,152.31257936508436L224.96791294642858,150.84526224847224L225.92522321428572,151.44631670861793L226.88253348214286,150.7693724752179L227.83984375,151.42009085043537L228.79715401785714,152.08585419170123L229.75446428571428,152.60173315589364L230.71177455357144,152.35633688018564L231.66908482142858,151.42632868409163L232.62639508928572,151.16765903134646L233.58370535714286,151.68069637375277L234.541015625,152.24773740181647L235.49832589285714,152.61414567165664L236.45563616071428,152.4671625179038L237.41294642857142,152.78005735915812L238.37025669642856,152.86162001346693L239.32756696428572,149.36872652369826L240.28487723214286,141.9048003263161L241.2421875,133.5195640776685L242.19949776785714,132.48536634618827L243.15680803571428,137.28533405070377L244.11411830357142,140.26256572979614L245.07142857142856,143.3598424274897L246.0287388392857,143.07143243178777L246.98604910714283,144.5787910279138L247.943359375,145.62104185833553L248.90066964285714,147.0203485734603L249.85797991071428,147.03276874109156L250.81529017857142,148.51935519020188L251.77260044642858,149.5912226678854L252.72991071428572,150.70955296619786L253.68722098214286,150.43997033321293L254.64453125,149.97759897192378L255.60184151785717,149.99649275834892L256.5591517857143,150.97095758390745L257.51646205357144,150.88916960237813" style="fill: none;" fill="none"></path></g></g></g></g><g opacity="0.2"><g><g><g><path stroke="rgb(255, 112, 67)" stroke-width="2px" d="M20.103515625,13.61893916130066L21.060825892857142,34.81383104125659L22.018136160714285,-3.6535424093405493L22.975446428571427,44.84238169093927L23.932756696428573,85.10827748974164L24.890066964285715,55.81027993559836L25.847377232142858,83.72423913578191L26.8046875,93.54783362646897L27.761997767857146,101.6156992961963L28.719308035714285,95.999984793365L29.676618303571427,101.36460144321123L30.63392857142857,77.79892910520235L31.591238839285715,95.09517753124237L32.548549107142854,122.05618034054837L33.505859375,99.66833738237618L34.46316964285714,101.24674524118502L35.420479910714285,67.00208774705727L36.37779017857142,119.22553247710069L37.33510044642857,104.02425469458103L38.292410714285715,133.47080058977008L39.24972098214286,112.77690471708773L40.20703125,104.64927390466131L41.164341517857146,106.90407738337912L42.121651785714285,127.5823680150012L43.07896205357143,116.65488404780626L44.03627232142857,113.37088927874962L44.99358258928571,117.47918145358561L45.950892857142854,115.37906401107708L46.908203125,123.28248121092717L47.865513392857146,113.66568180670342L48.822823660714285,133.7196089414259L49.78013392857143,105.72703559199968L50.73744419642857,136.04536498213807L51.694754464285715,107.12921045968929L52.652064732142854,108.85571059087911L53.609375,114.53787924349308L54.566685267857146,93.57598167161146L55.52399553571429,136.3433884543677L56.48130580357143,137.70423141246042L57.43861607142857,129.04644000902772L58.395926339285715,130.75560037295023L59.353236607142854,137.16987828662L60.310546875,130.64438921958208L61.26785714285714,136.15938397993645L62.225167410714285,122.37349423517783L63.18247767857143,133.09476190184554L64.13978794642857,129.47086593384543L65.09709821428571,142.74409969896078L66.05440848214286,124.73223741104205L67.01171875,138.05331625913578L67.96902901785714,134.74096281081438L68.92633928571428,126.9945119904975L69.88364955357143,120.80557046085595L70.84095982142857,120.21932258208594L71.79827008928571,130.45314808934927L72.75558035714285,129.37119569877785L73.712890625,138.87526005754867L74.67020089285714,139.36183770125112L75.62751116071429,141.45603907232484L76.58482142857143,135.9187372426192L77.54213169642858,141.61392125238976L78.49944196428572,146.5397952677061L79.45675223214286,148.25789476061863L80.4140625,144.5513761844486L81.37137276785714,146.79597123463947L82.32868303571429,149.53812437690794L83.28599330357143,150.50022183079273L84.24330357142857,149.5175857183834L85.20061383928571,145.12707220949233L86.15792410714286,150.2378903105855L87.115234375,149.24332085934776L88.07254464285714,145.79883845771352L89.02985491071428,146.7242448211958L89.98716517857142,150.8996312903861L90.94447544642857,150.74754658558717L91.90178571428571,150.72232177574188L92.85909598214286,150.54578885994852L93.81640625,150.88323205026487L94.77371651785715,151.65496021602303L95.73102678571429,149.47106121977168L96.68833705357143,152.49776824004948L97.64564732142857,152.84829501466206L98.60295758928572,148.70275219529867L99.56026785714286,150.9243235622222L100.517578125,153.10374749917537L101.47488839285714,154.0840373306225L102.43219866071428,148.996274507915L103.38950892857143,149.91371615417302L104.34681919642857,150.13121649095166L105.30412946428571,152.58965600219864L106.26143973214285,150.0642211030548L107.21875,154.10940202899897L108.17606026785714,151.51089059747756L109.13337053571429,150.8667165034761L110.09068080357143,150.70527552254498L111.04799107142858,-62.91610842943193L112.00530133928572,68.09821306665738L112.96261160714286,86.5868484377861L113.919921875,115.8722885350386L114.87723214285714,118.15972015510003L115.83454241071429,134.83746437604228L116.79185267857143,130.5199081165095L117.74916294642857,123.19635200252135L118.70647321428571,131.07261205340424L119.66378348214286,117.36257074028252L120.62109375,139.48099983483553L121.57840401785714,136.47360613197088L122.53571428571428,137.8225638307631L123.49302455357142,125.96757906426986L124.45033482142857,127.06343697011471L125.40764508928571,141.52920787160596L126.36495535714286,141.03303813313443L127.322265625,141.85478411863247L128.27957589285714,133.2617324863871L129.23688616071428,131.80230360105634L130.19419642857142,139.79444721962014L131.15150669642856,126.80165905132888L132.10881696428572,143.90039586089551L133.06612723214286,141.35513800134262L134.0234375,137.01754219457507L134.98074776785714,142.92698872834444L135.93805803571428,140.70395620167255L136.89536830357142,133.91432278727493L137.85267857142856,141.36181785042086L138.80998883928572,142.16157546515265L139.76729910714286,110.23960974315801L140.724609375,138.1677931572L141.68191964285714,144.0119513552636L142.63922991071428,144.1080169994384L143.59654017857142,139.64458012580872L144.55385044642856,147.5956830593447L145.5111607142857,146.827398761486L146.46847098214283,148.56857825939855L147.42578125,146.15609957153598L148.38309151785714,149.08505679046115L149.34040178571428,149.6573785484458L150.29771205357142,146.73855420450369L151.25502232142858,150.3018992729485L152.21233258928572,150.18093026491502L153.16964285714286,149.42932177893817L154.126953125,152.07780134802064L155.08426339285717,132.70203549663228L156.0415736607143,149.44476767070591L156.99888392857144,151.27011335858455L157.95619419642858,150.43208627123386L158.91350446428572,150.47100367272893L159.87081473214286,150.20840290716538L160.828125,146.7570378066351L161.78543526785714,149.70052374309552L162.74274553571428,149.01012324355543L163.70005580357144,149.40391106158495L164.65736607142858,152.12204046640545L165.61467633928572,151.93146008625627L166.57198660714286,149.84707930218428L167.529296875,152.4496937490379L168.48660714285714,148.5157640427351L169.44391741071428,151.10662785296637L170.40122767857142,152.21588987329355L171.35853794642856,148.88207967641452L172.31584821428572,151.9221871479725L173.27315848214286,150.0568763827905L174.23046875,153.69432482495904L175.18777901785714,151.60156080281982L176.14508928571428,153.23610448682058L177.10239955357142,151.5279885934045L178.05970982142856,151.27030888199806L179.0170200892857,153.53722771489993L179.97433035714283,75.76037177443503L180.931640625,94.96191756427288L181.88895089285714,119.06464097648859L182.84626116071428,111.11905299375454L183.80357142857142,133.16142302254835L184.76088169642858,111.00228476276L185.71819196428572,134.20277980715036L186.67550223214286,129.70421740412712L187.6328125,127.4110199039181L188.59012276785717,143.01295950325826L189.5474330357143,144.85815837296346L190.50474330357144,136.86390566577515L191.46205357142858,139.37334748233357L192.41936383928572,137.69439388314882L193.37667410714286,142.18513077062866L194.333984375,141.08605382591486L195.29129464285714,141.97025008127093L196.24860491071428,145.76019075947502L197.20591517857144,146.13551237558326L198.16322544642858,144.30130952286223L199.12053571428572,150.13490808289498L200.07784598214286,146.3940703396996L201.03515625,147.38165131707987L201.99246651785714,148.78414671495557L202.94977678571428,148.71212175053856L203.90708705357142,147.95545255082348L204.86439732142856,150.04884664372852L205.82170758928572,151.0603368834903L206.77901785714286,148.87718380677202L207.736328125,149.71765608154237L208.69363839285714,148.66433894199628L209.65094866071428,150.3758034600566L210.60825892857142,148.57692669704556L211.56556919642856,151.420052800638L212.5228794642857,149.2150262861202L213.48018973214283,148.90785030337673L214.4375,151.10071865003556L215.39481026785714,150.44789390421164L216.35212053571428,152.5768077786391L217.30943080357142,151.7469926746562L218.26674107142858,152.5296761042749L219.22405133928572,152.3151434191192L220.18136160714286,148.81487090699375L221.138671875,152.51279652677476L222.09598214285717,151.15884634138393L223.0532924107143,152.85534942615777L224.01060267857144,152.8658138209333L224.96791294642858,148.64428657355407L225.92522321428572,152.34789839883646L226.88253348214286,149.75395612511784L227.83984375,152.39616841326156L228.79715401785714,153.0844992036L229.75446428571428,153.3755516021823L230.71177455357144,151.9882424666236L231.66908482142858,150.03131638995063L232.62639508928572,150.77965455222875L233.58370535714286,152.4502523873622L234.541015625,153.09829894391197L235.49832589285714,153.16375807641697L236.45563616071428,152.2466877872745L237.41294642857142,153.24939962103963L238.37025669642856,152.98396399493018L239.32756696428572,144.12938628904521L240.28487723214286,130.70891103024283L241.2421875,120.94170970469713L242.19949776785714,130.9340697489679L243.15680803571428,144.485285607477L244.11411830357142,144.72841324843466L245.07142857142856,148.00575747403008L246.0287388392857,142.63881743823487L246.98604910714283,146.83982892210284L247.943359375,147.18441810396808L248.90066964285714,149.11930864614743L249.85797991071428,147.05139899253845L250.81529017857142,150.74923486386737L251.77260044642858,151.19902388441065L252.72991071428572,152.38704841366658L253.68722098214286,150.03559638373554L254.64453125,149.28404192999005L255.60184151785717,150.02483343798667L256.5591517857143,152.43265482224524L257.51646205357144,150.76648763008416" style="fill: none;" fill="none"></path></g></g></g></g></g></g><g transform="translate(61, 177)" clip-path="url(#clip_1)"><clipPath id="clip_1"><rect width="268" height="22"></rect></clipPath><g><g><line x1="0" y1="0" x2="0" y2="5" style="visibility: inherit;" fill="rgb(0, 0, 0)" stroke="rgb(204, 204, 204)" stroke-width="1px"></line><line x1="19.146205357142858" y1="0" x2="19.146205357142858" y2="5" style="visibility: inherit;" fill="rgb(0, 0, 0)" stroke="rgb(204, 204, 204)" stroke-width="1px"></line><line x1="38.292410714285715" y1="0" x2="38.292410714285715" y2="5" style="visibility: inherit;" fill="rgb(0, 0, 0)" stroke="rgb(204, 204, 204)" stroke-width="1px"></line><line x1="57.43861607142857" y1="0" x2="57.43861607142857" y2="5" style="visibility: inherit;" fill="rgb(0, 0, 0)" stroke="rgb(204, 204, 204)" stroke-width="1px"></line><line x1="76.58482142857143" y1="0" x2="76.58482142857143" y2="5" style="visibility: inherit;" fill="rgb(0, 0, 0)" stroke="rgb(204, 204, 204)" stroke-width="1px"></line><line x1="95.73102678571429" y1="0" x2="95.73102678571429" y2="5" style="visibility: inherit;" fill="rgb(0, 0, 0)" stroke="rgb(204, 204, 204)" stroke-width="1px"></line><line x1="114.87723214285714" y1="0" x2="114.87723214285714" y2="5" style="visibility: inherit;" fill="rgb(0, 0, 0)" stroke="rgb(204, 204, 204)" stroke-width="1px"></line><line x1="134.0234375" y1="0" x2="134.0234375" y2="5" style="visibility: inherit;" fill="rgb(0, 0, 0)" stroke="rgb(204, 204, 204)" stroke-width="1px"></line><line x1="153.16964285714286" y1="0" x2="153.16964285714286" y2="5" style="visibility: inherit;" fill="rgb(0, 0, 0)" stroke="rgb(204, 204, 204)" stroke-width="1px"></line><line x1="172.31584821428572" y1="0" x2="172.31584821428572" y2="5" style="visibility: inherit;" fill="rgb(0, 0, 0)" stroke="rgb(204, 204, 204)" stroke-width="1px"></line><line x1="191.46205357142858" y1="0" x2="191.46205357142858" y2="5" style="visibility: inherit;" fill="rgb(0, 0, 0)" stroke="rgb(204, 204, 204)" stroke-width="1px"></line><line x1="210.60825892857142" y1="0" x2="210.60825892857142" y2="5" style="visibility: inherit;" fill="rgb(0, 0, 0)" stroke="rgb(204, 204, 204)" stroke-width="1px"></line><line x1="229.75446428571428" y1="0" x2="229.75446428571428" y2="5" style="visibility: inherit;" fill="rgb(0, 0, 0)" stroke="rgb(204, 204, 204)" stroke-width="1px"></line><line x1="248.90066964285714" y1="0" x2="248.90066964285714" y2="5" style="visibility: inherit;" fill="rgb(0, 0, 0)" stroke="rgb(204, 204, 204)" stroke-width="1px"></line><line x1="268.046875" y1="0" x2="268.046875" y2="5" style="visibility: inherit;" fill="rgb(0, 0, 0)" stroke="rgb(204, 204, 204)" stroke-width="1px"></line></g><g transform="translate(0, 8)"><text x="0" y="0" dx="0em" dy="0.95em" style="text-anchor: middle; visibility: hidden; font-family: Roboto, sans-serif; font-size: 12px; font-weight: 200;" fill="rgb(33, 33, 33)" stroke="none" stroke-width="1px">-2k</text><text x="19.146205357142858" y="0" dx="0em" dy="0.95em" style="text-anchor: middle; visibility: inherit; font-family: Roboto, sans-serif; font-size: 12px; font-weight: 200;" fill="rgb(33, 33, 33)" stroke="none" stroke-width="1px">0</text><text x="38.292410714285715" y="0" dx="0em" dy="0.95em" style="text-anchor: middle; visibility: hidden; font-family: Roboto, sans-serif; font-size: 12px; font-weight: 200;" fill="rgb(33, 33, 33)" stroke="none" stroke-width="1px">2k</text><text x="57.43861607142857" y="0" dx="0em" dy="0.95em" style="text-anchor: middle; visibility: inherit; font-family: Roboto, sans-serif; font-size: 12px; font-weight: 200;" fill="rgb(33, 33, 33)" stroke="none" stroke-width="1px">4k</text><text x="76.58482142857143" y="0" dx="0em" dy="0.95em" style="text-anchor: middle; visibility: hidden; font-family: Roboto, sans-serif; font-size: 12px; font-weight: 200;" fill="rgb(33, 33, 33)" stroke="none" stroke-width="1px">6k</text><text x="95.73102678571429" y="0" dx="0em" dy="0.95em" style="text-anchor: middle; visibility: inherit; font-family: Roboto, sans-serif; font-size: 12px; font-weight: 200;" fill="rgb(33, 33, 33)" stroke="none" stroke-width="1px">8k</text><text x="114.87723214285714" y="0" dx="0em" dy="0.95em" style="text-anchor: middle; visibility: hidden; font-family: Roboto, sans-serif; font-size: 12px; font-weight: 200;" fill="rgb(33, 33, 33)" stroke="none" stroke-width="1px">10k</text><text x="134.0234375" y="0" dx="0em" dy="0.95em" style="text-anchor: middle; visibility: inherit; font-family: Roboto, sans-serif; font-size: 12px; font-weight: 200;" fill="rgb(33, 33, 33)" stroke="none" stroke-width="1px">12k</text><text x="153.16964285714286" y="0" dx="0em" dy="0.95em" style="text-anchor: middle; visibility: hidden; font-family: Roboto, sans-serif; font-size: 12px; font-weight: 200;" fill="rgb(33, 33, 33)" stroke="none" stroke-width="1px">14k</text><text x="172.31584821428572" y="0" dx="0em" dy="0.95em" style="text-anchor: middle; visibility: inherit; font-family: Roboto, sans-serif; font-size: 12px; font-weight: 200;" fill="rgb(33, 33, 33)" stroke="none" stroke-width="1px">16k</text><text x="191.46205357142858" y="0" dx="0em" dy="0.95em" style="text-anchor: middle; visibility: hidden; font-family: Roboto, sans-serif; font-size: 12px; font-weight: 200;" fill="rgb(33, 33, 33)" stroke="none" stroke-width="1px">18k</text><text x="210.60825892857142" y="0" dx="0em" dy="0.95em" style="text-anchor: middle; visibility: inherit; font-family: Roboto, sans-serif; font-size: 12px; font-weight: 200;" fill="rgb(33, 33, 33)" stroke="none" stroke-width="1px">20k</text><text x="229.75446428571428" y="0" dx="0em" dy="0.95em" style="text-anchor: middle; visibility: hidden; font-family: Roboto, sans-serif; font-size: 12px; font-weight: 200;" fill="rgb(33, 33, 33)" stroke="none" stroke-width="1px">22k</text><text x="248.90066964285714" y="0" dx="0em" dy="0.95em" style="text-anchor: middle; visibility: inherit; font-family: Roboto, sans-serif; font-size: 12px; font-weight: 200;" fill="rgb(33, 33, 33)" stroke="none" stroke-width="1px">24k</text><text x="268.046875" y="0" dx="0em" dy="0.95em" style="text-anchor: middle; visibility: hidden; font-family: Roboto, sans-serif; font-size: 12px; font-weight: 200;" fill="rgb(33, 33, 33)" stroke="none" stroke-width="1px">26k</text></g><line x1="0" y1="0" x2="268.046875" y2="0" fill="rgb(0, 0, 0)" stroke="rgb(204, 204, 204)" stroke-width="1px"></line></g></g></g></g></svg>